<?xml version="1.0" encoding="UTF-8" standalone="no"?>
<!-- Created with Inkscape (http://www.inkscape.org/) -->

<svg
   xmlns:dc="http://purl.org/dc/elements/1.1/"
   xmlns:cc="http://creativecommons.org/ns#"
   xmlns:rdf="http://www.w3.org/1999/02/22-rdf-syntax-ns#"
   xmlns:svg="http://www.w3.org/2000/svg"
   xmlns="http://www.w3.org/2000/svg"
   xmlns:sodipodi="http://sodipodi.sourceforge.net/DTD/sodipodi-0.dtd"
   xmlns:inkscape="http://www.inkscape.org/namespaces/inkscape"
   width="750"
   height="900"
   viewBox="0 0 749.99998 899.99997"
   id="svg6989"
   version="1.1"
   inkscape:version="0.91 r13725"
   sodipodi:docname="personal-dictionary.svg"
   inkscape:export-filename="/home/aday/checkout/gnome-mockups/spell-checking/personal-dictionary.png"
   inkscape:export-xdpi="90"
   inkscape:export-ydpi="90">
  <defs
     id="defs6991">
    <clipPath
       clipPathUnits="userSpaceOnUse"
       id="clipPath6872">
      <rect
         style="display:inline;fill:#ffffff;fill-opacity:1;stroke:#ffffff;stroke-width:0.9999997;stroke-linecap:square;stroke-miterlimit:4;stroke-dasharray:none;stroke-dashoffset:0;stroke-opacity:1"
         id="rect6874"
         width="419"
         height="403.00006"
         x="-659.49982"
         y="-462.13785" />
    </clipPath>
  </defs>
  <sodipodi:namedview
     id="base"
     pagecolor="#ffffff"
     bordercolor="#666666"
     borderopacity="1.0"
     inkscape:pageopacity="1"
     inkscape:pageshadow="2"
     inkscape:zoom="1"
     inkscape:cx="445.76264"
     inkscape:cy="512.03629"
     inkscape:document-units="px"
     inkscape:current-layer="layer1"
     showgrid="false"
     inkscape:showpageshadow="false"
     fit-margin-top="0"
     fit-margin-left="0"
     fit-margin-right="0"
     fit-margin-bottom="0"
     units="px"
     borderlayer="true"
     inkscape:window-width="1920"
     inkscape:window-height="1136"
     inkscape:window-x="0"
     inkscape:window-y="27"
     inkscape:window-maximized="1"
     inkscape:snap-bbox="true"
     inkscape:bbox-paths="true"
     inkscape:bbox-nodes="true"
     inkscape:snap-nodes="false">
    <inkscape:grid
       type="xygrid"
       id="grid7707" />
  </sodipodi:namedview>
  <metadata
     id="metadata6994">
    <rdf:RDF>
      <cc:Work
         rdf:about="">
        <dc:format>image/svg+xml</dc:format>
        <dc:type
           rdf:resource="http://purl.org/dc/dcmitype/StillImage" />
        <dc:title></dc:title>
      </cc:Work>
    </rdf:RDF>
  </metadata>
  <g
     inkscape:label="Layer 1"
     inkscape:groupmode="layer"
     id="layer1"
     transform="translate(-282.14294,-343.07648)">
    <path
       sodipodi:nodetypes="sssccccss"
       inkscape:connector-curvature="0"
       id="path6638"
       d="m 331.63898,752.57655 401.0153,0 c 4.9856,0 8.9992,4.46 8.9992,10 l 0,37.0033 -8.9992,0 -401.0153,0 -8.9995,0 0,-37.0033 c 0,-5.54 4.0137,-10 8.9995,-10 z"
       style="color:#bebebe;display:inline;overflow:visible;visibility:visible;fill:#f2f2f2;fill-opacity:1;fill-rule:nonzero;stroke:#919191;stroke-width:0.99329859;stroke-opacity:1;marker:none;filter:url(#filter12000-4-9-2);enable-background:accumulate" />
    <rect
       y="799.57648"
       x="322.64301"
       height="403.00006"
       width="419"
       id="rect6640"
       style="display:inline;fill:#eaeaea;fill-opacity:1;stroke:#919191;stroke-width:0.9999997;stroke-linecap:square;stroke-miterlimit:4;stroke-dasharray:none;stroke-dashoffset:0;stroke-opacity:1" />
    <path
       inkscape:connector-curvature="0"
       id="path6642"
       d="m 694.64288,764.57045 0,23.0121"
       style="display:inline;fill:none;stroke:#a7a7a7;stroke-width:0.99999982px;stroke-linecap:round;stroke-linejoin:miter;stroke-opacity:1" />
    <g
       id="g6644"
       transform="translate(650.14438,250.07651)"
       style="display:inline;fill:#888a85">
      <g
         style="display:inline;fill:#888a85"
         id="g6646"
         transform="translate(19,-242)">
        <path
           style="color:#bebebe;font-style:normal;font-variant:normal;font-weight:normal;font-stretch:normal;font-size:medium;line-height:normal;font-family:'Andale Mono';-inkscape-font-specification:'Andale Mono';text-indent:0;text-align:start;text-decoration:none;text-decoration-line:none;letter-spacing:normal;word-spacing:normal;text-transform:none;direction:ltr;block-progression:tb;writing-mode:lr-tb;text-anchor:start;display:inline;overflow:visible;visibility:visible;fill:#888a85;fill-opacity:1;fill-rule:nonzero;stroke:none;stroke-width:1.78124988;marker:none;enable-background:new"
           id="path6648"
           d="m 45,764 1,0 c 0.01037,-1.2e-4 0.02079,-4.6e-4 0.03125,0 0.254951,0.0112 0.50987,0.12858 0.6875,0.3125 L 49,766.59375 51.3125,764.3125 C 51.578125,764.082 51.759172,764.007 52,764 l 1,0 0,1 c 0,0.28647 -0.03434,0.55065 -0.25,0.75 l -2.28125,2.28125 2.25,2.25 C 52.906938,770.46942 52.999992,770.7347 53,771 l 0,1 -1,0 c -0.265301,-10e-6 -0.530586,-0.0931 -0.71875,-0.28125 L 49,769.4375 46.71875,771.71875 C 46.530586,771.90694 46.26529,772 46,772 l -1,0 0,-1 c -3e-6,-0.26529 0.09306,-0.53058 0.28125,-0.71875 l 2.28125,-2.25 L 45.28125,765.75 C 45.070508,765.55537 44.97809,765.28075 45,765 l 0,-1 z"
           inkscape:connector-curvature="0" />
      </g>
    </g>
    <text
       xml:space="preserve"
       style="font-style:normal;font-variant:normal;font-weight:bold;font-stretch:normal;font-size:14px;line-height:125%;font-family:Cantarell;-inkscape-font-specification:'Cantarell Bold';text-align:center;letter-spacing:0px;word-spacing:0px;text-anchor:middle;display:inline;fill:#2e3436;fill-opacity:1;stroke:none"
       x="531.89716"
       y="780.94397"
       id="text6650"
       sodipodi:linespacing="125%"><tspan
         sodipodi:role="line"
         id="tspan6652"
         x="531.89716"
         y="780.94397">Personal Dictionary</tspan></text>
    <text
       sodipodi:linespacing="125%"
       id="text6762"
       y="841.47375"
       x="344.73474"
       style="font-style:normal;font-variant:normal;font-weight:normal;font-stretch:normal;font-size:13.75px;line-height:125%;font-family:Cantarell;-inkscape-font-specification:Cantarell;text-align:start;letter-spacing:0px;word-spacing:0px;text-anchor:start;display:inline;fill:#2e3436;fill-opacity:1;stroke:none"
       xml:space="preserve"><tspan
         y="841.47375"
         x="344.73474"
         id="tspan6764"
         sodipodi:role="line">Add Word</tspan></text>
    <rect
       mask="none"
       style="display:inline;fill:#ffffff;fill-opacity:1;stroke:#a7a7a7;stroke-width:0.99999994;stroke-linecap:square;stroke-miterlimit:4;stroke-dasharray:none;stroke-dashoffset:0;stroke-opacity:1"
       id="rect6766"
       width="241"
       height="27"
       x="414.64282"
       y="823.57654"
       rx="2"
       ry="2" />
    <rect
       inkscape:export-ydpi="90"
       inkscape:export-xdpi="90"
       inkscape:export-filename="/home/lapo.fedora/SparkleShare/gnome-mockups/content selection/content-selection.png"
       ry="3"
       rx="2.9999998"
       y="820.57654"
       x="662.64282"
       height="33"
       width="59"
       id="rect6768"
       style="color:#000000;display:inline;overflow:visible;visibility:visible;opacity:1;fill:#f2f2f2;fill-opacity:1;fill-rule:nonzero;stroke:#adadad;stroke-width:0.99999994;stroke-linecap:butt;stroke-linejoin:miter;stroke-miterlimit:4;stroke-dasharray:none;stroke-dashoffset:0;stroke-opacity:1;marker:none;enable-background:accumulate" />
    <flowRoot
       transform="translate(525.45859,-1375.6338)"
       style="font-style:normal;font-variant:normal;font-weight:normal;font-stretch:normal;font-size:14px;line-height:139.99999762%;font-family:Cantarell;-inkscape-font-specification:Cantarell;text-align:center;letter-spacing:0px;word-spacing:0px;text-anchor:middle;fill:#919191;fill-opacity:1;stroke:none;stroke-width:1px;stroke-linecap:butt;stroke-linejoin:miter;stroke-opacity:1"
       id="flowRoot6770"
       xml:space="preserve"><flowRegion
         id="flowRegion6772"><rect
           style="font-style:normal;font-variant:normal;font-weight:normal;font-stretch:normal;font-family:Cantarell;-inkscape-font-specification:Cantarell;text-align:center;text-anchor:middle;fill:#919191;fill-opacity:1"
           y="2202.0764"
           x="54.09367"
           height="23.334511"
           width="225.92062"
           id="rect6774" /></flowRegion><flowPara
         id="flowPara6776">Add</flowPara></flowRoot>    <g
       transform="translate(982.14283,1260.7143)"
       id="g6854"
       clip-path="url(#clipPath6872)">
      <rect
         y="-386.13776"
         x="-640.5"
         height="468.99997"
         width="380"
         id="rect6654"
         style="display:inline;fill:#ffffff;fill-opacity:1;stroke:#919191;stroke-width:0.99999976;stroke-linecap:round;stroke-miterlimit:4;stroke-dasharray:none;stroke-dashoffset:0;stroke-opacity:1" />
      <text
         xml:space="preserve"
         style="font-style:normal;font-variant:normal;font-weight:normal;font-stretch:normal;font-size:13.75px;line-height:125%;font-family:Cantarell;-inkscape-font-specification:Cantarell;text-align:start;letter-spacing:0px;word-spacing:0px;text-anchor:start;display:inline;fill:#2e3436;fill-opacity:1;stroke:none"
         x="-625.40808"
         y="-50.010391"
         id="text6792"
         sodipodi:linespacing="125%"><tspan
           sodipodi:role="line"
           id="tspan6794"
           x="-625.40808"
           y="-50.010391">adipiscing</tspan></text>
      <text
         xml:space="preserve"
         style="font-style:normal;font-variant:normal;font-weight:normal;font-stretch:normal;font-size:13.75px;line-height:125%;font-family:Cantarell;-inkscape-font-specification:Cantarell;text-align:start;letter-spacing:0px;word-spacing:0px;text-anchor:start;display:inline;fill:#2e3436;fill-opacity:1;stroke:none"
         x="-625.40808"
         y="-89.010452"
         id="text6796"
         sodipodi:linespacing="125%"><tspan
           sodipodi:role="line"
           id="tspan6798"
           x="-625.40808"
           y="-89.010452">consectetur</tspan></text>
      <path
         style="display:inline;fill:none;fill-rule:evenodd;stroke:#d3d7cf;stroke-width:0.99999988px;stroke-linecap:butt;stroke-linejoin:miter;stroke-opacity:1"
         d="m -640,-74.13731 379,0"
         id="path6800"
         inkscape:connector-curvature="0" />
      <path
         inkscape:connector-curvature="0"
         id="path6802"
         d="m -640,-113.13731 379,0"
         style="display:inline;fill:none;fill-rule:evenodd;stroke:#d3d7cf;stroke-width:0.99999988px;stroke-linecap:butt;stroke-linejoin:miter;stroke-opacity:1" />
      <path
         style="display:inline;fill:none;fill-rule:evenodd;stroke:#d3d7cf;stroke-width:0.99999988px;stroke-linecap:butt;stroke-linejoin:miter;stroke-opacity:1"
         d="m -640,-35.13731 379,0"
         id="path6804"
         inkscape:connector-curvature="0" />
      <g
         style="display:inline;fill:#888a85"
         transform="translate(-351.99845,-619.63719)"
         id="g6806">
        <g
           transform="translate(19,-242)"
           id="g6808"
           style="display:inline;fill:#888a85">
          <path
             inkscape:connector-curvature="0"
             d="m 45,764 1,0 c 0.01037,-1.2e-4 0.02079,-4.6e-4 0.03125,0 0.254951,0.0112 0.50987,0.12858 0.6875,0.3125 L 49,766.59375 51.3125,764.3125 C 51.578125,764.082 51.759172,764.007 52,764 l 1,0 0,1 c 0,0.28647 -0.03434,0.55065 -0.25,0.75 l -2.28125,2.28125 2.25,2.25 C 52.906938,770.46942 52.999992,770.7347 53,771 l 0,1 -1,0 c -0.265301,-10e-6 -0.530586,-0.0931 -0.71875,-0.28125 L 49,769.4375 46.71875,771.71875 C 46.530586,771.90694 46.26529,772 46,772 l -1,0 0,-1 c -3e-6,-0.26529 0.09306,-0.53058 0.28125,-0.71875 l 2.28125,-2.25 L 45.28125,765.75 C 45.070508,765.55537 44.97809,765.28075 45,765 l 0,-1 z"
             id="path6810"
             style="color:#bebebe;font-style:normal;font-variant:normal;font-weight:normal;font-stretch:normal;font-size:medium;line-height:normal;font-family:'Andale Mono';-inkscape-font-specification:'Andale Mono';text-indent:0;text-align:start;text-decoration:none;text-decoration-line:none;letter-spacing:normal;word-spacing:normal;text-transform:none;direction:ltr;block-progression:tb;writing-mode:lr-tb;text-anchor:start;display:inline;overflow:visible;visibility:visible;fill:#888a85;fill-opacity:1;fill-rule:nonzero;stroke:none;stroke-width:1.78124988;marker:none;enable-background:new" />
        </g>
      </g>
      <g
         id="g6812"
         transform="translate(-351.99845,-580.63719)"
         style="display:inline;fill:#888a85">
        <g
           style="display:inline;fill:#888a85"
           id="g6814"
           transform="translate(19,-242)">
          <path
             style="color:#bebebe;font-style:normal;font-variant:normal;font-weight:normal;font-stretch:normal;font-size:medium;line-height:normal;font-family:'Andale Mono';-inkscape-font-specification:'Andale Mono';text-indent:0;text-align:start;text-decoration:none;text-decoration-line:none;letter-spacing:normal;word-spacing:normal;text-transform:none;direction:ltr;block-progression:tb;writing-mode:lr-tb;text-anchor:start;display:inline;overflow:visible;visibility:visible;fill:#888a85;fill-opacity:1;fill-rule:nonzero;stroke:none;stroke-width:1.78124988;marker:none;enable-background:new"
             id="path6816"
             d="m 45,764 1,0 c 0.01037,-1.2e-4 0.02079,-4.6e-4 0.03125,0 0.254951,0.0112 0.50987,0.12858 0.6875,0.3125 L 49,766.59375 51.3125,764.3125 C 51.578125,764.082 51.759172,764.007 52,764 l 1,0 0,1 c 0,0.28647 -0.03434,0.55065 -0.25,0.75 l -2.28125,2.28125 2.25,2.25 C 52.906938,770.46942 52.999992,770.7347 53,771 l 0,1 -1,0 c -0.265301,-10e-6 -0.530586,-0.0931 -0.71875,-0.28125 L 49,769.4375 46.71875,771.71875 C 46.530586,771.90694 46.26529,772 46,772 l -1,0 0,-1 c -3e-6,-0.26529 0.09306,-0.53058 0.28125,-0.71875 l 2.28125,-2.25 L 45.28125,765.75 C 45.070508,765.55537 44.97809,765.28075 45,765 l 0,-1 z"
             inkscape:connector-curvature="0" />
        </g>
      </g>
    </g>
    <text
       xml:space="preserve"
       style="font-style:normal;font-variant:normal;font-weight:normal;font-stretch:normal;font-size:13.75px;line-height:125%;font-family:Cantarell;-inkscape-font-specification:Cantarell;text-align:start;letter-spacing:0px;word-spacing:0px;text-anchor:start;display:inline;fill:#2e3436;fill-opacity:1;stroke:none"
       x="356.73474"
       y="898.70325"
       id="text6656"
       sodipodi:linespacing="125%"><tspan
         sodipodi:role="line"
         id="tspan6658"
         x="356.73474"
         y="898.70325">lorem</tspan></text>
    <text
       sodipodi:linespacing="125%"
       id="text6664"
       y="976.70355"
       x="356.73474"
       style="font-style:normal;font-variant:normal;font-weight:normal;font-stretch:normal;font-size:13.75px;line-height:125%;font-family:Cantarell;-inkscape-font-specification:Cantarell;text-align:start;letter-spacing:0px;word-spacing:0px;text-anchor:start;display:inline;fill:#2e3436;fill-opacity:1;stroke:none"
       xml:space="preserve"><tspan
         y="976.70355"
         x="356.73474"
         id="tspan6666"
         sodipodi:role="line">dolor</tspan></text>
    <text
       xml:space="preserve"
       style="font-style:normal;font-variant:normal;font-weight:normal;font-stretch:normal;font-size:13.75px;line-height:125%;font-family:Cantarell;-inkscape-font-specification:Cantarell;text-align:start;letter-spacing:0px;word-spacing:0px;text-anchor:start;display:inline;fill:#2e3436;fill-opacity:1;stroke:none"
       x="356.73474"
       y="1015.7036"
       id="text6668"
       sodipodi:linespacing="125%"><tspan
         sodipodi:role="line"
         id="tspan6670"
         x="356.73474"
         y="1015.7036">sit</tspan></text>
    <text
       sodipodi:linespacing="125%"
       id="text6680"
       y="937.70325"
       x="356.73474"
       style="font-style:normal;font-variant:normal;font-weight:normal;font-stretch:normal;font-size:13.75px;line-height:125%;font-family:Cantarell;-inkscape-font-specification:Cantarell;text-align:start;letter-spacing:0px;word-spacing:0px;text-anchor:start;display:inline;fill:#2e3436;fill-opacity:1;stroke:none"
       xml:space="preserve"><tspan
         y="937.70325"
         x="356.73474"
         id="tspan6682"
         sodipodi:role="line">ipsum</tspan></text>
    <path
       inkscape:connector-curvature="0"
       id="path6684"
       d="m 342.14283,952.57639 379,0"
       style="display:inline;fill:none;fill-rule:evenodd;stroke:#d3d7cf;stroke-width:0.99999988px;stroke-linecap:butt;stroke-linejoin:miter;stroke-opacity:1" />
    <path
       style="display:inline;fill:none;fill-rule:evenodd;stroke:#d3d7cf;stroke-width:0.99999988px;stroke-linecap:butt;stroke-linejoin:miter;stroke-opacity:1"
       d="m 342.14283,913.57651 379,0"
       id="path6686"
       inkscape:connector-curvature="0" />
    <path
       inkscape:connector-curvature="0"
       id="path6692"
       d="m 342.14283,991.57651 379,0"
       style="display:inline;fill:none;fill-rule:evenodd;stroke:#d3d7cf;stroke-width:0.99999988px;stroke-linecap:butt;stroke-linejoin:miter;stroke-opacity:1" />
    <text
       sodipodi:linespacing="125%"
       id="text6694"
       y="1054.7037"
       x="356.73474"
       style="font-style:normal;font-variant:normal;font-weight:normal;font-stretch:normal;font-size:13.75px;line-height:125%;font-family:Cantarell;-inkscape-font-specification:Cantarell;text-align:start;letter-spacing:0px;word-spacing:0px;text-anchor:start;display:inline;fill:#2e3436;fill-opacity:1;stroke:none"
       xml:space="preserve"><tspan
         y="1054.7037"
         x="356.73474"
         id="tspan6696"
         sodipodi:role="line">amet</tspan></text>
    <text
       xml:space="preserve"
       style="font-style:normal;font-variant:normal;font-weight:normal;font-stretch:normal;font-size:13.75px;line-height:125%;font-family:Cantarell;-inkscape-font-specification:Cantarell;text-align:start;letter-spacing:0px;word-spacing:0px;text-anchor:start;display:inline;fill:#2e3436;fill-opacity:1;stroke:none"
       x="356.73474"
       y="1132.7039"
       id="text6702"
       sodipodi:linespacing="125%"><tspan
         sodipodi:role="line"
         id="tspan6704"
         x="356.73474"
         y="1132.7039">adipiscing</tspan></text>
    <text
       xml:space="preserve"
       style="font-style:normal;font-variant:normal;font-weight:normal;font-stretch:normal;font-size:13.75px;line-height:125%;font-family:Cantarell;-inkscape-font-specification:Cantarell;text-align:start;letter-spacing:0px;word-spacing:0px;text-anchor:start;display:inline;fill:#2e3436;fill-opacity:1;stroke:none"
       x="356.73474"
       y="1093.7039"
       id="text6710"
       sodipodi:linespacing="125%"><tspan
         sodipodi:role="line"
         id="tspan6712"
         x="356.73474"
         y="1093.7039">consectetur</tspan></text>
    <path
       style="display:inline;fill:none;fill-rule:evenodd;stroke:#d3d7cf;stroke-width:0.99999988px;stroke-linecap:butt;stroke-linejoin:miter;stroke-opacity:1"
       d="m 342.14283,1108.577 379,0"
       id="path6714"
       inkscape:connector-curvature="0" />
    <path
       inkscape:connector-curvature="0"
       id="path6716"
       d="m 342.14283,1069.577 379,0"
       style="display:inline;fill:none;fill-rule:evenodd;stroke:#d3d7cf;stroke-width:0.99999988px;stroke-linecap:butt;stroke-linejoin:miter;stroke-opacity:1" />
    <path
       style="display:inline;fill:none;fill-rule:evenodd;stroke:#d3d7cf;stroke-width:0.99999988px;stroke-linecap:butt;stroke-linejoin:miter;stroke-opacity:1"
       d="m 342.14283,1030.5768 379,0"
       id="path6724"
       inkscape:connector-curvature="0" />
    <g
       style="display:inline;fill:#888a85"
       transform="translate(630.14438,407.07661)"
       id="g6726">
      <g
         transform="translate(19,-242)"
         id="g6728"
         style="display:inline;fill:#888a85">
        <path
           inkscape:connector-curvature="0"
           d="m 45,764 1,0 c 0.01037,-1.2e-4 0.02079,-4.6e-4 0.03125,0 0.254951,0.0112 0.50987,0.12858 0.6875,0.3125 L 49,766.59375 51.3125,764.3125 C 51.578125,764.082 51.759172,764.007 52,764 l 1,0 0,1 c 0,0.28647 -0.03434,0.55065 -0.25,0.75 l -2.28125,2.28125 2.25,2.25 C 52.906938,770.46942 52.999992,770.7347 53,771 l 0,1 -1,0 c -0.265301,-10e-6 -0.530586,-0.0931 -0.71875,-0.28125 L 49,769.4375 46.71875,771.71875 C 46.530586,771.90694 46.26529,772 46,772 l -1,0 0,-1 c -3e-6,-0.26529 0.09306,-0.53058 0.28125,-0.71875 l 2.28125,-2.25 L 45.28125,765.75 C 45.070508,765.55537 44.97809,765.28075 45,765 l 0,-1 z"
           id="path6730"
           style="color:#bebebe;font-style:normal;font-variant:normal;font-weight:normal;font-stretch:normal;font-size:medium;line-height:normal;font-family:'Andale Mono';-inkscape-font-specification:'Andale Mono';text-indent:0;text-align:start;text-decoration:none;text-decoration-line:none;letter-spacing:normal;word-spacing:normal;text-transform:none;direction:ltr;block-progression:tb;writing-mode:lr-tb;text-anchor:start;display:inline;overflow:visible;visibility:visible;fill:#888a85;fill-opacity:1;fill-rule:nonzero;stroke:none;stroke-width:1.78124988;marker:none;enable-background:new" />
      </g>
    </g>
    <g
       id="g6732"
       transform="translate(630.14438,446.07661)"
       style="display:inline;fill:#888a85">
      <g
         style="display:inline;fill:#888a85"
         id="g6734"
         transform="translate(19,-242)">
        <path
           style="color:#bebebe;font-style:normal;font-variant:normal;font-weight:normal;font-stretch:normal;font-size:medium;line-height:normal;font-family:'Andale Mono';-inkscape-font-specification:'Andale Mono';text-indent:0;text-align:start;text-decoration:none;text-decoration-line:none;letter-spacing:normal;word-spacing:normal;text-transform:none;direction:ltr;block-progression:tb;writing-mode:lr-tb;text-anchor:start;display:inline;overflow:visible;visibility:visible;fill:#888a85;fill-opacity:1;fill-rule:nonzero;stroke:none;stroke-width:1.78124988;marker:none;enable-background:new"
           id="path6736"
           d="m 45,764 1,0 c 0.01037,-1.2e-4 0.02079,-4.6e-4 0.03125,0 0.254951,0.0112 0.50987,0.12858 0.6875,0.3125 L 49,766.59375 51.3125,764.3125 C 51.578125,764.082 51.759172,764.007 52,764 l 1,0 0,1 c 0,0.28647 -0.03434,0.55065 -0.25,0.75 l -2.28125,2.28125 2.25,2.25 C 52.906938,770.46942 52.999992,770.7347 53,771 l 0,1 -1,0 c -0.265301,-10e-6 -0.530586,-0.0931 -0.71875,-0.28125 L 49,769.4375 46.71875,771.71875 C 46.530586,771.90694 46.26529,772 46,772 l -1,0 0,-1 c -3e-6,-0.26529 0.09306,-0.53058 0.28125,-0.71875 l 2.28125,-2.25 L 45.28125,765.75 C 45.070508,765.55537 44.97809,765.28075 45,765 l 0,-1 z"
           inkscape:connector-curvature="0" />
      </g>
    </g>
    <g
       id="g6738"
       transform="translate(630.14438,485.07671)"
       style="display:inline;fill:#888a85">
      <g
         style="display:inline;fill:#888a85"
         id="g6740"
         transform="translate(19,-242)">
        <path
           style="color:#bebebe;font-style:normal;font-variant:normal;font-weight:normal;font-stretch:normal;font-size:medium;line-height:normal;font-family:'Andale Mono';-inkscape-font-specification:'Andale Mono';text-indent:0;text-align:start;text-decoration:none;text-decoration-line:none;letter-spacing:normal;word-spacing:normal;text-transform:none;direction:ltr;block-progression:tb;writing-mode:lr-tb;text-anchor:start;display:inline;overflow:visible;visibility:visible;fill:#888a85;fill-opacity:1;fill-rule:nonzero;stroke:none;stroke-width:1.78124988;marker:none;enable-background:new"
           id="path6742"
           d="m 45,764 1,0 c 0.01037,-1.2e-4 0.02079,-4.6e-4 0.03125,0 0.254951,0.0112 0.50987,0.12858 0.6875,0.3125 L 49,766.59375 51.3125,764.3125 C 51.578125,764.082 51.759172,764.007 52,764 l 1,0 0,1 c 0,0.28647 -0.03434,0.55065 -0.25,0.75 l -2.28125,2.28125 2.25,2.25 C 52.906938,770.46942 52.999992,770.7347 53,771 l 0,1 -1,0 c -0.265301,-10e-6 -0.530586,-0.0931 -0.71875,-0.28125 L 49,769.4375 46.71875,771.71875 C 46.530586,771.90694 46.26529,772 46,772 l -1,0 0,-1 c -3e-6,-0.26529 0.09306,-0.53058 0.28125,-0.71875 l 2.28125,-2.25 L 45.28125,765.75 C 45.070508,765.55537 44.97809,765.28075 45,765 l 0,-1 z"
           inkscape:connector-curvature="0" />
      </g>
    </g>
    <g
       style="display:inline;fill:#888a85"
       transform="translate(630.14438,524.07701)"
       id="g6744">
      <g
         transform="translate(19,-242)"
         id="g6746"
         style="display:inline;fill:#888a85">
        <path
           inkscape:connector-curvature="0"
           d="m 45,764 1,0 c 0.01037,-1.2e-4 0.02079,-4.6e-4 0.03125,0 0.254951,0.0112 0.50987,0.12858 0.6875,0.3125 L 49,766.59375 51.3125,764.3125 C 51.578125,764.082 51.759172,764.007 52,764 l 1,0 0,1 c 0,0.28647 -0.03434,0.55065 -0.25,0.75 l -2.28125,2.28125 2.25,2.25 C 52.906938,770.46942 52.999992,770.7347 53,771 l 0,1 -1,0 c -0.265301,-10e-6 -0.530586,-0.0931 -0.71875,-0.28125 L 49,769.4375 46.71875,771.71875 C 46.530586,771.90694 46.26529,772 46,772 l -1,0 0,-1 c -3e-6,-0.26529 0.09306,-0.53058 0.28125,-0.71875 l 2.28125,-2.25 L 45.28125,765.75 C 45.070508,765.55537 44.97809,765.28075 45,765 l 0,-1 z"
           id="path6748"
           style="color:#bebebe;font-style:normal;font-variant:normal;font-weight:normal;font-stretch:normal;font-size:medium;line-height:normal;font-family:'Andale Mono';-inkscape-font-specification:'Andale Mono';text-indent:0;text-align:start;text-decoration:none;text-decoration-line:none;letter-spacing:normal;word-spacing:normal;text-transform:none;direction:ltr;block-progression:tb;writing-mode:lr-tb;text-anchor:start;display:inline;overflow:visible;visibility:visible;fill:#888a85;fill-opacity:1;fill-rule:nonzero;stroke:none;stroke-width:1.78124988;marker:none;enable-background:new" />
      </g>
    </g>
    <g
       style="display:inline;fill:#888a85"
       transform="translate(630.14438,563.07711)"
       id="g6750">
      <g
         transform="translate(19,-242)"
         id="g6752"
         style="display:inline;fill:#888a85">
        <path
           inkscape:connector-curvature="0"
           d="m 45,764 1,0 c 0.01037,-1.2e-4 0.02079,-4.6e-4 0.03125,0 0.254951,0.0112 0.50987,0.12858 0.6875,0.3125 L 49,766.59375 51.3125,764.3125 C 51.578125,764.082 51.759172,764.007 52,764 l 1,0 0,1 c 0,0.28647 -0.03434,0.55065 -0.25,0.75 l -2.28125,2.28125 2.25,2.25 C 52.906938,770.46942 52.999992,770.7347 53,771 l 0,1 -1,0 c -0.265301,-10e-6 -0.530586,-0.0931 -0.71875,-0.28125 L 49,769.4375 46.71875,771.71875 C 46.530586,771.90694 46.26529,772 46,772 l -1,0 0,-1 c -3e-6,-0.26529 0.09306,-0.53058 0.28125,-0.71875 l 2.28125,-2.25 L 45.28125,765.75 C 45.070508,765.55537 44.97809,765.28075 45,765 l 0,-1 z"
           id="path6754"
           style="color:#bebebe;font-style:normal;font-variant:normal;font-weight:normal;font-stretch:normal;font-size:medium;line-height:normal;font-family:'Andale Mono';-inkscape-font-specification:'Andale Mono';text-indent:0;text-align:start;text-decoration:none;text-decoration-line:none;letter-spacing:normal;word-spacing:normal;text-transform:none;direction:ltr;block-progression:tb;writing-mode:lr-tb;text-anchor:start;display:inline;overflow:visible;visibility:visible;fill:#888a85;fill-opacity:1;fill-rule:nonzero;stroke:none;stroke-width:1.78124988;marker:none;enable-background:new" />
      </g>
    </g>
    <g
       id="g6756"
       transform="translate(630.14438,602.07711)"
       style="display:inline;fill:#888a85">
      <g
         style="display:inline;fill:#888a85"
         id="g6758"
         transform="translate(19,-242)">
        <path
           style="color:#bebebe;font-style:normal;font-variant:normal;font-weight:normal;font-stretch:normal;font-size:medium;line-height:normal;font-family:'Andale Mono';-inkscape-font-specification:'Andale Mono';text-indent:0;text-align:start;text-decoration:none;text-decoration-line:none;letter-spacing:normal;word-spacing:normal;text-transform:none;direction:ltr;block-progression:tb;writing-mode:lr-tb;text-anchor:start;display:inline;overflow:visible;visibility:visible;fill:#888a85;fill-opacity:1;fill-rule:nonzero;stroke:none;stroke-width:1.78124988;marker:none;enable-background:new"
           id="path6760"
           d="m 45,764 1,0 c 0.01037,-1.2e-4 0.02079,-4.6e-4 0.03125,0 0.254951,0.0112 0.50987,0.12858 0.6875,0.3125 L 49,766.59375 51.3125,764.3125 C 51.578125,764.082 51.759172,764.007 52,764 l 1,0 0,1 c 0,0.28647 -0.03434,0.55065 -0.25,0.75 l -2.28125,2.28125 2.25,2.25 C 52.906938,770.46942 52.999992,770.7347 53,771 l 0,1 -1,0 c -0.265301,-10e-6 -0.530586,-0.0931 -0.71875,-0.28125 L 49,769.4375 46.71875,771.71875 C 46.530586,771.90694 46.26529,772 46,772 l -1,0 0,-1 c -3e-6,-0.26529 0.09306,-0.53058 0.28125,-0.71875 l 2.28125,-2.25 L 45.28125,765.75 C 45.070508,765.55537 44.97809,765.28075 45,765 l 0,-1 z"
           inkscape:connector-curvature="0" />
      </g>
    </g>
    <g
       id="g6848"
       transform="translate(630.14438,368.07661)"
       style="display:inline;fill:#888a85">
      <g
         style="display:inline;fill:#888a85"
         id="g6850"
         transform="translate(19,-242)">
        <path
           style="color:#bebebe;font-style:normal;font-variant:normal;font-weight:normal;font-stretch:normal;font-size:medium;line-height:normal;font-family:'Andale Mono';-inkscape-font-specification:'Andale Mono';text-indent:0;text-align:start;text-decoration:none;text-decoration-line:none;letter-spacing:normal;word-spacing:normal;text-transform:none;direction:ltr;block-progression:tb;writing-mode:lr-tb;text-anchor:start;display:inline;overflow:visible;visibility:visible;fill:#888a85;fill-opacity:1;fill-rule:nonzero;stroke:none;stroke-width:1.78124988;marker:none;enable-background:new"
           id="path6852"
           d="m 45,764 1,0 c 0.01037,-1.2e-4 0.02079,-4.6e-4 0.03125,0 0.254951,0.0112 0.50987,0.12858 0.6875,0.3125 L 49,766.59375 51.3125,764.3125 C 51.578125,764.082 51.759172,764.007 52,764 l 1,0 0,1 c 0,0.28647 -0.03434,0.55065 -0.25,0.75 l -2.28125,2.28125 2.25,2.25 C 52.906938,770.46942 52.999992,770.7347 53,771 l 0,1 -1,0 c -0.265301,-10e-6 -0.530586,-0.0931 -0.71875,-0.28125 L 49,769.4375 46.71875,771.71875 C 46.530586,771.90694 46.26529,772 46,772 l -1,0 0,-1 c -3e-6,-0.26529 0.09306,-0.53058 0.28125,-0.71875 l 2.28125,-2.25 L 45.28125,765.75 C 45.070508,765.55537 44.97809,765.28075 45,765 l 0,-1 z"
           inkscape:connector-curvature="0" />
      </g>
    </g>
    <flowRoot
       xml:space="preserve"
       id="flowRoot6882"
       style="font-style:normal;font-weight:normal;font-size:40px;line-height:125%;font-family:sans-serif;letter-spacing:0px;word-spacing:0px;fill:#2e3436;fill-opacity:1;stroke:none;stroke-width:1px;stroke-linecap:butt;stroke-linejoin:miter;stroke-opacity:1"
       transform="translate(1002.1428,-1706.9235)"><flowRegion
         id="flowRegion6884"><rect
           id="rect6886"
           width="215"
           height="110"
           x="-223"
           y="2585"
           style="fill:#2e3436" /></flowRegion><flowPara
         id="flowPara6888"
         style="font-style:normal;font-variant:normal;font-weight:normal;font-stretch:normal;font-size:13.75px;font-family:Cantarell;-inkscape-font-specification:Cantarell;fill:#2e3436">Words are listed in order of most recently added.</flowPara></flowRoot>    <flowRoot
       transform="translate(1002.1428,-1646.9235)"
       style="font-style:normal;font-weight:normal;font-size:40px;line-height:125%;font-family:sans-serif;letter-spacing:0px;word-spacing:0px;fill:#2e3436;fill-opacity:1;stroke:none;stroke-width:1px;stroke-linecap:butt;stroke-linejoin:miter;stroke-opacity:1"
       id="flowRoot6890"
       xml:space="preserve"><flowRegion
         id="flowRegion6892"><rect
           y="2585"
           x="-223"
           height="110"
           width="215"
           id="rect6894"
           style="fill:#2e3436" /></flowRegion><flowPara
         style="font-style:normal;font-variant:normal;font-weight:normal;font-stretch:normal;font-size:13.75px;font-family:Cantarell;-inkscape-font-specification:Cantarell;fill:#2e3436"
         id="flowPara6896">Only words that have been manually added to the dictionary are shown in the list.</flowPara></flowRoot>    <path
       sodipodi:nodetypes="scccssssssss"
       inkscape:connector-curvature="0"
       id="path8356"
       d="m 668.64316,510.60745 -125.27262,0 -14.1986,-14 -14.1986,14 -128.3304,0 c -4.986,0 -9,4.014 -9,9 l 0,135.96905 c 0,4.986 4.014,9 9,9 l 282.00022,0 c 4.986,0 9,-4.014 9,-9 l 0,-135.96905 c 0,-4.986 -4.014,-9 -9,-9 z"
       style="display:inline;fill:#f2f2f2;fill-opacity:1;stroke:#a7aba7;stroke-width:1;stroke-linecap:square;stroke-linejoin:miter;stroke-miterlimit:4;stroke-dasharray:none;stroke-opacity:1" />
    <flowRoot
       xml:space="preserve"
       id="flowRoot8373"
       style="font-style:normal;font-weight:normal;font-size:40px;line-height:125%;font-family:sans-serif;letter-spacing:0px;word-spacing:0px;fill:#000000;fill-opacity:1;stroke:none;stroke-width:1px;stroke-linecap:butt;stroke-linejoin:miter;stroke-opacity:1"
       transform="translate(1090.1429,577.07648)"><flowRegion
         id="flowRegion8375"><rect
           id="rect8377"
           width="535"
           height="276"
           x="-767"
           y="-188" /></flowRegion><flowPara
         id="flowPara8379"
         style="font-style:normal;font-variant:normal;font-weight:normal;font-stretch:normal;font-size:13.75px;line-height:139.99999762%;font-family:Cantarell;-inkscape-font-specification:Cantarell;fill:#2e3436">Lorem ipsum dolor sit amet, consectetur adipiscing elit. Aliquam porta placerat fermentum. Vivamus vulputate tellus in ultricies ultrices. In et accumsan sapien, ut tempor sem. Donec tincidunt semper diam, ut tempor sem rutrum ut. Sed auctor eu purus id fringilla. Lorem ipsum dolor sit amet, consectetur adipiscing elit. Duis fermentum tempor eros, ut condimentum lacus fringilla sit amet. Suspendisse potenti. </flowPara></flowRoot>    <path
       style="fill:none;fill-rule:evenodd;stroke:#4a90d9;stroke-width:1px;stroke-linecap:round;stroke-linejoin:round;stroke-opacity:1"
       d="m 490.64887,485.57011 3,-2 1,2 3,-2 1,2 3,-2 1,2 3,-2 1,2 3,-2 1,2 3,-2 1,2 3,-2 1,2"
       id="path8383"
       inkscape:connector-curvature="0"
       sodipodi:nodetypes="ccccccccccccccc" />
    <path
       sodipodi:nodetypes="ccccccccccccccc"
       inkscape:connector-curvature="0"
       id="path8385"
       d="m 518.64887,485.57011 3,-2 1,2 3,-2 1,2 3,-2 1,2 3,-2 1,2 3,-2 1,2 3,-2 1,2 3,-2 1,2"
       style="fill:none;fill-rule:evenodd;stroke:#4a90d9;stroke-width:1px;stroke-linecap:round;stroke-linejoin:round;stroke-opacity:1" />
    <path
       style="fill:none;fill-rule:evenodd;stroke:#4a90d9;stroke-width:1px;stroke-linecap:round;stroke-linejoin:round;stroke-opacity:1"
       d="m 546.64887,485.57011 3,-2 1,2 3,-2 1,2 3,-2 1,2 3,-2 1,2 3,-2 1,2 3,-2 1,2"
       id="path8387"
       inkscape:connector-curvature="0"
       sodipodi:nodetypes="ccccccccccccc" />
    <path
       sodipodi:nodetypes="ccccccccccccccc"
       inkscape:connector-curvature="0"
       id="path8391"
       d="m 444.64887,446.57011 3,-2 1,2 3,-2 1,2 3,-2 1,2 3,-2 1,2 3,-2 1,2 3,-2 1,2 3,-2 1,2"
       style="fill:none;fill-rule:evenodd;stroke:#4a90d9;stroke-width:1px;stroke-linecap:round;stroke-linejoin:round;stroke-opacity:1" />
    <path
       style="fill:none;fill-rule:evenodd;stroke:#4a90d9;stroke-width:1px;stroke-linecap:round;stroke-linejoin:round;stroke-opacity:1"
       d="m 472.64887,446.57011 3,-2 1,2 3,-2 1,2 3,-2 1,2 3,-2 1,2 3,-2 1,2 3,-2 1,2"
       id="path8393"
       inkscape:connector-curvature="0"
       sodipodi:nodetypes="ccccccccccccc" />
    <path
       style="fill:none;fill-rule:evenodd;stroke:#4a90d9;stroke-width:1px;stroke-linecap:round;stroke-linejoin:round;stroke-opacity:1"
       d="m 562.64887,427.57011 3,-2 1,2 3,-2 1,2 3,-2 1,2 3,-2 1,2 3,-2 1,2 3,-2 1,2 3,-2 1,2"
       id="path8397"
       inkscape:connector-curvature="0"
       sodipodi:nodetypes="ccccccccccccccc" />
    <path
       sodipodi:nodetypes="ccccccccccc"
       inkscape:connector-curvature="0"
       id="path8399"
       d="m 590.64887,427.57011 3,-2 1,2 3,-2 1,2 3,-2 1,2 3,-2 1,2 3,-2 1,2"
       style="fill:none;fill-rule:evenodd;stroke:#4a90d9;stroke-width:1px;stroke-linecap:round;stroke-linejoin:round;stroke-opacity:1" />
    <flowRoot
       xml:space="preserve"
       id="flowRoot8401"
       style="font-style:normal;font-weight:normal;font-size:40px;line-height:125%;font-family:sans-serif;letter-spacing:0px;word-spacing:0px;fill:#000000;fill-opacity:1;stroke:none;stroke-width:1px;stroke-linecap:butt;stroke-linejoin:miter;stroke-opacity:1"
       transform="translate(948.14294,497.07648)"><flowRegion
         id="flowRegion8403"><rect
           id="rect8405"
           width="273"
           height="146"
           x="-551"
           y="31" /></flowRegion><flowPara
         id="flowPara8407"
         style="font-style:normal;font-variant:normal;font-weight:normal;font-stretch:normal;font-size:13.75px;font-family:Cantarell;-inkscape-font-specification:Cantarell;fill:#2e3436">condiment um</flowPara></flowRoot>    <flowRoot
       transform="translate(948.14294,522.07648)"
       style="font-style:normal;font-weight:normal;font-size:40px;line-height:125%;font-family:sans-serif;letter-spacing:0px;word-spacing:0px;fill:#000000;fill-opacity:1;stroke:none;stroke-width:1px;stroke-linecap:butt;stroke-linejoin:miter;stroke-opacity:1"
       id="flowRoot8409"
       xml:space="preserve"><flowRegion
         id="flowRegion8411"><rect
           y="31"
           x="-551"
           height="146"
           width="273"
           id="rect8413" /></flowRegion><flowPara
         style="font-style:normal;font-variant:normal;font-weight:normal;font-stretch:normal;font-size:13.75px;font-family:Cantarell;-inkscape-font-specification:Cantarell;fill:#2e3436"
         id="flowPara8415">condiment-um</flowPara></flowRoot>    <flowRoot
       xml:space="preserve"
       id="flowRoot8417"
       style="font-style:normal;font-weight:normal;font-size:40px;line-height:125%;font-family:sans-serif;letter-spacing:0px;word-spacing:0px;fill:#000000;fill-opacity:1;stroke:none;stroke-width:1px;stroke-linecap:butt;stroke-linejoin:miter;stroke-opacity:1"
       transform="translate(948.14294,547.07648)"><flowRegion
         id="flowRegion8419"><rect
           id="rect8421"
           width="273"
           height="146"
           x="-551"
           y="31" /></flowRegion><flowPara
         id="flowPara8423"
         style="font-style:normal;font-variant:normal;font-weight:normal;font-stretch:normal;font-size:13.75px;font-family:Cantarell;-inkscape-font-specification:Cantarell;fill:#2e3436">condiment</flowPara></flowRoot>    <flowRoot
       transform="translate(948.14294,589.07648)"
       style="font-style:normal;font-weight:normal;font-size:40px;line-height:125%;font-family:sans-serif;letter-spacing:0px;word-spacing:0px;fill:#000000;fill-opacity:1;stroke:none;stroke-width:1px;stroke-linecap:butt;stroke-linejoin:miter;stroke-opacity:1"
       id="flowRoot8425"
       xml:space="preserve"><flowRegion
         id="flowRegion8427"><rect
           y="31"
           x="-551"
           height="146"
           width="273"
           id="rect8429" /></flowRegion><flowPara
         style="font-style:normal;font-variant:normal;font-weight:normal;font-stretch:normal;font-size:13.75px;font-family:Cantarell;-inkscape-font-specification:Cantarell;fill:#2e3436"
         id="flowPara8431">Add “condimentum” to personal dictionary</flowPara></flowRoot>    <flowRoot
       transform="translate(930.1428,-2042.9235)"
       style="font-style:normal;font-weight:normal;font-size:40px;line-height:125%;font-family:sans-serif;letter-spacing:0px;word-spacing:0px;fill:#2e3436;fill-opacity:1;stroke:none;stroke-width:1px;stroke-linecap:butt;stroke-linejoin:miter;stroke-opacity:1"
       id="flowRoot8433"
       xml:space="preserve"><flowRegion
         id="flowRegion8435"><rect
           style="fill:#2e3436"
           y="2585"
           x="-223"
           height="110"
           width="215"
           id="rect8437" /></flowRegion><flowPara
         style="font-style:normal;font-variant:normal;font-weight:normal;font-stretch:normal;font-size:13.75px;font-family:Cantarell;-inkscape-font-specification:Cantarell;fill:#2e3436"
         id="flowPara8439">Spelling suggestions are listed at the top of the context menu.</flowPara></flowRoot>    <flowRoot
       transform="translate(1002.1428,-1826.9235)"
       style="font-style:normal;font-weight:normal;font-size:40px;line-height:125%;font-family:sans-serif;letter-spacing:0px;word-spacing:0px;fill:#2e3436;fill-opacity:1;stroke:none;stroke-width:1px;stroke-linecap:butt;stroke-linejoin:miter;stroke-opacity:1"
       id="flowRoot8441"
       xml:space="preserve"><flowRegion
         id="flowRegion8443"><rect
           style="fill:#2e3436"
           y="2585"
           x="-223"
           height="110"
           width="215"
           id="rect8445" /></flowRegion><flowPara
         style="font-style:normal;font-variant:normal;font-weight:normal;font-stretch:normal;font-size:13.75px;font-family:Cantarell;-inkscape-font-specification:Cantarell;fill:#2e3436"
         id="flowPara8447">Personal dictionary can be opened from within the app.</flowPara></flowRoot>    <path
       style="fill:none;fill-rule:evenodd;stroke:#dbdbdb;stroke-width:1px;stroke-linecap:butt;stroke-linejoin:miter;stroke-opacity:1"
       d="m 396.64305,608.57647 262,0"
       id="path8449"
       inkscape:connector-curvature="0" />
  </g>
</svg>
