<?xml version="1.0" encoding="UTF-8" standalone="no"?>
<!-- Created with Inkscape (http://www.inkscape.org/) -->

<svg
   xmlns:dc="http://purl.org/dc/elements/1.1/"
   xmlns:cc="http://creativecommons.org/ns#"
   xmlns:rdf="http://www.w3.org/1999/02/22-rdf-syntax-ns#"
   xmlns:svg="http://www.w3.org/2000/svg"
   xmlns="http://www.w3.org/2000/svg"
   xmlns:sodipodi="http://sodipodi.sourceforge.net/DTD/sodipodi-0.dtd"
   xmlns:inkscape="http://www.inkscape.org/namespaces/inkscape"
   width="1000"
   height="800"
   id="svg23344"
   version="1.1"
   inkscape:version="0.48.4 r9939"
   sodipodi:docname="New document 17">
  <defs
     id="defs23346" />
  <sodipodi:namedview
     id="base"
     pagecolor="#ffffff"
     bordercolor="#666666"
     borderopacity="1.0"
     inkscape:pageopacity="0.0"
     inkscape:pageshadow="2"
     inkscape:zoom="1"
     inkscape:cx="543.68903"
     inkscape:cy="433.4188"
     inkscape:document-units="px"
     inkscape:current-layer="layer1"
     showgrid="false"
     inkscape:snap-bbox="true"
     inkscape:snap-nodes="false"
     inkscape:window-width="1920"
     inkscape:window-height="1134"
     inkscape:window-x="0"
     inkscape:window-y="27"
     inkscape:window-maximized="1">
    <inkscape:grid
       type="xygrid"
       id="grid23565"
       empspacing="5"
       visible="true"
       enabled="true"
       snapvisiblegridlinesonly="true" />
  </sodipodi:namedview>
  <metadata
     id="metadata23349">
    <rdf:RDF>
      <cc:Work
         rdf:about="">
        <dc:format>image/svg+xml</dc:format>
        <dc:type
           rdf:resource="http://purl.org/dc/dcmitype/StillImage" />
        <dc:title></dc:title>
      </cc:Work>
    </rdf:RDF>
  </metadata>
  <g
     inkscape:label="Layer 1"
     inkscape:groupmode="layer"
     id="layer1"
     transform="translate(0,-252.36215)">
    <rect
       style="fill:#2e3436;fill-opacity:1;fill-rule:evenodd;stroke:#888a85;stroke-width:1;stroke-linecap:square;stroke-miterlimit:4;stroke-opacity:1;stroke-dasharray:none;stroke-dashoffset:0;display:inline"
       id="rect23024"
       width="807"
       height="528.99994"
       x="70.50013"
       y="472.86224" />
    <path
       sodipodi:nodetypes="sssccccss"
       inkscape:connector-curvature="0"
       id="path23026"
       d="m 79.5,425.86227 789,0 c 4.986,0 9,4.01397 9,9 l 0,38 -9,0 -789,0 -9,0 0,-38 c 0,-4.986 4.014,-9 9,-9 z"
       style="fill:#555753;fill-opacity:1;fill-rule:evenodd;stroke:#888a85;stroke-width:1;stroke-linecap:square;stroke-miterlimit:4;stroke-opacity:1;stroke-dashoffset:0;display:inline" />
    <g
       style="fill:#eeeeec;display:inline"
       transform="translate(846.0016,441.36234)"
       id="g23028">
      <g
         transform="translate(-60,-518)"
         id="g23030"
         style="fill:#eeeeec;display:inline" />
      <g
         style="fill:#eeeeec"
         transform="translate(-60,-518)"
         id="g23032" />
      <g
         style="fill:#eeeeec"
         transform="translate(-60,-518)"
         id="g23034" />
      <g
         style="fill:#eeeeec"
         transform="translate(-60,-518)"
         id="g23036">
        <g
           transform="translate(19,-242)"
           id="g23038"
           style="fill:#eeeeec;display:inline">
          <path
             inkscape:connector-curvature="0"
             d="m 45,764 1,0 c 0.01037,-1.2e-4 0.02079,-4.6e-4 0.03125,0 0.254951,0.0112 0.50987,0.12858 0.6875,0.3125 L 49,766.59375 51.3125,764.3125 C 51.578125,764.082 51.759172,764.007 52,764 l 1,0 0,1 c 0,0.28647 -0.03434,0.55065 -0.25,0.75 l -2.28125,2.28125 2.25,2.25 C 52.906938,770.46942 52.999992,770.7347 53,771 l 0,1 -1,0 c -0.265301,-10e-6 -0.530586,-0.0931 -0.71875,-0.28125 L 49,769.4375 46.71875,771.71875 C 46.530586,771.90694 46.26529,772 46,772 l -1,0 0,-1 c -3e-6,-0.26529 0.09306,-0.53058 0.28125,-0.71875 l 2.28125,-2.25 L 45.28125,765.75 C 45.070508,765.55537 44.97809,765.28075 45,765 l 0,-1 z"
             id="path23040"
             style="font-size:medium;font-style:normal;font-variant:normal;font-weight:normal;font-stretch:normal;text-indent:0;text-align:start;text-decoration:none;line-height:normal;letter-spacing:normal;word-spacing:normal;text-transform:none;direction:ltr;block-progression:tb;writing-mode:lr-tb;text-anchor:start;color:#bebebe;fill:#eeeeec;fill-opacity:1;fill-rule:nonzero;stroke:none;stroke-width:1.78124988;marker:none;visibility:visible;display:inline;overflow:visible;enable-background:new;font-family:Andale Mono;-inkscape-font-specification:Andale Mono" />
        </g>
      </g>
      <g
         style="fill:#eeeeec"
         transform="translate(-60,-518)"
         id="g23042" />
      <g
         style="fill:#eeeeec"
         transform="translate(-60,-518)"
         id="g23044" />
      <g
         style="fill:#eeeeec"
         transform="translate(-60,-518)"
         id="g23046" />
    </g>
    <path
       inkscape:connector-curvature="0"
       id="path23048"
       d="m 830.5032,437.71269 0,23.29916"
       style="fill:#888a85;stroke:#888a85;stroke-width:1;stroke-linecap:round;stroke-linejoin:miter;stroke-miterlimit:4;stroke-opacity:1;stroke-dasharray:none;display:inline" />
    <g
       style="fill:#babdb6;display:inline"
       transform="translate(86.4064,441.34012)"
       id="g23050">
      <g
         transform="translate(-121.00015,-667)"
         id="g23052"
         inkscape:label="status"
         style="fill:#babdb6;display:inline" />
      <g
         style="fill:#babdb6"
         transform="translate(-121.00015,-667)"
         id="g23054"
         inkscape:label="devices" />
      <g
         style="fill:#babdb6"
         transform="translate(-121.00015,-667)"
         id="g23056"
         inkscape:label="apps" />
      <g
         style="fill:#babdb6"
         transform="translate(-121.00015,-667)"
         id="g23058"
         inkscape:label="places" />
      <g
         style="fill:#babdb6"
         transform="translate(-121.00015,-667)"
         id="g23060"
         inkscape:label="mimetypes" />
      <g
         transform="translate(-121.00015,-667)"
         id="g23062"
         inkscape:label="emblems"
         style="fill:#babdb6;display:inline" />
      <g
         transform="translate(-121.00015,-667)"
         id="g23064"
         inkscape:label="emotes"
         style="fill:#babdb6;display:inline" />
      <g
         transform="translate(-121.00015,-667)"
         id="g23066"
         inkscape:label="categories"
         style="fill:#babdb6;display:inline" />
      <g
         transform="translate(-121.00015,-667)"
         id="g23068"
         inkscape:label="actions"
         style="fill:#babdb6;display:inline">
        <path
           d="m 125,673 0,2 6.5,0 c 0.84027,0 1.5,0.65973 1.5,1.5 0,0.84027 -0.65973,1.5 -1.5,1.5 l -0.5,0 0,2 0.5,0 c 1.92115,0 3.5,-1.57885 3.5,-3.5 0,-1.92115 -1.57885,-3.5 -3.5,-3.5 l -6.5,0 z"
           id="path23070"
           inkscape:connector-curvature="0"
           style="font-size:medium;font-style:normal;font-variant:normal;font-weight:normal;font-stretch:normal;text-indent:0;text-align:start;text-decoration:none;line-height:normal;letter-spacing:normal;word-spacing:normal;text-transform:none;direction:ltr;block-progression:tb;writing-mode:lr-tb;text-anchor:start;baseline-shift:baseline;color:#000000;fill:#babdb6;fill-opacity:1;stroke:none;stroke-width:2;marker:none;visibility:visible;display:inline;overflow:visible;enable-background:accumulate;font-family:Sans;-inkscape-font-specification:Sans" />
        <path
           sodipodi:nodetypes="ccccccccccccc"
           d="m 128,670.0221 0,1 c 0,0.25689 -0.12983,0.52846 -0.3125,0.71875 l -2.28125,2.28125 2.28125,2.28125 c 0.18267,0.19029 0.3125,0.46186 0.3125,0.71875 l 0,1 -1,0 c -0.30945,0 -0.55232,-0.0903 -0.75,-0.28125 l -3.65625,-3.71875 3.65625,-3.71875 c 0.19768,-0.19095 0.44055,-0.28125 0.75,-0.28125 z"
           id="path23072"
           inkscape:connector-curvature="0"
           style="font-size:medium;font-style:normal;font-variant:normal;font-weight:normal;font-stretch:normal;text-indent:0;text-align:start;text-decoration:none;line-height:normal;letter-spacing:normal;word-spacing:normal;text-transform:none;direction:ltr;block-progression:tb;writing-mode:lr-tb;text-anchor:start;color:#bebebe;fill:#babdb6;fill-opacity:1;stroke:none;stroke-width:2;marker:none;visibility:visible;display:inline;overflow:visible;enable-background:accumulate;font-family:Bitstream Vera Sans;-inkscape-font-specification:Bitstream Vera Sans" />
      </g>
    </g>
    <text
       sodipodi:linespacing="125%"
       id="text23074"
       y="454.22028"
       x="473.68115"
       style="font-size:14px;font-style:normal;font-variant:normal;font-weight:bold;font-stretch:normal;text-align:center;line-height:125%;letter-spacing:0px;word-spacing:0px;text-anchor:middle;fill:#eeeeec;fill-opacity:1;stroke:none;display:inline;font-family:Cantarell;-inkscape-font-specification:Sans Bold"
       xml:space="preserve"><tspan
         y="454.22028"
         x="473.68115"
         id="tspan23076"
         sodipodi:role="line">A Photo</tspan></text>
    <rect
       ry="4"
       rx="4"
       y="432.86224"
       x="77.50013"
       height="33"
       width="33"
       id="rect23078"
       style="fill:#555753;fill-opacity:1;fill-rule:evenodd;stroke:#888a85;stroke-width:1;stroke-linecap:square;stroke-miterlimit:4;stroke-opacity:1;stroke-dasharray:none;stroke-dashoffset:0;display:inline" />
    <rect
       y="954.86218"
       x="70.50013"
       height="47"
       width="807"
       id="rect23080"
       style="fill:#2e3436;fill-opacity:0.43317973;fill-rule:evenodd;stroke:#888a85;stroke-width:1;stroke-linecap:square;stroke-miterlimit:4;stroke-opacity:1;stroke-dasharray:none;stroke-dashoffset:0;display:inline" />
    <rect
       transform="scale(-1,-1)"
       ry="4"
       rx="4"
       y="-994.86218"
       x="-315.5"
       height="33"
       width="33"
       id="rect23082"
       style="fill:#888a85;fill-opacity:1;fill-rule:evenodd;stroke:#888a85;stroke-width:1;stroke-linecap:square;stroke-miterlimit:4;stroke-opacity:1;stroke-dasharray:none;stroke-dashoffset:0;display:inline" />
    <rect
       style="fill:#555753;fill-opacity:1;fill-rule:evenodd;stroke:#888a85;stroke-width:1;stroke-linecap:square;stroke-miterlimit:4;stroke-opacity:1;stroke-dasharray:none;stroke-dashoffset:0;display:inline"
       id="rect23084"
       width="116.5"
       height="33"
       x="-195"
       y="-994.86218"
       rx="3.9999998"
       ry="4"
       transform="scale(-1,-1)" />
    <path
       style="fill:#555753;fill-opacity:1;stroke:#888a85;stroke-width:1;stroke-linecap:round;stroke-miterlimit:4;stroke-opacity:1;display:inline"
       d="m 395.5,951.86227 -82,0 -14,12 -12,-12 -92,0 c -3.324,0 -6,-2.676 -6,-6 l 0,-125.00005 c 0,-3.3239 2.676,-6 6,-6 l 200,0 c 3.324,0 6,2.6761 6,6 l 0,125.00005 c 0,3.324 -2.676,6 -6,6 z"
       id="path23086"
       inkscape:connector-curvature="0"
       sodipodi:nodetypes="scccssssssss" />
    <text
       sodipodi:linespacing="200%"
       id="text23088"
       y="845.81708"
       x="204.05031"
       style="font-size:14px;font-style:normal;font-variant:normal;font-weight:normal;font-stretch:normal;text-align:start;line-height:200%;letter-spacing:0px;word-spacing:0px;text-anchor:start;fill:#eeeeec;fill-opacity:1;stroke:none;display:inline;font-family:Cantarell;-inkscape-font-specification:Cantarell"
       xml:space="preserve"><tspan
         y="845.81708"
         x="204.05031"
         sodipodi:role="line"
         id="tspan23090">Open with Image Viewer</tspan><tspan
         id="tspan23092"
         y="873.81708"
         x="204.05031"
         sodipodi:role="line">Display On...</tspan><tspan
         id="tspan23094"
         y="901.81708"
         x="204.05031"
         sodipodi:role="line">Set as Background</tspan><tspan
         id="tspan23096"
         y="929.81708"
         x="204.05031"
         sodipodi:role="line">Properties</tspan></text>
    <text
       sodipodi:linespacing="125%"
       id="text23098"
       y="983.2132"
       x="94.491447"
       style="font-size:14px;font-style:normal;font-variant:normal;font-weight:normal;font-stretch:normal;text-align:start;line-height:125%;letter-spacing:0px;word-spacing:0px;text-anchor:start;fill:#eeeeec;fill-opacity:1;stroke:none;display:inline;font-family:Cantarell;-inkscape-font-specification:Cantarell"
       xml:space="preserve"><tspan
         y="983.2132"
         x="94.491447"
         id="tspan23100"
         sodipodi:role="line">Add to Album</tspan></text>
    <rect
       style="fill:#555753;fill-opacity:1;fill-rule:evenodd;stroke:#888a85;stroke-width:1;stroke-linecap:square;stroke-miterlimit:4;stroke-opacity:1;stroke-dasharray:none;stroke-dashoffset:0;display:inline"
       id="rect23102"
       width="33"
       height="33"
       x="-869.5"
       y="-994.86218"
       rx="4"
       ry="4"
       transform="scale(-1,-1)" />
    <g
       style="fill:#eeeeec;display:inline"
       transform="translate(845.5,970.36219)"
       id="g23104">
      <g
         id="g23106"
         inkscape:label="status"
         style="fill:#eeeeec;display:inline"
         transform="translate(-481.0002,-175)" />
      <g
         style="fill:#eeeeec"
         id="g23108"
         inkscape:label="devices"
         transform="translate(-481.0002,-175)" />
      <g
         style="fill:#eeeeec"
         id="g23110"
         inkscape:label="apps"
         transform="translate(-481.0002,-175)" />
      <g
         style="fill:#eeeeec"
         id="g23112"
         inkscape:label="places"
         transform="translate(-481.0002,-175)">
        <path
           inkscape:connector-curvature="0"
           d="m 484.0002,180 0,9 9,0 0,-9 2,0 0,9 c 0,2 -2,2 -2,2 l -9,0 c -2,0 -2,-2 -2,-2 l 0,-9 z m 4.00001,1 1.00002,0 0,6 -1.00002,0 z m 2,0 1.00002,0 0,6 -1.00002,0 z m -4,0 0.99999,0 0,6 -0.99999,0 z m -1.00001,-6 c -2,0 -2,2 -2,2 l -2,0 0,2 15,0 0,-2 -2,0 c 0,-2 -2,-2 -2,-2 l -7,0 z m 0,1 7,0 0,1 -7,0 0,-1 z"
           id="path23114"
           style="fill:#eeeeec;fill-opacity:1;stroke:none" />
      </g>
      <g
         style="fill:#eeeeec"
         id="g23116"
         inkscape:label="mimetypes"
         transform="translate(-481.0002,-175)" />
      <g
         id="g23118"
         inkscape:label="emblems"
         style="fill:#eeeeec;display:inline"
         transform="translate(-481.0002,-175)" />
      <g
         id="g23120"
         inkscape:label="emotes"
         style="fill:#eeeeec;display:inline"
         transform="translate(-481.0002,-175)" />
      <g
         id="g23122"
         inkscape:label="categories"
         style="fill:#eeeeec;display:inline"
         transform="translate(-481.0002,-175)" />
      <g
         id="g23124"
         inkscape:label="actions"
         style="fill:#eeeeec;display:inline"
         transform="translate(-481.0002,-175)" />
    </g>
    <rect
       transform="scale(-1,-1)"
       ry="4"
       rx="4"
       y="-994.86218"
       x="-275.5"
       height="33"
       width="33"
       id="rect23126"
       style="fill:#555753;fill-opacity:1;fill-rule:evenodd;stroke:#888a85;stroke-width:1;stroke-linecap:square;stroke-miterlimit:4;stroke-opacity:1;stroke-dasharray:none;stroke-dashoffset:0;display:inline" />
    <g
       style="fill:#eeeeec;display:inline"
       transform="translate(251.01068,970.94431)"
       id="g23128">
      <g
         inkscape:label="status"
         transform="translate(-41.000202,-397)"
         id="g23130"
         style="fill:#eeeeec;display:inline">
        <g
           style="fill:#eeeeec"
           inkscape:label="folder-remote"
           transform="translate(-186.9996,-599)"
           id="g23132" />
        <path
           sodipodi:cy="180.96373"
           sodipodi:r2="3.8276224"
           transform="matrix(1.0472113,-0.00871584,0.00871584,1.0472113,-504.35434,220.15425)"
           inkscape:rounded="0.2104596"
           inkscape:flatsided="false"
           inkscape:transform-center-x="-0.0094346789"
           inkscape:transform-center-y="-0.69491065"
           d="m 530.9488,186.70897 c -0.77941,0.55189 -3.15759,-1.90601 -4.11253,-1.9179 -0.95532,-0.0119 -3.39494,2.38585 -4.16096,1.8149 -0.76573,-0.57072 0.83698,-3.59203 0.55319,-4.50391 -0.2839,-0.91223 -3.31818,-2.49151 -3.01189,-3.39647 0.30617,-0.90461 3.67487,-0.31399 4.45442,-0.86567 0.77986,-0.5519 1.3442,-3.92569 2.29952,-3.91404 0.95494,0.0116 1.43421,3.39798 2.19979,3.9689 0.76588,0.57114 4.14893,0.0653 4.43307,0.97746 0.28402,0.9118 -2.78848,2.41405 -3.09488,3.31858 -0.30652,0.90489 1.21999,3.96605 0.44027,4.51815 z"
           id="path23134"
           sodipodi:type="star"
           sodipodi:arg1="0.95492637"
           sodipodi:r1="7.0383992"
           style="color:#000000;fill:#eeeeec;fill-opacity:1;fill-rule:nonzero;stroke:none;stroke-width:2;marker:none;visibility:visible;display:inline;overflow:visible;enable-background:accumulate"
           sodipodi:arg2="1.5829876"
           inkscape:randomized="0"
           sodipodi:cx="526.88293"
           sodipodi:sides="5" />
      </g>
      <g
         style="fill:#eeeeec"
         inkscape:label="devices"
         transform="translate(-41.000202,-397)"
         id="g23136" />
      <g
         style="fill:#eeeeec"
         inkscape:label="apps"
         transform="translate(-41.000202,-397)"
         id="g23138" />
      <g
         style="fill:#eeeeec"
         inkscape:label="actions"
         transform="translate(-41.000202,-397)"
         id="g23140" />
      <g
         style="fill:#eeeeec"
         inkscape:label="places"
         transform="translate(-41.000202,-397)"
         id="g23142" />
      <g
         style="fill:#eeeeec"
         inkscape:label="mimetypes"
         transform="translate(-41.000202,-397)"
         id="g23144" />
      <g
         inkscape:label="emblems"
         transform="translate(-41.000202,-397)"
         id="g23146"
         style="fill:#eeeeec;display:inline" />
      <g
         inkscape:label="categories"
         transform="translate(-41.000202,-397)"
         id="g23148"
         style="fill:#eeeeec;display:inline" />
    </g>
    <rect
       style="fill:#555753;fill-opacity:1;fill-rule:evenodd;stroke:#888a85;stroke-width:1;stroke-linecap:square;stroke-miterlimit:4;stroke-opacity:1;stroke-dasharray:none;stroke-dashoffset:0;display:inline"
       id="rect23150"
       width="33"
       height="33"
       x="-235.5"
       y="-994.86218"
       rx="4"
       ry="4"
       transform="scale(-1,-1)" />
    <g
       style="fill:#eeeeec;display:inline"
       transform="translate(210.99998,970.86219)"
       id="g23152">
      <g
         inkscape:label="status"
         transform="translate(-142,-338)"
         id="g23154"
         style="fill:#eeeeec;display:inline" />
      <g
         style="fill:#eeeeec"
         inkscape:label="devices"
         transform="translate(-142,-338)"
         id="g23156">
        <g
           style="fill:#eeeeec"
           inkscape:label="accessories-calculator"
           transform="translate(94,-60)"
           id="g23158" />
        <g
           style="fill:#eeeeec"
           inkscape:label="Layer 1"
           transform="translate(142,338)"
           id="g23160">
          <path
             inkscape:connector-curvature="0"
             d="M 2,4 C 1.5,4 1,4.5 1,5 l 0,4 c 0,0.5 0.5,1 1,1 l 1,0 0,-2 10,0 0,2 1,0 c 0.5,0 1,-0.5 1,-1 L 15,5 C 15,4.5 14.5,4 14,4 L 2,4 z"
             id="path23162"
             sodipodi:nodetypes="ccccccccccccc"
             style="fill:#eeeeec;fill-opacity:1;stroke:none" />
          <path
             inkscape:connector-curvature="0"
             d="M 4,1 4,3 12,3 12,1 4,1 z"
             id="path23164"
             sodipodi:nodetypes="ccccc"
             style="fill:#eeeeec;fill-opacity:1;stroke:none" />
          <path
             inkscape:connector-curvature="0"
             d="M 4,9.0000001 4,14 l 8,0 0,-5 -8,10e-8 z M 5,10 l 6,0 0,1 -6,0 0,-1 z m 0,2 5,0 0,1 -5,0 0,-1 z"
             id="path23166"
             sodipodi:nodetypes="ccccccccccccccc"
             style="fill:#eeeeec;fill-opacity:1;stroke:none" />
        </g>
      </g>
      <g
         style="fill:#eeeeec"
         inkscape:label="apps"
         transform="translate(-142,-338)"
         id="g23168" />
      <g
         style="fill:#eeeeec"
         inkscape:label="actions"
         transform="translate(-142,-338)"
         id="g23170" />
      <g
         style="fill:#eeeeec"
         inkscape:label="places"
         transform="translate(-142,-338)"
         id="g23172" />
      <g
         style="fill:#eeeeec"
         inkscape:label="mimetypes"
         transform="translate(-142,-338)"
         id="g23174" />
      <g
         style="fill:#eeeeec"
         inkscape:label="emblems"
         transform="translate(-142,-338)"
         id="g23176" />
    </g>
    <g
       style="fill:#eeeeec;display:inline"
       transform="translate(291.00018,970.36219)"
       id="g23178">
      <g
         id="g23180"
         inkscape:label="status"
         style="fill:#eeeeec;display:inline"
         transform="translate(-121.0004,-867)" />
      <g
         style="fill:#eeeeec"
         id="g23182"
         inkscape:label="devices"
         transform="translate(-121.0004,-867)" />
      <g
         style="fill:#eeeeec"
         id="g23184"
         inkscape:label="apps"
         transform="translate(-121.0004,-867)" />
      <g
         style="fill:#eeeeec"
         id="g23186"
         inkscape:label="places"
         transform="translate(-121.0004,-867)" />
      <g
         style="fill:#eeeeec"
         id="g23188"
         inkscape:label="mimetypes"
         transform="translate(-121.0004,-867)" />
      <g
         id="g23190"
         inkscape:label="emblems"
         style="fill:#eeeeec;display:inline"
         transform="translate(-121.0004,-867)" />
      <g
         id="g23192"
         inkscape:label="emotes"
         style="fill:#eeeeec;display:inline"
         transform="translate(-121.0004,-867)" />
      <g
         id="g23194"
         inkscape:label="categories"
         style="fill:#eeeeec;display:inline"
         transform="translate(-121.0004,-867)" />
      <g
         id="g23196"
         inkscape:label="actions"
         style="fill:#eeeeec;display:inline"
         transform="translate(-121.0004,-867)">
        <rect
           height="4"
           id="rect23198"
           rx="0.38461545"
           ry="0.50229359"
           style="color:#000000;fill:#eeeeec;fill-opacity:1;fill-rule:nonzero;stroke:none;stroke-width:1;marker:none;visibility:visible;display:inline;overflow:visible;enable-background:new"
           width="4"
           x="127.0002"
           y="867" />
        <rect
           height="4"
           id="rect23200"
           rx="0.38461545"
           ry="0.50229359"
           style="color:#000000;fill:#eeeeec;fill-opacity:1;fill-rule:nonzero;stroke:none;stroke-width:1;marker:none;visibility:visible;display:inline;overflow:visible;enable-background:new"
           width="4"
           x="127.0002"
           y="873" />
        <rect
           height="4"
           id="rect23202"
           rx="0.38461545"
           ry="0.50229359"
           style="color:#000000;fill:#eeeeec;fill-opacity:1;fill-rule:nonzero;stroke:none;stroke-width:1;marker:none;visibility:visible;display:inline;overflow:visible;enable-background:new"
           width="4"
           x="127.0002"
           y="879" />
      </g>
    </g>
    <g
       style="fill:#eeeeec;display:inline"
       transform="matrix(0,1,-1,0,101.6911,441.37436)"
       id="g23204">
      <g
         id="g23206"
         inkscape:label="status"
         style="fill:#eeeeec;display:inline"
         transform="translate(-181.0002,-747)" />
      <g
         style="fill:#eeeeec"
         id="g23208"
         inkscape:label="devices"
         transform="translate(-181.0002,-747)" />
      <g
         style="fill:#eeeeec"
         id="g23210"
         inkscape:label="apps"
         transform="translate(-181.0002,-747)" />
      <g
         style="fill:#eeeeec"
         id="g23212"
         inkscape:label="places"
         transform="translate(-181.0002,-747)" />
      <g
         style="fill:#eeeeec"
         id="g23214"
         inkscape:label="mimetypes"
         transform="translate(-181.0002,-747)" />
      <g
         id="g23216"
         inkscape:label="emblems"
         style="fill:#eeeeec;display:inline"
         transform="translate(-181.0002,-747)" />
      <g
         id="g23218"
         inkscape:label="emotes"
         style="fill:#eeeeec;display:inline"
         transform="translate(-181.0002,-747)" />
      <g
         id="g23220"
         inkscape:label="categories"
         style="fill:#eeeeec;display:inline"
         transform="translate(-181.0002,-747)" />
      <g
         id="g23222"
         inkscape:label="actions"
         style="fill:#eeeeec;display:inline"
         transform="translate(-181.0002,-747)">
        <path
           inkscape:connector-curvature="0"
           d="m 183.78125,751 a 1.0001,1.0001 0 0 0 -0.5,1.71875 l 5,5 0.71875,0.6875 0.71875,-0.6875 5,-5 a 1.016466,1.016466 0 1 0 -1.4375,-1.4375 L 189,755.5625 184.71875,751.28125 A 1.0001,1.0001 0 0 0 183.78125,751 z"
           id="path23224"
           style="font-size:medium;font-style:normal;font-variant:normal;font-weight:normal;font-stretch:normal;text-indent:0;text-align:start;text-decoration:none;line-height:normal;letter-spacing:normal;word-spacing:normal;text-transform:none;direction:ltr;block-progression:tb;writing-mode:lr-tb;text-anchor:start;baseline-shift:baseline;color:#000000;fill:#eeeeec;fill-opacity:1;stroke:none;stroke-width:2;marker:none;visibility:visible;display:inline;overflow:visible;enable-background:accumulate;font-family:Sans;-inkscape-font-specification:Sans" />
        <rect
           height="1"
           id="rect23226"
           rx="0"
           ry="1"
           style="fill:#eeeeec;fill-opacity:1;stroke:none"
           transform="matrix(0,-1,-1,0,0,0)"
           width="1"
           x="-752"
           y="-195.0002" />
        <rect
           height="1"
           id="rect23228"
           rx="0"
           ry="1"
           style="fill:#eeeeec;fill-opacity:1;stroke:none"
           transform="matrix(0,-1,-1,0,0,0)"
           width="1"
           x="-752"
           y="-184.0002" />
      </g>
    </g>
  </g>
</svg>
