<?xml version="1.0" encoding="UTF-8" standalone="no"?>
<!-- Created with Inkscape (http://www.inkscape.org/) -->

<svg
   xmlns:dc="http://purl.org/dc/elements/1.1/"
   xmlns:cc="http://creativecommons.org/ns#"
   xmlns:rdf="http://www.w3.org/1999/02/22-rdf-syntax-ns#"
   xmlns:svg="http://www.w3.org/2000/svg"
   xmlns="http://www.w3.org/2000/svg"
   xmlns:sodipodi="http://sodipodi.sourceforge.net/DTD/sodipodi-0.dtd"
   xmlns:inkscape="http://www.inkscape.org/namespaces/inkscape"
   width="1024"
   height="5000"
   id="svg23344"
   version="1.1"
   inkscape:version="0.48.4 r9939"
   sodipodi:docname="wires.svg">
  <defs
     id="defs23346">
    <pattern
       inkscape:stockid="Checkerboard"
       id="Checkerboard"
       patternTransform="translate(0,0) scale(10,10)"
       height="2"
       width="2"
       patternUnits="userSpaceOnUse"
       inkscape:collect="always">
      <rect
         id="rect7819"
         height="1"
         width="1"
         y="0"
         x="0"
         style="fill:black;stroke:none" />
      <rect
         id="rect7821"
         height="1"
         width="1"
         y="1"
         x="1"
         style="fill:black;stroke:none" />
    </pattern>
    <inkscape:path-effect
       effect="spiro"
       id="path-effect8915-0-8-2-7-4-4-8"
       is_visible="true" />
  </defs>
  <sodipodi:namedview
     id="base"
     pagecolor="#ffffff"
     bordercolor="#666666"
     borderopacity="1.0"
     inkscape:pageopacity="0.0"
     inkscape:pageshadow="2"
     inkscape:zoom="1"
     inkscape:cx="607.26586"
     inkscape:cy="4778.5601"
     inkscape:document-units="px"
     inkscape:current-layer="g8466"
     showgrid="false"
     inkscape:snap-bbox="true"
     inkscape:snap-nodes="false"
     inkscape:window-width="2560"
     inkscape:window-height="1401"
     inkscape:window-x="2560"
     inkscape:window-y="0"
     inkscape:window-maximized="1"
     borderlayer="true"
     inkscape:showpageshadow="false">
    <inkscape:grid
       type="xygrid"
       id="grid23565"
       empspacing="5"
       visible="true"
       enabled="true"
       snapvisiblegridlinesonly="true" />
  </sodipodi:namedview>
  <metadata
     id="metadata23349">
    <rdf:RDF>
      <cc:Work
         rdf:about="">
        <dc:format>image/svg+xml</dc:format>
        <dc:type
           rdf:resource="http://purl.org/dc/dcmitype/StillImage" />
        <dc:title />
      </cc:Work>
    </rdf:RDF>
  </metadata>
  <g
     inkscape:label="Layer 1"
     inkscape:groupmode="layer"
     id="layer1"
     transform="translate(0,3947.6379)">
    <g
       id="g8466">
      <rect
         y="-3818.1377"
         x="103.50013"
         height="528.99994"
         width="807"
         id="rect23024"
         style="fill:#2e3436;fill-opacity:1;fill-rule:evenodd;stroke:#888a85;stroke-width:1;stroke-linecap:square;stroke-miterlimit:4;stroke-opacity:1;stroke-dasharray:none;stroke-dashoffset:0;display:inline" />
      <rect
         style="fill:url(#Checkerboard);fill-opacity:1;fill-rule:evenodd;stroke:#888a85;stroke-width:1;stroke-linecap:square;stroke-miterlimit:4;stroke-opacity:1;stroke-dasharray:none;stroke-dashoffset:0;display:inline;opacity:0.13877551"
         id="rect6254"
         width="807"
         height="528.99994"
         x="103.50013"
         y="-3818.1377" />
      <path
         style="fill:#555753;fill-opacity:1;fill-rule:evenodd;stroke:#888a85;stroke-width:1;stroke-linecap:square;stroke-miterlimit:4;stroke-opacity:1;stroke-dashoffset:0;display:inline"
         d="m 112.5,-3865.1377 789,0 c 4.986,0 9,4.0139 9,9 l 0,38 -9,0 -789,0 -9,0 0,-38 c 0,-4.986 4.014,-9 9,-9 z"
         id="path23026"
         inkscape:connector-curvature="0"
         sodipodi:nodetypes="sssccccss" />
      <g
         id="g23028"
         transform="translate(879.0016,-3849.6377)"
         style="fill:#eeeeec;display:inline">
        <g
           style="fill:#eeeeec;display:inline"
           id="g23030"
           transform="translate(-60,-518)" />
        <g
           id="g23032"
           transform="translate(-60,-518)"
           style="fill:#eeeeec" />
        <g
           id="g23034"
           transform="translate(-60,-518)"
           style="fill:#eeeeec" />
        <g
           id="g23036"
           transform="translate(-60,-518)"
           style="fill:#eeeeec">
          <g
             style="fill:#eeeeec;display:inline"
             id="g23038"
             transform="translate(19,-242)">
            <path
               style="font-size:medium;font-style:normal;font-variant:normal;font-weight:normal;font-stretch:normal;text-indent:0;text-align:start;text-decoration:none;line-height:normal;letter-spacing:normal;word-spacing:normal;text-transform:none;direction:ltr;block-progression:tb;writing-mode:lr-tb;text-anchor:start;color:#bebebe;fill:#eeeeec;fill-opacity:1;fill-rule:nonzero;stroke:none;stroke-width:1.78124988;marker:none;visibility:visible;display:inline;overflow:visible;enable-background:new;font-family:Andale Mono;-inkscape-font-specification:Andale Mono"
               id="path23040"
               d="m 45,764 1,0 c 0.01037,-1.2e-4 0.02079,-4.6e-4 0.03125,0 0.254951,0.0112 0.50987,0.12858 0.6875,0.3125 L 49,766.59375 51.3125,764.3125 C 51.578125,764.082 51.759172,764.007 52,764 l 1,0 0,1 c 0,0.28647 -0.03434,0.55065 -0.25,0.75 l -2.28125,2.28125 2.25,2.25 C 52.906938,770.46942 52.999992,770.7347 53,771 l 0,1 -1,0 c -0.265301,-10e-6 -0.530586,-0.0931 -0.71875,-0.28125 L 49,769.4375 46.71875,771.71875 C 46.530586,771.90694 46.26529,772 46,772 l -1,0 0,-1 c -3e-6,-0.26529 0.09306,-0.53058 0.28125,-0.71875 l 2.28125,-2.25 L 45.28125,765.75 C 45.070508,765.55537 44.97809,765.28075 45,765 l 0,-1 z"
               inkscape:connector-curvature="0" />
          </g>
        </g>
        <g
           id="g23042"
           transform="translate(-60,-518)"
           style="fill:#eeeeec" />
        <g
           id="g23044"
           transform="translate(-60,-518)"
           style="fill:#eeeeec" />
        <g
           id="g23046"
           transform="translate(-60,-518)"
           style="fill:#eeeeec" />
      </g>
      <path
         style="fill:#888a85;stroke:#888a85;stroke-width:1;stroke-linecap:round;stroke-linejoin:miter;stroke-miterlimit:4;stroke-opacity:1;stroke-dasharray:none;display:inline"
         d="m 863.5032,-3853.2873 0,23.2992"
         id="path23048"
         inkscape:connector-curvature="0" />
      <text
         xml:space="preserve"
         style="font-size:14px;font-style:normal;font-variant:normal;font-weight:bold;font-stretch:normal;text-align:center;line-height:125%;letter-spacing:0px;word-spacing:0px;text-anchor:middle;fill:#eeeeec;fill-opacity:1;stroke:none;display:inline;font-family:Cantarell;-inkscape-font-specification:Sans Bold"
         x="506.68115"
         y="-3836.7798"
         id="text23074"
         sodipodi:linespacing="125%"><tspan
           sodipodi:role="line"
           id="tspan23076"
           x="506.68115"
           y="-3836.7798">Photos</tspan></text>
      <rect
         style="fill:#555753;fill-opacity:1;fill-rule:evenodd;stroke:#888a85;stroke-width:1;stroke-linecap:square;stroke-miterlimit:4;stroke-opacity:1;stroke-dasharray:none;stroke-dashoffset:0;display:inline"
         id="rect23078"
         width="33"
         height="33"
         x="822.50012"
         y="-3858.1377"
         rx="4"
         ry="4" />
      <rect
         style="fill:#555753;fill-opacity:1;fill-rule:evenodd;stroke:#888a85;stroke-width:1;stroke-linecap:square;stroke-miterlimit:4;stroke-opacity:1;stroke-dasharray:none;stroke-dashoffset:0;display:inline;opacity:0.3"
         id="rect23080"
         width="807"
         height="47"
         x="103.50013"
         y="-3336.1377" />
      <rect
         style="fill:#888a85;fill-opacity:1;fill-rule:evenodd;stroke:#888a85;stroke-width:1;stroke-linecap:square;stroke-miterlimit:4;stroke-opacity:1;stroke-dasharray:none;stroke-dashoffset:0;display:inline"
         id="rect23082"
         width="33"
         height="33"
         x="-348.5"
         y="3296.1377"
         rx="4"
         ry="4"
         transform="scale(-1,-1)" />
      <rect
         transform="scale(-1,-1)"
         ry="4"
         rx="3.9999998"
         y="3296.1377"
         x="-228"
         height="33"
         width="116.5"
         id="rect23084"
         style="fill:#555753;fill-opacity:1;fill-rule:evenodd;stroke:#888a85;stroke-width:1;stroke-linecap:square;stroke-miterlimit:4;stroke-opacity:1;stroke-dasharray:none;stroke-dashoffset:0;display:inline" />
      <path
         sodipodi:nodetypes="scccssssssss"
         inkscape:connector-curvature="0"
         id="path23086"
         d="m 428.5,-3339.1377 -82,0 -14,12 -12,-12 -92,0 c -3.324,0 -6,-2.676 -6,-6 l 0,-125.0001 c 0,-3.3239 2.676,-6 6,-6 l 200,0 c 3.324,0 6,2.6761 6,6 l 0,125.0001 c 0,3.324 -2.676,6 -6,6 z"
         style="fill:#555753;fill-opacity:1;stroke:#888a85;stroke-width:1;stroke-linecap:round;stroke-miterlimit:4;stroke-opacity:1;display:inline" />
      <text
         xml:space="preserve"
         style="font-size:14px;font-style:normal;font-variant:normal;font-weight:normal;font-stretch:normal;text-align:start;line-height:200%;letter-spacing:0px;word-spacing:0px;text-anchor:start;fill:#eeeeec;fill-opacity:1;stroke:none;display:inline;font-family:Cantarell;-inkscape-font-specification:Cantarell"
         x="237.05031"
         y="-3445.1829"
         id="text23088"
         sodipodi:linespacing="200%"><tspan
           id="tspan23090"
           sodipodi:role="line"
           x="237.05031"
           y="-3445.1829">Open with Image Viewer</tspan><tspan
           sodipodi:role="line"
           x="237.05031"
           y="-3417.1829"
           id="tspan23092">Display On...</tspan><tspan
           sodipodi:role="line"
           x="237.05031"
           y="-3389.1829"
           id="tspan23094">Set as Background</tspan><tspan
           sodipodi:role="line"
           x="237.05031"
           y="-3361.1829"
           id="tspan23096">Properties</tspan></text>
      <text
         xml:space="preserve"
         style="font-size:14px;font-style:normal;font-variant:normal;font-weight:normal;font-stretch:normal;text-align:start;line-height:125%;letter-spacing:0px;word-spacing:0px;text-anchor:start;fill:#eeeeec;fill-opacity:1;stroke:none;display:inline;font-family:Cantarell;-inkscape-font-specification:Cantarell"
         x="127.49145"
         y="-3307.7866"
         id="text23098"
         sodipodi:linespacing="125%"><tspan
           sodipodi:role="line"
           id="tspan23100"
           x="127.49145"
           y="-3307.7866">Add to Album</tspan></text>
      <rect
         transform="scale(-1,-1)"
         ry="4"
         rx="4"
         y="3296.1377"
         x="-902.5"
         height="33"
         width="33"
         id="rect23102"
         style="fill:#555753;fill-opacity:1;fill-rule:evenodd;stroke:#888a85;stroke-width:1;stroke-linecap:square;stroke-miterlimit:4;stroke-opacity:1;stroke-dasharray:none;stroke-dashoffset:0;display:inline" />
      <g
         id="g23104"
         transform="translate(878.5,-3320.6378)"
         style="fill:#eeeeec;display:inline">
        <g
           transform="translate(-481.0002,-175)"
           style="fill:#eeeeec;display:inline"
           inkscape:label="status"
           id="g23106" />
        <g
           transform="translate(-481.0002,-175)"
           inkscape:label="devices"
           id="g23108"
           style="fill:#eeeeec" />
        <g
           transform="translate(-481.0002,-175)"
           inkscape:label="apps"
           id="g23110"
           style="fill:#eeeeec" />
        <g
           transform="translate(-481.0002,-175)"
           inkscape:label="places"
           id="g23112"
           style="fill:#eeeeec">
          <path
             style="fill:#eeeeec;fill-opacity:1;stroke:none"
             id="path23114"
             d="m 484.0002,180 0,9 9,0 0,-9 2,0 0,9 c 0,2 -2,2 -2,2 l -9,0 c -2,0 -2,-2 -2,-2 l 0,-9 z m 4.00001,1 1.00002,0 0,6 -1.00002,0 z m 2,0 1.00002,0 0,6 -1.00002,0 z m -4,0 0.99999,0 0,6 -0.99999,0 z m -1.00001,-6 c -2,0 -2,2 -2,2 l -2,0 0,2 15,0 0,-2 -2,0 c 0,-2 -2,-2 -2,-2 l -7,0 z m 0,1 7,0 0,1 -7,0 0,-1 z"
             inkscape:connector-curvature="0" />
        </g>
        <g
           transform="translate(-481.0002,-175)"
           inkscape:label="mimetypes"
           id="g23116"
           style="fill:#eeeeec" />
        <g
           transform="translate(-481.0002,-175)"
           style="fill:#eeeeec;display:inline"
           inkscape:label="emblems"
           id="g23118" />
        <g
           transform="translate(-481.0002,-175)"
           style="fill:#eeeeec;display:inline"
           inkscape:label="emotes"
           id="g23120" />
        <g
           transform="translate(-481.0002,-175)"
           style="fill:#eeeeec;display:inline"
           inkscape:label="categories"
           id="g23122" />
        <g
           transform="translate(-481.0002,-175)"
           style="fill:#eeeeec;display:inline"
           inkscape:label="actions"
           id="g23124" />
      </g>
      <rect
         style="fill:#555753;fill-opacity:1;fill-rule:evenodd;stroke:#888a85;stroke-width:1;stroke-linecap:square;stroke-miterlimit:4;stroke-opacity:1;stroke-dasharray:none;stroke-dashoffset:0;display:inline"
         id="rect23126"
         width="33"
         height="33"
         x="-308.5"
         y="3296.1377"
         rx="4"
         ry="4"
         transform="scale(-1,-1)" />
      <g
         id="g23128"
         transform="translate(284.01068,-3320.0557)"
         style="fill:#eeeeec;display:inline">
        <g
           style="fill:#eeeeec;display:inline"
           id="g23130"
           transform="translate(-41.000202,-397)"
           inkscape:label="status">
          <g
             id="g23132"
             transform="translate(-186.9996,-599)"
             inkscape:label="folder-remote"
             style="fill:#eeeeec" />
          <path
             sodipodi:sides="5"
             sodipodi:cx="526.88293"
             inkscape:randomized="0"
             sodipodi:arg2="1.5829876"
             style="color:#000000;fill:#eeeeec;fill-opacity:1;fill-rule:nonzero;stroke:none;stroke-width:2;marker:none;visibility:visible;display:inline;overflow:visible;enable-background:accumulate"
             sodipodi:r1="7.0383992"
             sodipodi:arg1="0.95492637"
             sodipodi:type="star"
             id="path23134"
             d="m 530.9488,186.70897 c -0.77941,0.55189 -3.15759,-1.90601 -4.11253,-1.9179 -0.95532,-0.0119 -3.39494,2.38585 -4.16096,1.8149 -0.76573,-0.57072 0.83698,-3.59203 0.55319,-4.50391 -0.2839,-0.91223 -3.31818,-2.49151 -3.01189,-3.39647 0.30617,-0.90461 3.67487,-0.31399 4.45442,-0.86567 0.77986,-0.5519 1.3442,-3.92569 2.29952,-3.91404 0.95494,0.0116 1.43421,3.39798 2.19979,3.9689 0.76588,0.57114 4.14893,0.0653 4.43307,0.97746 0.28402,0.9118 -2.78848,2.41405 -3.09488,3.31858 -0.30652,0.90489 1.21999,3.96605 0.44027,4.51815 z"
             inkscape:transform-center-y="-0.69491065"
             inkscape:transform-center-x="-0.0094346789"
             inkscape:flatsided="false"
             inkscape:rounded="0.2104596"
             transform="matrix(1.0472113,-0.00871584,0.00871584,1.0472113,-504.35434,220.15425)"
             sodipodi:r2="3.8276224"
             sodipodi:cy="180.96373" />
        </g>
        <g
           id="g23136"
           transform="translate(-41.000202,-397)"
           inkscape:label="devices"
           style="fill:#eeeeec" />
        <g
           id="g23138"
           transform="translate(-41.000202,-397)"
           inkscape:label="apps"
           style="fill:#eeeeec" />
        <g
           id="g23140"
           transform="translate(-41.000202,-397)"
           inkscape:label="actions"
           style="fill:#eeeeec" />
        <g
           id="g23142"
           transform="translate(-41.000202,-397)"
           inkscape:label="places"
           style="fill:#eeeeec" />
        <g
           id="g23144"
           transform="translate(-41.000202,-397)"
           inkscape:label="mimetypes"
           style="fill:#eeeeec" />
        <g
           style="fill:#eeeeec;display:inline"
           id="g23146"
           transform="translate(-41.000202,-397)"
           inkscape:label="emblems" />
        <g
           style="fill:#eeeeec;display:inline"
           id="g23148"
           transform="translate(-41.000202,-397)"
           inkscape:label="categories" />
      </g>
      <rect
         transform="scale(-1,-1)"
         ry="4"
         rx="4"
         y="3296.1377"
         x="-268.5"
         height="33"
         width="33"
         id="rect23150"
         style="fill:#555753;fill-opacity:1;fill-rule:evenodd;stroke:#888a85;stroke-width:1;stroke-linecap:square;stroke-miterlimit:4;stroke-opacity:1;stroke-dasharray:none;stroke-dashoffset:0;display:inline" />
      <g
         id="g23152"
         transform="translate(244,-3319.6379)"
         style="fill:#eeeeec;display:inline">
        <g
           style="fill:#eeeeec;display:inline"
           id="g23154"
           transform="translate(-142,-338)"
           inkscape:label="status" />
        <g
           id="g23156"
           transform="translate(-142,-338)"
           inkscape:label="devices"
           style="fill:#eeeeec">
          <g
             id="g23158"
             transform="translate(94,-60)"
             inkscape:label="accessories-calculator"
             style="fill:#eeeeec" />
          <g
             id="g23160"
             transform="translate(142,338)"
             inkscape:label="Layer 1"
             style="fill:#eeeeec">
            <path
               style="fill:#eeeeec;fill-opacity:1;stroke:none"
               sodipodi:nodetypes="ccccccccccccc"
               id="path23162"
               d="M 2,4 C 1.5,4 1,4.5 1,5 l 0,4 c 0,0.5 0.5,1 1,1 l 1,0 0,-2 10,0 0,2 1,0 c 0.5,0 1,-0.5 1,-1 L 15,5 C 15,4.5 14.5,4 14,4 L 2,4 z"
               inkscape:connector-curvature="0" />
            <path
               style="fill:#eeeeec;fill-opacity:1;stroke:none"
               sodipodi:nodetypes="ccccc"
               id="path23164"
               d="M 4,1 4,3 12,3 12,1 4,1 z"
               inkscape:connector-curvature="0" />
            <path
               style="fill:#eeeeec;fill-opacity:1;stroke:none"
               sodipodi:nodetypes="ccccccccccccccc"
               id="path23166"
               d="M 4,9.0000001 4,14 l 8,0 0,-5 -8,10e-8 z M 5,10 l 6,0 0,1 -6,0 0,-1 z m 0,2 5,0 0,1 -5,0 0,-1 z"
               inkscape:connector-curvature="0" />
          </g>
        </g>
        <g
           id="g23168"
           transform="translate(-142,-338)"
           inkscape:label="apps"
           style="fill:#eeeeec" />
        <g
           id="g23170"
           transform="translate(-142,-338)"
           inkscape:label="actions"
           style="fill:#eeeeec" />
        <g
           id="g23172"
           transform="translate(-142,-338)"
           inkscape:label="places"
           style="fill:#eeeeec" />
        <g
           id="g23174"
           transform="translate(-142,-338)"
           inkscape:label="mimetypes"
           style="fill:#eeeeec" />
        <g
           id="g23176"
           transform="translate(-142,-338)"
           inkscape:label="emblems"
           style="fill:#eeeeec" />
      </g>
      <g
         id="g23178"
         transform="translate(324.00018,-3320.6378)"
         style="fill:#eeeeec;display:inline">
        <g
           transform="translate(-121.0004,-867)"
           style="fill:#eeeeec;display:inline"
           inkscape:label="status"
           id="g23180" />
        <g
           transform="translate(-121.0004,-867)"
           inkscape:label="devices"
           id="g23182"
           style="fill:#eeeeec" />
        <g
           transform="translate(-121.0004,-867)"
           inkscape:label="apps"
           id="g23184"
           style="fill:#eeeeec" />
        <g
           transform="translate(-121.0004,-867)"
           inkscape:label="places"
           id="g23186"
           style="fill:#eeeeec" />
        <g
           transform="translate(-121.0004,-867)"
           inkscape:label="mimetypes"
           id="g23188"
           style="fill:#eeeeec" />
        <g
           transform="translate(-121.0004,-867)"
           style="fill:#eeeeec;display:inline"
           inkscape:label="emblems"
           id="g23190" />
        <g
           transform="translate(-121.0004,-867)"
           style="fill:#eeeeec;display:inline"
           inkscape:label="emotes"
           id="g23192" />
        <g
           transform="translate(-121.0004,-867)"
           style="fill:#eeeeec;display:inline"
           inkscape:label="categories"
           id="g23194" />
        <g
           transform="translate(-121.0004,-867)"
           style="fill:#eeeeec;display:inline"
           inkscape:label="actions"
           id="g23196">
          <rect
             y="867"
             x="127.0002"
             width="4"
             style="color:#000000;fill:#eeeeec;fill-opacity:1;fill-rule:nonzero;stroke:none;stroke-width:1;marker:none;visibility:visible;display:inline;overflow:visible;enable-background:new"
             ry="0.50229359"
             rx="0.38461545"
             id="rect23198"
             height="4" />
          <rect
             y="873"
             x="127.0002"
             width="4"
             style="color:#000000;fill:#eeeeec;fill-opacity:1;fill-rule:nonzero;stroke:none;stroke-width:1;marker:none;visibility:visible;display:inline;overflow:visible;enable-background:new"
             ry="0.50229359"
             rx="0.38461545"
             id="rect23200"
             height="4" />
          <rect
             y="879"
             x="127.0002"
             width="4"
             style="color:#000000;fill:#eeeeec;fill-opacity:1;fill-rule:nonzero;stroke:none;stroke-width:1;marker:none;visibility:visible;display:inline;overflow:visible;enable-background:new"
             ry="0.50229359"
             rx="0.38461545"
             id="rect23202"
             height="4" />
        </g>
      </g>
      <g
         style="display:inline"
         id="g14485"
         inkscape:label="object-select"
         transform="translate(769.9998,-4636.6379)">
        <path
           sodipodi:nodetypes="ccc"
           inkscape:connector-curvature="0"
           inkscape:original-d="m 65.00055,794.99698 2.999913,2.99886 5.999826,-5.99773"
           inkscape:path-effect="#path-effect8915-0-8-2-7-4-4-8"
           id="path8913-6-7-1-5"
           d="m 65.00055,794.99698 2.999913,2.99886 5.999826,-5.99773"
           style="fill:none;stroke:#bebebe;stroke-width:3;stroke-linecap:butt;stroke-linejoin:miter;stroke-miterlimit:4;stroke-opacity:1;stroke-dasharray:none" />
        <rect
           inkscape:label="a"
           y="787"
           x="61.000198"
           height="16"
           width="16"
           id="rect8856-7"
           style="color:#bebebe;fill:none;stroke:none;stroke-width:1;marker:none;visibility:visible;display:inline;overflow:visible" />
      </g>
    </g>
    <g
       id="g8572"
       transform="translate(0,700)">
      <rect
         style="fill:#2e3436;fill-opacity:1;fill-rule:evenodd;stroke:#888a85;stroke-width:1;stroke-linecap:square;stroke-miterlimit:4;stroke-opacity:1;stroke-dasharray:none;stroke-dashoffset:0;display:inline"
         id="rect8574"
         width="807"
         height="528.99994"
         x="103.50013"
         y="-3818.1377" />
      <rect
         y="-3818.1377"
         x="103.50013"
         height="528.99994"
         width="807"
         id="rect8576"
         style="opacity:0.13877552;fill:url(#Checkerboard);fill-opacity:1;fill-rule:evenodd;stroke:#888a85;stroke-width:1;stroke-linecap:square;stroke-miterlimit:4;stroke-opacity:1;stroke-dasharray:none;stroke-dashoffset:0;display:inline" />
      <path
         sodipodi:nodetypes="sssccccss"
         inkscape:connector-curvature="0"
         id="path8578"
         d="m 112.5,-3865.1377 789,0 c 4.986,0 9,4.0139 9,9 l 0,38 -9,0 -789,0 -9,0 0,-38 c 0,-4.986 4.014,-9 9,-9 z"
         style="fill:#555753;fill-opacity:1;fill-rule:evenodd;stroke:#888a85;stroke-width:1;stroke-linecap:square;stroke-miterlimit:4;stroke-opacity:1;stroke-dashoffset:0;display:inline" />
      <g
         style="fill:#eeeeec;display:inline"
         transform="translate(879.0016,-3849.6377)"
         id="g8580">
        <g
           transform="translate(-60,-518)"
           id="g8582"
           style="fill:#eeeeec;display:inline" />
        <g
           style="fill:#eeeeec"
           transform="translate(-60,-518)"
           id="g8584" />
        <g
           style="fill:#eeeeec"
           transform="translate(-60,-518)"
           id="g8586" />
        <g
           style="fill:#eeeeec"
           transform="translate(-60,-518)"
           id="g8588">
          <g
             transform="translate(19,-242)"
             id="g8590"
             style="fill:#eeeeec;display:inline">
            <path
               inkscape:connector-curvature="0"
               d="m 45,764 1,0 c 0.01037,-1.2e-4 0.02079,-4.6e-4 0.03125,0 0.254951,0.0112 0.50987,0.12858 0.6875,0.3125 L 49,766.59375 51.3125,764.3125 C 51.578125,764.082 51.759172,764.007 52,764 l 1,0 0,1 c 0,0.28647 -0.03434,0.55065 -0.25,0.75 l -2.28125,2.28125 2.25,2.25 C 52.906938,770.46942 52.999992,770.7347 53,771 l 0,1 -1,0 c -0.265301,-10e-6 -0.530586,-0.0931 -0.71875,-0.28125 L 49,769.4375 46.71875,771.71875 C 46.530586,771.90694 46.26529,772 46,772 l -1,0 0,-1 c -3e-6,-0.26529 0.09306,-0.53058 0.28125,-0.71875 l 2.28125,-2.25 L 45.28125,765.75 C 45.070508,765.55537 44.97809,765.28075 45,765 l 0,-1 z"
               id="path8592"
               style="font-size:medium;font-style:normal;font-variant:normal;font-weight:normal;font-stretch:normal;text-indent:0;text-align:start;text-decoration:none;line-height:normal;letter-spacing:normal;word-spacing:normal;text-transform:none;direction:ltr;block-progression:tb;writing-mode:lr-tb;text-anchor:start;color:#bebebe;fill:#eeeeec;fill-opacity:1;fill-rule:nonzero;stroke:none;stroke-width:1.78124988;marker:none;visibility:visible;display:inline;overflow:visible;enable-background:new;font-family:Andale Mono;-inkscape-font-specification:Andale Mono" />
          </g>
        </g>
        <g
           style="fill:#eeeeec"
           transform="translate(-60,-518)"
           id="g8594" />
        <g
           style="fill:#eeeeec"
           transform="translate(-60,-518)"
           id="g8596" />
        <g
           style="fill:#eeeeec"
           transform="translate(-60,-518)"
           id="g8598" />
      </g>
      <path
         inkscape:connector-curvature="0"
         id="path8600"
         d="m 863.5032,-3853.2873 0,23.2992"
         style="fill:#888a85;stroke:#888a85;stroke-width:1;stroke-linecap:round;stroke-linejoin:miter;stroke-miterlimit:4;stroke-opacity:1;stroke-dasharray:none;display:inline" />
      <g
         style="fill:#babdb6;display:inline"
         transform="translate(119.4064,-3849.6599)"
         id="g8602">
        <g
           transform="translate(-121.00015,-667)"
           id="g8604"
           inkscape:label="status"
           style="fill:#babdb6;display:inline" />
        <g
           style="fill:#babdb6"
           transform="translate(-121.00015,-667)"
           id="g8606"
           inkscape:label="devices" />
        <g
           style="fill:#babdb6"
           transform="translate(-121.00015,-667)"
           id="g8608"
           inkscape:label="apps" />
        <g
           style="fill:#babdb6"
           transform="translate(-121.00015,-667)"
           id="g8610"
           inkscape:label="places" />
        <g
           style="fill:#babdb6"
           transform="translate(-121.00015,-667)"
           id="g8612"
           inkscape:label="mimetypes" />
        <g
           transform="translate(-121.00015,-667)"
           id="g8614"
           inkscape:label="emblems"
           style="fill:#babdb6;display:inline" />
        <g
           transform="translate(-121.00015,-667)"
           id="g8616"
           inkscape:label="emotes"
           style="fill:#babdb6;display:inline" />
        <g
           transform="translate(-121.00015,-667)"
           id="g8618"
           inkscape:label="categories"
           style="fill:#babdb6;display:inline" />
        <g
           transform="translate(-121.00015,-667)"
           id="g8620"
           inkscape:label="actions"
           style="fill:#babdb6;display:inline">
          <path
             d="m 125,673 0,2 6.5,0 c 0.84027,0 1.5,0.65973 1.5,1.5 0,0.84027 -0.65973,1.5 -1.5,1.5 l -0.5,0 0,2 0.5,0 c 1.92115,0 3.5,-1.57885 3.5,-3.5 0,-1.92115 -1.57885,-3.5 -3.5,-3.5 l -6.5,0 z"
             id="path8622"
             inkscape:connector-curvature="0"
             style="font-size:medium;font-style:normal;font-variant:normal;font-weight:normal;font-stretch:normal;text-indent:0;text-align:start;text-decoration:none;line-height:normal;letter-spacing:normal;word-spacing:normal;text-transform:none;direction:ltr;block-progression:tb;writing-mode:lr-tb;text-anchor:start;baseline-shift:baseline;color:#000000;fill:#babdb6;fill-opacity:1;stroke:none;stroke-width:2;marker:none;visibility:visible;display:inline;overflow:visible;enable-background:accumulate;font-family:Sans;-inkscape-font-specification:Sans" />
          <path
             sodipodi:nodetypes="ccccccccccccc"
             d="m 128,670.0221 0,1 c 0,0.25689 -0.12983,0.52846 -0.3125,0.71875 l -2.28125,2.28125 2.28125,2.28125 c 0.18267,0.19029 0.3125,0.46186 0.3125,0.71875 l 0,1 -1,0 c -0.30945,0 -0.55232,-0.0903 -0.75,-0.28125 l -3.65625,-3.71875 3.65625,-3.71875 c 0.19768,-0.19095 0.44055,-0.28125 0.75,-0.28125 z"
             id="path8624"
             inkscape:connector-curvature="0"
             style="font-size:medium;font-style:normal;font-variant:normal;font-weight:normal;font-stretch:normal;text-indent:0;text-align:start;text-decoration:none;line-height:normal;letter-spacing:normal;word-spacing:normal;text-transform:none;direction:ltr;block-progression:tb;writing-mode:lr-tb;text-anchor:start;color:#bebebe;fill:#babdb6;fill-opacity:1;stroke:none;stroke-width:2;marker:none;visibility:visible;display:inline;overflow:visible;enable-background:accumulate;font-family:Bitstream Vera Sans;-inkscape-font-specification:Bitstream Vera Sans" />
        </g>
      </g>
      <text
         sodipodi:linespacing="125%"
         id="text8626"
         y="-3836.7798"
         x="506.68115"
         style="font-size:14px;font-style:normal;font-variant:normal;font-weight:bold;font-stretch:normal;text-align:center;line-height:125%;letter-spacing:0px;word-spacing:0px;text-anchor:middle;fill:#eeeeec;fill-opacity:1;stroke:none;display:inline;font-family:Cantarell;-inkscape-font-specification:Sans Bold"
         xml:space="preserve"><tspan
           y="-3836.7798"
           x="506.68115"
           id="tspan8628"
           sodipodi:role="line">A Photo</tspan></text>
      <rect
         ry="4"
         rx="4"
         y="-3858.1377"
         x="110.50013"
         height="33"
         width="33"
         id="rect8630"
         style="fill:#555753;fill-opacity:1;fill-rule:evenodd;stroke:#888a85;stroke-width:1;stroke-linecap:square;stroke-miterlimit:4;stroke-opacity:1;stroke-dasharray:none;stroke-dashoffset:0;display:inline" />
      <rect
         y="-3336.1377"
         x="103.50013"
         height="47"
         width="807"
         id="rect8632"
         style="opacity:0.3;fill:#555753;fill-opacity:1;fill-rule:evenodd;stroke:#888a85;stroke-width:1;stroke-linecap:square;stroke-miterlimit:4;stroke-opacity:1;stroke-dasharray:none;stroke-dashoffset:0;display:inline" />
      <rect
         transform="scale(-1,-1)"
         ry="4"
         rx="4"
         y="3296.1377"
         x="-348.5"
         height="33"
         width="33"
         id="rect8634"
         style="fill:#888a85;fill-opacity:1;fill-rule:evenodd;stroke:#888a85;stroke-width:1;stroke-linecap:square;stroke-miterlimit:4;stroke-opacity:1;stroke-dasharray:none;stroke-dashoffset:0;display:inline" />
      <rect
         style="fill:#555753;fill-opacity:1;fill-rule:evenodd;stroke:#888a85;stroke-width:1;stroke-linecap:square;stroke-miterlimit:4;stroke-opacity:1;stroke-dasharray:none;stroke-dashoffset:0;display:inline"
         id="rect8636"
         width="116.5"
         height="33"
         x="-228"
         y="3296.1377"
         rx="3.9999998"
         ry="4"
         transform="scale(-1,-1)" />
      <path
         style="fill:#555753;fill-opacity:1;stroke:#888a85;stroke-width:1;stroke-linecap:round;stroke-miterlimit:4;stroke-opacity:1;display:inline"
         d="m 428.5,-3339.1377 -82,0 -14,12 -12,-12 -92,0 c -3.324,0 -6,-2.676 -6,-6 l 0,-125.0001 c 0,-3.3239 2.676,-6 6,-6 l 200,0 c 3.324,0 6,2.6761 6,6 l 0,125.0001 c 0,3.324 -2.676,6 -6,6 z"
         id="path8638"
         inkscape:connector-curvature="0"
         sodipodi:nodetypes="scccssssssss" />
      <text
         sodipodi:linespacing="200%"
         id="text8640"
         y="-3445.1829"
         x="237.05031"
         style="font-size:14px;font-style:normal;font-variant:normal;font-weight:normal;font-stretch:normal;text-align:start;line-height:200%;letter-spacing:0px;word-spacing:0px;text-anchor:start;fill:#eeeeec;fill-opacity:1;stroke:none;display:inline;font-family:Cantarell;-inkscape-font-specification:Cantarell"
         xml:space="preserve"><tspan
           y="-3445.1829"
           x="237.05031"
           sodipodi:role="line"
           id="tspan8642">Open with Image Viewer</tspan><tspan
           id="tspan8644"
           y="-3417.1829"
           x="237.05031"
           sodipodi:role="line">Display On...</tspan><tspan
           id="tspan8646"
           y="-3389.1829"
           x="237.05031"
           sodipodi:role="line">Set as Background</tspan><tspan
           id="tspan8648"
           y="-3361.1829"
           x="237.05031"
           sodipodi:role="line">Properties</tspan></text>
      <text
         sodipodi:linespacing="125%"
         id="text8650"
         y="-3307.7866"
         x="127.49145"
         style="font-size:14px;font-style:normal;font-variant:normal;font-weight:normal;font-stretch:normal;text-align:start;line-height:125%;letter-spacing:0px;word-spacing:0px;text-anchor:start;fill:#eeeeec;fill-opacity:1;stroke:none;display:inline;font-family:Cantarell;-inkscape-font-specification:Cantarell"
         xml:space="preserve"><tspan
           y="-3307.7866"
           x="127.49145"
           id="tspan8652"
           sodipodi:role="line">Add to Album</tspan></text>
      <rect
         style="fill:#555753;fill-opacity:1;fill-rule:evenodd;stroke:#888a85;stroke-width:1;stroke-linecap:square;stroke-miterlimit:4;stroke-opacity:1;stroke-dasharray:none;stroke-dashoffset:0;display:inline"
         id="rect8654"
         width="33"
         height="33"
         x="-902.5"
         y="3296.1377"
         rx="4"
         ry="4"
         transform="scale(-1,-1)" />
      <g
         style="fill:#eeeeec;display:inline"
         transform="translate(878.5,-3320.6378)"
         id="g8656">
        <g
           id="g8658"
           inkscape:label="status"
           style="fill:#eeeeec;display:inline"
           transform="translate(-481.0002,-175)" />
        <g
           style="fill:#eeeeec"
           id="g8660"
           inkscape:label="devices"
           transform="translate(-481.0002,-175)" />
        <g
           style="fill:#eeeeec"
           id="g8662"
           inkscape:label="apps"
           transform="translate(-481.0002,-175)" />
        <g
           style="fill:#eeeeec"
           id="g8664"
           inkscape:label="places"
           transform="translate(-481.0002,-175)">
          <path
             inkscape:connector-curvature="0"
             d="m 484.0002,180 0,9 9,0 0,-9 2,0 0,9 c 0,2 -2,2 -2,2 l -9,0 c -2,0 -2,-2 -2,-2 l 0,-9 z m 4.00001,1 1.00002,0 0,6 -1.00002,0 z m 2,0 1.00002,0 0,6 -1.00002,0 z m -4,0 0.99999,0 0,6 -0.99999,0 z m -1.00001,-6 c -2,0 -2,2 -2,2 l -2,0 0,2 15,0 0,-2 -2,0 c 0,-2 -2,-2 -2,-2 l -7,0 z m 0,1 7,0 0,1 -7,0 0,-1 z"
             id="path8666"
             style="fill:#eeeeec;fill-opacity:1;stroke:none" />
        </g>
        <g
           style="fill:#eeeeec"
           id="g8668"
           inkscape:label="mimetypes"
           transform="translate(-481.0002,-175)" />
        <g
           id="g8670"
           inkscape:label="emblems"
           style="fill:#eeeeec;display:inline"
           transform="translate(-481.0002,-175)" />
        <g
           id="g8672"
           inkscape:label="emotes"
           style="fill:#eeeeec;display:inline"
           transform="translate(-481.0002,-175)" />
        <g
           id="g8674"
           inkscape:label="categories"
           style="fill:#eeeeec;display:inline"
           transform="translate(-481.0002,-175)" />
        <g
           id="g8676"
           inkscape:label="actions"
           style="fill:#eeeeec;display:inline"
           transform="translate(-481.0002,-175)" />
      </g>
      <rect
         transform="scale(-1,-1)"
         ry="4"
         rx="4"
         y="3296.1377"
         x="-308.5"
         height="33"
         width="33"
         id="rect8678"
         style="fill:#555753;fill-opacity:1;fill-rule:evenodd;stroke:#888a85;stroke-width:1;stroke-linecap:square;stroke-miterlimit:4;stroke-opacity:1;stroke-dasharray:none;stroke-dashoffset:0;display:inline" />
      <g
         style="fill:#eeeeec;display:inline"
         transform="translate(284.01068,-3320.0557)"
         id="g8680">
        <g
           inkscape:label="status"
           transform="translate(-41.000202,-397)"
           id="g8682"
           style="fill:#eeeeec;display:inline">
          <g
             style="fill:#eeeeec"
             inkscape:label="folder-remote"
             transform="translate(-186.9996,-599)"
             id="g8684" />
          <path
             sodipodi:cy="180.96373"
             sodipodi:r2="3.8276224"
             transform="matrix(1.0472113,-0.00871584,0.00871584,1.0472113,-504.35434,220.15425)"
             inkscape:rounded="0.2104596"
             inkscape:flatsided="false"
             inkscape:transform-center-x="-0.0094346789"
             inkscape:transform-center-y="-0.69491065"
             d="m 530.9488,186.70897 c -0.77941,0.55189 -3.15759,-1.90601 -4.11253,-1.9179 -0.95532,-0.0119 -3.39494,2.38585 -4.16096,1.8149 -0.76573,-0.57072 0.83698,-3.59203 0.55319,-4.50391 -0.2839,-0.91223 -3.31818,-2.49151 -3.01189,-3.39647 0.30617,-0.90461 3.67487,-0.31399 4.45442,-0.86567 0.77986,-0.5519 1.3442,-3.92569 2.29952,-3.91404 0.95494,0.0116 1.43421,3.39798 2.19979,3.9689 0.76588,0.57114 4.14893,0.0653 4.43307,0.97746 0.28402,0.9118 -2.78848,2.41405 -3.09488,3.31858 -0.30652,0.90489 1.21999,3.96605 0.44027,4.51815 z"
             id="path8686"
             sodipodi:type="star"
             sodipodi:arg1="0.95492637"
             sodipodi:r1="7.0383992"
             style="color:#000000;fill:#eeeeec;fill-opacity:1;fill-rule:nonzero;stroke:none;stroke-width:2;marker:none;visibility:visible;display:inline;overflow:visible;enable-background:accumulate"
             sodipodi:arg2="1.5829876"
             inkscape:randomized="0"
             sodipodi:cx="526.88293"
             sodipodi:sides="5" />
        </g>
        <g
           style="fill:#eeeeec"
           inkscape:label="devices"
           transform="translate(-41.000202,-397)"
           id="g8688" />
        <g
           style="fill:#eeeeec"
           inkscape:label="apps"
           transform="translate(-41.000202,-397)"
           id="g8690" />
        <g
           style="fill:#eeeeec"
           inkscape:label="actions"
           transform="translate(-41.000202,-397)"
           id="g8692" />
        <g
           style="fill:#eeeeec"
           inkscape:label="places"
           transform="translate(-41.000202,-397)"
           id="g8694" />
        <g
           style="fill:#eeeeec"
           inkscape:label="mimetypes"
           transform="translate(-41.000202,-397)"
           id="g8696" />
        <g
           inkscape:label="emblems"
           transform="translate(-41.000202,-397)"
           id="g8698"
           style="fill:#eeeeec;display:inline" />
        <g
           inkscape:label="categories"
           transform="translate(-41.000202,-397)"
           id="g8700"
           style="fill:#eeeeec;display:inline" />
      </g>
      <rect
         style="fill:#555753;fill-opacity:1;fill-rule:evenodd;stroke:#888a85;stroke-width:1;stroke-linecap:square;stroke-miterlimit:4;stroke-opacity:1;stroke-dasharray:none;stroke-dashoffset:0;display:inline"
         id="rect8702"
         width="33"
         height="33"
         x="-268.5"
         y="3296.1377"
         rx="4"
         ry="4"
         transform="scale(-1,-1)" />
      <g
         style="fill:#eeeeec;display:inline"
         transform="translate(244,-3319.6379)"
         id="g8704">
        <g
           inkscape:label="status"
           transform="translate(-142,-338)"
           id="g8706"
           style="fill:#eeeeec;display:inline" />
        <g
           style="fill:#eeeeec"
           inkscape:label="devices"
           transform="translate(-142,-338)"
           id="g8708">
          <g
             style="fill:#eeeeec"
             inkscape:label="accessories-calculator"
             transform="translate(94,-60)"
             id="g8710" />
          <g
             style="fill:#eeeeec"
             inkscape:label="Layer 1"
             transform="translate(142,338)"
             id="g8712">
            <path
               inkscape:connector-curvature="0"
               d="M 2,4 C 1.5,4 1,4.5 1,5 l 0,4 c 0,0.5 0.5,1 1,1 l 1,0 0,-2 10,0 0,2 1,0 c 0.5,0 1,-0.5 1,-1 L 15,5 C 15,4.5 14.5,4 14,4 L 2,4 z"
               id="path8714"
               sodipodi:nodetypes="ccccccccccccc"
               style="fill:#eeeeec;fill-opacity:1;stroke:none" />
            <path
               inkscape:connector-curvature="0"
               d="M 4,1 4,3 12,3 12,1 4,1 z"
               id="path8716"
               sodipodi:nodetypes="ccccc"
               style="fill:#eeeeec;fill-opacity:1;stroke:none" />
            <path
               inkscape:connector-curvature="0"
               d="M 4,9.0000001 4,14 l 8,0 0,-5 -8,10e-8 z M 5,10 l 6,0 0,1 -6,0 0,-1 z m 0,2 5,0 0,1 -5,0 0,-1 z"
               id="path8718"
               sodipodi:nodetypes="ccccccccccccccc"
               style="fill:#eeeeec;fill-opacity:1;stroke:none" />
          </g>
        </g>
        <g
           style="fill:#eeeeec"
           inkscape:label="apps"
           transform="translate(-142,-338)"
           id="g8720" />
        <g
           style="fill:#eeeeec"
           inkscape:label="actions"
           transform="translate(-142,-338)"
           id="g8722" />
        <g
           style="fill:#eeeeec"
           inkscape:label="places"
           transform="translate(-142,-338)"
           id="g8724" />
        <g
           style="fill:#eeeeec"
           inkscape:label="mimetypes"
           transform="translate(-142,-338)"
           id="g8726" />
        <g
           style="fill:#eeeeec"
           inkscape:label="emblems"
           transform="translate(-142,-338)"
           id="g8728" />
      </g>
      <g
         style="fill:#eeeeec;display:inline"
         transform="translate(324.00018,-3320.6378)"
         id="g8730">
        <g
           id="g8732"
           inkscape:label="status"
           style="fill:#eeeeec;display:inline"
           transform="translate(-121.0004,-867)" />
        <g
           style="fill:#eeeeec"
           id="g8734"
           inkscape:label="devices"
           transform="translate(-121.0004,-867)" />
        <g
           style="fill:#eeeeec"
           id="g8736"
           inkscape:label="apps"
           transform="translate(-121.0004,-867)" />
        <g
           style="fill:#eeeeec"
           id="g8738"
           inkscape:label="places"
           transform="translate(-121.0004,-867)" />
        <g
           style="fill:#eeeeec"
           id="g8740"
           inkscape:label="mimetypes"
           transform="translate(-121.0004,-867)" />
        <g
           id="g8742"
           inkscape:label="emblems"
           style="fill:#eeeeec;display:inline"
           transform="translate(-121.0004,-867)" />
        <g
           id="g8744"
           inkscape:label="emotes"
           style="fill:#eeeeec;display:inline"
           transform="translate(-121.0004,-867)" />
        <g
           id="g8746"
           inkscape:label="categories"
           style="fill:#eeeeec;display:inline"
           transform="translate(-121.0004,-867)" />
        <g
           id="g8748"
           inkscape:label="actions"
           style="fill:#eeeeec;display:inline"
           transform="translate(-121.0004,-867)">
          <rect
             height="4"
             id="rect8750"
             rx="0.38461545"
             ry="0.50229359"
             style="color:#000000;fill:#eeeeec;fill-opacity:1;fill-rule:nonzero;stroke:none;stroke-width:1;marker:none;visibility:visible;display:inline;overflow:visible;enable-background:new"
             width="4"
             x="127.0002"
             y="867" />
          <rect
             height="4"
             id="rect8752"
             rx="0.38461545"
             ry="0.50229359"
             style="color:#000000;fill:#eeeeec;fill-opacity:1;fill-rule:nonzero;stroke:none;stroke-width:1;marker:none;visibility:visible;display:inline;overflow:visible;enable-background:new"
             width="4"
             x="127.0002"
             y="873" />
          <rect
             height="4"
             id="rect8754"
             rx="0.38461545"
             ry="0.50229359"
             style="color:#000000;fill:#eeeeec;fill-opacity:1;fill-rule:nonzero;stroke:none;stroke-width:1;marker:none;visibility:visible;display:inline;overflow:visible;enable-background:new"
             width="4"
             x="127.0002"
             y="879" />
        </g>
      </g>
      <g
         style="fill:#eeeeec;display:inline"
         transform="matrix(0,1,-1,0,134.6911,-3849.6256)"
         id="g8756">
        <g
           id="g8758"
           inkscape:label="status"
           style="fill:#eeeeec;display:inline"
           transform="translate(-181.0002,-747)" />
        <g
           style="fill:#eeeeec"
           id="g8760"
           inkscape:label="devices"
           transform="translate(-181.0002,-747)" />
        <g
           style="fill:#eeeeec"
           id="g8762"
           inkscape:label="apps"
           transform="translate(-181.0002,-747)" />
        <g
           style="fill:#eeeeec"
           id="g8764"
           inkscape:label="places"
           transform="translate(-181.0002,-747)" />
        <g
           style="fill:#eeeeec"
           id="g8766"
           inkscape:label="mimetypes"
           transform="translate(-181.0002,-747)" />
        <g
           id="g8768"
           inkscape:label="emblems"
           style="fill:#eeeeec;display:inline"
           transform="translate(-181.0002,-747)" />
        <g
           id="g8770"
           inkscape:label="emotes"
           style="fill:#eeeeec;display:inline"
           transform="translate(-181.0002,-747)" />
        <g
           id="g8772"
           inkscape:label="categories"
           style="fill:#eeeeec;display:inline"
           transform="translate(-181.0002,-747)" />
        <g
           id="g8774"
           inkscape:label="actions"
           style="fill:#eeeeec;display:inline"
           transform="translate(-181.0002,-747)">
          <path
             inkscape:connector-curvature="0"
             d="m 183.78125,751 a 1.0001,1.0001 0 0 0 -0.5,1.71875 l 5,5 0.71875,0.6875 0.71875,-0.6875 5,-5 a 1.016466,1.016466 0 1 0 -1.4375,-1.4375 L 189,755.5625 184.71875,751.28125 A 1.0001,1.0001 0 0 0 183.78125,751 z"
             id="path8776"
             style="font-size:medium;font-style:normal;font-variant:normal;font-weight:normal;font-stretch:normal;text-indent:0;text-align:start;text-decoration:none;line-height:normal;letter-spacing:normal;word-spacing:normal;text-transform:none;direction:ltr;block-progression:tb;writing-mode:lr-tb;text-anchor:start;baseline-shift:baseline;color:#000000;fill:#eeeeec;fill-opacity:1;stroke:none;stroke-width:2;marker:none;visibility:visible;display:inline;overflow:visible;enable-background:accumulate;font-family:Sans;-inkscape-font-specification:Sans" />
          <rect
             height="1"
             id="rect8778"
             rx="0"
             ry="1"
             style="fill:#eeeeec;fill-opacity:1;stroke:none"
             transform="matrix(0,-1,-1,0,0,0)"
             width="1"
             x="-752"
             y="-195.0002" />
          <rect
             height="1"
             id="rect8780"
             rx="0"
             ry="1"
             style="fill:#eeeeec;fill-opacity:1;stroke:none"
             transform="matrix(0,-1,-1,0,0,0)"
             width="1"
             x="-752"
             y="-184.0002" />
        </g>
      </g>
    </g>
  </g>
</svg>
