<?xml version="1.0" encoding="UTF-8" standalone="no"?>
<!-- Created with Inkscape (http://www.inkscape.org/) -->

<svg
   xmlns:dc="http://purl.org/dc/elements/1.1/"
   xmlns:cc="http://creativecommons.org/ns#"
   xmlns:rdf="http://www.w3.org/1999/02/22-rdf-syntax-ns#"
   xmlns:svg="http://www.w3.org/2000/svg"
   xmlns="http://www.w3.org/2000/svg"
   xmlns:sodipodi="http://sodipodi.sourceforge.net/DTD/sodipodi-0.dtd"
   xmlns:inkscape="http://www.inkscape.org/namespaces/inkscape"
   width="32"
   height="32"
   viewBox="0 0 8.4666668 8.4666671"
   version="1.1"
   id="svg69032"
   inkscape:version="0.92pre1 r"
   sodipodi:docname="boot-offline-updates.svg"
   inkscape:export-filename="/home/jimmac/SparkleShare/gnome-mockups/system-lock-login-boot/assets/boot-offline-updates.svg.png"
   inkscape:export-xdpi="96"
   inkscape:export-ydpi="96">
  <defs
     id="defs69026" />
  <sodipodi:namedview
     id="base"
     pagecolor="#ffffff"
     bordercolor="#666666"
     borderopacity="1.0"
     inkscape:pageopacity="0.0"
     inkscape:pageshadow="2"
     inkscape:zoom="1"
     inkscape:cx="60.481429"
     inkscape:cy="10.639719"
     inkscape:document-units="px"
     inkscape:current-layer="layer1"
     showgrid="true"
     fit-margin-top="0"
     fit-margin-left="0"
     fit-margin-right="0"
     fit-margin-bottom="0"
     borderlayer="true"
     inkscape:showpageshadow="false"
     inkscape:window-width="2560"
     inkscape:window-height="1403"
     inkscape:window-x="2560"
     inkscape:window-y="0"
     inkscape:window-maximized="1"
     units="px">
    <inkscape:grid
       type="xygrid"
       id="grid69071" />
  </sodipodi:namedview>
  <metadata
     id="metadata69029">
    <rdf:RDF>
      <cc:Work
         rdf:about="">
        <dc:format>image/svg+xml</dc:format>
        <dc:type
           rdf:resource="http://purl.org/dc/dcmitype/StillImage" />
        <dc:title></dc:title>
      </cc:Work>
    </rdf:RDF>
  </metadata>
  <g
     inkscape:label="Layer 1"
     inkscape:groupmode="layer"
     id="layer1"
     transform="translate(-126.0739,-179.26041)">
    <g
       transform="matrix(0.52916667,0,0,0.52916667,-139.04149,-22.352085)"
       style="display:inline;overflow:visible"
       id="g69009">
      <g
         transform="translate(433.5,-17.000004)"
         id="g27153"
         inkscape:label="drive-harddisk-solidstate"
         style="display:inline;overflow:visible">
        <g
           inkscape:label="accessories-calculator"
           id="g27155">
          <rect
             style="color:#bebebe;display:inline;overflow:visible;visibility:visible;opacity:0.51464431;fill:none;stroke:none;stroke-width:3;marker:none;enable-background:accumulate"
             id="rect27157"
             width="16"
             height="16"
             x="48"
             y="398" />
        </g>
        <path
           inkscape:connector-curvature="0"
           d="m 488.5,329 v 1 1 h -2 v 2 h -0.90625 -1 v 2 h 1 0.90625 v 2 h -0.90625 -1 v 2 h 1 0.90625 v 2 h -0.90625 -1 v 2 h 1 0.90625 v 2 h 2 v 1 1 h 2 v -1 -1 h 2 v 1 1 h 2 v -1 -1 h 2 v 1 1 h 2 v -1 -1 -2 h 1 1 v -2 h -1 -1 v -2 h 1 1 v -2 h -1 -1 v -2 h 1 1 v -2 h -1 -1 v -2 -1 -1 h -2 v 1 1 h -2 v -1 -1 h -2 v 1 1 h -2 v -1 -1 z m -5.60959,-6.00001 c -2.40319,0 -4.39062,2.0025 -4.39062,4.40234 v 23.19532 c 0,2.39984 1.98743,4.40234 4.39062,4.40234 h 19.21876 c 2.40319,0 4.39062,-2.0025 4.39062,-4.40234 v -23.19532 c 0,-2.39984 -1.98743,-4.40234 -4.39062,-4.40234 z m 0,4 h 19.21876 c 0.24759,0 0.39062,0.14054 0.39062,0.40234 v 23.19532 c 0,0.2618 -0.14303,0.40234 -0.39062,0.40234 h -19.21876 c -0.24759,0 -0.39062,-0.14054 -0.39062,-0.40234 v -23.19532 c 0,-0.2618 0.14303,-0.40234 0.39062,-0.40234 z"
           style="color:#000000;display:inline;overflow:visible;visibility:visible;fill:#ef2929;fill-opacity:1;fill-rule:nonzero;stroke:none;stroke-width:2;marker:none;enable-background:new"
           transform="matrix(0.49999999,0,0,0.49999999,-190.24989,236.50001)"
           id="rect27165" />
      </g>
      <rect
         transform="rotate(-90)"
         style="color:#bebebe;display:inline;overflow:visible;visibility:visible;fill:none;stroke:none;stroke-width:1;marker:none;enable-background:new"
         id="rect10837-5-8-4-4-2-3"
         y="501.00021"
         x="-397"
         height="16"
         width="16" />
      <path
         inkscape:connector-curvature="0"
         id="path4597-1"
         transform="matrix(0.49999999,0,0,0.49999999,243.25011,219.5)"
         d="m 531.5,325 c -6.30642,0 -11.63896,4.25142 -13.375,10 h 4.1875 c 1.5468,-3.53002 5.07638,-6 9.1875,-6 4.11112,0 7.6407,2.46998 9.1875,6 h 1.61523 c -0.45387,0.0564 -1.0663,0.0625 -1.9375,0.0625 h -2.875 c -1.04716,10e-5 -1.9999,0.95284 -2,2 -0.016,0.1452 -0.016,0.29226 0,0.4375 v 1.5625 h 12 v -2 -8 c 0.012,-0.1246 0.012,-0.25036 0,-0.375 v -1.625 h -1.625 c -0.1832,-0.0472 -0.3733,-0.0666 -0.5625,-0.0605 -0.0846,0.016 -0.1682,0.0343 -0.25,0.0605 -0.8943,0.20028 -1.58456,1.0838 -1.5625,2 v 2.80859 C 541.04902,327.77584 536.59329,325 531.5,325 Z m -15.99023,14 v 2 8 c -0.012,0.1246 -0.012,0.25036 0,0.375 V 351 h 1.625 c 0.1832,0.0472 0.3733,0.0685 0.5625,0.0625 0.0846,-0.016 0.1682,-0.0363 0.25,-0.0625 0.8943,-0.20028 1.58456,-1.0838 1.5625,-2 v -2.87109 C 521.95098,350.22416 526.40671,353 531.5,353 c 6.30642,0 11.63896,-4.25142 13.375,-10 h -4.1875 c -1.5468,3.53002 -5.07638,6 -9.1875,6 -4.108,0 -7.63496,-2.46645 -9.18359,-5.99219 0.12579,-2.2e-4 0.18074,-0.008 0.31836,-0.008 h 2.875 c 1.04716,-1e-4 1.9999,-0.95284 2,-2 0.016,-0.1452 0.016,-0.29226 0,-0.4375 V 339 Z"
         style="color:#bebebe;font-style:normal;font-variant:normal;font-weight:normal;font-stretch:normal;font-size:medium;line-height:normal;font-family:Sans;-inkscape-font-specification:Sans;text-indent:0;text-align:start;text-decoration:none;text-decoration-line:none;letter-spacing:normal;word-spacing:normal;text-transform:none;writing-mode:lr-tb;direction:ltr;baseline-shift:baseline;text-anchor:start;display:inline;overflow:visible;visibility:visible;fill:#ef2929;fill-opacity:1;stroke:none;stroke-width:2;marker:none;enable-background:accumulate" />
    </g>
  </g>
</svg>
