<?xml version="1.0" encoding="UTF-8" standalone="no"?>
<!-- Created with Inkscape (http://www.inkscape.org/) -->

<svg xmlns:dc="http://purl.org/dc/elements/1.1/" xmlns:cc="http://creativecommons.org/ns#" xmlns:rdf="http://www.w3.org/1999/02/22-rdf-syntax-ns#" xmlns:svg="http://www.w3.org/2000/svg" xmlns="http://www.w3.org/2000/svg" xmlns:sodipodi="http://sodipodi.sourceforge.net/DTD/sodipodi-0.dtd" xmlns:inkscape="http://www.inkscape.org/namespaces/inkscape" width="2672" height="1148" id="svg2" version="1.1" inkscape:version="0.48.3.1 r9886" sodipodi:docname="Read-only_mode_wireframe_ideas.svg" inkscape:export-filename="/home/rax/SparkleShare/gnome-mockups/calendar/events creation/Read-only_mode_wireframe_ideas.png" inkscape:export-xdpi="90" inkscape:export-ydpi="90">
   <defs id="defs4" />
   <sodipodi:namedview id="base" pagecolor="#4b648e" bordercolor="#666666" borderopacity="1.0" inkscape:pageopacity="1" inkscape:pageshadow="2" inkscape:zoom="0.25" inkscape:cx="1023.4488" inkscape:cy="607.77632" inkscape:document-units="px" inkscape:current-layer="layer1" showgrid="false" showborder="false" inkscape:showpageshadow="false" inkscape:window-width="1366" inkscape:window-height="741" inkscape:window-x="0" inkscape:window-y="-2" inkscape:window-maximized="1" fit-margin-top="0" fit-margin-left="0" fit-margin-right="0" fit-margin-bottom="0" />
   <metadata id="metadata7">
      <rdf:RDF>
         <cc:Work rdf:about="">
            <dc:format>image/svg+xml</dc:format>
            <dc:type rdf:resource="http://purl.org/dc/dcmitype/StillImage" />
            <dc:title></dc:title>
         </cc:Work>
      </rdf:RDF>
   </metadata>
   <g inkscape:label="Layer 1" inkscape:groupmode="layer" id="layer1" transform="translate(404,-240.3621)">
      <rect ry="13.347684" rx="13.347684" y="472.52158" x="1044.2456" height="457.08209" width="351.7207" id="rect5807" style="fill:white;fill-opacity:1;stroke:#333;stroke-width:1.99999988" />
      <path style="fill:black;fill-opacity:1;stroke:none" d="m -922.50721,624.36215 -10.96154,19 6.74439,0 10.96154,-19 -6.74439,0 z m 13.51923,0 -10.96154,19 6.75962,0 10.96153,-19 -6.75961,0 z m 13.53445,0 -10.96153,19 6.75961,0 10.96154,-19 -6.75962,0 z m 13.53446,0 -10.96154,19 6.74439,0 10.96154,-19 -6.74439,0 z m 13.51923,0 -10.96154,19 6.75962,0 10.96154,-19 -6.75962,0 z m 13.53446,0 -10.96154,19 6.75961,0 10.96154,-19 -6.75961,0 z m 13.53445,0 -10.96154,19 6.74439,0 10.96154,-19 -6.74439,0 z m 13.53446,0 -10.96154,19 6.74439,0 10.96154,-19 -6.74439,0 z m 13.51923,0 -10.96154,19 6.75961,0 10.96154,-19 -6.75961,0 z m 13.53445,0 -10.96154,19 6.74439,0 10.96154,-19 -6.74439,0 z m 13.53446,0 -10.96154,19 6.74439,0 10.96154,-19 -6.74439,0 z m 13.51923,0 -10.96154,19 6.75961,0 10.96154,-19 -6.75961,0 z m 13.53445,0 -10.96154,19 6.75962,0 10.96154,-19 -6.75962,0 z m 13.53446,0 -10.96154,19 6.74439,0 10.96154,-19 -6.74439,0 z m 13.51923,0 -10.96154,19 6.75962,0 10.96153,-19 -6.75961,0 z m 13.53445,0 -10.96153,19 6.75961,0 10.96154,-19 -6.75962,0 z m 13.53446,0 -10.96154,19 6.74439,0 10.96154,-19 -6.74439,0 z m 13.51923,0 -10.96154,19 6.75962,0 10.96153,-19 -6.75961,0 z m 13.53445,0 -10.96153,19 6.75961,0 10.96154,-19 -6.75962,0 z m 13.53446,0 -10.96154,19 6.74439,0 10.96154,-19 -6.74439,0 z m 13.53445,0 -10.96153,19 6.74439,0 10.96154,-19 -6.7444,0 z m 13.51924,0 -10.96154,19 6.75961,0 10.96154,-19 -6.75961,0 z m 13.53445,0 -10.96154,19 6.74439,0 10.96154,-19 -6.74439,0 z m 13.53446,0 -10.96154,19 6.74439,0 10.96154,-19 -6.74439,0 z m 13.51923,0 -10.96154,19 6.75961,0 10.96154,-19 -6.75961,0 z m 13.53445,0 -10.96154,19 6.75962,0 10.96154,-19 -6.75962,0 z m 13.53446,0 -10.96154,19 6.74439,0 10.96154,-19 -6.74439,0 z m 13.51923,0 -10.96154,19 6.75961,0 10.96154,-19 -6.75961,0 z m 13.53445,0 -10.96154,19 6.75962,0 10.96154,-19 -6.75962,0 z m 13.53446,0 -10.96154,19 6.74439,0 10.96154,-19 -6.74439,0 z" id="rect2987" inkscape:connector-curvature="0" />
      <g id="g5617">
         <rect ry="13.347684" rx="13.347684" y="472.52158" x="45.81081" height="457.08209" width="351.7207" id="rect2985" style="fill:white;fill-opacity:1;stroke:#333;stroke-width:1.99999988" />
         <path inkscape:connector-curvature="0" id="path3657" d="m 45.813419,510.83242 0,16.40399 9.456421,-16.40399 -9.456421,0 z m 19.926029,0 -16.934712,29.3342 10.469608,0 16.886466,-29.3342 -10.421362,0 z m 20.890971,0 -16.934713,29.3342 10.421362,0 16.934712,-29.3342 -10.421361,0 z m 20.890971,0 -16.886467,29.3342 10.373117,0 16.93471,-29.3342 -10.42136,0 z m 20.89097,0 -16.93471,29.3342 10.42136,0 16.93471,-29.3342 -10.42136,0 z m 20.89097,0 -16.93471,29.3342 10.4696,0 16.88647,-29.3342 -10.42136,0 z m 20.89097,0 -16.93471,29.3342 10.42136,0 16.93471,-29.3342 -10.42136,0 z m 20.89097,0 -16.93471,29.3342 10.42136,0 16.93471,-29.3342 -10.42136,0 z m 20.89097,0 -16.93471,29.3342 10.42136,0 16.93471,-29.3342 -10.42136,0 z m 20.89097,0 -16.93471,29.3342 10.42136,0 16.93471,-29.3342 -10.42136,0 z m 20.89097,0 -16.93471,29.3342 10.42136,0 16.93471,-29.3342 -10.42136,0 z m 20.89097,0 -16.93471,29.3342 10.42136,0 16.93471,-29.3342 -10.42136,0 z m 20.89097,0 -16.93471,29.3342 10.42136,0 16.93471,-29.3342 -10.42136,0 z m 20.89097,0 -16.93471,29.3342 10.42136,0 16.93471,-29.3342 -10.42136,0 z m 20.89097,0 -16.93471,29.3342 10.42136,0 16.93471,-29.3342 -10.42136,0 z m 20.89097,0 -16.93471,29.3342 10.42136,0 16.88646,-29.3342 -10.37311,0 z m 20.89097,0 -16.93471,29.3342 10.42136,0 16.93471,-29.3342 -10.42136,0 z m 18.43037,4.19749 -14.47411,25.13671 10.42136,0 4.05275,-7.04407 0,-18.09264 z" style="opacity:0.2;fill:#06f;fill-opacity:1;stroke:none" />
         <rect ry="5.6281571" rx="5.6281571" y="576.44836" x="103.99935" height="30.878107" width="214.60284" id="rect3698" style="fill:none;stroke:#1a1a1a;stroke-width:2" />
         <rect style="fill:none;stroke:#1a1a1a;stroke-width:2" id="rect3700" width="214.60284" height="30.878107" x="103.99935" y="634.34479" rx="5.6281571" ry="5.6281571" />
         <rect style="fill:none;stroke:#1a1a1a;stroke-width:2" id="rect3702" width="214.60284" height="30.878107" x="103.99935" y="692.24127" rx="5.6281571" ry="5.6281571" />
         <rect ry="5.6281571" rx="5.6281571" y="750.1377" x="103.99935" height="30.878107" width="214.60284" id="rect3704" style="fill:none;stroke:#1a1a1a;stroke-width:2" />
         <rect style="fill:none;stroke:#1a1a1a;stroke-width:2" id="rect3706" width="214.60284" height="97.266037" x="103.99935" y="800.31464" rx="5.6281571" ry="5.6281571" />
         <g style="fill:#1a1a1a;display:inline" id="g4076-8-6" inkscape:label="channel-secure" transform="matrix(1.5439054,0,0,1.5439054,48.804736,-271.83113)">
            <g style="fill:#1a1a1a;fill-opacity:1" transform="translate(181,233)" inkscape:label="lock" id="g4053-1-5" />
            <path style="color:#bebebe;fill:#1a1a1a;fill-opacity:1;fill-rule:nonzero;stroke:none;stroke-width:2;marker:none;visibility:visible;display:inline;overflow:visible" d="m 205,516 c -0.554,0 -1.18921,0.47931 -1,1 l 0,0.53125 0,4.46875 10,0 0,-4.46875 L 214,517 c 0,-0.554 -0.446,-1 -1,-1 z" id="rect4063-8-6" inkscape:connector-curvature="0" sodipodi:nodetypes="csccccscc" />
            <rect ry="2" rx="2" y="512" x="206" height="8" width="6" id="rect4291-5-4" style="color:#bebebe;fill:none;stroke:#1a1a1a;stroke-width:1.29541612;stroke-linecap:butt;stroke-linejoin:miter;stroke-miterlimit:4;stroke-opacity:1;stroke-dasharray:none;stroke-dashoffset:0;marker:none;visibility:visible;display:inline;overflow:visible;enable-background:accumulate" />
         </g>
         <text id="text5599" y="529.10895" x="63.777527" style="font-size:24.70248604px;font-style:normal;font-variant:normal;font-weight:bold;font-stretch:normal;text-align:start;writing-mode:lr-tb;text-anchor:start;fill:none;stroke:#1a1a1a;stroke-width:1.99999988;stroke-linecap:round;stroke-linejoin:round;stroke-miterlimit:4;stroke-opacity:1;stroke-dasharray:none;stroke-dashoffset:0;font-family:Droid Sans;-inkscape-font-specification:Droid Sans Bold" xml:space="preserve"><tspan style="stroke-width:1.99999988" y="529.10895" x="63.777527" id="tspan5601" sodipodi:role="line"><tspan id="tspan5603" style="font-style:italic;stroke-width:1.99999988;-inkscape-font-specification:Droid Sans Bold Italic"><tspan id="tspan5605" style="font-weight:normal;stroke-width:1.99999988;-inkscape-font-specification:Droid Sans Italic"><tspan id="tspan5607" style="font-style:normal;stroke-width:1.99999988;-inkscape-font-specification:Droid Sans"><tspan id="tspan5609" style="stroke:none"><tspan id="tspan5611" style="fill:black"><tspan id="tspan5613" style="font-size:18.52686501px"><tspan id="tspan5615" style="font-size:13.89514828px">Calendar is read-only </tspan></tspan></tspan></tspan></tspan></tspan></tspan></tspan></text>
      </g>
      <g id="g6930" transform="translate(1.9745678,0)">
         <g id="g6101">
            <rect ry="13.347684" rx="13.347684" y="472.52158" x="545.02826" height="457.08209" width="351.7207" id="rect5641" style="fill:white;fill-opacity:1;stroke:#333;stroke-width:1.99999988" />
            <path inkscape:connector-curvature="0" id="path5643" d="m 545.03086,510.83242 0,16.40399 9.45642,-16.40399 -9.45642,0 z m 19.92603,0 -16.93471,29.3342 10.4696,0 16.88647,-29.3342 -10.42136,0 z m 20.89097,0 -16.93471,29.3342 10.42136,0 16.93471,-29.3342 -10.42136,0 z m 20.89097,0 -16.88647,29.3342 10.37312,0 16.93471,-29.3342 -10.42136,0 z m 20.89097,0 -16.93471,29.3342 10.42136,0 16.93471,-29.3342 -10.42136,0 z m 20.89097,0 -16.93471,29.3342 10.4696,0 16.88647,-29.3342 -10.42136,0 z m 20.89097,0 -16.93471,29.3342 10.42136,0 16.93471,-29.3342 -10.42136,0 z m 20.89097,0 -16.93471,29.3342 10.42136,0 16.93471,-29.3342 -10.42136,0 z m 20.89097,0 -16.93471,29.3342 10.42136,0 16.93471,-29.3342 -10.42136,0 z m 20.89097,0 -16.93471,29.3342 10.42136,0 16.93471,-29.3342 -10.42136,0 z m 20.89097,0 -16.93471,29.3342 10.42136,0 16.93471,-29.3342 -10.42136,0 z m 20.89097,0 -16.93471,29.3342 10.42136,0 16.93471,-29.3342 -10.42136,0 z m 20.89097,0 -16.93471,29.3342 10.42136,0 16.93471,-29.3342 -10.42136,0 z m 20.89097,0 -16.93471,29.3342 10.42136,0 16.93471,-29.3342 -10.42136,0 z m 20.89097,0 -16.93471,29.3342 10.42136,0 16.93471,-29.3342 -10.42136,0 z m 20.89097,0 -16.93471,29.3342 10.42136,0 16.88646,-29.3342 -10.37311,0 z m 20.89097,0 -16.93471,29.3342 10.42136,0 16.93471,-29.3342 -10.42136,0 z m 18.43037,4.19749 -14.47411,25.13671 10.42136,0 4.05275,-7.04407 0,-18.09264 z" style="opacity:0.2;fill:#06f;fill-opacity:1;stroke:none" />
            <rect ry="5.6281571" rx="5.6281571" y="576.44836" x="603.2168" height="30.878107" width="214.60284" id="rect5645" style="fill:none;stroke:#1a1a1a;stroke-width:2" />
            <rect style="fill:none;stroke:#1a1a1a;stroke-width:2" id="rect5647" width="214.60284" height="30.878107" x="603.2168" y="634.34479" rx="5.6281571" ry="5.6281571" />
            <rect style="fill:none;stroke:#1a1a1a;stroke-width:2" id="rect5649" width="214.60284" height="30.878107" x="603.2168" y="692.24127" rx="5.6281571" ry="5.6281571" />
            <rect ry="5.6281571" rx="5.6281571" y="750.1377" x="603.2168" height="30.878107" width="214.60284" id="rect5651" style="fill:none;stroke:#1a1a1a;stroke-width:2" />
            <rect style="fill:none;stroke:#1a1a1a;stroke-width:2" id="rect5653" width="214.60284" height="97.266037" x="603.2168" y="800.31464" rx="5.6281571" ry="5.6281571" />
            <g style="fill:#1a1a1a;display:inline" id="g5655" inkscape:label="channel-secure" transform="matrix(1.5439054,0,0,1.5439054,476.02218,-206.83113)">
               <g style="fill:#1a1a1a;fill-opacity:1" transform="translate(181,233)" inkscape:label="lock" id="g5657" />
               <path style="color:#bebebe;fill:#1a1a1a;fill-opacity:1;fill-rule:nonzero;stroke:none;stroke-width:2;marker:none;visibility:visible;display:inline;overflow:visible" d="m 205,516 c -0.554,0 -1.18921,0.47931 -1,1 l 0,0.53125 0,4.46875 10,0 0,-4.46875 L 214,517 c 0,-0.554 -0.446,-1 -1,-1 z" id="path5659" inkscape:connector-curvature="0" sodipodi:nodetypes="csccccscc" />
               <rect ry="2" rx="2" y="512" x="206" height="8" width="6" id="rect5661" style="color:#bebebe;fill:none;stroke:#1a1a1a;stroke-width:1.29541612;stroke-linecap:butt;stroke-linejoin:miter;stroke-miterlimit:4;stroke-opacity:1;stroke-dasharray:none;stroke-dashoffset:0;marker:none;visibility:visible;display:inline;overflow:visible;enable-background:accumulate" />
            </g>
            <text id="text5663" y="529.10895" x="562.995" style="font-size:24.70248604px;font-style:normal;font-variant:normal;font-weight:bold;font-stretch:normal;text-align:start;writing-mode:lr-tb;text-anchor:start;fill:none;stroke:#1a1a1a;stroke-width:1.99999988;stroke-linecap:round;stroke-linejoin:round;stroke-miterlimit:4;stroke-opacity:1;stroke-dasharray:none;stroke-dashoffset:0;font-family:Droid Sans;-inkscape-font-specification:Droid Sans Bold" xml:space="preserve"><tspan style="stroke-width:1.99999988" y="529.10895" x="562.995" id="tspan5665" sodipodi:role="line"><tspan id="tspan5667" style="font-style:italic;stroke-width:1.99999988;-inkscape-font-specification:Droid Sans Bold Italic"><tspan id="tspan5669" style="font-weight:normal;stroke-width:1.99999988;-inkscape-font-specification:Droid Sans Italic"><tspan id="tspan5671" style="font-style:normal;stroke-width:1.99999988;-inkscape-font-specification:Droid Sans"><tspan id="tspan5673" style="stroke:none"><tspan id="tspan5675" style="fill:black"><tspan id="tspan5677" style="font-size:18.52686501px"><tspan id="tspan5679" style="font-size:13.89514828px">Calendar is read-only </tspan></tspan></tspan></tspan></tspan></tspan></tspan></tspan></text>
            <g transform="matrix(1.5439054,0,0,1.5439054,476.02218,-147.83113)" inkscape:label="channel-secure" id="g5701" style="fill:#1a1a1a;display:inline">
               <g id="g5703" inkscape:label="lock" transform="translate(181,233)" style="fill:#1a1a1a;fill-opacity:1" />
               <path sodipodi:nodetypes="csccccscc" inkscape:connector-curvature="0" id="path5705" d="m 205,516 c -0.554,0 -1.18921,0.47931 -1,1 l 0,0.53125 0,4.46875 10,0 0,-4.46875 L 214,517 c 0,-0.554 -0.446,-1 -1,-1 z" style="color:#bebebe;fill:#1a1a1a;fill-opacity:1;fill-rule:nonzero;stroke:none;stroke-width:2;marker:none;visibility:visible;display:inline;overflow:visible" />
               <rect style="color:#bebebe;fill:none;stroke:#1a1a1a;stroke-width:1.29541612;stroke-linecap:butt;stroke-linejoin:miter;stroke-miterlimit:4;stroke-opacity:1;stroke-dasharray:none;stroke-dashoffset:0;marker:none;visibility:visible;display:inline;overflow:visible;enable-background:accumulate" id="rect5707" width="6" height="8" x="206" y="512" rx="2" ry="2" />
            </g>
            <g style="fill:#1a1a1a;display:inline" id="g5709" inkscape:label="channel-secure" transform="matrix(1.5439054,0,0,1.5439054,476.02218,-91.83113)">
               <g style="fill:#1a1a1a;fill-opacity:1" transform="translate(181,233)" inkscape:label="lock" id="g5711" />
               <path style="color:#bebebe;fill:#1a1a1a;fill-opacity:1;fill-rule:nonzero;stroke:none;stroke-width:2;marker:none;visibility:visible;display:inline;overflow:visible" d="m 205,516 c -0.554,0 -1.18921,0.47931 -1,1 l 0,0.53125 0,4.46875 10,0 0,-4.46875 L 214,517 c 0,-0.554 -0.446,-1 -1,-1 z" id="path5713" inkscape:connector-curvature="0" sodipodi:nodetypes="csccccscc" />
               <rect ry="2" rx="2" y="512" x="206" height="8" width="6" id="rect5715" style="color:#bebebe;fill:none;stroke:#1a1a1a;stroke-width:1.29541612;stroke-linecap:butt;stroke-linejoin:miter;stroke-miterlimit:4;stroke-opacity:1;stroke-dasharray:none;stroke-dashoffset:0;marker:none;visibility:visible;display:inline;overflow:visible;enable-background:accumulate" />
            </g>
            <g transform="matrix(1.5439054,0,0,1.5439054,476.02218,-31.83113)" inkscape:label="channel-secure" id="g5717" style="fill:#1a1a1a;display:inline">
               <g id="g5719" inkscape:label="lock" transform="translate(181,233)" style="fill:#1a1a1a;fill-opacity:1" />
               <path sodipodi:nodetypes="csccccscc" inkscape:connector-curvature="0" id="path5721" d="m 205,516 c -0.554,0 -1.18921,0.47931 -1,1 l 0,0.53125 0,4.46875 10,0 0,-4.46875 L 214,517 c 0,-0.554 -0.446,-1 -1,-1 z" style="color:#bebebe;fill:#1a1a1a;fill-opacity:1;fill-rule:nonzero;stroke:none;stroke-width:2;marker:none;visibility:visible;display:inline;overflow:visible" />
               <rect style="color:#bebebe;fill:none;stroke:#1a1a1a;stroke-width:1.29541612;stroke-linecap:butt;stroke-linejoin:miter;stroke-miterlimit:4;stroke-opacity:1;stroke-dasharray:none;stroke-dashoffset:0;marker:none;visibility:visible;display:inline;overflow:visible;enable-background:accumulate" id="rect5723" width="6" height="8" x="206" y="512" rx="2" ry="2" />
            </g>
         </g>
      </g>
      <g style="fill:#1a1a1a;display:inline" id="g5725" inkscape:label="channel-secure" transform="matrix(1.5439054,0,0,1.5439054,476.02218,18.16887)">
         <g style="fill:#1a1a1a;fill-opacity:1" transform="translate(181,233)" inkscape:label="lock" id="g5727" />
      </g>
      <text xml:space="preserve" style="font-size:24.70248604px;font-style:normal;font-variant:normal;font-weight:bold;font-stretch:normal;text-align:start;writing-mode:lr-tb;text-anchor:start;fill:none;stroke:#1a1a1a;stroke-width:1.99999988;stroke-linecap:round;stroke-linejoin:round;stroke-miterlimit:4;stroke-opacity:1;stroke-dasharray:none;stroke-dashoffset:0;font-family:Droid Sans;-inkscape-font-specification:Droid Sans Bold" x="1097.995" y="529.10895" id="text6007"><tspan sodipodi:role="line" id="tspan6009" x="1097.995" y="529.10895" style="stroke-width:1.99999988"><tspan style="font-style:italic;stroke-width:1.99999988;-inkscape-font-specification:Droid Sans Bold Italic" id="tspan6011"><tspan style="font-weight:normal;stroke-width:1.99999988;-inkscape-font-specification:Droid Sans Italic" id="tspan6013"><tspan style="font-style:normal;stroke-width:1.99999988;-inkscape-font-specification:Droid Sans" id="tspan6015"><tspan style="stroke:none" id="tspan6017"><tspan style="fill:black" id="tspan6019"><tspan style="font-size:18.52686501px" id="tspan6021"><tspan style="font-size:13.89514828px" id="tspan6023">Calendar is read-only </tspan></tspan></tspan></tspan></tspan></tspan></tspan></tspan></text>
      <rect style="fill:none;stroke:#1a1a1a;stroke-width:2" id="rect5819" width="214.60284" height="97.266037" x="1102.4342" y="800.31464" rx="5.6281571" ry="5.6281571" />
      <g id="g5997" transform="translate(0,-6.3232421e-6)">
         <rect style="fill:white;stroke:#1a1a1a;stroke-width:2" id="rect5811" width="214.60284" height="30.878107" x="1102.4342" y="576.44836" rx="5.6281571" ry="5.6281571" />
         <path id="path5809" transform="translate(0,-1947.6379)" d="m 1108.0625,2524.0938 c -1.0642,0 -2.0593,0.272 -2.9063,0.7812 l -2.7187,4.7188 c -9e-4,0.041 0,0.084 0,0.125 l 0,17.9062 13.5625,-23.5312 -7.9375,0 z m 18.4063,0 -16.5626,28.7187 10.4376,0 16.5624,-28.7187 -10.4374,0 z m 20.9062,0 -16.5625,28.7187 10.4687,0 16.5,-28.7187 -10.4062,0 z m 20.875,0 -16.5625,28.7187 10.4375,0 16.5625,-28.7187 -10.4375,0 z m 20.9062,0 -16.5624,28.7187 10.4062,0 16.5625,-28.7187 -10.4063,0 z m 20.875,0 -16.5624,28.7187 10.4374,0 16.5626,-28.7187 -10.4376,0 z m 20.9063,0 -16.5625,28.7187 10.4062,0 16.5626,-28.7187 -10.4063,0 z m 20.875,0 -16.5625,28.7187 10.4375,0 16.5625,-28.7187 -10.4375,0 z m 20.9063,0 -16.5626,28.7187 10.4063,0 16.5625,-28.7187 -10.4062,0 z m 20.875,0 -16.5626,28.7187 10.4376,0 16.5624,-28.7187 -10.4374,0 z m 20.5312,0.6874 -16.1875,28.0313 10.4063,0 8.6874,-15.0625 0,-8.0312 c 0,-2.1284 -1.1721,-3.9807 -2.9062,-4.9376 z" style="opacity:0.1;fill:#06f;fill-opacity:1;stroke:none" inkscape:connector-curvature="0" />
         <g transform="matrix(1.5439054,0,0,1.5439054,974.4075,-206.77731)" inkscape:label="channel-secure" id="g5821" style="fill:#1a1a1a;display:inline">
            <g id="g5823" inkscape:label="lock" transform="translate(181,233)" style="fill:#1a1a1a;fill-opacity:1" />
            <path sodipodi:nodetypes="csccccscc" inkscape:connector-curvature="0" id="path5825" d="m 205,516 c -0.554,0 -1.18921,0.47931 -1,1 l 0,0.53125 0,4.46875 10,0 0,-4.46875 L 214,517 c 0,-0.554 -0.446,-1 -1,-1 z" style="color:#bebebe;fill:#1a1a1a;fill-opacity:1;fill-rule:nonzero;stroke:none;stroke-width:2;marker:none;visibility:visible;display:inline;overflow:visible" />
            <rect style="color:#bebebe;fill:none;stroke:#1a1a1a;stroke-width:1.29541612;stroke-linecap:butt;stroke-linejoin:miter;stroke-miterlimit:4;stroke-opacity:1;stroke-dasharray:none;stroke-dashoffset:0;marker:none;visibility:visible;display:inline;overflow:visible;enable-background:accumulate" id="rect5827" width="6" height="8" x="206" y="512" rx="2" ry="2" />
         </g>
         <text xml:space="preserve" style="font-size:18px;font-style:normal;font-variant:normal;font-weight:normal;font-stretch:normal;text-align:start;writing-mode:lr-tb;text-anchor:start;fill:#1a1a1a;stroke:none;font-family:Droid Sans;-inkscape-font-specification:Droid Sans" x="1113.124" y="597.6983" id="text5829"><tspan sodipodi:role="line" id="tspan5831" x="1113.124" y="597.6983" style="font-size:18px;font-weight:normal;fill:#1a1a1a;stroke:none;-inkscape-font-specification:Droid Sans">Information</tspan></text>
      </g>
      <g id="g5976" transform="translate(0,1.1785215)">
         <rect ry="5.6281571" rx="5.6281571" y="630.18848" x="1102.4342" height="30.878107" width="214.60284" id="rect5908" style="fill:white;stroke:#1a1a1a;stroke-width:2" />
         <path inkscape:connector-curvature="0" style="opacity:0.1;fill:#06f;fill-opacity:1;stroke:none" d="m 1108.0625,630.19601 c -1.0642,0 -2.0593,0.272 -2.9063,0.7812 l -2.7187,4.7188 c -9e-4,0.0406 0,0.084 0,0.125 l 0,17.9062 13.5625,-23.5312 -7.9375,0 z m 18.4063,0 -16.5626,28.7187 10.4376,0 16.5624,-28.7187 -10.4374,0 z m 20.9062,0 -16.5625,28.7187 10.4687,0 16.5,-28.7187 -10.4062,0 z m 20.875,0 -16.5625,28.7187 10.4375,0 16.5625,-28.7187 -10.4375,0 z m 20.9062,0 -16.5624,28.7187 10.4062,0 16.5625,-28.7187 -10.4063,0 z m 20.875,0 -16.5624,28.7187 10.4374,0 16.5626,-28.7187 -10.4376,0 z m 20.9063,0 -16.5625,28.7187 10.4062,0 16.5626,-28.7187 -10.4063,0 z m 20.875,0 -16.5625,28.7187 10.4375,0 16.5625,-28.7187 -10.4375,0 z m 20.9063,0 -16.5626,28.7187 10.4063,0 16.5625,-28.7187 -10.4062,0 z m 20.875,0 -16.5626,28.7187 10.4376,0 16.5624,-28.7187 -10.4374,0 z m 20.5312,0.6874 -16.1875,28.0313 10.4063,0 8.6874,-15.0625 0,-8.0312 c 0,-2.1284 -1.1721,-3.9807 -2.9062,-4.9376 z" id="path5910" />
         <g style="fill:#1a1a1a;display:inline" id="g5912" inkscape:label="channel-secure" transform="matrix(1.5439054,0,0,1.5439054,974.4075,-153.0372)">
            <g style="fill:#1a1a1a;fill-opacity:1" transform="translate(181,233)" inkscape:label="lock" id="g5914" />
            <path style="color:#bebebe;fill:#1a1a1a;fill-opacity:1;fill-rule:nonzero;stroke:none;stroke-width:2;marker:none;visibility:visible;display:inline;overflow:visible" d="m 205,516 c -0.554,0 -1.18921,0.47931 -1,1 l 0,0.53125 0,4.46875 10,0 0,-4.46875 L 214,517 c 0,-0.554 -0.446,-1 -1,-1 z" id="path5916" inkscape:connector-curvature="0" sodipodi:nodetypes="csccccscc" />
            <rect ry="2" rx="2" y="512" x="206" height="8" width="6" id="rect5918" style="color:#bebebe;fill:none;stroke:#1a1a1a;stroke-width:1.29541612;stroke-linecap:butt;stroke-linejoin:miter;stroke-miterlimit:4;stroke-opacity:1;stroke-dasharray:none;stroke-dashoffset:0;marker:none;visibility:visible;display:inline;overflow:visible;enable-background:accumulate" />
         </g>
         <text id="text5920" y="651.43842" x="1113.124" style="font-size:18px;font-style:normal;font-variant:normal;font-weight:normal;font-stretch:normal;text-align:start;writing-mode:lr-tb;text-anchor:start;fill:#1a1a1a;stroke:none;font-family:Droid Sans;-inkscape-font-specification:Droid Sans" xml:space="preserve"><tspan style="font-size:18px;font-weight:normal;fill:#1a1a1a;stroke:none;-inkscape-font-specification:Droid Sans" y="651.43842" x="1113.124" id="tspan5922" sodipodi:role="line">Information</tspan></text>
      </g>
      <g id="g5966" transform="translate(0,1.6499265)">
         <rect style="fill:white;stroke:#1a1a1a;stroke-width:2" id="rect5924" width="214.60284" height="30.878107" x="1102.4342" y="684.63568" rx="5.6281571" ry="5.6281571" />
         <path id="path5926" d="m 1108.0625,684.64323 c -1.0642,0 -2.0593,0.272 -2.9063,0.7812 l -2.7187,4.7188 c -9e-4,0.0406 0,0.084 0,0.125 l 0,17.9062 13.5625,-23.5312 -7.9375,0 z m 18.4063,0 -16.5626,28.7187 10.4376,0 16.5624,-28.7187 -10.4374,0 z m 20.9062,0 -16.5625,28.7187 10.4687,0 16.5,-28.7187 -10.4062,0 z m 20.875,0 -16.5625,28.7187 10.4375,0 16.5625,-28.7187 -10.4375,0 z m 20.9062,0 -16.5624,28.7187 10.4062,0 16.5625,-28.7187 -10.4063,0 z m 20.875,0 -16.5624,28.7187 10.4374,0 16.5626,-28.7187 -10.4376,0 z m 20.9063,0 -16.5625,28.7187 10.4062,0 16.5626,-28.7187 -10.4063,0 z m 20.875,0 -16.5625,28.7187 10.4375,0 16.5625,-28.7187 -10.4375,0 z m 20.9063,0 -16.5626,28.7187 10.4063,0 16.5625,-28.7187 -10.4062,0 z m 20.875,0 -16.5626,28.7187 10.4376,0 16.5624,-28.7187 -10.4374,0 z m 20.5312,0.6874 -16.1875,28.0313 10.4063,0 8.6874,-15.0625 0,-8.0312 c 0,-2.1284 -1.1721,-3.9807 -2.9062,-4.9376 z" style="opacity:0.1;fill:#06f;fill-opacity:1;stroke:none" inkscape:connector-curvature="0" />
         <g transform="matrix(1.5439054,0,0,1.5439054,974.4075,-98.589978)" inkscape:label="channel-secure" id="g5928" style="fill:#1a1a1a;display:inline">
            <g id="g5930" inkscape:label="lock" transform="translate(181,233)" style="fill:#1a1a1a;fill-opacity:1" />
            <path sodipodi:nodetypes="csccccscc" inkscape:connector-curvature="0" id="path5932" d="m 205,516 c -0.554,0 -1.18921,0.47931 -1,1 l 0,0.53125 0,4.46875 10,0 0,-4.46875 L 214,517 c 0,-0.554 -0.446,-1 -1,-1 z" style="color:#bebebe;fill:#1a1a1a;fill-opacity:1;fill-rule:nonzero;stroke:none;stroke-width:2;marker:none;visibility:visible;display:inline;overflow:visible" />
            <rect style="color:#bebebe;fill:none;stroke:#1a1a1a;stroke-width:1.29541612;stroke-linecap:butt;stroke-linejoin:miter;stroke-miterlimit:4;stroke-opacity:1;stroke-dasharray:none;stroke-dashoffset:0;marker:none;visibility:visible;display:inline;overflow:visible;enable-background:accumulate" id="rect5934" width="6" height="8" x="206" y="512" rx="2" ry="2" />
         </g>
         <text xml:space="preserve" style="font-size:18px;font-style:normal;font-variant:normal;font-weight:normal;font-stretch:normal;text-align:start;writing-mode:lr-tb;text-anchor:start;fill:#1a1a1a;stroke:none;font-family:Droid Sans;-inkscape-font-specification:Droid Sans" x="1113.124" y="705.88562" id="text5936"><tspan sodipodi:role="line" id="tspan5938" x="1113.124" y="705.88562" style="font-size:18px;font-weight:normal;fill:#1a1a1a;stroke:none;-inkscape-font-specification:Droid Sans">Information</tspan></text>
      </g>
      <g id="g5956" transform="translate(0,1.4657593e-5)">
         <rect ry="5.6281571" rx="5.6281571" y="741.20422" x="1102.4342" height="30.878107" width="214.60284" id="rect5940" style="fill:white;stroke:#1a1a1a;stroke-width:2" />
         <path inkscape:connector-curvature="0" style="opacity:0.1;fill:#06f;fill-opacity:1;stroke:none" d="m 1108.0625,741.21177 c -1.0642,0 -2.0593,0.272 -2.9063,0.7812 l -2.7187,4.7188 c -9e-4,0.0406 0,0.084 0,0.125 l 0,17.9062 13.5625,-23.5312 -7.9375,0 z m 18.4063,0 -16.5626,28.7187 10.4376,0 16.5624,-28.7187 -10.4374,0 z m 20.9062,0 -16.5625,28.7187 10.4687,0 16.5,-28.7187 -10.4062,0 z m 20.875,0 -16.5625,28.7187 10.4375,0 16.5625,-28.7187 -10.4375,0 z m 20.9062,0 -16.5624,28.7187 10.4062,0 16.5625,-28.7187 -10.4063,0 z m 20.875,0 -16.5624,28.7187 10.4374,0 16.5626,-28.7187 -10.4376,0 z m 20.9063,0 -16.5625,28.7187 10.4062,0 16.5626,-28.7187 -10.4063,0 z m 20.875,0 -16.5625,28.7187 10.4375,0 16.5625,-28.7187 -10.4375,0 z m 20.9063,0 -16.5626,28.7187 10.4063,0 16.5625,-28.7187 -10.4062,0 z m 20.875,0 -16.5626,28.7187 10.4376,0 16.5624,-28.7187 -10.4374,0 z m 20.5312,0.6874 -16.1875,28.0313 10.4063,0 8.6874,-15.0625 0,-8.0312 c 0,-2.1284 -1.1721,-3.9807 -2.9062,-4.9376 z" id="path5942" />
         <g style="fill:#1a1a1a;display:inline" id="g5944" inkscape:label="channel-secure" transform="matrix(1.5439054,0,0,1.5439054,974.4075,-42.021435)">
            <g style="fill:#1a1a1a;fill-opacity:1" transform="translate(181,233)" inkscape:label="lock" id="g5946" />
            <path style="color:#bebebe;fill:#1a1a1a;fill-opacity:1;fill-rule:nonzero;stroke:none;stroke-width:2;marker:none;visibility:visible;display:inline;overflow:visible" d="m 205,516 c -0.554,0 -1.18921,0.47931 -1,1 l 0,0.53125 0,4.46875 10,0 0,-4.46875 L 214,517 c 0,-0.554 -0.446,-1 -1,-1 z" id="path5948" inkscape:connector-curvature="0" sodipodi:nodetypes="csccccscc" />
            <rect ry="2" rx="2" y="512" x="206" height="8" width="6" id="rect5950" style="color:#bebebe;fill:none;stroke:#1a1a1a;stroke-width:1.29541612;stroke-linecap:butt;stroke-linejoin:miter;stroke-miterlimit:4;stroke-opacity:1;stroke-dasharray:none;stroke-dashoffset:0;marker:none;visibility:visible;display:inline;overflow:visible;enable-background:accumulate" />
         </g>
         <text id="text5952" y="762.45416" x="1113.124" style="font-size:18px;font-style:normal;font-variant:normal;font-weight:normal;font-stretch:normal;text-align:start;writing-mode:lr-tb;text-anchor:start;fill:#1a1a1a;stroke:none;font-family:Droid Sans;-inkscape-font-specification:Droid Sans" xml:space="preserve"><tspan style="font-size:18px;font-weight:normal;fill:#1a1a1a;stroke:none;-inkscape-font-specification:Droid Sans" y="762.45416" x="1113.124" id="tspan5954" sodipodi:role="line">Information</tspan></text>
      </g>
      <g transform="matrix(1.5625,0,0,1.5625,627.93759,107.7996)" style="display:inline" id="g4632" inkscape:label="dialog-information">
         <rect style="color:#bebebe;fill:none;stroke:none;stroke-width:2;marker:none;visibility:visible;display:inline;overflow:visible" id="rect3215-3-4-3" width="16" height="16" x="280.99994" y="257" />
         <path sodipodi:nodetypes="csccccsc" id="path4561" d="m 289,258 c -2.20913,0 -4,1.79087 -4,4 0,1.4792 0.80621,2.74542 2,3.4375 l 0,2.5625 4,0 0,-2.5625 c 1.19379,-0.69208 2,-1.9583 2,-3.4375 0,-2.20913 -1.79087,-4 -4,-4 z" style="color:black;fill:none;stroke:#333;stroke-width:2.00000024;stroke-linecap:butt;stroke-linejoin:miter;stroke-miterlimit:4;stroke-opacity:1;stroke-dasharray:none;stroke-dashoffset:0;marker:none;visibility:visible;display:inline;overflow:visible;enable-background:accumulate" inkscape:connector-curvature="0" />
         <path sodipodi:nodetypes="cc" id="path4488-4" d="m 287,272.5 4,0" style="color:black;fill:#666;fill-opacity:1;fill-rule:nonzero;stroke:#333;stroke-width:1;stroke-linecap:butt;stroke-linejoin:miter;stroke-miterlimit:4;stroke-opacity:1;stroke-dasharray:none;stroke-dashoffset:0;marker:none;visibility:visible;display:inline;overflow:visible;enable-background:accumulate" inkscape:connector-curvature="0" />
         <path sodipodi:nodetypes="cc" id="path4488-4-7" d="m 286,270.5 6,0" style="color:black;fill:#666;fill-opacity:1;fill-rule:nonzero;stroke:#333;stroke-width:1;stroke-linecap:butt;stroke-linejoin:miter;stroke-miterlimit:4;stroke-opacity:1;stroke-dasharray:none;stroke-dashoffset:0;marker:none;visibility:visible;display:inline;overflow:visible;enable-background:accumulate" inkscape:connector-curvature="0" />
         <path sodipodi:nodetypes="cc" id="path4488-4-4" d="m 288,262.5 2,0" style="opacity:0.35;color:black;fill:#666;fill-opacity:1;fill-rule:nonzero;stroke:#333;stroke-width:1;stroke-linecap:butt;stroke-linejoin:miter;stroke-miterlimit:4;stroke-opacity:1;stroke-dasharray:none;stroke-dashoffset:0;marker:none;visibility:visible;display:inline;overflow:visible;enable-background:accumulate" inkscape:connector-curvature="0" />
      </g>
      <text xml:space="preserve" style="font-size:41.39086151px;font-style:normal;font-variant:normal;font-weight:normal;font-stretch:normal;text-align:start;writing-mode:lr-tb;text-anchor:start;fill:black;fill-opacity:1;stroke:none;font-family:Droid Sans;-inkscape-font-specification:Droid Sans" x="152.03629" y="1000.1337" id="text6154"><tspan sodipodi:role="line" id="tspan6156" x="152.03629" y="1000.1337">Header</tspan></text>
      <text id="text6926" y="1000.1337" x="515.72693" style="font-size:41.39086151px;font-style:normal;font-variant:normal;font-weight:normal;font-stretch:normal;text-align:start;writing-mode:lr-tb;text-anchor:start;fill:black;fill-opacity:1;stroke:none;font-family:Droid Sans;-inkscape-font-specification:Droid Sans" xml:space="preserve"><tspan y="1000.1337" x="515.72693" id="tspan6928" sodipodi:role="line">Header + locked fields</tspan></text>
      <text id="text6965" y="1000.1337" x="1054.3046" style="font-size:41.39086151px;font-style:normal;font-variant:normal;font-weight:normal;font-stretch:normal;text-align:start;writing-mode:lr-tb;text-anchor:start;fill:black;fill-opacity:1;stroke:none;font-family:Droid Sans;-inkscape-font-specification:Droid Sans" xml:space="preserve"><tspan y="1000.1337" x="1054.3046" id="tspan6967" sodipodi:role="line">Locked fields + tip</tspan></text>
      <text id="text6969" y="1050.0795" x="61.956326" style="font-size:25.22842216px;font-style:normal;font-variant:normal;font-weight:normal;font-stretch:normal;text-align:start;writing-mode:lr-tb;text-anchor:start;opacity:0.58139535;fill:#f2f2f2;fill-opacity:1;stroke:none;font-family:Droid Sans;-inkscape-font-specification:Droid Sans" xml:space="preserve"><tspan y="1050.0795" x="61.956326" id="tspan6971" sodipodi:role="line">We shouldn't use the disabled</tspan><tspan y="1081.615" x="61.956326" sodipodi:role="line" id="tspan6973">state as it is unreadable. There</tspan><tspan y="1113.1505" x="61.956326" sodipodi:role="line" id="tspan6981">should be a 'read-only' state.</tspan></text>
      <rect style="fill:white;fill-opacity:1;stroke:#333;stroke-width:1.99999988" id="rect6985" width="351.7207" height="457.08209" x="1554.7767" y="472.52158" rx="13.347684" ry="13.347684" />
      <text id="text6987" y="529.10895" x="1608.5261" style="font-size:24.70248604px;font-style:normal;font-variant:normal;font-weight:bold;font-stretch:normal;text-align:start;writing-mode:lr-tb;text-anchor:start;fill:none;stroke:#1a1a1a;stroke-width:1.99999988;stroke-linecap:round;stroke-linejoin:round;stroke-miterlimit:4;stroke-opacity:1;stroke-dasharray:none;stroke-dashoffset:0;font-family:Droid Sans;-inkscape-font-specification:Droid Sans Bold" xml:space="preserve"><tspan style="stroke-width:1.99999988" y="529.10895" x="1608.5261" id="tspan6989" sodipodi:role="line"><tspan id="tspan6991" style="font-style:italic;stroke-width:1.99999988;-inkscape-font-specification:Droid Sans Bold Italic"><tspan id="tspan6993" style="font-weight:normal;stroke-width:1.99999988;-inkscape-font-specification:Droid Sans Italic"><tspan id="tspan6995" style="font-style:normal;stroke-width:1.99999988;-inkscape-font-specification:Droid Sans"><tspan id="tspan6997" style="stroke:none"><tspan id="tspan6999" style="fill:black"><tspan id="tspan7001" style="font-size:18.52686501px"><tspan id="tspan7003" style="font-size:13.89514828px">Calendar is read-only </tspan></tspan></tspan></tspan></tspan></tspan></tspan></tspan></text>
      <g inkscape:label="dialog-information" id="g7079" style="display:inline" transform="matrix(1.5625,0,0,1.5625,1138.4687,107.7996)">
         <rect y="257" x="280.99994" height="16" width="16" id="rect7081" style="color:#bebebe;fill:none;stroke:none;stroke-width:2;marker:none;visibility:visible;display:inline;overflow:visible" />
         <path inkscape:connector-curvature="0" style="color:black;fill:none;stroke:#333;stroke-width:2.00000024;stroke-linecap:butt;stroke-linejoin:miter;stroke-miterlimit:4;stroke-opacity:1;stroke-dasharray:none;stroke-dashoffset:0;marker:none;visibility:visible;display:inline;overflow:visible;enable-background:accumulate" d="m 289,258 c -2.20913,0 -4,1.79087 -4,4 0,1.4792 0.80621,2.74542 2,3.4375 l 0,2.5625 4,0 0,-2.5625 c 1.19379,-0.69208 2,-1.9583 2,-3.4375 0,-2.20913 -1.79087,-4 -4,-4 z" id="path7083" sodipodi:nodetypes="csccccsc" />
         <path inkscape:connector-curvature="0" style="color:black;fill:#666;fill-opacity:1;fill-rule:nonzero;stroke:#333;stroke-width:1;stroke-linecap:butt;stroke-linejoin:miter;stroke-miterlimit:4;stroke-opacity:1;stroke-dasharray:none;stroke-dashoffset:0;marker:none;visibility:visible;display:inline;overflow:visible;enable-background:accumulate" d="m 287,272.5 4,0" id="path7085" sodipodi:nodetypes="cc" />
         <path inkscape:connector-curvature="0" style="color:black;fill:#666;fill-opacity:1;fill-rule:nonzero;stroke:#333;stroke-width:1;stroke-linecap:butt;stroke-linejoin:miter;stroke-miterlimit:4;stroke-opacity:1;stroke-dasharray:none;stroke-dashoffset:0;marker:none;visibility:visible;display:inline;overflow:visible;enable-background:accumulate" d="m 286,270.5 6,0" id="path7087" sodipodi:nodetypes="cc" />
         <path inkscape:connector-curvature="0" style="opacity:0.35;color:black;fill:#666;fill-opacity:1;fill-rule:nonzero;stroke:#333;stroke-width:1;stroke-linecap:butt;stroke-linejoin:miter;stroke-miterlimit:4;stroke-opacity:1;stroke-dasharray:none;stroke-dashoffset:0;marker:none;visibility:visible;display:inline;overflow:visible;enable-background:accumulate" d="m 288,262.5 2,0" id="path7089" sodipodi:nodetypes="cc" />
      </g>
      <text xml:space="preserve" style="font-size:41.39086151px;font-style:normal;font-variant:normal;font-weight:normal;font-stretch:normal;text-align:start;writing-mode:lr-tb;text-anchor:start;fill:black;fill-opacity:1;stroke:none;font-family:Droid Sans;-inkscape-font-specification:Droid Sans" x="1666.3883" y="1000.1337" id="text7091"><tspan sodipodi:role="line" id="tspan7093" x="1666.3883" y="1000.1337">Report</tspan></text>
      <text xml:space="preserve" style="font-size:24.70248604px;font-style:normal;font-variant:normal;font-weight:bold;font-stretch:normal;text-align:start;writing-mode:lr-tb;text-anchor:start;fill:#1a1a1a;stroke:none;font-family:Droid Sans;-inkscape-font-specification:Droid Sans Bold" x="1608.5261" y="599.81964" id="text7095"><tspan sodipodi:role="line" id="tspan7097" x="1608.5261" y="599.81964" style="fill:#1a1a1a;stroke:none">Important Event<tspan style="font-style:italic;fill:#1a1a1a;stroke:none;-inkscape-font-specification:Droid Sans Bold Italic" id="tspan7099"><tspan style="font-weight:normal;fill:#1a1a1a;stroke:none;-inkscape-font-specification:Droid Sans Italic" id="tspan7101"><tspan style="font-style:normal;fill:#1a1a1a;stroke:none;-inkscape-font-specification:Droid Sans" id="tspan7103"><tspan style="fill:#1a1a1a;stroke:none" id="tspan7105"><tspan style="fill:#1a1a1a;stroke:none" id="tspan7107"><tspan style="font-size:18.52686501px;fill:#1a1a1a;stroke:none" id="tspan7109"><tspan style="font-size:13.89514828px;fill:#1a1a1a;stroke:none" id="tspan7111" /></tspan></tspan></tspan></tspan></tspan></tspan></tspan></text>
      <text id="text7113" y="640.83185" x="1573.1708" style="font-size:24.70248604px;font-style:normal;font-variant:normal;font-weight:bold;font-stretch:normal;text-align:start;writing-mode:lr-tb;text-anchor:start;fill:#1a1a1a;stroke:none;font-family:Droid Sans;-inkscape-font-specification:Droid Sans Bold" xml:space="preserve"><tspan style="font-size:20px;font-weight:normal;fill:#1a1a1a;stroke:none;-inkscape-font-specification:Droid Sans" y="640.83185" x="1573.1708" sodipodi:role="line" id="tspan7131">Starts on 17/01/2013 from 2:00PM</tspan><tspan style="font-size:20px;font-weight:normal;fill:#1a1a1a;stroke:none;-inkscape-font-specification:Droid Sans" y="665.83185" x="1573.1708" sodipodi:role="line" id="tspan7135">to 3:00PM...</tspan><tspan style="font-size:20px;font-weight:normal;fill:#1a1a1a;stroke:none;-inkscape-font-specification:Droid Sans" y="690.83185" x="1573.1708" sodipodi:role="line" id="tspan7178" /><tspan style="font-size:20px;font-weight:normal;fill:#1a1a1a;stroke:none;-inkscape-font-specification:Droid Sans" y="715.83185" x="1573.1708" sodipodi:role="line" id="tspan7180">The &lt;event&gt; is located in &lt;location&gt;</tspan><tspan style="font-size:20px;font-weight:normal;fill:#1a1a1a;stroke:none;-inkscape-font-specification:Droid Sans" y="740.83185" x="1573.1708" sodipodi:role="line" id="tspan7182" /><tspan style="font-size:20px;font-weight:normal;fill:#1a1a1a;stroke:none;-inkscape-font-specification:Droid Sans" y="765.83185" x="1573.1708" sodipodi:role="line" id="tspan7184">The organiser also notes that...and </tspan><tspan style="font-size:20px;font-weight:normal;fill:#1a1a1a;stroke:none;-inkscape-font-specification:Droid Sans" y="790.83185" x="1573.1708" sodipodi:role="line" id="tspan7186">you should probably take a look at</tspan><tspan style="font-size:20px;font-weight:normal;fill:#1a1a1a;stroke:none;-inkscape-font-specification:Droid Sans" y="815.83185" x="1573.1708" sodipodi:role="line" id="tspan7188">the attached file too...</tspan><tspan style="font-size:20px;font-weight:normal;fill:#1a1a1a;stroke:none;-inkscape-font-specification:Droid Sans" y="840.83185" x="1573.1708" sodipodi:role="line" id="tspan7137" /><tspan style="font-size:20px;font-weight:normal;fill:#1a1a1a;stroke:none;-inkscape-font-specification:Droid Sans" y="865.83185" x="1573.1708" sodipodi:role="line" id="tspan7139" /></text>
      <text xml:space="preserve" style="font-size:25.22842216px;font-style:normal;font-variant:normal;font-weight:normal;font-stretch:normal;text-align:start;writing-mode:lr-tb;text-anchor:start;opacity:0.58139535;fill:#f2f2f2;fill-opacity:1;stroke:none;font-family:Droid Sans;-inkscape-font-specification:Droid Sans" x="1507.2827" y="1050.0795" id="text7141"><tspan sodipodi:role="line" x="1507.2827" y="1050.0795" id="tspan7154">Personal assistant mode. An additional </tspan><tspan sodipodi:role="line" x="1507.2827" y="1081.615" id="tspan7156">idea. We could generate a human-friendly </tspan><tspan sodipodi:role="line" x="1507.2827" y="1113.1505" id="tspan7158">report from the data without having any </tspan><tspan sodipodi:role="line" x="1507.2827" y="1144.686" id="tspan7176">fields to worry about.</tspan><tspan sodipodi:role="line" x="1507.2827" y="1176.2216" id="tspan7160" /><tspan sodipodi:role="line" x="1507.2827" y="1207.7571" id="tspan7162">But we'll still need to go text field&gt; label</tspan><tspan sodipodi:role="line" x="1507.2827" y="1239.2926" id="tspan7164">not sure if erick2red wants that. :)</tspan></text>
   </g>
</svg>
