<?xml version="1.0" encoding="UTF-8" standalone="no"?>
<!-- Created with Inkscape (http://www.inkscape.org/) -->

<svg
   xmlns:dc="http://purl.org/dc/elements/1.1/"
   xmlns:cc="http://creativecommons.org/ns#"
   xmlns:rdf="http://www.w3.org/1999/02/22-rdf-syntax-ns#"
   xmlns:svg="http://www.w3.org/2000/svg"
   xmlns="http://www.w3.org/2000/svg"
   xmlns:sodipodi="http://sodipodi.sourceforge.net/DTD/sodipodi-0.dtd"
   xmlns:inkscape="http://www.inkscape.org/namespaces/inkscape"
   width="96"
   height="96"
   id="svg23986"
   version="1.1"
   inkscape:version="0.48.2 r9819"
   sodipodi:docname="New document 19">
  <defs
     id="defs23988" />
  <sodipodi:namedview
     id="base"
     pagecolor="#ffffff"
     bordercolor="#666666"
     borderopacity="1.0"
     inkscape:pageopacity="0.0"
     inkscape:pageshadow="2"
     inkscape:zoom="1"
     inkscape:cx="-57"
     inkscape:cy="-54"
     inkscape:document-units="px"
     inkscape:current-layer="layer1"
     showgrid="false"
     borderlayer="true"
     inkscape:showpageshadow="false"
     inkscape:window-width="1511"
     inkscape:window-height="988"
     inkscape:window-x="1600"
     inkscape:window-y="59"
     inkscape:window-maximized="0" />
  <metadata
     id="metadata23991">
    <rdf:RDF>
      <cc:Work
         rdf:about="">
        <dc:format>image/svg+xml</dc:format>
        <dc:type
           rdf:resource="http://purl.org/dc/dcmitype/StillImage" />
        <dc:title></dc:title>
      </cc:Work>
    </rdf:RDF>
  </metadata>
  <g
     inkscape:label="Layer 1"
     inkscape:groupmode="layer"
     id="layer1"
     transform="translate(0,-956.36218)">
    <g
       transform="matrix(0.2304648,0,0,0.2304648,47.058676,911.25568)"
       id="layer1-9"
       style="fill:#eeeeec;display:inline;enable-background:new">
      <g
         transform="matrix(1.293235,0,0,1.293235,-4878.321,-1224.915)"
         id="g15041"
         style="fill:#eeeeec">
        <g
           transform="matrix(2.438586,0,0,2.438586,3659.952,1113.451)"
           style="fill:#eeeeec;fill-opacity:1;fill-rule:nonzero;stroke:none"
           id="g15043">
          <g
             style="fill:#eeeeec;fill-opacity:1"
             id="g15045">
            <path
               inkscape:connector-curvature="0"
               d="M 86.068,0 C 61.466,0 56.851,35.041 70.691,35.041 84.529,35.041 110.671,0 86.068,0 z"
               style="fill:#eeeeec;fill-opacity:1"
               id="path15047" />
            <path
               inkscape:connector-curvature="0"
               d="M 45.217,30.699 C 52.586,31.149 60.671,2.577 46.821,4.374 32.976,6.171 37.845,30.249 45.217,30.699 z"
               style="fill:#eeeeec;fill-opacity:1"
               id="path15049" />
            <path
               inkscape:connector-curvature="0"
               d="M 11.445,48.453 C 16.686,46.146 12.12,23.581 3.208,29.735 -5.7,35.89 6.204,50.759 11.445,48.453 z"
               style="fill:#eeeeec;fill-opacity:1"
               id="path15051" />
            <path
               inkscape:connector-curvature="0"
               d="M 26.212,36.642 C 32.451,35.37 32.793,9.778 21.667,14.369 10.539,18.961 19.978,37.916 26.212,36.642 l 0,0 z"
               style="fill:#eeeeec;fill-opacity:1"
               id="path15053" />
            <path
               inkscape:connector-curvature="0"
               d="m 58.791,93.913 c 1.107,8.454 -6.202,12.629 -13.36,7.179 C 22.644,83.743 83.16,75.088 79.171,51.386 75.86,31.712 15.495,37.769 8.621,68.553 3.968,89.374 27.774,118.26 52.614,118.26 c 12.22,0 26.315,-11.034 28.952,-25.012 C 83.58,82.589 57.867,86.86 58.791,93.913 l 0,0 z"
               style="fill:#eeeeec;fill-opacity:1"
               id="path15055" />
          </g>
        </g>
      </g>
    </g>
  </g>
</svg>
