<?xml version="1.0" encoding="UTF-8" standalone="no"?>
<!-- Created with Inkscape (http://www.inkscape.org/) -->

<svg
   xmlns:dc="http://purl.org/dc/elements/1.1/"
   xmlns:cc="http://creativecommons.org/ns#"
   xmlns:rdf="http://www.w3.org/1999/02/22-rdf-syntax-ns#"
   xmlns:svg="http://www.w3.org/2000/svg"
   xmlns="http://www.w3.org/2000/svg"
   xmlns:sodipodi="http://sodipodi.sourceforge.net/DTD/sodipodi-0.dtd"
   xmlns:inkscape="http://www.inkscape.org/namespaces/inkscape"
   version="1.1"
   width="303.68143"
   height="300"
   id="svg7384"
   inkscape:version="0.48.1 r9760"
   sodipodi:docname="munki-calibrate-symbolic.svg">
  <metadata
     id="metadata90">
    <rdf:RDF>
      <cc:Work
         rdf:about="">
        <dc:format>image/svg+xml</dc:format>
        <dc:type
           rdf:resource="http://purl.org/dc/dcmitype/StillImage" />
        <dc:title>Gnome Symbolic Icon Theme</dc:title>
      </cc:Work>
    </rdf:RDF>
  </metadata>
  <sodipodi:namedview
     pagecolor="#e5e6e4"
     bordercolor="#666666"
     borderopacity="1"
     objecttolerance="10"
     gridtolerance="10"
     guidetolerance="10"
     inkscape:pageopacity="1"
     inkscape:pageshadow="2"
     inkscape:window-width="1598"
     inkscape:window-height="1006"
     id="namedview88"
     showgrid="false"
     inkscape:zoom="1"
     inkscape:cx="-486.20621"
     inkscape:cy="150.25213"
     inkscape:window-x="2238"
     inkscape:window-y="317"
     inkscape:window-maximized="0"
     inkscape:current-layer="layer12"
     showborder="false"
     inkscape:snap-nodes="false"
     inkscape:snap-bbox="true"
     inkscape:bbox-paths="false"
     showguides="true"
     inkscape:guide-bbox="true"
     inkscape:snap-to-guides="true"
     inkscape:snap-grids="true"
     inkscape:snap-global="true"
     inkscape:object-nodes="true"
     inkscape:snap-bbox-midpoints="false"
     inkscape:object-paths="false"
     inkscape:snap-others="false">
    <inkscape:grid
       type="xygrid"
       id="grid4866"
       empspacing="2"
       visible="true"
       enabled="true"
       snapvisiblegridlinesonly="true"
       spacingx="1px"
       spacingy="1px" />
  </sodipodi:namedview>
  <title
     id="title9167">Gnome Symbolic Icon Theme</title>
  <defs
     id="defs7386" />
  <g
     inkscape:groupmode="layer"
     id="layer12"
     inkscape:label="figures"
     transform="translate(-567.31876,-563)"
     style="display:inline">
    <rect
       inkscape:export-ydpi="90"
       inkscape:export-xdpi="90"
       inkscape:export-filename="/home/lapo.fedora/colorimeters1.png"
       style="color:#000000;fill:none;stroke:none;stroke-width:1;marker:none;visibility:visible;display:inline;overflow:visible;enable-background:new"
       id="rect7175"
       width="300"
       height="300"
       x="571.00018"
       y="563" />
    <g
       style="display:inline"
       transform="matrix(0.57874099,0,0,0.57874099,568.80179,262.15801)"
       id="g7177"
       inkscape:label="Layer 1">
      <path
         transform="matrix(0.99497055,-0.10016793,0.10016793,0.99497055,0,0)"
         style="color:#000000;fill:#000000;fill-opacity:0;stroke:#babdb6;stroke-width:3.45577741;stroke-linecap:butt;stroke-linejoin:miter;stroke-miterlimit:4;stroke-opacity:1;stroke-dashoffset:0;marker:none;visibility:visible;display:inline;overflow:visible;enable-background:accumulate"
         d="m 149.60568,588.2765 c 27.43154,-3.52363 43.90311,-1.99047 59.38353,0 2.55507,0.32853 5.44471,2.46518 4.77693,6.93962 -0.31792,2.13022 -2.07391,3.88775 -4.65002,3.88775 l -59.38353,0 c -2.57611,0 -4.31124,-1.76075 -4.65002,-3.88775 -0.66489,-4.17445 1.96799,-6.61141 4.52311,-6.93962 z"
         id="path7179"
         inkscape:connector-curvature="0"
         sodipodi:nodetypes="sssssss" />
      <path
         id="path7181"
         d="m 256.73076,573.64713 c -56.03135,0.40644 -110.24998,20.97835 -151.84375,58.1875 -48.494754,43.38265 -72.992506,102.52437 -72.843754,161.8125 9.7e-4,0.38653 -0.0031,0.76971 0,1.15625 l 0,148.84375 c 0,27.69997 21.80843,49.99997 48.90625,49.99997 l 176.093754,0 176.09375,0 c 27.09782,0 48.90625,-22.3 48.90625,-49.99997 l 0,-320 c 0,-27.7 -21.80843,-50 -48.90625,-50 l -156.53125,0 c -1.94027,0 -3.83871,0.12129 -5.71875,0.34375 -4.72644,-0.2525 -9.44888,-0.3779 -14.15625,-0.34375 z"
         style="color:#000000;fill:#eeeeec;fill-opacity:1;fill-rule:nonzero;stroke:#babdb6;stroke-width:3.04770827;stroke-linecap:butt;stroke-linejoin:miter;stroke-miterlimit:4;stroke-opacity:1;stroke-dasharray:none;stroke-dashoffset:0;marker:none;visibility:visible;display:inline;overflow:visible;enable-background:accumulate"
         inkscape:connector-curvature="0" />
      <path
         transform="translate(-41.605198,409.12364)"
         d="m 500.00001,541.29077 c 0,9.27049 -7.51522,16.78571 -16.78572,16.78571 -9.27049,0 -16.78571,-7.51522 -16.78571,-16.78571 0,-9.27049 7.51522,-16.78571 16.78571,-16.78571 9.2705,0 16.78572,7.51522 16.78572,16.78571 z"
         sodipodi:ry="16.785713"
         sodipodi:rx="16.785713"
         sodipodi:cy="541.29077"
         sodipodi:cx="483.21429"
         id="path7183"
         style="fill:#babdb6;fill-opacity:1;stroke:none"
         sodipodi:type="arc" />
      <path
         transform="matrix(-0.41616668,0,0,-0.41616668,381.69561,707.98717)"
         sodipodi:open="true"
         sodipodi:end="11.021442"
         sodipodi:start="4.80755"
         d="m 312.31632,209.94578 c 6.17608,0.58951 10.7049,6.0741 10.1154,12.25018 -0.58951,6.17608 -6.0741,10.7049 -12.25018,10.1154 -6.17608,-0.58951 -10.7049,-6.0741 -10.11539,-12.25018 0.56082,-5.87559 5.57301,-10.31512 11.47334,-10.16246"
         sodipodi:ry="11.233611"
         sodipodi:rx="11.233611"
         sodipodi:cy="221.12857"
         sodipodi:cx="311.24893"
         id="path7185"
         style="fill:#5b5f56;fill-opacity:1;stroke:none"
         sodipodi:type="arc" />
      <path
         transform="matrix(-0.41616668,0,0,-0.41616668,201.01891,884.00675)"
         sodipodi:open="true"
         sodipodi:end="11.021442"
         sodipodi:start="4.80755"
         d="m 312.31632,209.94578 c 6.17608,0.58951 10.7049,6.0741 10.1154,12.25018 -0.58951,6.17608 -6.0741,10.7049 -12.25018,10.1154 -6.17608,-0.58951 -10.7049,-6.0741 -10.11539,-12.25018 0.56082,-5.87559 5.57301,-10.31512 11.47334,-10.16246"
         sodipodi:ry="11.233611"
         sodipodi:rx="11.233611"
         sodipodi:cy="221.12857"
         sodipodi:cx="311.24893"
         id="path7187"
         style="fill:#5b5f56;fill-opacity:1;stroke:none"
         sodipodi:type="arc" />
      <path
         transform="matrix(-0.41616668,0,0,-0.41616668,379.01891,1066.0067)"
         sodipodi:open="true"
         sodipodi:end="11.021442"
         sodipodi:start="4.80755"
         d="m 312.31632,209.94578 c 6.17608,0.58951 10.7049,6.0741 10.1154,12.25018 -0.58951,6.17608 -6.0741,10.7049 -12.25018,10.1154 -6.17608,-0.58951 -10.7049,-6.0741 -10.11539,-12.25018 0.56082,-5.87559 5.57301,-10.31512 11.47334,-10.16246"
         sodipodi:ry="11.233611"
         sodipodi:rx="11.233611"
         sodipodi:cy="221.12857"
         sodipodi:cx="311.24893"
         id="path7189"
         style="fill:#5b5f56;fill-opacity:1;stroke:none"
         sodipodi:type="arc" />
      <rect
         transform="matrix(0.70631332,-0.70789935,0.73646691,0.67647357,0,0)"
         ry="2.6911583"
         y="733.74835"
         x="-610.06"
         height="5.3823166"
         width="20.607552"
         id="rect7191"
         style="fill:#5b5f56;fill-opacity:1;stroke:none"
         rx="2.6911583" />
      <path
         sodipodi:type="arc"
         style="color:#000000;fill:none;stroke:#babdb6;stroke-width:4.18239641;stroke-linecap:butt;stroke-linejoin:miter;stroke-miterlimit:4;stroke-opacity:1;stroke-dasharray:none;stroke-dashoffset:0;marker:none;visibility:visible;display:inline;overflow:visible;enable-background:accumulate"
         id="path7193"
         sodipodi:cx="155"
         sodipodi:cy="507"
         sodipodi:rx="108"
         sodipodi:ry="108"
         d="m 47.23101,499.93992 c 3.342058,-51.01504 41.996178,-92.69783 92.61479,-99.87144"
         transform="matrix(1.6525345,0,0,1.6525345,-6.3986352,-44.465495)"
         sodipodi:start="3.2070104"
         sodipodi:end="4.5716077"
         sodipodi:open="true" />
      <path
         inkscape:transform-center-y="-17.050416"
         inkscape:transform-center-x="113.93133"
         id="path7195"
         d="M 97.249357,670.49591 76.694877,655.74758 C 36.717534,705.01199 17.513353,767.8773 25.28051,830.55006 l -24.7635313,1.33927 36.2749783,55.21889 37.402147,-59.17834 -22.461177,1.21558 c -8.506393,-56.2654 9.584531,-114.35719 45.51643,-158.64955 z"
         style="fill:#fdbc46;fill-opacity:1;stroke:#bca93d;stroke-width:3.45577741;stroke-miterlimit:4;stroke-opacity:1;stroke-dasharray:none"
         inkscape:connector-curvature="0" />
      <g
         transform="matrix(0.00783422,-0.99996931,-0.99996931,-0.00783422,1044.7706,1050.9721)"
         id="g7197">
        <path
           sodipodi:type="arc"
           style="color:#000000;fill:#eeeeec;fill-opacity:1;fill-rule:nonzero;stroke:#babdb6;stroke-width:3.61065626;stroke-linecap:butt;stroke-linejoin:miter;stroke-miterlimit:4;stroke-opacity:1;stroke-dasharray:none;stroke-dashoffset:0;marker:none;visibility:visible;display:inline;overflow:visible;enable-background:accumulate"
           id="path7199"
           sodipodi:cx="290"
           sodipodi:cy="362.36218"
           sodipodi:rx="180"
           sodipodi:ry="180"
           d="m 470,362.36218 c 0,99.41126 -80.58875,180 -180,180 -99.41125,0 -180,-80.58874 -180,-180 0,-99.41125 80.58875,-180 180,-180 99.41125,0 180,80.58875 180,180 z"
           transform="matrix(0.94442763,0,0,0.94442763,-23.993437,452.63729)" />
        <path
           style="color:#000000;fill:#ffffff;fill-opacity:1;fill-rule:nonzero;stroke:#babdb6;stroke-width:3.45577717;stroke-linecap:butt;stroke-linejoin:miter;stroke-miterlimit:4;stroke-opacity:1;stroke-dasharray:none;stroke-dashoffset:0;marker:none;visibility:visible;display:inline;overflow:visible;enable-background:accumulate"
           d="m 164.3974,712.74995 c -18.93433,18.97393 -31.57246,44.38177 -34.30206,72.97921 -2.1815,22.85505 2.2165,44.80077 11.66695,63.98592 5.13041,8.50648 8.09901,10.32666 13.67221,5.49927 l 3.98013,-3.94974 17.56119,-17.62197 c 8.92859,-8.94863 23.62508,-9.25017 32.93483,-0.69879 9.30976,8.55137 9.6274,22.61896 0.69881,31.5676 l -19.41454,19.44491 -0.42536,0.42536 -3.03827,3.03827 c -5.39601,5.88122 -4.98851,8.96577 2.18756,13.42915 0.0982,0.0559 0.20544,0.0962 0.30382,0.15192 14.14568,8.00109 30.14712,13.24393 47.36661,14.8875 36.27498,3.46243 70.28293,-9.69794 94.52053,-33.23865 C 246.25974,814.8114 219.66652,788.48127 164.3974,712.74995 z"
           id="path7201"
           inkscape:connector-curvature="0" />
        <path
           style="fill:#babdb6;fill-opacity:1;stroke:none"
           d="m 250.04326,673.64713 c -30.44378,-0.0515 -58.5469,11.07338 -80.1875,29.6875 57.08912,78.44532 83.23586,104.41428 171.96875,174.4375 16.64045,-18.77898 27.71438,-42.79503 30.28125,-69.6875 6.44334,-67.5054 -43.0571,-127.43166 -110.5625,-133.875 l -8.46875,-0.53125 c -1.00768,-0.0261 -2.02846,-0.0294 -3.03125,-0.0313 z"
           id="path7203"
           inkscape:connector-curvature="0" />
        <rect
           style="fill:#ffffff;fill-opacity:1;stroke:#babdb6;stroke-width:3.4572525;stroke-miterlimit:4;stroke-opacity:1;stroke-dasharray:none"
           id="rect7205"
           width="77.131432"
           height="20.145323"
           x="-560.78839"
           y="727.27417"
           ry="10.072661"
           transform="matrix(0.70631332,-0.70789935,0.73646691,0.67647357,0,0)"
           rx="10.072661" />
      </g>
      <path
         transform="matrix(-3.8141379,0,0,-3.8141379,1309.5546,1763.0389)"
         d="m 322.48254,221.12857 c 0,6.20415 -5.02946,11.23361 -11.23361,11.23361 -6.20415,0 -11.23361,-5.02946 -11.23361,-11.23361 0,-6.20415 5.02946,-11.23361 11.23361,-11.23361 6.20415,0 11.23361,5.02946 11.23361,11.23361 z"
         sodipodi:ry="11.233611"
         sodipodi:rx="11.233611"
         sodipodi:cy="221.12857"
         sodipodi:cx="311.24893"
         id="path7207"
         style="fill:none;stroke:#bca93d;stroke-width:1.7278887;stroke-opacity:1"
         sodipodi:type="arc" />
    </g>
  </g>
</svg>
