<?xml version="1.0" encoding="UTF-8" standalone="no"?>
<!-- Created with Inkscape (http://www.inkscape.org/) -->

<svg
   xmlns:dc="http://purl.org/dc/elements/1.1/"
   xmlns:cc="http://creativecommons.org/ns#"
   xmlns:rdf="http://www.w3.org/1999/02/22-rdf-syntax-ns#"
   xmlns:svg="http://www.w3.org/2000/svg"
   xmlns="http://www.w3.org/2000/svg"
   xmlns:xlink="http://www.w3.org/1999/xlink"
   xmlns:sodipodi="http://sodipodi.sourceforge.net/DTD/sodipodi-0.dtd"
   xmlns:inkscape="http://www.inkscape.org/namespaces/inkscape"
   width="1000"
   height="800"
   id="svg23171"
   version="1.1"
   inkscape:version="0.48.4 r9939"
   sodipodi:docname="tetravex.svg">
  <defs
     id="defs23173">
    <linearGradient
       id="linearGradient60585-4-48-2"
       inkscape:collect="always">
      <stop
         id="stop60587-8-5-5"
         offset="0"
         style="stop-color:#dbdbdb;stop-opacity:1" />
      <stop
         id="stop60589-6-3-3"
         offset="1"
         style="stop-color:#f7f7f7;stop-opacity:1" />
    </linearGradient>
    <linearGradient
       inkscape:collect="always"
       xlink:href="#linearGradient60585-4-48-2"
       id="linearGradient22629"
       gradientUnits="userSpaceOnUse"
       gradientTransform="matrix(0.41772152,0,0,1.0645162,964.53165,-2251.2509)"
       x1="49"
       y1="39.502155"
       x2="49.000004"
       y2="10.497845" />
    <linearGradient
       inkscape:collect="always"
       id="linearGradient72990-6">
      <stop
         style="stop-color:#ededed;stop-opacity:1;"
         offset="0"
         id="stop72992-9" />
      <stop
         style="stop-color:#e0e2e0;stop-opacity:1"
         offset="1"
         id="stop72994-5" />
    </linearGradient>
    <linearGradient
       inkscape:collect="always"
       xlink:href="#linearGradient60585-4-48-2"
       id="linearGradient22879"
       gradientUnits="userSpaceOnUse"
       gradientTransform="matrix(0.41772152,0,0,1.0645162,964.53165,-2251.2509)"
       x1="49"
       y1="39.502155"
       x2="49.000004"
       y2="10.497845" />
    <linearGradient
       inkscape:collect="always"
       xlink:href="#linearGradient60585-4-48-2"
       id="linearGradient3265"
       gradientUnits="userSpaceOnUse"
       gradientTransform="matrix(0.41772152,0,0,1.0645162,-556.47455,348.8587)"
       x1="49"
       y1="39.502155"
       x2="49.000004"
       y2="10.497845" />
    <linearGradient
       inkscape:collect="always"
       xlink:href="#linearGradient72990-6"
       id="linearGradient3299"
       gradientUnits="userSpaceOnUse"
       gradientTransform="translate(671.3892,908.4495)"
       x1="-1016.3721"
       y1="-554.43628"
       x2="-1016.3721"
       y2="-518.31604" />
    <linearGradient
       inkscape:collect="always"
       xlink:href="#linearGradient60585-4-48-2"
       id="linearGradient3464"
       gradientUnits="userSpaceOnUse"
       gradientTransform="matrix(2.0632911,0,0,1.0645162,-554.10105,848.74925)"
       x1="49"
       y1="39.502155"
       x2="49.000004"
       y2="10.497845" />
    <linearGradient
       inkscape:collect="always"
       xlink:href="#linearGradient60585-4-48-2"
       id="linearGradient3484"
       gradientUnits="userSpaceOnUse"
       gradientTransform="matrix(2.0632911,0,0,1.0645162,545.89895,848.74925)"
       x1="49"
       y1="39.502155"
       x2="49.000004"
       y2="10.497845" />
    <linearGradient
       inkscape:collect="always"
       xlink:href="#linearGradient72990-6"
       id="linearGradient4178"
       gradientUnits="userSpaceOnUse"
       gradientTransform="translate(1331.3892,888.4495)"
       x1="-1016.3721"
       y1="-554.43628"
       x2="-1016.3721"
       y2="-518.31604" />
    <linearGradient
       inkscape:collect="always"
       xlink:href="#linearGradient60585-4-48-2"
       id="linearGradient4180"
       gradientUnits="userSpaceOnUse"
       gradientTransform="matrix(0.41772152,0,0,1.0645162,103.52545,328.8587)"
       x1="49"
       y1="39.502155"
       x2="49.000004"
       y2="10.497845" />
    <linearGradient
       inkscape:collect="always"
       xlink:href="#linearGradient72990-6"
       id="linearGradient4401"
       gradientUnits="userSpaceOnUse"
       gradientTransform="translate(1331.3892,908.4495)"
       x1="-1016.3721"
       y1="-554.43628"
       x2="-1016.3721"
       y2="-518.31604" />
    <linearGradient
       inkscape:collect="always"
       xlink:href="#linearGradient60585-4-48-2"
       id="linearGradient4403"
       gradientUnits="userSpaceOnUse"
       gradientTransform="matrix(0.41772152,0,0,1.0645162,103.5254,348.8587)"
       x1="49"
       y1="39.502155"
       x2="49.000004"
       y2="10.497845" />
    <linearGradient
       inkscape:collect="always"
       xlink:href="#linearGradient60585-4-48-2"
       id="linearGradient4405"
       gradientUnits="userSpaceOnUse"
       gradientTransform="matrix(2.0632911,0,0,1.0645162,1845.899,848.74925)"
       x1="49"
       y1="39.502155"
       x2="49.000004"
       y2="10.497845" />
    <linearGradient
       inkscape:collect="always"
       xlink:href="#linearGradient60585-4-48-2"
       id="linearGradient4563"
       gradientUnits="userSpaceOnUse"
       gradientTransform="matrix(2.0632911,0,0,1.0645162,1561.8991,848.74925)"
       x1="49"
       y1="39.502155"
       x2="49.000004"
       y2="10.497845" />
  </defs>
  <sodipodi:namedview
     id="base"
     pagecolor="#ffffff"
     bordercolor="#666666"
     borderopacity="1.0"
     inkscape:pageopacity="1"
     inkscape:pageshadow="2"
     inkscape:zoom="0.70710678"
     inkscape:cx="526.57515"
     inkscape:cy="572.81711"
     inkscape:document-units="px"
     inkscape:current-layer="layer1"
     showgrid="false"
     inkscape:window-width="1920"
     inkscape:window-height="1134"
     inkscape:window-x="1600"
     inkscape:window-y="27"
     inkscape:window-maximized="1"
     inkscape:snap-nodes="false"
     inkscape:snap-bbox="true">
    <inkscape:grid
       type="xygrid"
       id="grid23646"
       empspacing="5"
       visible="true"
       enabled="true"
       snapvisiblegridlinesonly="true" />
  </sodipodi:namedview>
  <metadata
     id="metadata23176">
    <rdf:RDF>
      <cc:Work
         rdf:about="">
        <dc:format>image/svg+xml</dc:format>
        <dc:type
           rdf:resource="http://purl.org/dc/dcmitype/StillImage" />
        <dc:title />
      </cc:Work>
    </rdf:RDF>
  </metadata>
  <g
     inkscape:label="Layer 1"
     inkscape:groupmode="layer"
     id="layer1"
     transform="translate(0,-252.36218)">
    <path
       style="color:#bebebe;fill:url(#linearGradient4178);fill-opacity:1;fill-rule:nonzero;stroke:#a7aba7;stroke-width:0.99329853;stroke-opacity:1;marker:none;visibility:visible;display:inline;overflow:visible;filter:url(#filter12000-4-9-2);enable-background:accumulate"
       d="m 109.49625,331.8655 759.00085,-3e-4 c 4.9856,0 8.9994,4.46 8.9994,10 l 0,37 -8.9994,0 -759.00095,3e-4 -8.9995,0 0,-37 c 0,-5.54 4.0139,-10 8.9995,-10 z"
       id="path3940"
       inkscape:connector-curvature="0"
       sodipodi:nodetypes="cssccccssc" />
    <path
       inkscape:connector-curvature="0"
       id="path3942"
       d="m 830.4937,338.979 c 0,33.9928 0,33.9928 0,33.9928"
       style="fill:none;stroke:#ffffff;stroke-width:1px;stroke-linecap:round;stroke-linejoin:miter;stroke-opacity:0.46092188;display:inline" />
    <path
       style="fill:none;stroke:#a7aba7;stroke-width:1px;stroke-linecap:round;stroke-linejoin:miter;stroke-opacity:1;display:inline"
       d="m 829.4937,338.9718 c 0,33.9928 0,33.9928 0,33.9928"
       id="path3944"
       inkscape:connector-curvature="0" />
    <text
       sodipodi:linespacing="125%"
       inkscape:export-ydpi="90"
       inkscape:export-xdpi="90"
       inkscape:export-filename="/home/allan/Documents/GnomeDesign/projects/contacts/png/big-landscape.png"
       id="text3946"
       y="361.11267"
       x="489.09668"
       style="font-size:14px;font-style:normal;font-variant:normal;font-weight:bold;font-stretch:normal;text-align:center;line-height:125%;writing-mode:lr-tb;text-anchor:middle;fill:#ffffff;fill-opacity:1;stroke:none;display:inline;font-family:Cantarell;-inkscape-font-specification:Cantarell Bold"
       xml:space="preserve"><tspan
         y="361.11267"
         x="489.09668"
         id="tspan3948"
         sodipodi:role="line">Tetravex</tspan></text>
    <text
       xml:space="preserve"
       style="font-size:14px;font-style:normal;font-variant:normal;font-weight:bold;font-stretch:normal;text-align:center;line-height:125%;writing-mode:lr-tb;text-anchor:middle;fill:#888a85;fill-opacity:1;stroke:none;display:inline;font-family:Cantarell;-inkscape-font-specification:Cantarell Bold"
       x="489.09668"
       y="360.11267"
       id="text3950"
       inkscape:export-filename="/home/allan/Documents/GnomeDesign/projects/contacts/png/big-landscape.png"
       inkscape:export-xdpi="90"
       inkscape:export-ydpi="90"
       sodipodi:linespacing="125%"><tspan
         sodipodi:role="line"
         id="tspan3952"
         x="489.09668"
         y="360.11267">Tetravex</tspan></text>
    <g
       id="g3954"
       transform="translate(845.9954,348.9718)"
       style="opacity:0.5;fill:#ffffff;fill-opacity:1;display:inline">
      <g
         style="fill:#ffffff;fill-opacity:1;display:inline"
         id="g3956"
         transform="translate(-60,-518)" />
      <g
         id="g3958"
         transform="translate(-60,-518)"
         style="fill:#ffffff;fill-opacity:1" />
      <g
         id="g3960"
         transform="translate(-60,-518)"
         style="fill:#ffffff;fill-opacity:1" />
      <g
         id="g3962"
         transform="translate(-60,-518)"
         style="fill:#ffffff;fill-opacity:1">
        <g
           style="fill:#ffffff;fill-opacity:1;display:inline"
           id="g3964"
           transform="translate(19,-242)">
          <path
             style="font-size:medium;font-style:normal;font-variant:normal;font-weight:normal;font-stretch:normal;text-indent:0;text-align:start;text-decoration:none;line-height:normal;letter-spacing:normal;word-spacing:normal;text-transform:none;direction:ltr;block-progression:tb;writing-mode:lr-tb;text-anchor:start;color:#bebebe;fill:#ffffff;fill-opacity:1;fill-rule:nonzero;stroke:none;stroke-width:1.78124988;marker:none;visibility:visible;display:inline;overflow:visible;enable-background:new;font-family:Andale Mono;-inkscape-font-specification:Andale Mono"
             id="path3966"
             d="m 45,764 1,0 c 0.01037,-1.2e-4 0.02079,-4.6e-4 0.03125,0 0.254951,0.0112 0.50987,0.12858 0.6875,0.3125 L 49,766.59375 51.3125,764.3125 C 51.578125,764.082 51.759172,764.007 52,764 l 1,0 0,1 c 0,0.28647 -0.03434,0.55065 -0.25,0.75 l -2.28125,2.28125 2.25,2.25 C 52.906938,770.46942 52.999992,770.7347 53,771 l 0,1 -1,0 c -0.265301,-10e-6 -0.530586,-0.0931 -0.71875,-0.28125 L 49,769.4375 46.71875,771.71875 C 46.530586,771.90694 46.26529,772 46,772 l -1,0 0,-1 c -3e-6,-0.26529 0.09306,-0.53058 0.28125,-0.71875 l 2.28125,-2.25 L 45.28125,765.75 C 45.070508,765.55537 44.97809,765.28075 45,765 l 0,-1 z"
             inkscape:connector-curvature="0" />
        </g>
      </g>
      <g
         id="g3968"
         transform="translate(-60,-518)"
         style="fill:#ffffff;fill-opacity:1" />
      <g
         id="g3970"
         transform="translate(-60,-518)"
         style="fill:#ffffff;fill-opacity:1" />
      <g
         id="g3972"
         transform="translate(-60,-518)"
         style="fill:#ffffff;fill-opacity:1" />
    </g>
    <g
       style="fill:#888a85;fill-opacity:1;display:inline"
       transform="translate(845.9954,347.9719)"
       id="g3974">
      <g
         transform="translate(-60,-518)"
         id="g3976"
         style="fill:#888a85;fill-opacity:1;display:inline" />
      <g
         style="fill:#888a85;fill-opacity:1"
         transform="translate(-60,-518)"
         id="g3978" />
      <g
         style="fill:#888a85;fill-opacity:1"
         transform="translate(-60,-518)"
         id="g3980" />
      <g
         style="fill:#888a85;fill-opacity:1"
         transform="translate(-60,-518)"
         id="g3982">
        <g
           transform="translate(19,-242)"
           id="g3984"
           style="fill:#888a85;fill-opacity:1;display:inline">
          <path
             inkscape:connector-curvature="0"
             d="m 45,764 1,0 c 0.01037,-1.2e-4 0.02079,-4.6e-4 0.03125,0 0.254951,0.0112 0.50987,0.12858 0.6875,0.3125 L 49,766.59375 51.3125,764.3125 C 51.578125,764.082 51.759172,764.007 52,764 l 1,0 0,1 c 0,0.28647 -0.03434,0.55065 -0.25,0.75 l -2.28125,2.28125 2.25,2.25 C 52.906938,770.46942 52.999992,770.7347 53,771 l 0,1 -1,0 c -0.265301,-10e-6 -0.530586,-0.0931 -0.71875,-0.28125 L 49,769.4375 46.71875,771.71875 C 46.530586,771.90694 46.26529,772 46,772 l -1,0 0,-1 c -3e-6,-0.26529 0.09306,-0.53058 0.28125,-0.71875 l 2.28125,-2.25 L 45.28125,765.75 C 45.070508,765.55537 44.97809,765.28075 45,765 l 0,-1 z"
             id="path3986"
             style="font-size:medium;font-style:normal;font-variant:normal;font-weight:normal;font-stretch:normal;text-indent:0;text-align:start;text-decoration:none;line-height:normal;letter-spacing:normal;word-spacing:normal;text-transform:none;direction:ltr;block-progression:tb;writing-mode:lr-tb;text-anchor:start;color:#bebebe;fill:#888a85;fill-opacity:1;fill-rule:nonzero;stroke:none;stroke-width:1.78124988;marker:none;visibility:visible;display:inline;overflow:visible;enable-background:new;font-family:Andale Mono;-inkscape-font-specification:Andale Mono" />
        </g>
      </g>
      <g
         style="fill:#888a85;fill-opacity:1"
         transform="translate(-60,-518)"
         id="g3988" />
      <g
         style="fill:#888a85;fill-opacity:1"
         transform="translate(-60,-518)"
         id="g3990" />
      <g
         style="fill:#888a85;fill-opacity:1"
         transform="translate(-60,-518)"
         id="g3992" />
    </g>
    <rect
       style="opacity:0.4;color:#000000;fill:none;stroke:#ffffff;stroke-width:1;stroke-linecap:butt;stroke-linejoin:miter;stroke-miterlimit:4;stroke-opacity:1;stroke-dasharray:none;stroke-dashoffset:0;marker:none;visibility:visible;display:inline;overflow:visible;enable-background:accumulate"
       id="rect3994"
       width="33"
       height="30.999998"
       x="107.49377"
       y="341.97168"
       rx="3"
       ry="3"
       inkscape:export-filename="/home/lapo.fedora/SparkleShare/gnome-mockups/content selection/content-selection.png"
       inkscape:export-xdpi="90"
       inkscape:export-ydpi="90" />
    <rect
       style="color:#000000;fill:url(#linearGradient4180);fill-opacity:1;fill-rule:nonzero;stroke:#a7a7a7;stroke-width:1;stroke-linecap:butt;stroke-linejoin:miter;stroke-miterlimit:4;stroke-opacity:1;stroke-dasharray:none;stroke-dashoffset:0;marker:none;visibility:visible;display:inline;overflow:visible;enable-background:accumulate"
       id="rect3996"
       width="33"
       height="33"
       x="107.49377"
       y="338.9718"
       rx="3"
       ry="3"
       inkscape:export-filename="/home/lapo.fedora/SparkleShare/gnome-mockups/content selection/content-selection.png"
       inkscape:export-xdpi="90"
       inkscape:export-ydpi="90" />
    <g
       id="g3998"
       transform="translate(115.96726,348.4553)"
       style="opacity:0.5;fill:#ffffff;fill-opacity:1">
      <g
         transform="translate(-41.0002,-767)"
         style="fill:#ffffff;fill-opacity:1;display:inline"
         inkscape:label="status"
         id="g4000" />
      <g
         transform="translate(-41.0002,-767)"
         inkscape:label="devices"
         id="g4002"
         style="fill:#ffffff;fill-opacity:1" />
      <g
         transform="translate(-41.0002,-767)"
         inkscape:label="apps"
         id="g4004"
         style="fill:#ffffff;fill-opacity:1" />
      <g
         transform="translate(-41.0002,-767)"
         inkscape:label="places"
         id="g4006"
         style="fill:#ffffff;fill-opacity:1" />
      <g
         transform="translate(-41.0002,-767)"
         inkscape:label="mimetypes"
         id="g4008"
         style="fill:#ffffff;fill-opacity:1" />
      <g
         transform="translate(-41.0002,-767)"
         style="fill:#ffffff;fill-opacity:1;display:inline"
         inkscape:label="emblems"
         id="g4010" />
      <g
         transform="translate(-41.0002,-767)"
         style="fill:#ffffff;fill-opacity:1;display:inline"
         inkscape:label="emotes"
         id="g4012" />
      <g
         transform="translate(-41.0002,-767)"
         style="fill:#ffffff;fill-opacity:1;display:inline"
         inkscape:label="categories"
         id="g4014" />
      <g
         transform="translate(-41.0002,-767)"
         style="fill:#ffffff;fill-opacity:1;display:inline"
         inkscape:label="actions"
         id="g4016">
        <path
           style="font-size:medium;font-style:normal;font-variant:normal;font-weight:normal;font-stretch:normal;text-indent:0;text-align:start;text-decoration:none;line-height:normal;letter-spacing:normal;word-spacing:normal;text-transform:none;direction:ltr;block-progression:tb;writing-mode:lr-tb;text-anchor:start;baseline-shift:baseline;color:#000000;fill:#ffffff;fill-opacity:1;stroke:none;stroke-width:2;marker:none;visibility:visible;display:inline;overflow:visible;enable-background:new;font-family:Sans;-inkscape-font-specification:Sans"
           id="path4018"
           d="M 42.78125,776 A 1.0001,1.0001 0 0 0 42,777 l 0,4 a 1.0001,1.0001 0 0 0 1,1 l 4,0 a 1.0001,1.0001 0 1 0 0,-2 l -3,0 0,-3 a 1.0001,1.0001 0 0 0 -1.21875,-1 z"
           inkscape:connector-curvature="0" />
        <path
           style="font-size:medium;font-style:normal;font-variant:normal;font-weight:normal;font-stretch:normal;text-indent:0;text-align:start;text-decoration:none;line-height:normal;letter-spacing:normal;word-spacing:normal;text-transform:none;direction:ltr;block-progression:tb;writing-mode:lr-tb;text-anchor:start;baseline-shift:baseline;color:#000000;fill:#ffffff;fill-opacity:1;stroke:none;stroke-width:2;marker:none;visibility:visible;display:inline;overflow:visible;enable-background:new;font-family:Sans;-inkscape-font-specification:Sans"
           id="path4020"
           d="m 47.375,775.5 a 1.0001,1.0001 0 0 0 -0.59375,0.28125 l -4.5,4.5 a 1.016466,1.016466 0 1 0 1.4375,1.4375 l 4.5,-4.5 A 1.0001,1.0001 0 0 0 47.375,775.5 z"
           inkscape:connector-curvature="0" />
        <rect
           y="781"
           x="42.000198"
           width="1"
           style="color:#000000;fill:#ffffff;fill-opacity:1;stroke:none;stroke-width:2;marker:none;visibility:visible;display:inline;overflow:visible;enable-background:new"
           id="rect4022"
           height="1" />
        <path
           style="font-size:medium;font-style:normal;font-variant:normal;font-weight:normal;font-stretch:normal;text-indent:0;text-align:start;text-decoration:none;line-height:normal;letter-spacing:normal;word-spacing:normal;text-transform:none;direction:ltr;block-progression:tb;writing-mode:lr-tb;text-anchor:start;baseline-shift:baseline;color:#000000;fill:#ffffff;fill-opacity:1;stroke:none;stroke-width:2;marker:none;visibility:visible;display:inline;overflow:visible;enable-background:new;font-family:Sans;-inkscape-font-specification:Sans"
           id="path4024"
           d="M 50.90625,768 A 1.001098,1.001098 0 1 0 51,770 l 3,0 0,3 a 1.0001,1.0001 0 1 0 2,0 l 0,-4 a 1.0001,1.0001 0 0 0 -1,-1 l -4,0 a 1.0001,1.0001 0 0 0 -0.09375,0 z"
           inkscape:connector-curvature="0" />
        <rect
           y="768"
           x="55.000198"
           width="1"
           style="color:#000000;fill:#ffffff;fill-opacity:1;stroke:none;stroke-width:2;marker:none;visibility:visible;display:inline;overflow:visible;enable-background:new"
           id="rect4026"
           height="1" />
        <path
           style="font-size:medium;font-style:normal;font-variant:normal;font-weight:normal;font-stretch:normal;text-indent:0;text-align:start;text-decoration:none;line-height:normal;letter-spacing:normal;word-spacing:normal;text-transform:none;direction:ltr;block-progression:tb;writing-mode:lr-tb;text-anchor:start;baseline-shift:baseline;color:#000000;fill:#ffffff;fill-opacity:1;stroke:none;stroke-width:2;marker:none;visibility:visible;display:inline;overflow:visible;enable-background:new;font-family:Sans;-inkscape-font-specification:Sans"
           id="path4028"
           d="m 54.78125,768 a 1.0001,1.0001 0 0 0 -0.5,0.28125 l -4.5,4.46875 a 1.016466,1.016466 0 1 0 1.4375,1.4375 l 4.5,-4.46875 A 1.0001,1.0001 0 0 0 54.78125,768 z"
           inkscape:connector-curvature="0" />
        <rect
           y="776"
           x="42.000198"
           width="1"
           style="color:#000000;fill:#ffffff;fill-opacity:1;fill-rule:nonzero;stroke:none;stroke-width:2;marker:none;visibility:visible;display:inline;overflow:visible;enable-background:accumulate"
           id="rect4030"
           height="1" />
        <rect
           y="781"
           x="47.000198"
           width="1"
           style="color:#000000;fill:#ffffff;fill-opacity:1;fill-rule:nonzero;stroke:none;stroke-width:2;marker:none;visibility:visible;display:inline;overflow:visible;enable-background:accumulate"
           id="rect4032"
           height="1" />
        <rect
           y="773"
           x="55.000198"
           width="1"
           style="color:#000000;fill:#ffffff;fill-opacity:1;fill-rule:nonzero;stroke:none;stroke-width:2;marker:none;visibility:visible;display:inline;overflow:visible;enable-background:accumulate"
           id="rect4034"
           height="1" />
        <rect
           y="768"
           x="50.000198"
           width="1"
           style="color:#000000;fill:#ffffff;fill-opacity:1;fill-rule:nonzero;stroke:none;stroke-width:2;marker:none;visibility:visible;display:inline;overflow:visible;enable-background:accumulate"
           id="rect4036"
           height="1" />
      </g>
    </g>
    <g
       style="fill:#2e3436"
       transform="translate(115.96705,347.485)"
       id="g4038">
      <g
         id="g4040"
         inkscape:label="status"
         style="fill:#2e3436;display:inline"
         transform="translate(-41.0002,-767)" />
      <g
         style="fill:#2e3436"
         id="g4042"
         inkscape:label="devices"
         transform="translate(-41.0002,-767)" />
      <g
         style="fill:#2e3436"
         id="g4044"
         inkscape:label="apps"
         transform="translate(-41.0002,-767)" />
      <g
         style="fill:#2e3436"
         id="g4046"
         inkscape:label="places"
         transform="translate(-41.0002,-767)" />
      <g
         style="fill:#2e3436"
         id="g4048"
         inkscape:label="mimetypes"
         transform="translate(-41.0002,-767)" />
      <g
         id="g4050"
         inkscape:label="emblems"
         style="fill:#2e3436;display:inline"
         transform="translate(-41.0002,-767)" />
      <g
         id="g4052"
         inkscape:label="emotes"
         style="fill:#2e3436;display:inline"
         transform="translate(-41.0002,-767)" />
      <g
         id="g4054"
         inkscape:label="categories"
         style="fill:#2e3436;display:inline"
         transform="translate(-41.0002,-767)" />
      <g
         id="g4056"
         inkscape:label="actions"
         style="fill:#2e3436;display:inline"
         transform="translate(-41.0002,-767)">
        <path
           inkscape:connector-curvature="0"
           d="M 42.78125,776 A 1.0001,1.0001 0 0 0 42,777 l 0,4 a 1.0001,1.0001 0 0 0 1,1 l 4,0 a 1.0001,1.0001 0 1 0 0,-2 l -3,0 0,-3 a 1.0001,1.0001 0 0 0 -1.21875,-1 z"
           id="path4058"
           style="font-size:medium;font-style:normal;font-variant:normal;font-weight:normal;font-stretch:normal;text-indent:0;text-align:start;text-decoration:none;line-height:normal;letter-spacing:normal;word-spacing:normal;text-transform:none;direction:ltr;block-progression:tb;writing-mode:lr-tb;text-anchor:start;baseline-shift:baseline;color:#000000;fill:#2e3436;fill-opacity:1;stroke:none;stroke-width:2;marker:none;visibility:visible;display:inline;overflow:visible;enable-background:new;font-family:Sans;-inkscape-font-specification:Sans" />
        <path
           inkscape:connector-curvature="0"
           d="m 47.375,775.5 a 1.0001,1.0001 0 0 0 -0.59375,0.28125 l -4.5,4.5 a 1.016466,1.016466 0 1 0 1.4375,1.4375 l 4.5,-4.5 A 1.0001,1.0001 0 0 0 47.375,775.5 z"
           id="path4060"
           style="font-size:medium;font-style:normal;font-variant:normal;font-weight:normal;font-stretch:normal;text-indent:0;text-align:start;text-decoration:none;line-height:normal;letter-spacing:normal;word-spacing:normal;text-transform:none;direction:ltr;block-progression:tb;writing-mode:lr-tb;text-anchor:start;baseline-shift:baseline;color:#000000;fill:#2e3436;fill-opacity:1;stroke:none;stroke-width:2;marker:none;visibility:visible;display:inline;overflow:visible;enable-background:new;font-family:Sans;-inkscape-font-specification:Sans" />
        <rect
           height="1"
           id="rect4062"
           style="color:#000000;fill:#2e3436;fill-opacity:1;stroke:none;stroke-width:2;marker:none;visibility:visible;display:inline;overflow:visible;enable-background:new"
           width="1"
           x="42.000198"
           y="781" />
        <path
           inkscape:connector-curvature="0"
           d="M 50.90625,768 A 1.001098,1.001098 0 1 0 51,770 l 3,0 0,3 a 1.0001,1.0001 0 1 0 2,0 l 0,-4 a 1.0001,1.0001 0 0 0 -1,-1 l -4,0 a 1.0001,1.0001 0 0 0 -0.09375,0 z"
           id="path4064"
           style="font-size:medium;font-style:normal;font-variant:normal;font-weight:normal;font-stretch:normal;text-indent:0;text-align:start;text-decoration:none;line-height:normal;letter-spacing:normal;word-spacing:normal;text-transform:none;direction:ltr;block-progression:tb;writing-mode:lr-tb;text-anchor:start;baseline-shift:baseline;color:#000000;fill:#2e3436;fill-opacity:1;stroke:none;stroke-width:2;marker:none;visibility:visible;display:inline;overflow:visible;enable-background:new;font-family:Sans;-inkscape-font-specification:Sans" />
        <rect
           height="1"
           id="rect4066"
           style="color:#000000;fill:#2e3436;fill-opacity:1;stroke:none;stroke-width:2;marker:none;visibility:visible;display:inline;overflow:visible;enable-background:new"
           width="1"
           x="55.000198"
           y="768" />
        <path
           inkscape:connector-curvature="0"
           d="m 54.78125,768 a 1.0001,1.0001 0 0 0 -0.5,0.28125 l -4.5,4.46875 a 1.016466,1.016466 0 1 0 1.4375,1.4375 l 4.5,-4.46875 A 1.0001,1.0001 0 0 0 54.78125,768 z"
           id="path4068"
           style="font-size:medium;font-style:normal;font-variant:normal;font-weight:normal;font-stretch:normal;text-indent:0;text-align:start;text-decoration:none;line-height:normal;letter-spacing:normal;word-spacing:normal;text-transform:none;direction:ltr;block-progression:tb;writing-mode:lr-tb;text-anchor:start;baseline-shift:baseline;color:#000000;fill:#2e3436;fill-opacity:1;stroke:none;stroke-width:2;marker:none;visibility:visible;display:inline;overflow:visible;enable-background:new;font-family:Sans;-inkscape-font-specification:Sans" />
        <rect
           height="1"
           id="rect4070"
           style="color:#000000;fill:#2e3436;fill-opacity:1;fill-rule:nonzero;stroke:none;stroke-width:2;marker:none;visibility:visible;display:inline;overflow:visible;enable-background:accumulate"
           width="1"
           x="42.000198"
           y="776" />
        <rect
           height="1"
           id="rect4072"
           style="color:#000000;fill:#2e3436;fill-opacity:1;fill-rule:nonzero;stroke:none;stroke-width:2;marker:none;visibility:visible;display:inline;overflow:visible;enable-background:accumulate"
           width="1"
           x="47.000198"
           y="781" />
        <rect
           height="1"
           id="rect4074"
           style="color:#000000;fill:#2e3436;fill-opacity:1;fill-rule:nonzero;stroke:none;stroke-width:2;marker:none;visibility:visible;display:inline;overflow:visible;enable-background:accumulate"
           width="1"
           x="55.000198"
           y="773" />
        <rect
           height="1"
           id="rect4076"
           style="color:#000000;fill:#2e3436;fill-opacity:1;fill-rule:nonzero;stroke:none;stroke-width:2;marker:none;visibility:visible;display:inline;overflow:visible;enable-background:accumulate"
           width="1"
           x="50.000198"
           y="768" />
      </g>
    </g>
    <path
       style="opacity:0.3;fill:none;stroke:#ffffff;stroke-width:0.99999994px;stroke-linecap:round;stroke-linejoin:miter;stroke-opacity:1"
       d="m 110.16975,339.9718 27.6348,0"
       id="path4078"
       inkscape:connector-curvature="0"
       sodipodi:nodetypes="cc"
       inkscape:export-filename="/home/lapo.fedora/SparkleShare/gnome-mockups/content selection/content-selection.png"
       inkscape:export-xdpi="90"
       inkscape:export-ydpi="90" />
    <rect
       style="fill:#eeeeec;fill-opacity:1;stroke:#a7aba7;stroke-width:0.99999994;stroke-linecap:square;stroke-miterlimit:4;stroke-opacity:1;stroke-dasharray:none;stroke-dashoffset:0"
       id="rect4090"
       width="777"
       height="553"
       x="100.5"
       y="378.86218" />
    <rect
       y="403.86218"
       x="125.5"
       height="339"
       width="339"
       id="rect4098"
       style="fill:#ffffff;fill-opacity:1;stroke:#a7aba7;stroke-width:1;stroke-linecap:round;stroke-miterlimit:4;stroke-opacity:1;stroke-dasharray:none" />
    <rect
       style="fill:#ffffff;fill-opacity:1;stroke:#a7aba7;stroke-width:1;stroke-linecap:round;stroke-miterlimit:4;stroke-opacity:1;stroke-dasharray:none"
       id="rect4186"
       width="339"
       height="339"
       x="513.5"
       y="403.86218" />
    <g
       transform="matrix(3.25,0,0,3.25,709.00016,-825.64304)"
       id="layer9-7"
       style="fill:#888a85;display:inline" />
    <g
       transform="matrix(3.25,0,0,3.25,709.00016,-825.64304)"
       id="layer10-6"
       style="fill:#888a85" />
    <g
       transform="matrix(3.25,0,0,3.25,709.00016,-825.64304)"
       id="layer11-1"
       style="fill:#888a85" />
    <g
       transform="matrix(3.25,0,0,3.25,709.00016,-825.64304)"
       id="layer13-67"
       style="fill:#888a85" />
    <g
       transform="matrix(3.25,0,0,3.25,709.00016,-825.64304)"
       id="layer14-0"
       style="fill:#888a85" />
    <g
       transform="matrix(3.25,0,0,3.25,709.00016,-825.64304)"
       id="layer15-62"
       style="fill:#888a85" />
    <g
       transform="translate(-712.08886,-52)"
       id="g5656">
      <text
         sodipodi:linespacing="125%"
         inkscape:export-ydpi="90"
         inkscape:export-xdpi="90"
         inkscape:export-filename="/home/allan/Documents/GnomeDesign/projects/contacts/png/big-landscape.png"
         id="text5658"
         y="955.53943"
         x="1193.6909"
         style="font-size:14px;font-style:normal;font-variant:normal;font-weight:normal;font-stretch:normal;text-align:start;line-height:125%;writing-mode:lr-tb;text-anchor:start;fill:#888a85;fill-opacity:1;stroke:none;display:inline;font-family:Cantarell;-inkscape-font-specification:Cantarell"
         xml:space="preserve"><tspan
           y="955.53943"
           x="1193.6909"
           id="tspan5660"
           sodipodi:role="line">00:32</tspan></text>
      <g
         id="g5662"
         transform="matrix(0.42105263,0,0,0.42105263,688.62717,549.72191)">
        <g
           id="g5664"
           transform="matrix(2.9346802,0,0,2.9346802,-731.0443,6449.8776)">
          <path
             inkscape:connector-curvature="0"
             d="m 645.48444,-1876.8297 a 0.50005,0.50005 0 0 0 -0.40625,0.5 l 0,2.5 -1.5,0 a 0.50005,0.50005 0 1 0 0,1 l 2,0 a 0.50005,0.50005 0 0 0 0.5,-0.5 l 0,-3 a 0.50005,0.50005 0 0 0 -0.59375,-0.5 z"
             id="path5666"
             style="font-size:medium;font-style:normal;font-variant:normal;font-weight:normal;font-stretch:normal;text-indent:0;text-align:start;text-decoration:none;line-height:normal;letter-spacing:normal;word-spacing:normal;text-transform:none;direction:ltr;block-progression:tb;writing-mode:lr-tb;text-anchor:start;baseline-shift:baseline;color:#000000;fill:#bebebe;fill-opacity:1;stroke:none;stroke-width:1;marker:none;visibility:visible;display:inline;overflow:visible;enable-background:accumulate;font-family:Sans;-inkscape-font-specification:Sans" />
          <path
             inkscape:connector-curvature="0"
             d="m 645.55287,-1879.7672 c -3.5601,0 -6.44332,2.9142 -6.44332,6.4743 0,3.5601 2.88322,6.4743 6.44332,6.4743 3.56009,0 6.4743,-2.9142 6.4743,-6.4743 0,-3.5601 -2.91421,-6.4743 -6.4743,-6.4743 z m 0,1.9826 c 2.48864,0 4.49174,2.0031 4.49174,4.4917 0,2.4887 -2.0031,4.4918 -4.49174,4.4918 -2.48864,0 -4.46076,-2.0031 -4.46076,-4.4918 0,-2.4886 1.97212,-4.4917 4.46076,-4.4917 z"
             id="path5668"
             style="font-size:medium;font-style:normal;font-variant:normal;font-weight:normal;font-stretch:normal;text-indent:0;text-align:start;text-decoration:none;line-height:normal;letter-spacing:normal;word-spacing:normal;text-transform:none;direction:ltr;block-progression:tb;writing-mode:lr-tb;text-anchor:start;baseline-shift:baseline;color:#000000;fill:#bebebe;fill-opacity:1;stroke:none;stroke-width:2;marker:none;visibility:visible;display:inline;overflow:visible;enable-background:accumulate;font-family:Sans;-inkscape-font-specification:Sans" />
        </g>
      </g>
    </g>
    <g
       transform="matrix(2.9223897,0,0,2.9223897,353.4236,784.4479)"
       id="g5670"
       style="fill:#888a85">
      <g
         id="g5672"
         transform="translate(-241.0002,-627)"
         inkscape:label="status"
         style="fill:#888a85;display:inline" />
      <g
         id="g5674"
         transform="translate(-241.0002,-627)"
         inkscape:label="devices"
         style="fill:#888a85" />
      <g
         id="g5676"
         transform="translate(-241.0002,-627)"
         inkscape:label="apps"
         style="fill:#888a85" />
      <g
         id="g5678"
         transform="translate(-241.0002,-627)"
         inkscape:label="places"
         style="fill:#888a85" />
      <g
         id="g5680"
         transform="translate(-241.0002,-627)"
         inkscape:label="mimetypes"
         style="fill:#888a85" />
      <g
         id="g5682"
         transform="translate(-241.0002,-627)"
         inkscape:label="emblems"
         style="fill:#888a85;display:inline" />
      <g
         id="g5684"
         transform="translate(-241.0002,-627)"
         inkscape:label="emotes"
         style="fill:#888a85;display:inline" />
      <g
         id="g5686"
         transform="translate(-241.0002,-627)"
         inkscape:label="categories"
         style="fill:#888a85;display:inline" />
      <g
         id="g5688"
         transform="translate(-241.0002,-627)"
         inkscape:label="actions"
         style="fill:#888a85;display:inline">
        <path
           id="path5690"
           d="m 253.90645,628.96875 a 1.0001,1.0001 0 0 0 -0.125,0.0312 1.0001,1.0001 0 0 0 -0.78125,1 l 0,1.6875 c -0.38225,-0.57796 -0.84927,-1.08223 -1.40625,-1.5 -1.15563,-0.86677 -2.53199,-1.25227 -3.875,-1.1875 -0.19186,0.009 -0.37223,0.0353 -0.5625,0.0625 -1.52218,0.21741 -2.97815,1.02304 -3.96875,2.34375 -1.98119,2.64144 -1.42267,6.42505 1.21875,8.40625 2.64147,1.98122 6.42504,1.42267 8.40625,-1.21875 a 1.0063276,1.0063276 0 0 0 0.1875,-0.5937 1.0063276,1.0063276 0 0 0 0,-0.15625 l 0,-0.84375 -0.8125,0 -0.0937,0 a 1.0063276,1.0063276 0 0 0 -0.0937,0 1.0063276,1.0063276 0 0 0 -0.8125,0.40625 c -1.33265,1.77674 -3.81702,2.11387 -5.59375,0.78125 -1.77674,-1.33264 -2.1139,-3.81699 -0.78125,-5.59375 1.33265,-1.77674 3.817,-2.11389 5.59375,-0.78125 0.42946,0.32212 0.76954,0.73295 1.03125,1.1875 l -1.4375,0 a 1.0001,1.0001 0 0 0 -1,1 1.0001,1.0001 0 0 0 0,0.21875 l 0,0.78125 0.84375,0 0.15625,0 4,0 1,0 0,-1 0,-4 a 1.0001,1.0001 0 0 0 0,-0.1875 l 0,-0.8125 -0.8125,0 a 1.0001,1.0001 0 0 0 -0.28125,-0.0312 z"
           style="font-size:medium;font-style:normal;font-variant:normal;font-weight:normal;font-stretch:normal;text-indent:0;text-align:start;text-decoration:none;line-height:normal;letter-spacing:normal;word-spacing:normal;text-transform:none;direction:ltr;block-progression:tb;writing-mode:lr-tb;text-anchor:start;baseline-shift:baseline;color:#bebebe;fill:#888a85;fill-opacity:1;stroke:none;stroke-width:2;marker:none;visibility:visible;display:inline;overflow:visible;enable-background:accumulate;font-family:Sans;-inkscape-font-specification:Sans"
           inkscape:connector-curvature="0" />
      </g>
    </g>
    <text
       xml:space="preserve"
       style="font-size:14.30000019px;font-style:normal;font-variant:normal;font-weight:normal;font-stretch:normal;text-align:center;line-height:125%;letter-spacing:0px;word-spacing:0px;text-anchor:middle;fill:#2e3436;fill-opacity:1;stroke:none;font-family:Cantarell;-inkscape-font-specification:Cantarell"
       x="375.1983"
       y="854.2959"
       id="text5692"
       sodipodi:linespacing="125%"
       inkscape:export-filename="/home/lapo.fedora/SparkleShare/gnome-mockups/content selection/content-selection.png"
       inkscape:export-xdpi="90"
       inkscape:export-ydpi="90"><tspan
         sodipodi:role="line"
         id="tspan5694"
         x="375.1983"
         y="854.2959">Play Again</tspan></text>
    <text
       xml:space="preserve"
       style="font-size:14.30000019px;font-style:normal;font-variant:normal;font-weight:normal;font-stretch:normal;text-align:center;line-height:125%;letter-spacing:0px;word-spacing:0px;text-anchor:middle;fill:#2e3436;fill-opacity:1;stroke:none;font-family:Cantarell;-inkscape-font-specification:Cantarell"
       x="614.98993"
       y="854.2959"
       id="text5696"
       sodipodi:linespacing="125%"
       inkscape:export-filename="/home/lapo.fedora/SparkleShare/gnome-mockups/content selection/content-selection.png"
       inkscape:export-xdpi="90"
       inkscape:export-ydpi="90"><tspan
         sodipodi:role="line"
         id="tspan5698"
         x="614.98993"
         y="854.2959">Resolve</tspan></text>
    <g
       transform="matrix(2.3855896,0,0,2.3855896,596.2635,787.2773)"
       id="g5700"
       style="fill:#888a85">
      <g
         transform="translate(-281.0002,-257)"
         id="g5702"
         inkscape:label="status"
         style="fill:#888a85;display:inline">
        <path
           inkscape:connector-curvature="0"
           d="m 289,257.03125 c -0.40018,0 -0.81534,0.15911 -1.125,0.46875 l -6.375,6.375 c -0.61932,0.61929 -0.61932,1.63071 0,2.25 l 6.375,6.375 c 0.61931,0.61929 1.63068,0.61929 2.25,0 l 6.375,-6.375 c 0.61932,-0.61929 0.61931,-1.63071 0,-2.25 l -6.375,-6.375 c -0.30966,-0.30964 -0.72482,-0.46875 -1.125,-0.46875 z M 288.8125,260 c 1.64243,-0.092 3.0955,1.17008 3.1875,2.8125 -10e-5,1.40136 -0.37771,1.92177 -1.59375,2.84375 -0.19093,0.14364 -0.3256,0.2506 -0.375,0.3125 C 289.98185,266.03085 290,266.002 290,266 c 0.007,0.52831 -0.47163,1 -1,1 -0.52837,0 -1.007,-0.47169 -1,-1 0,-0.50239 0.22424,-0.94342 0.46875,-1.25 0.24451,-0.30663 0.4913,-0.51638 0.71875,-0.6875 0.20405,-0.16056 0.46083,-0.38454 0.6875,-0.65625 0.0935,-0.1121 0.129,-0.30766 0.125,-0.4375 l 0,-0.0313 c -0.0316,-0.56324 -0.49926,-0.9691 -1.0625,-0.9375 -0.56324,0.0316 -0.9691,0.43676 -0.9375,1 l -2,0 c -0.092,-1.64243 1.17007,-2.9079 2.8125,-3 z M 289,268 c 0.55228,0 1,0.44772 1,1 0,0.55228 -0.44772,1 -1,1 -0.55228,0 -1,-0.44772 -1,-1 0,-0.55228 0.44772,-1 1,-1 z"
           id="path5704"
           style="color:#bebebe;fill:#888a85;fill-opacity:1;stroke:none;stroke-width:2;marker:none;visibility:visible;display:inline;overflow:visible" />
      </g>
      <g
         transform="translate(-281.0002,-257)"
         id="g5706"
         inkscape:label="devices"
         style="fill:#888a85" />
      <g
         transform="translate(-281.0002,-257)"
         id="g5708"
         inkscape:label="apps"
         style="fill:#888a85" />
      <g
         transform="translate(-281.0002,-257)"
         id="g5710"
         inkscape:label="actions"
         style="fill:#888a85" />
      <g
         transform="translate(-281.0002,-257)"
         id="g5712"
         inkscape:label="places"
         style="fill:#888a85" />
      <g
         transform="translate(-281.0002,-257)"
         id="g5714"
         inkscape:label="mimetypes"
         style="fill:#888a85" />
      <g
         transform="translate(-281.0002,-257)"
         id="g5716"
         inkscape:label="emblems"
         style="fill:#888a85;display:inline" />
      <g
         transform="translate(-281.0002,-257)"
         id="g5718"
         inkscape:label="categories"
         style="fill:#888a85;display:inline" />
    </g>
    <text
       inkscape:export-ydpi="90"
       inkscape:export-xdpi="90"
       inkscape:export-filename="/home/lapo.fedora/SparkleShare/gnome-mockups/content selection/content-selection.png"
       sodipodi:linespacing="125%"
       id="text5720"
       y="854.2959"
       x="495.08832"
       style="font-size:14.30000019px;font-style:normal;font-variant:normal;font-weight:normal;font-stretch:normal;text-align:center;line-height:125%;letter-spacing:0px;word-spacing:0px;text-anchor:middle;fill:#2e3436;fill-opacity:1;stroke:none;font-family:Cantarell;-inkscape-font-specification:Cantarell"
       xml:space="preserve"><tspan
         y="854.2959"
         x="495.08832"
         id="tspan5722"
         sodipodi:role="line">Pause</tspan></text>
    <g
       style="fill:#888a85"
       id="g5724"
       transform="matrix(3.25,0,0,3.25,-50.65214,-831.64304)">
      <g
         style="fill:#888a85"
         id="g5726"
         transform="translate(39.99995,9)">
        <path
           style="font-size:medium;font-style:normal;font-variant:normal;font-weight:normal;font-stretch:normal;text-indent:0pt;text-align:start;text-decoration:none;line-height:normal;letter-spacing:normal;word-spacing:normal;text-transform:none;direction:ltr;text-anchor:start;color:#bebebe;fill:#888a85;fill-opacity:1;stroke:none;stroke-width:2;marker:none;visibility:visible;display:inline;overflow:visible;font-family:Andale Mono"
           id="path5728"
           d="m 124,491 0,8 3,0 0,-8 -3,0 z"
           inkscape:connector-curvature="0" />
        <path
           style="font-size:medium;font-style:normal;font-variant:normal;font-weight:normal;font-stretch:normal;text-indent:0pt;text-align:start;text-decoration:none;line-height:normal;letter-spacing:normal;word-spacing:normal;text-transform:none;direction:ltr;text-anchor:start;color:#bebebe;fill:#888a85;fill-opacity:1;stroke:none;stroke-width:2;marker:none;visibility:visible;display:inline;overflow:visible;font-family:Andale Mono"
           id="path5730"
           d="m 129,491 0,8 3,0 0,-8 -3,0 z"
           inkscape:connector-curvature="0" />
      </g>
    </g>
  </g>
</svg>
