<?xml version="1.0" encoding="UTF-8" standalone="no"?>
<!-- Created with Inkscape (http://www.inkscape.org/) -->

<svg
   xmlns:dc="http://purl.org/dc/elements/1.1/"
   xmlns:cc="http://creativecommons.org/ns#"
   xmlns:rdf="http://www.w3.org/1999/02/22-rdf-syntax-ns#"
   xmlns:svg="http://www.w3.org/2000/svg"
   xmlns="http://www.w3.org/2000/svg"
   xmlns:sodipodi="http://sodipodi.sourceforge.net/DTD/sodipodi-0.dtd"
   xmlns:inkscape="http://www.inkscape.org/namespaces/inkscape"
   width="256"
   height="128"
   id="svg6688"
   version="1.1"
   inkscape:version="0.48.4 r9939"
   sodipodi:docname="3-finger-pinch.svg">
  <defs
     id="defs6690" />
  <sodipodi:namedview
     id="base"
     pagecolor="#ffffff"
     bordercolor="#666666"
     borderopacity="1.0"
     inkscape:pageopacity="0.0"
     inkscape:pageshadow="2"
     inkscape:zoom="1"
     inkscape:cx="-6.7142857"
     inkscape:cy="105.28571"
     inkscape:document-units="px"
     inkscape:current-layer="layer1"
     showgrid="false"
     borderlayer="true"
     inkscape:showpageshadow="false"
     inkscape:window-width="1323"
     inkscape:window-height="886"
     inkscape:window-x="2560"
     inkscape:window-y="38"
     inkscape:window-maximized="0" />
  <metadata
     id="metadata6693">
    <rdf:RDF>
      <cc:Work
         rdf:about="">
        <dc:format>image/svg+xml</dc:format>
        <dc:type
           rdf:resource="http://purl.org/dc/dcmitype/StillImage" />
        <dc:title></dc:title>
      </cc:Work>
    </rdf:RDF>
  </metadata>
  <g
     inkscape:label="Layer 1"
     inkscape:groupmode="layer"
     id="layer1"
     transform="translate(0,-924.36218)">
    <g
       transform="translate(-41.79845,909.60987)"
       id="g7185">
      <path
         style="fill:none;stroke:#000000;stroke-width:10;stroke-linecap:round;stroke-linejoin:miter;stroke-miterlimit:4;stroke-opacity:1;stroke-dasharray:none"
         d="m 159.45258,81.10255 0,34.29468"
         id="path7187"
         inkscape:connector-curvature="0" />
      <path
         inkscape:connector-curvature="0"
         id="path7189"
         d="m 170.76629,80.749 0,34.64823"
         style="fill:none;stroke:#000000;stroke-width:10;stroke-linecap:round;stroke-linejoin:miter;stroke-miterlimit:4;stroke-opacity:1;stroke-dasharray:none"
         sodipodi:nodetypes="cc" />
      <path
         sodipodi:nodetypes="cc"
         style="fill:none;stroke:#000000;stroke-width:10;stroke-linecap:round;stroke-linejoin:miter;stroke-miterlimit:4;stroke-opacity:1;stroke-dasharray:none"
         d="m 182.08,80.57222 0,34.82501"
         id="path7191"
         inkscape:connector-curvature="0" />
      <path
         inkscape:connector-curvature="0"
         id="path7193"
         d="m 193.04016,89.23428 0,26.16295"
         style="fill:none;stroke:#000000;stroke-width:10;stroke-linecap:round;stroke-linejoin:miter;stroke-miterlimit:4;stroke-opacity:1;stroke-dasharray:none"
         sodipodi:nodetypes="cc" />
      <path
         style="color:#000000;fill:none;stroke:#000000;stroke-width:10;stroke-linecap:round;stroke-linejoin:miter;stroke-miterlimit:4;stroke-opacity:1;stroke-dasharray:none;stroke-dashoffset:0;marker:none;visibility:visible;display:inline;overflow:visible;enable-background:accumulate"
         d="m 148.31565,106.73517 0,22.45064 9.54594,0 0,-6.01041 -7.6014,0"
         id="path7195"
         inkscape:connector-curvature="0"
         sodipodi:nodetypes="ccc" />
      <rect
         style="color:#000000;fill:#000000;fill-opacity:1;stroke:#000000;stroke-width:10;stroke-linecap:round;stroke-linejoin:miter;stroke-miterlimit:4;stroke-opacity:1;stroke-dasharray:none;stroke-dashoffset:0;marker:none;visibility:visible;display:inline;overflow:visible;enable-background:accumulate"
         id="rect7197"
         width="33.58757"
         height="16.793798"
         x="159.45258"
         y="112.39203"
         rx="1.2326992"
         ry="1.2326992" />
      <path
         sodipodi:type="inkscape:offset"
         inkscape:radius="-3.8693976"
         inkscape:original="M 159 61.21875 C 150.0806 61.21865 142.84375 68.42435 142.84375 77.34375 C 142.84375 86.26305 150.0806 93.5 159 93.5 C 161.12407 93.5 163.14232 93.08895 165 92.34375 C 166.85768 93.08895 168.87593 93.5 171 93.5 C 172.74291 93.5 174.42741 93.22955 176 92.71875 C 176.6355 92.92515 177.30141 93.09165 177.96875 93.21875 C 180.31557 99.23945 186.14881 103.5 193 103.5 C 201.9194 103.5 209.15625 96.26305 209.15625 87.34375 C 209.15625 79.46285 203.49819 72.9214 196.03125 71.5 C 193.68443 65.4793 187.85119 61.21875 181 61.21875 C 179.25709 61.21875 177.57259 61.4892 176 62 C 174.42741 61.4892 172.74291 61.21875 171 61.21875 C 168.87593 61.21875 166.85768 61.6297 165 62.375 C 163.14232 61.6297 161.12407 61.21875 159 61.21875 z "
         style="color:#000000;fill:none;stroke:#000000;stroke-width:6;stroke-linecap:round;stroke-linejoin:miter;stroke-miterlimit:4;stroke-opacity:1;stroke-dasharray:none;stroke-dashoffset:0;marker:none;visibility:visible;display:inline;overflow:visible;enable-background:accumulate"
         id="path7260"
         d="m 159,65.09375 c -6.8354,-7.7e-5 -12.28125,5.423585 -12.28125,12.25 0,6.826292 5.45486,12.28125 12.28125,12.28125 1.62487,0 3.14728,-0.307291 4.5625,-0.875 a 3.8697846,3.8697846 0 0 1 2.875,0 c 1.41522,0.567709 2.93763,0.875 4.5625,0.875 1.34263,0 2.6304,-0.209785 3.8125,-0.59375 a 3.8697846,3.8697846 0 0 1 2.375,0 c 0.46167,0.149942 0.97803,0.275587 1.5,0.375 a 3.8697846,3.8697846 0 0 1 2.875,2.40625 c 1.78319,4.57473 6.19049,7.8125 11.4375,7.8125 6.82639,0 12.28125,-5.454958 12.28125,-12.28125 0,-6.028888 -4.29144,-10.950522 -9.96875,-12.03125 a 3.8697846,3.8697846 0 0 1 -2.875,-2.40625 c -1.78319,-4.57473 -6.19049,-7.8125 -11.4375,-7.8125 -1.34263,0 -2.6304,0.209785 -3.8125,0.59375 a 3.8697846,3.8697846 0 0 1 -2.375,0 c -1.1821,-0.383965 -2.46987,-0.59375 -3.8125,-0.59375 -1.62499,0 -3.14749,0.307298 -4.5625,0.875 a 3.8697846,3.8697846 0 0 1 -2.875,0 c -1.41501,-0.567702 -2.93751,-0.875 -4.5625,-0.875 z"
         transform="translate(0,2.1213203)" />
      <path
         style="fill:none;stroke:#000000;stroke-width:6;stroke-linecap:butt;stroke-linejoin:miter;stroke-miterlimit:4;stroke-opacity:1;stroke-dasharray:none"
         d="M 175,67.641708 175,31.3813"
         id="path7212"
         inkscape:connector-curvature="0"
         sodipodi:nodetypes="cc" />
      <path
         sodipodi:nodetypes="cccc"
         inkscape:connector-curvature="0"
         id="path17614-0"
         d="m 161.27016,37.068802 13.75,-13.750007 13.74999,13.75001 z"
         style="color:#000000;fill:#000000;fill-opacity:1;fill-rule:nonzero;stroke:none;stroke-width:6;marker:none;visibility:visible;display:inline;overflow:visible;enable-background:accumulate" />
    </g>
  </g>
</svg>
