<?xml version="1.0" encoding="UTF-8" standalone="no"?>
<!-- Created with Inkscape (http://www.inkscape.org/) -->

<svg
   xmlns:dc="http://purl.org/dc/elements/1.1/"
   xmlns:cc="http://creativecommons.org/ns#"
   xmlns:rdf="http://www.w3.org/1999/02/22-rdf-syntax-ns#"
   xmlns:svg="http://www.w3.org/2000/svg"
   xmlns="http://www.w3.org/2000/svg"
   xmlns:sodipodi="http://sodipodi.sourceforge.net/DTD/sodipodi-0.dtd"
   xmlns:inkscape="http://www.inkscape.org/namespaces/inkscape"
   width="256"
   height="128"
   id="svg6688"
   version="1.1"
   inkscape:version="0.48.4 r9939"
   sodipodi:docname="drag.svg">
  <defs
     id="defs6690" />
  <sodipodi:namedview
     id="base"
     pagecolor="#ffffff"
     bordercolor="#666666"
     borderopacity="1.0"
     inkscape:pageopacity="0.0"
     inkscape:pageshadow="2"
     inkscape:zoom="1"
     inkscape:cx="-6.7142857"
     inkscape:cy="105.28571"
     inkscape:document-units="px"
     inkscape:current-layer="layer1"
     showgrid="false"
     borderlayer="true"
     inkscape:showpageshadow="false"
     inkscape:window-width="1323"
     inkscape:window-height="886"
     inkscape:window-x="2560"
     inkscape:window-y="38"
     inkscape:window-maximized="0" />
  <metadata
     id="metadata6693">
    <rdf:RDF>
      <cc:Work
         rdf:about="">
        <dc:format>image/svg+xml</dc:format>
        <dc:type
           rdf:resource="http://purl.org/dc/dcmitype/StillImage" />
        <dc:title></dc:title>
      </cc:Work>
    </rdf:RDF>
  </metadata>
  <g
     inkscape:label="Layer 1"
     inkscape:groupmode="layer"
     id="layer1"
     transform="translate(0,-924.36218)">
    <g
       transform="translate(-25.020927,1129.1936)"
       id="g6812">
      <g
         id="g17211"
         transform="matrix(0.86602541,0.50000001,-0.50000001,0.86602541,119.65736,-350.21806)">
        <path
           inkscape:connector-curvature="0"
           id="path17213"
           d="m 159.45258,121.10255 0,34.29468"
           style="fill:none;stroke:#000000;stroke-width:10;stroke-linecap:round;stroke-linejoin:miter;stroke-miterlimit:4;stroke-opacity:1;stroke-dasharray:none" />
        <path
           sodipodi:nodetypes="cc"
           style="fill:none;stroke:#000000;stroke-width:10;stroke-linecap:round;stroke-linejoin:miter;stroke-miterlimit:4;stroke-opacity:1;stroke-dasharray:none"
           d="m 170.76629,141.43187 0,13.96536"
           id="path17215"
           inkscape:connector-curvature="0" />
        <path
           inkscape:connector-curvature="0"
           id="path17217"
           d="m 182.08,141.43187 0,13.96536"
           style="fill:none;stroke:#000000;stroke-width:10;stroke-linecap:round;stroke-linejoin:miter;stroke-miterlimit:4;stroke-opacity:1;stroke-dasharray:none"
           sodipodi:nodetypes="cc" />
        <path
           sodipodi:nodetypes="cc"
           style="fill:none;stroke:#000000;stroke-width:10;stroke-linecap:round;stroke-linejoin:miter;stroke-miterlimit:4;stroke-opacity:1;stroke-dasharray:none"
           d="m 193.04016,147.97261 0,7.42462"
           id="path17219"
           inkscape:connector-curvature="0" />
        <path
           sodipodi:nodetypes="ccc"
           inkscape:connector-curvature="0"
           id="path17221"
           d="m 148.31565,146.73517 0,22.45064 9.54594,0 0,-6.01041 -7.6014,0"
           style="color:#000000;fill:none;stroke:#000000;stroke-width:10;stroke-linecap:round;stroke-linejoin:miter;stroke-miterlimit:4;stroke-opacity:1;stroke-dasharray:none;stroke-dashoffset:0;marker:none;visibility:visible;display:inline;overflow:visible;enable-background:accumulate" />
        <rect
           ry="1.2326992"
           rx="1.2326992"
           y="152.39203"
           x="159.45258"
           height="16.793798"
           width="33.58757"
           id="rect17223"
           style="color:#000000;fill:#000000;fill-opacity:1;stroke:#000000;stroke-width:10;stroke-linecap:round;stroke-linejoin:miter;stroke-miterlimit:4;stroke-opacity:1;stroke-dasharray:none;stroke-dashoffset:0;marker:none;visibility:visible;display:inline;overflow:visible;enable-background:accumulate" />
      </g>
      <g
         transform="matrix(0.86602541,0.50000001,-0.50000001,0.86602541,38.65736,-350.21806)"
         id="g17227">
        <path
           inkscape:connector-curvature="0"
           id="path17268"
           d="M 158.68678,121.20629 239.07696,74.793"
           style="fill:none;stroke:#000000;stroke-width:6.46312332;stroke-linecap:butt;stroke-linejoin:miter;stroke-miterlimit:4;stroke-opacity:1;stroke-dasharray:none" />
        <path
           inkscape:connector-curvature="0"
           id="path17229"
           transform="matrix(0.86602539,-0.5,0.5,0.86602539,-43.683276,-38.346933)"
           d="m 95.78125,234.59375 a 5.0005001,5.0005001 0 0 0 -3.9375,2.53125 L 74.6875,266.84375 a 5.0005001,5.0005001 0 0 0 -0.09375,0.1875 l -1.28125,2.21875 -0.96875,-0.5625 5.71875,-9.90625 a 5.0005001,5.0005001 0 0 0 -1.84375,-6.9375 5.0005001,5.0005001 0 0 0 -6.8125,1.9375 l -11.21875,19.4375 -2.5,4.34375 4.3125,2.5 8.28125,4.78125 2.375,1.375 c 0.01982,0.0118 0.0425,0.0197 0.0625,0.0312 l 1.90625,1.09375 25.0625,14.46875 c 2.91541,1.68322 6.81678,0.63416 8.5,-2.28125 l 6.09375,-10.59375 a 5.0005001,5.0005001 0 0 0 0.125,-0.1875 l 0.0625,-0.0937 3.71875,-6.4375 a 5.0005001,5.0005001 0 0 0 -1.875,-6.9375 5.0005001,5.0005001 0 0 0 -6.5,1.46875 l -0.84375,-0.5 3,-5.15625 a 5.0005001,5.0005001 0 0 0 -1.875,-6.9375 5.0005001,5.0005001 0 0 0 -6.78125,1.9375 l -3,5.15625 -1.125,-0.65625 2.96875,-5.15625 A 5.0005001,5.0005001 0 0 0 98.28125,258.5 5.0005001,5.0005001 0 0 0 91.5,260.4375 l -2.96875,5.15625 -1.15625,-0.65625 13.15625,-22.8125 a 5.0005001,5.0005001 0 0 0 -1.875,-6.90625 5.0005001,5.0005001 0 0 0 -2.875,-0.625 z"
           style="font-size:medium;font-style:normal;font-variant:normal;font-weight:normal;font-stretch:normal;text-indent:0;text-align:start;text-decoration:none;line-height:normal;letter-spacing:normal;word-spacing:normal;text-transform:none;direction:ltr;block-progression:tb;writing-mode:lr-tb;text-anchor:start;baseline-shift:baseline;color:#000000;fill:#ffffff;fill-opacity:1;stroke:#000000;stroke-width:1;stroke-miterlimit:4;stroke-opacity:1;stroke-dasharray:none;marker:none;visibility:visible;display:inline;overflow:visible;enable-background:accumulate;font-family:Sans;-inkscape-font-specification:Sans" />
        <path
           sodipodi:nodetypes="cccc"
           inkscape:connector-curvature="0"
           id="rect17270"
           d="m 231.23278,63.612955 18.78286,5.03285 -5.03285,18.782855 z"
           style="color:#000000;fill:#000000;fill-opacity:1;fill-rule:nonzero;stroke:none;stroke-width:6;marker:none;visibility:visible;display:inline;overflow:visible;enable-background:accumulate" />
      </g>
    </g>
  </g>
</svg>
