<?xml version="1.0" encoding="UTF-8" standalone="no"?>
<!-- Created with Inkscape (http://www.inkscape.org/) -->

<svg
   xmlns:dc="http://purl.org/dc/elements/1.1/"
   xmlns:cc="http://creativecommons.org/ns#"
   xmlns:rdf="http://www.w3.org/1999/02/22-rdf-syntax-ns#"
   xmlns:svg="http://www.w3.org/2000/svg"
   xmlns="http://www.w3.org/2000/svg"
   xmlns:sodipodi="http://sodipodi.sourceforge.net/DTD/sodipodi-0.dtd"
   xmlns:inkscape="http://www.inkscape.org/namespaces/inkscape"
   width="256"
   height="128"
   id="svg6688"
   version="1.1"
   inkscape:version="0.48.4 r9939"
   sodipodi:docname="pinch-or-stretch.svg">
  <defs
     id="defs6690" />
  <sodipodi:namedview
     id="base"
     pagecolor="#ffffff"
     bordercolor="#666666"
     borderopacity="1.0"
     inkscape:pageopacity="0.0"
     inkscape:pageshadow="2"
     inkscape:zoom="1"
     inkscape:cx="-6.7142857"
     inkscape:cy="105.28571"
     inkscape:document-units="px"
     inkscape:current-layer="layer1"
     showgrid="false"
     borderlayer="true"
     inkscape:showpageshadow="false"
     inkscape:window-width="1323"
     inkscape:window-height="886"
     inkscape:window-x="2560"
     inkscape:window-y="38"
     inkscape:window-maximized="0" />
  <metadata
     id="metadata6693">
    <rdf:RDF>
      <cc:Work
         rdf:about="">
        <dc:format>image/svg+xml</dc:format>
        <dc:type
           rdf:resource="http://purl.org/dc/dcmitype/StillImage" />
        <dc:title></dc:title>
      </cc:Work>
    </rdf:RDF>
  </metadata>
  <g
     inkscape:label="Layer 1"
     inkscape:groupmode="layer"
     id="layer1"
     transform="translate(0,-924.36218)">
    <g
       transform="translate(-30.02093,762.19353)"
       id="g7067">
      <g
         id="g17307"
         transform="matrix(0.86602541,0.50000001,-0.50000001,0.86602541,38.65736,15.78195)">
        <path
           style="fill:none;stroke:#000000;stroke-width:6.46312332;stroke-linecap:butt;stroke-linejoin:miter;stroke-miterlimit:4;stroke-opacity:1;stroke-dasharray:none"
           d="M 158.68678,121.20629 239.07696,74.793"
           id="path17309"
           inkscape:connector-curvature="0" />
        <path
           inkscape:connector-curvature="0"
           style="font-size:medium;font-style:normal;font-variant:normal;font-weight:normal;font-stretch:normal;text-indent:0;text-align:start;text-decoration:none;line-height:normal;letter-spacing:normal;word-spacing:normal;text-transform:none;direction:ltr;block-progression:tb;writing-mode:lr-tb;text-anchor:start;baseline-shift:baseline;opacity:0.02040818;color:#000000;fill:#ffffff;fill-opacity:1;stroke:#000000;stroke-width:1;stroke-miterlimit:4;stroke-opacity:1;stroke-dasharray:none;marker:none;visibility:visible;display:inline;overflow:visible;enable-background:accumulate;font-family:Sans;-inkscape-font-specification:Sans"
           d="m 95.78125,234.59375 a 5.0005001,5.0005001 0 0 0 -3.9375,2.53125 L 74.6875,266.84375 a 5.0005001,5.0005001 0 0 0 -0.09375,0.1875 l -1.28125,2.21875 -0.96875,-0.5625 5.71875,-9.90625 a 5.0005001,5.0005001 0 0 0 -1.84375,-6.9375 5.0005001,5.0005001 0 0 0 -6.8125,1.9375 l -11.21875,19.4375 -2.5,4.34375 4.3125,2.5 8.28125,4.78125 2.375,1.375 c 0.01982,0.0118 0.0425,0.0197 0.0625,0.0312 l 1.90625,1.09375 25.0625,14.46875 c 2.91541,1.68322 6.81678,0.63416 8.5,-2.28125 l 6.09375,-10.59375 a 5.0005001,5.0005001 0 0 0 0.125,-0.1875 l 0.0625,-0.0937 3.71875,-6.4375 a 5.0005001,5.0005001 0 0 0 -1.875,-6.9375 5.0005001,5.0005001 0 0 0 -6.5,1.46875 l -0.84375,-0.5 3,-5.15625 a 5.0005001,5.0005001 0 0 0 -1.875,-6.9375 5.0005001,5.0005001 0 0 0 -6.78125,1.9375 l -3,5.15625 -1.125,-0.65625 2.96875,-5.15625 A 5.0005001,5.0005001 0 0 0 98.28125,258.5 5.0005001,5.0005001 0 0 0 91.5,260.4375 l -2.96875,5.15625 -1.15625,-0.65625 13.15625,-22.8125 a 5.0005001,5.0005001 0 0 0 -1.875,-6.90625 5.0005001,5.0005001 0 0 0 -2.875,-0.625 z"
           transform="matrix(0.86602539,-0.5,0.5,0.86602539,-43.683276,-38.346933)"
           id="path17311" />
        <path
           style="color:#000000;fill:#000000;fill-opacity:1;fill-rule:nonzero;stroke:none;stroke-width:6;marker:none;visibility:visible;display:inline;overflow:visible;enable-background:accumulate"
           d="m 231.23278,63.612955 18.78286,5.03285 -5.03285,18.782855 z"
           id="path17313"
           inkscape:connector-curvature="0"
           sodipodi:nodetypes="cccc" />
        <path
           id="path17315"
           d="m 166.95489,110.92659 a 5.0005,5.0005 0 0 0 -2.14435,4.16087 l 0.002,34.31532 a 5.0005,5.0005 0 0 0 0.0126,0.20925 l -2.2e-4,2.56212 -1.12021,-0.003 -5.4e-4,-11.43844 a 5.0005,5.0005 0 0 0 -5.06549,-5.08618 5.0005,5.0005 0 0 0 -4.93105,5.08418 l 0.003,22.44274 0.007,5.0118 4.98474,0.009 9.5624,6e-5 2.74431,0.003 c 0.0231,3.1e-4 0.0466,-0.004 0.0697,-0.004 l 2.19774,-0.006 28.93914,-9.5e-4 c 3.36642,1e-5 6.22058,-2.85919 6.22059,-6.22562 l -0.0195,-12.22133 a 5.0005,5.0005 0 0 0 0.0145,-0.22488 l 0.007,-0.1124 0.002,-7.43441 a 5.0005,5.0005 0 0 0 -5.09254,-5.07055 5.0005,5.0005 0 0 0 -4.89479,4.52197 l -0.98071,-0.0111 0.0199,-5.96545 a 5.0005,5.0005 0 0 0 -5.09255,-5.07055 5.0005,5.0005 0 0 0 -4.90398,5.06855 l -0.0199,5.96544 -1.30241,-0.006 -0.007,-5.94981 a 5.0005,5.0005 0 0 0 -5.09255,-5.07055 5.0005,5.0005 0 0 0 -4.90398,5.06854 l 0.007,5.94982 -1.32947,0.01 -0.0126,-26.33433 a 5.0005,5.0005 0 0 0 -5.07692,-5.04349 5.0005,5.0005 0 0 0 -2.80233,0.89624 z"
           style="font-size:medium;font-style:normal;font-variant:normal;font-weight:normal;font-stretch:normal;text-indent:0;text-align:start;text-decoration:none;line-height:normal;letter-spacing:normal;word-spacing:normal;text-transform:none;direction:ltr;block-progression:tb;writing-mode:lr-tb;text-anchor:start;baseline-shift:baseline;opacity:0.16326533;color:#000000;fill:#ffffff;fill-opacity:1;stroke:#000000;stroke-width:1;stroke-miterlimit:4;stroke-opacity:1;stroke-dasharray:none;marker:none;visibility:visible;display:inline;overflow:visible;enable-background:accumulate;font-family:Sans;-inkscape-font-specification:Sans"
           inkscape:connector-curvature="0" />
        <path
           inkscape:connector-curvature="0"
           style="font-size:medium;font-style:normal;font-variant:normal;font-weight:normal;font-stretch:normal;text-indent:0;text-align:start;text-decoration:none;line-height:normal;letter-spacing:normal;word-spacing:normal;text-transform:none;direction:ltr;block-progression:tb;writing-mode:lr-tb;text-anchor:start;baseline-shift:baseline;opacity:0.53061224;color:#000000;fill:#ffffff;fill-opacity:1;stroke:#000000;stroke-width:1;stroke-miterlimit:4;stroke-opacity:1;stroke-dasharray:none;marker:none;visibility:visible;display:inline;overflow:visible;enable-background:accumulate;font-family:Sans;-inkscape-font-specification:Sans"
           d="m 180.81129,102.92659 a 5.0005,5.0005 0 0 0 -2.14435,4.16087 l 0.002,34.31532 a 5.0005,5.0005 0 0 0 0.0126,0.20925 l -2.2e-4,2.56212 -1.12021,-0.003 -5.4e-4,-11.43844 a 5.0005,5.0005 0 0 0 -5.06549,-5.08618 5.0005,5.0005 0 0 0 -4.93105,5.08418 l 0.003,22.44274 0.007,5.0118 4.98474,0.009 9.5624,6e-5 2.74431,0.003 c 0.0231,3.1e-4 0.0466,-0.004 0.0697,-0.004 l 2.19774,-0.006 28.93914,-9.5e-4 c 3.36642,1e-5 6.22058,-2.85919 6.22059,-6.22562 l -0.0195,-12.22133 a 5.0005,5.0005 0 0 0 0.0145,-0.22488 l 0.007,-0.1124 0.002,-7.43441 a 5.0005,5.0005 0 0 0 -5.09254,-5.07055 5.0005,5.0005 0 0 0 -4.89479,4.52197 l -0.98071,-0.0111 0.0199,-5.96545 a 5.0005,5.0005 0 0 0 -5.09255,-5.07055 5.0005,5.0005 0 0 0 -4.90398,5.06855 l -0.0199,5.96544 -1.30241,-0.006 -0.007,-5.94981 a 5.0005,5.0005 0 0 0 -5.09255,-5.07055 5.0005,5.0005 0 0 0 -4.90398,5.06854 l 0.007,5.94982 -1.32947,0.01 -0.0126,-26.33433 a 5.0005,5.0005 0 0 0 -5.07692,-5.04349 5.0005,5.0005 0 0 0 -2.80233,0.89624 z"
           id="path17317" />
        <path
           id="path17319"
           d="m 203.32794,89.92659 a 5.0005,5.0005 0 0 0 -2.14435,4.16087 l 0.002,34.31532 a 5.0005,5.0005 0 0 0 0.0126,0.20925 l -2.2e-4,2.56212 -1.12021,-0.003 -5.4e-4,-11.43844 a 5.0005,5.0005 0 0 0 -5.06549,-5.08618 5.0005,5.0005 0 0 0 -4.93105,5.08418 l 0.003,22.44274 0.007,5.0118 4.98474,0.009 9.5624,6e-5 2.74431,0.003 c 0.0231,3.1e-4 0.0466,-0.004 0.0697,-0.004 l 2.19774,-0.006 28.93914,-9.5e-4 c 3.36642,1e-5 6.22058,-2.85919 6.22059,-6.22562 l -0.0195,-12.22133 a 5.0005,5.0005 0 0 0 0.0145,-0.22488 l 0.007,-0.1124 0.002,-7.43441 a 5.0005,5.0005 0 0 0 -5.09254,-5.07055 5.0005,5.0005 0 0 0 -4.89479,4.52197 l -0.98071,-0.0111 0.0199,-5.96545 a 5.0005,5.0005 0 0 0 -5.09255,-5.07055 5.0005,5.0005 0 0 0 -4.90398,5.06855 l -0.0199,5.96544 -1.30241,-0.006 -0.007,-5.94981 a 5.0005,5.0005 0 0 0 -5.09255,-5.07055 5.0005,5.0005 0 0 0 -4.90398,5.06854 l 0.007,5.94982 -1.32947,0.01 -0.0126,-26.33433 a 5.0005,5.0005 0 0 0 -5.07692,-5.04349 5.0005,5.0005 0 0 0 -2.80233,0.89624 z"
           style="font-size:medium;font-style:normal;font-variant:normal;font-weight:normal;font-stretch:normal;text-indent:0;text-align:start;text-decoration:none;line-height:normal;letter-spacing:normal;word-spacing:normal;text-transform:none;direction:ltr;block-progression:tb;writing-mode:lr-tb;text-anchor:start;baseline-shift:baseline;color:#000000;fill:#ffffff;fill-opacity:1;stroke:#000000;stroke-width:1;stroke-miterlimit:4;stroke-opacity:1;stroke-dasharray:none;marker:none;visibility:visible;display:inline;overflow:visible;enable-background:accumulate;font-family:Sans;-inkscape-font-specification:Sans"
           inkscape:connector-curvature="0" />
      </g>
      <g
         transform="matrix(0.86602541,0.50000001,-0.50000001,0.86602541,119.65736,15.78195)"
         id="g17293">
        <path
           style="fill:none;stroke:#000000;stroke-width:10;stroke-linecap:round;stroke-linejoin:miter;stroke-miterlimit:4;stroke-opacity:1;stroke-dasharray:none"
           d="m 159.45258,121.10255 0,34.29468"
           id="path17295"
           inkscape:connector-curvature="0" />
        <path
           inkscape:connector-curvature="0"
           id="path17297"
           d="m 170.76629,141.43187 0,13.96536"
           style="fill:none;stroke:#000000;stroke-width:10;stroke-linecap:round;stroke-linejoin:miter;stroke-miterlimit:4;stroke-opacity:1;stroke-dasharray:none"
           sodipodi:nodetypes="cc" />
        <path
           sodipodi:nodetypes="cc"
           style="fill:none;stroke:#000000;stroke-width:10;stroke-linecap:round;stroke-linejoin:miter;stroke-miterlimit:4;stroke-opacity:1;stroke-dasharray:none"
           d="m 182.08,141.43187 0,13.96536"
           id="path17299"
           inkscape:connector-curvature="0" />
        <path
           inkscape:connector-curvature="0"
           id="path17301"
           d="m 193.04016,147.97261 0,7.42462"
           style="fill:none;stroke:#000000;stroke-width:10;stroke-linecap:round;stroke-linejoin:miter;stroke-miterlimit:4;stroke-opacity:1;stroke-dasharray:none"
           sodipodi:nodetypes="cc" />
        <path
           style="color:#000000;fill:none;stroke:#000000;stroke-width:10;stroke-linecap:round;stroke-linejoin:miter;stroke-miterlimit:4;stroke-opacity:1;stroke-dasharray:none;stroke-dashoffset:0;marker:none;visibility:visible;display:inline;overflow:visible;enable-background:accumulate"
           d="m 148.31565,146.73517 0,22.45064 9.54594,0 0,-6.01041 -7.6014,0"
           id="path17303"
           inkscape:connector-curvature="0"
           sodipodi:nodetypes="ccc" />
        <rect
           style="color:#000000;fill:#000000;fill-opacity:1;stroke:#000000;stroke-width:10;stroke-linecap:round;stroke-linejoin:miter;stroke-miterlimit:4;stroke-opacity:1;stroke-dasharray:none;stroke-dashoffset:0;marker:none;visibility:visible;display:inline;overflow:visible;enable-background:accumulate"
           id="rect17305"
           width="33.58757"
           height="16.793798"
           x="159.45258"
           y="152.39203"
           rx="1.2326992"
           ry="1.2326992" />
      </g>
    </g>
  </g>
</svg>
