<?xml version="1.0" encoding="UTF-8" standalone="no"?>
<!-- Created with Inkscape (http://www.inkscape.org/) -->

<svg
   xmlns:dc="http://purl.org/dc/elements/1.1/"
   xmlns:cc="http://creativecommons.org/ns#"
   xmlns:rdf="http://www.w3.org/1999/02/22-rdf-syntax-ns#"
   xmlns:svg="http://www.w3.org/2000/svg"
   xmlns="http://www.w3.org/2000/svg"
   xmlns:sodipodi="http://sodipodi.sourceforge.net/DTD/sodipodi-0.dtd"
   xmlns:inkscape="http://www.inkscape.org/namespaces/inkscape"
   width="920"
   height="1070"
   id="svg5417"
   version="1.1"
   inkscape:version="0.48.1 r9760"
   sodipodi:docname="region-and-language.svg"
   inkscape:export-filename="/home/allan/SparkleShare/gnome-mockups/system-settings/region-and-language/png/input-sources.png"
   inkscape:export-xdpi="90"
   inkscape:export-ydpi="90"
   style="display:inline">
  <defs
     id="defs5419">
    <inkscape:perspective
       sodipodi:type="inkscape:persp3d"
       inkscape:vp_x="0 : 705 : 1"
       inkscape:vp_y="0 : 1000 : 0"
       inkscape:vp_z="960 : 705 : 1"
       inkscape:persp3d-origin="480 : 470 : 1"
       id="perspective4386" />
    <linearGradient
       id="linearGradient4563-3-6-2-2-8-4-3">
      <stop
         style="stop-color:#f2f2f1;stop-opacity:1"
         offset="0"
         id="stop4565-3-7-8-74-7-8-5" />
      <stop
         id="stop4573-2-5-96-40-4-2-1"
         offset="0.02806983"
         style="stop-color:#fefefe;stop-opacity:1" />
      <stop
         id="stop4571-4-1-0-5-1-4-7"
         offset="0.97726452"
         style="stop-color:#eeeeec;stop-opacity:1" />
      <stop
         style="stop-color:#f5f5f4;stop-opacity:1"
         offset="1"
         id="stop4567-7-50-6-6-6-2-8" />
    </linearGradient>
    <clipPath
       clipPathUnits="userSpaceOnUse"
       id="clipPath3697">
      <path
         style="color:#bebebe;fill:#bebebe;fill-opacity:1;fill-rule:nonzero;stroke:none;stroke-width:2;marker:none;visibility:visible;display:inline;overflow:visible"
         id="path3699"
         d="m 26.965789,221.32959 0,5.21591 0.579546,0 0,-1.15909 2.318182,0 0,-4.05682 -2.897728,0 z"
         inkscape:connector-curvature="0" />
    </clipPath>
    <clipPath
       clipPathUnits="userSpaceOnUse"
       id="clipPath3668">
      <rect
         style="color:#bebebe;fill:#bebebe;fill-opacity:1;stroke:none;stroke-width:2;marker:none;visibility:visible;display:inline;overflow:visible"
         width="1.8762826"
         height="3.3729413"
         id="rect3670"
         y="221.50153"
         x="26.998718" />
    </clipPath>
    <clipPath
       clipPathUnits="userSpaceOnUse"
       id="clipPath6279-2-3">
      <rect
         width="3.8250003"
         style="color:#bebebe;fill:#bebebe;fill-opacity:1;fill-rule:nonzero;stroke:none;stroke-width:2;marker:none;visibility:visible;display:inline;overflow:visible"
         height="6.3750005"
         id="rect6281-5-3"
         y="220.75"
         x="26.85" />
    </clipPath>
    <clipPath
       clipPathUnits="userSpaceOnUse"
       id="clipPath3697-7">
      <path
         style="color:#bebebe;fill:#bebebe;fill-opacity:1;fill-rule:nonzero;stroke:none;stroke-width:2;marker:none;visibility:visible;display:inline;overflow:visible"
         id="path3699-2"
         d="m 26.965789,221.32959 0,5.21591 0.579546,0 0,-1.15909 2.318182,0 0,-4.05682 -2.897728,0 z"
         inkscape:connector-curvature="0" />
    </clipPath>
    <clipPath
       clipPathUnits="userSpaceOnUse"
       id="clipPath3668-2">
      <rect
         style="color:#bebebe;fill:#bebebe;fill-opacity:1;stroke:none;stroke-width:2;marker:none;visibility:visible;display:inline;overflow:visible"
         width="1.8762826"
         height="3.3729413"
         id="rect3670-1"
         y="221.50153"
         x="26.998718" />
    </clipPath>
    <clipPath
       clipPathUnits="userSpaceOnUse"
       id="clipPath6279-2-3-5">
      <rect
         width="3.8250003"
         style="color:#bebebe;fill:#bebebe;fill-opacity:1;fill-rule:nonzero;stroke:none;stroke-width:2;marker:none;visibility:visible;display:inline;overflow:visible"
         height="6.3750005"
         id="rect6281-5-3-8"
         y="220.75"
         x="26.85" />
    </clipPath>
    <clipPath
       id="clipPath6259-5">
      <rect
         style="color:#bebebe;fill:#bebebe;fill-opacity:1;stroke:none;stroke-width:2;marker:none;visibility:visible;display:inline;overflow:visible"
         width="1.8762827"
         height="4.8734746"
         id="rect6261-61"
         y="221.50153"
         x="26.998718" />
    </clipPath>
    <clipPath
       id="clipPath6265-334">
      <rect
         style="color:#bebebe;fill:#bebebe;fill-opacity:1;fill-rule:nonzero;stroke:none;stroke-width:2;marker:none;visibility:visible;display:inline;overflow:visible"
         width="2.8977277"
         height="5.21591"
         id="rect6267-61"
         y="221.32954"
         x="26.96591" />
    </clipPath>
    <clipPath
       id="clipPath6279-3">
      <rect
         style="color:#bebebe;fill:#bebebe;fill-opacity:1;fill-rule:nonzero;stroke:none;stroke-width:2;marker:none;visibility:visible;display:inline;overflow:visible"
         width="3.8250003"
         height="6.3750005"
         id="rect6281-9"
         y="220.75"
         x="26.85" />
    </clipPath>
  </defs>
  <sodipodi:namedview
     id="base"
     pagecolor="#729fcf"
     bordercolor="#666666"
     borderopacity="1.0"
     inkscape:pageopacity="1"
     inkscape:pageshadow="2"
     inkscape:zoom="1"
     inkscape:cx="282.36622"
     inkscape:cy="815.41854"
     inkscape:document-units="px"
     inkscape:current-layer="layer1"
     showgrid="false"
     inkscape:window-width="1280"
     inkscape:window-height="967"
     inkscape:window-x="0"
     inkscape:window-y="26"
     inkscape:window-maximized="1"
     fit-margin-top="0"
     fit-margin-left="0"
     fit-margin-right="0"
     fit-margin-bottom="0"
     showguides="true"
     inkscape:guide-bbox="true"
     inkscape:snap-bbox="true"
     inkscape:snap-bbox-edge-midpoints="false"
     inkscape:bbox-nodes="true"
     inkscape:snap-nodes="false"
     inkscape:bbox-paths="true">
    <inkscape:grid
       type="xygrid"
       id="grid5718"
       empspacing="5"
       visible="true"
       enabled="true"
       snapvisiblegridlinesonly="true" />
  </sodipodi:namedview>
  <metadata
     id="metadata5422">
    <rdf:RDF>
      <cc:Work
         rdf:about="">
        <dc:format>image/svg+xml</dc:format>
        <dc:type
           rdf:resource="http://purl.org/dc/dcmitype/StillImage" />
        <dc:title></dc:title>
      </cc:Work>
    </rdf:RDF>
  </metadata>
  <g
     inkscape:label="layer"
     inkscape:groupmode="layer"
     id="layer1"
     style="display:inline"
     transform="translate(626.65625,-746.28125)">
    <text
       id="text3371-4-2-6"
       y="2445.8694"
       x="-307.83182"
       style="font-size:12.37907791px;font-style:normal;font-weight:normal;text-align:start;text-anchor:start;fill:#2e3436;fill-opacity:1;stroke:none;display:inline;enable-background:new;font-family:Droid Sans;-inkscape-font-specification:Droid Sans"
       xml:space="preserve"
       transform="scale(0.9995531,1.0004471)"><tspan
         style="font-weight:normal;-inkscape-font-specification:Droid Sans"
         y="2445.8694"
         x="-307.83182"
         sodipodi:role="line"
         id="tspan3805-8" /></text>
    <rect
       style="color:#000000;fill:none;stroke:none;stroke-width:1;marker:none;visibility:visible;display:inline;overflow:visible;enable-background:accumulate"
       id="rect3644"
       width="102"
       height="48"
       x="-98.406189"
       y="-48.34375" />
    <g
       style="fill:#888a85;fill-opacity:1;display:inline"
       id="g5806"
       transform="matrix(1.2495087,0,0,1.2495087,63.159508,597.70019)" />
    <g
       id="g5808"
       transform="matrix(1.2495087,0,0,1.2495087,63.159508,597.70019)"
       style="fill:#888a85;fill-opacity:1" />
    <g
       id="g5810"
       transform="matrix(1.2495087,0,0,1.2495087,63.159508,597.70019)"
       style="fill:#888a85;fill-opacity:1" />
    <g
       id="g5818"
       transform="matrix(1.2495087,0,0,1.2495087,63.159508,597.70019)"
       style="fill:#888a85;fill-opacity:1" />
    <g
       id="g5820"
       transform="matrix(1.2495087,0,0,1.2495087,63.159508,597.70019)"
       style="fill:#888a85;fill-opacity:1" />
    <g
       id="g5822"
       transform="matrix(1.2495087,0,0,1.2495087,63.159508,597.70019)"
       style="fill:#888a85;fill-opacity:1" />
    <path
       sodipodi:nodetypes="cssccccssc"
       inkscape:connector-curvature="0"
       id="path3212"
       d="m -519.93065,807.83336 707.77295,0 c 3.3266,0 6.0209,2.67604 6.0047,6 l -0.022,491.94794 -6.0047,0 -707.97182,0 -6.00473,0 0.22097,-491.94794 c 0.001,-3.324 2.67811,-6 6.00473,-6 z"
       style="fill:#eeeeec;fill-opacity:1;stroke:#a7aba7;stroke-width:1;stroke-miterlimit:4;stroke-opacity:1;stroke-dasharray:none;stroke-dashoffset:0;display:inline" />
    <rect
       style="fill:#d3d7cf;fill-opacity:1;stroke:#a7aba7;stroke-width:1;stroke-miterlimit:4;stroke-opacity:1;stroke-dasharray:none;stroke-dashoffset:0;display:inline"
       id="rect3214"
       width="720.00342"
       height="53.024094"
       x="-526.15637"
       y="839.78479" />
    <rect
       style="fill:#eeeeec;fill-opacity:1;stroke:#a7aba7;stroke-width:1;stroke-miterlimit:4;stroke-opacity:1;stroke-dasharray:none;stroke-dashoffset:0;display:inline"
       id="rect3216"
       width="99"
       height="34.999977"
       x="-515.15637"
       y="848.8089"
       rx="2.3"
       ry="2.3" />
    <text
       transform="scale(0.9995531,1.0004471)"
       xml:space="preserve"
       style="font-size:14px;font-style:normal;font-weight:normal;text-align:center;text-anchor:middle;fill:#2e3436;fill-opacity:1;stroke:none;display:inline;enable-background:new;font-family:Cantarell;-inkscape-font-specification:Cantarell"
       x="-465.689"
       y="870.70935"
       id="text3218"><tspan
         sodipodi:role="line"
         id="tspan3220"
         x="-465.689"
         y="870.70935">All Settings</tspan></text>
    <text
       id="text3222"
       y="828.22833"
       x="-166.56839"
       style="font-size:14px;font-style:normal;font-weight:bold;text-align:center;text-anchor:middle;fill:#2e3436;fill-opacity:1;stroke:none;display:inline;enable-background:new;font-family:Cantarell;-inkscape-font-specification:Cantarell Bold"
       xml:space="preserve"
       transform="scale(0.9995531,1.0004471)"><tspan
         y="828.22833"
         x="-166.56839"
         id="tspan3224"
         sodipodi:role="line"
         style="font-size:14px;font-weight:bold;text-align:center;text-anchor:middle;fill:#2e3436;font-family:Cantarell;-inkscape-font-specification:Cantarell Bold">Sound</tspan></text>
    <g
       style="fill:#888a85;fill-opacity:1"
       transform="matrix(1.2495087,0,0,1.2495087,170.37988,813.81293)"
       id="g3226">
      <g
         transform="translate(-60,-518)"
         id="g3228"
         style="fill:#888a85;fill-opacity:1;display:inline" />
      <g
         style="fill:#888a85;fill-opacity:1"
         transform="translate(-60,-518)"
         id="g3230" />
      <g
         style="fill:#888a85;fill-opacity:1"
         transform="translate(-60,-518)"
         id="g3232" />
      <g
         style="fill:#888a85;fill-opacity:1"
         transform="translate(-60,-518)"
         id="g3234">
        <g
           transform="translate(19,-242)"
           id="g3236"
           style="fill:#888a85;fill-opacity:1;display:inline">
          <path
             inkscape:connector-curvature="0"
             d="m 45,764 1,0 c 0.01037,-1.2e-4 0.02079,-4.6e-4 0.03125,0 0.254951,0.0112 0.50987,0.12858 0.6875,0.3125 L 49,766.59375 51.3125,764.3125 C 51.578125,764.082 51.759172,764.007 52,764 l 1,0 0,1 c 0,0.28647 -0.03434,0.55065 -0.25,0.75 l -2.28125,2.28125 2.25,2.25 C 52.906938,770.46942 52.999992,770.7347 53,771 l 0,1 -1,0 c -0.265301,-10e-6 -0.530586,-0.0931 -0.71875,-0.28125 L 49,769.4375 46.71875,771.71875 C 46.530586,771.90694 46.26529,772 46,772 l -1,0 0,-1 c -3e-6,-0.26529 0.09306,-0.53058 0.28125,-0.71875 l 2.28125,-2.25 L 45.28125,765.75 C 45.070508,765.55537 44.97809,765.28075 45,765 l 0,-1 z"
             id="path3238"
             style="font-size:medium;font-style:normal;font-variant:normal;font-weight:normal;font-stretch:normal;text-indent:0;text-align:start;text-decoration:none;line-height:normal;letter-spacing:normal;word-spacing:normal;text-transform:none;direction:ltr;block-progression:tb;writing-mode:lr-tb;text-anchor:start;color:#bebebe;fill:#888a85;fill-opacity:1;fill-rule:nonzero;stroke:none;stroke-width:1.78124988;marker:none;visibility:visible;display:inline;overflow:visible;enable-background:new;font-family:Andale Mono;-inkscape-font-specification:Andale Mono" />
        </g>
      </g>
      <g
         style="fill:#888a85;fill-opacity:1"
         transform="translate(-60,-518)"
         id="g3240" />
      <g
         style="fill:#888a85;fill-opacity:1"
         transform="translate(-60,-518)"
         id="g3242" />
      <g
         style="fill:#888a85;fill-opacity:1"
         transform="translate(-60,-518)"
         id="g3244" />
    </g>
    <rect
       y="1002.8333"
       x="-509.40631"
       height="285"
       width="687"
       id="rect3607-7"
       style="fill:#ffffff;fill-opacity:1;stroke:#babdb6;stroke-width:1.00000024;stroke-miterlimit:4;stroke-opacity:1;stroke-dasharray:none;stroke-dashoffset:0;display:inline" />
    <rect
       style="fill:#ffffff;fill-opacity:1;stroke:#babdb6;stroke-width:0.99999994;stroke-linecap:square;stroke-miterlimit:4;stroke-opacity:1;stroke-dasharray:none;stroke-dashoffset:0"
       id="rect3614"
       width="224"
       height="261"
       x="-497.40637"
       y="1014.8333" />
    <path
       style="fill:#eeeeec;fill-opacity:1;stroke:#babdb6;stroke-width:1.00000024;stroke-miterlimit:4;stroke-opacity:1;stroke-dashoffset:0;display:inline"
       d="m -385.23391,1002.8334 -124.17241,0 m 0,0 0,-24.99993 c 0,-1.662 1.338,-3 3,-3 l 118.17241,0 c 1.662,0 3,1.338 3,3 l 0,24.99993"
       id="path5975"
       inkscape:connector-curvature="0"
       sodipodi:nodetypes="cccssssc" />
    <text
       id="text6848"
       y="992.4848"
       x="-448.03888"
       style="font-size:13.03971481px;font-style:normal;font-variant:normal;font-weight:normal;font-stretch:normal;text-align:center;text-anchor:middle;fill:#2e3436;fill-opacity:1;stroke:none;display:inline;enable-background:new;font-family:Cantarell;-inkscape-font-specification:Cantarell"
       xml:space="preserve"
       transform="scale(0.9995531,1.0004471)"><tspan
         y="992.4848"
         x="-448.03888"
         id="tspan6850"
         sodipodi:role="line">Sound Effects</tspan></text>
    <path
       sodipodi:nodetypes="cccssssc"
       inkscape:connector-curvature="0"
       id="path5977"
       d="m -63.21845,1002.7811 -104.17241,0 m 0,0 0,-24.99985 c 0,-1.662 1.338,-3 3,-3 l 98.17241,0 c 1.662,0 3,1.338 3,3 l 0,24.99985"
       style="fill:#eeeeec;fill-opacity:1;stroke:#babdb6;stroke-width:1.00000024;stroke-miterlimit:4;stroke-opacity:1;stroke-dashoffset:0;display:inline" />
    <text
       transform="scale(0.9995531,1.0004471)"
       xml:space="preserve"
       style="font-size:13.03971481px;font-style:normal;font-variant:normal;font-weight:normal;font-stretch:normal;text-align:center;text-anchor:middle;fill:#2e3436;fill-opacity:1;stroke:none;display:inline;enable-background:new;font-family:Cantarell;-inkscape-font-specification:Cantarell"
       x="-115.0296"
       y="992.43262"
       id="text3574-9"><tspan
         style="font-style:normal;font-variant:normal;font-weight:normal;font-stretch:normal;text-align:center;text-anchor:middle;font-family:Cantarell;-inkscape-font-specification:Cantarell"
         sodipodi:role="line"
         id="tspan3576-6"
         x="-115.0296"
         y="992.43262">Applications</tspan></text>
    <path
       style="fill:#eeeeec;fill-opacity:1;stroke:#babdb6;stroke-width:1.00000024;stroke-miterlimit:4;stroke-opacity:1;stroke-dashoffset:0;display:inline"
       d="m -170.81143,1002.7811 -104.17241,0 m 0,0 0,-24.99985 c 0,-1.662 1.338,-3 3,-3 l 98.17241,0 c 1.662,0 3,1.338 3,3 l 0,24.99985"
       id="path5979"
       inkscape:connector-curvature="0"
       sodipodi:nodetypes="cccssssc" />
    <text
       transform="scale(0.9995531,1.0004471)"
       xml:space="preserve"
       style="font-size:13.03971481px;font-style:normal;font-variant:normal;font-weight:normal;font-stretch:normal;text-align:center;text-anchor:middle;fill:#2e3436;fill-opacity:1;stroke:none;display:inline;enable-background:new;font-family:Cantarell;-inkscape-font-specification:Cantarell"
       x="-223.65111"
       y="992.43262"
       id="text4406"><tspan
         sodipodi:role="line"
         id="tspan4408"
         x="-223.65111"
         y="992.43262">Input</tspan></text>
    <path
       sodipodi:nodetypes="cccssssc"
       inkscape:connector-curvature="0"
       id="path6828"
       d="m -277.98384,1002.7811 -104.17241,0 m 0,0 0,-24.99985 c 0,-1.662 1.338,-3 3,-3 l 98.17241,0 c 1.662,0 3,1.338 3,3 l 0,24.99985"
       style="fill:#ffffff;fill-opacity:1;stroke:#babdb6;stroke-width:1.00000024;stroke-miterlimit:4;stroke-opacity:1;stroke-dashoffset:0;display:inline" />
    <path
       style="fill:none;stroke:#ffffff;stroke-width:1px;stroke-linecap:square;stroke-linejoin:miter;stroke-opacity:1"
       d="m -381.14644,1002.7811 c 102.15202,0 102.15202,0 102.15202,0"
       id="path5981"
       inkscape:connector-curvature="0" />
    <text
       id="text4569"
       y="992.43262"
       x="-330.54544"
       style="font-size:13.03971481px;font-style:normal;font-variant:normal;font-weight:normal;font-stretch:normal;text-align:center;text-anchor:middle;fill:#2e3436;fill-opacity:1;stroke:none;display:inline;enable-background:new;font-family:Cantarell;-inkscape-font-specification:Cantarell"
       xml:space="preserve"
       transform="scale(0.9995531,1.0004471)"><tspan
         y="992.43262"
         x="-330.54544"
         id="tspan4571"
         sodipodi:role="line">Output</tspan></text>
    <rect
       style="fill:#729fcf;fill-opacity:1;stroke:#3465a4;stroke-width:0.99999988;stroke-linecap:square;stroke-miterlimit:4;stroke-opacity:1;stroke-dasharray:none;stroke-dashoffset:0"
       id="rect6059"
       width="216"
       height="27"
       x="-493.40637"
       y="1018.4949" />
    <text
       sodipodi:linespacing="125%"
       id="text5932"
       y="1036.506"
       x="-486.93262"
       style="font-size:13px;font-style:normal;font-variant:normal;font-weight:bold;font-stretch:normal;text-align:start;line-height:125%;letter-spacing:0px;word-spacing:0px;text-anchor:start;fill:#ffffff;fill-opacity:1;stroke:none;font-family:Cantarell;-inkscape-font-specification:Cantarell Bold"
       xml:space="preserve"><tspan
         y="1036.506"
         x="-486.93262"
         id="tspan5934"
         sodipodi:role="line">Headphones</tspan></text>
    <text
       xml:space="preserve"
       style="font-size:13px;font-style:normal;font-variant:normal;font-weight:normal;font-stretch:normal;text-align:start;line-height:125%;letter-spacing:0px;word-spacing:0px;text-anchor:start;fill:#2e3436;fill-opacity:1;stroke:none;font-family:Cantarell;-inkscape-font-specification:Sans"
       x="-486.93262"
       y="1064.4214"
       id="text5936"
       sodipodi:linespacing="125%"><tspan
         sodipodi:role="line"
         id="tspan5938"
         x="-486.93262"
         y="1064.4214">USB Speakers</tspan></text>
    <text
       sodipodi:linespacing="125%"
       id="text5940"
       y="1092.4214"
       x="-486.93262"
       style="font-size:13px;font-style:normal;font-variant:normal;font-weight:normal;font-stretch:normal;text-align:start;line-height:125%;letter-spacing:0px;word-spacing:0px;text-anchor:start;fill:#2e3436;fill-opacity:1;stroke:none;font-family:Cantarell;-inkscape-font-specification:Sans"
       xml:space="preserve"><tspan
         y="1092.4214"
         x="-486.93262"
         id="tspan5942"
         sodipodi:role="line">Speakers</tspan></text>
    <text
       xml:space="preserve"
       style="font-size:13px;font-style:normal;font-variant:normal;font-weight:normal;font-stretch:normal;text-align:end;line-height:125%;letter-spacing:0px;word-spacing:0px;text-anchor:end;fill:#2e3436;fill-opacity:1;stroke:none;font-family:Cantarell;-inkscape-font-specification:Sans"
       x="-359.10083"
       y="935.42139"
       id="text19469"
       sodipodi:linespacing="125%"><tspan
         sodipodi:role="line"
         id="tspan19471"
         x="-359.10083"
         y="935.42139">Output volume:</tspan></text>
    <path
       style="fill:none;stroke:#888a85;stroke-width:1px;stroke-linecap:butt;stroke-linejoin:miter;stroke-opacity:1"
       d="m -308.19866,931.28125 c 382.999995,0 382.999995,0 382.999995,0"
       id="path19473"
       inkscape:connector-curvature="0" />
    <path
       sodipodi:type="arc"
       style="fill:#eeeeec;fill-opacity:1;stroke:#888a85;stroke-width:1.15384614"
       id="path19475"
       sodipodi:cx="425.5"
       sodipodi:cy="184.5"
       sodipodi:rx="7.5"
       sodipodi:ry="7.5"
       d="m 433,184.5 a 7.5,7.5 0 1 1 -15,0 7.5,7.5 0 1 1 15,0 z"
       transform="matrix(0.86666667,0,0,0.86666667,-475.46533,771.88125)" />
    <text
       sodipodi:linespacing="125%"
       id="text19657"
       y="1099.4214"
       x="-255.74579"
       style="font-size:13px;font-style:normal;font-variant:normal;font-weight:bold;font-stretch:normal;text-align:start;line-height:125%;letter-spacing:0px;word-spacing:0px;text-anchor:start;fill:#2e3436;fill-opacity:1;stroke:none;font-family:Cantarell;-inkscape-font-specification:Cantarell Bold"
       xml:space="preserve"><tspan
         y="1099.4214"
         x="-255.74579"
         id="tspan19659"
         sodipodi:role="line">Balance</tspan></text>
    <path
       inkscape:connector-curvature="0"
       id="path19661"
       d="m -201.05132,1119.2813 c 300.744796,0 300.744796,0 300.744796,0"
       style="fill:none;stroke:#888a85;stroke-width:1px;stroke-linecap:butt;stroke-linejoin:miter;stroke-opacity:1" />
    <path
       transform="matrix(0.86666667,0,0,0.86666667,-419.44559,959.88125)"
       d="m 433,184.5 a 7.5,7.5 0 1 1 -15,0 7.5,7.5 0 1 1 15,0 z"
       sodipodi:ry="7.5"
       sodipodi:rx="7.5"
       sodipodi:cy="184.5"
       sodipodi:cx="425.5"
       id="path19663"
       style="fill:#eeeeec;fill-opacity:1;stroke:#888a85;stroke-width:1.15384614"
       sodipodi:type="arc" />
    <text
       xml:space="preserve"
       style="font-size:12px;font-style:normal;font-variant:normal;font-weight:normal;font-stretch:normal;text-align:end;line-height:125%;letter-spacing:0px;word-spacing:0px;text-anchor:end;fill:#2e3436;fill-opacity:1;stroke:none;font-family:Cantarell;-inkscape-font-specification:Cantarell"
       x="-208.95999"
       y="1123.4214"
       id="text19669"
       sodipodi:linespacing="125%"><tspan
         sodipodi:role="line"
         id="tspan19671"
         x="-208.95999"
         y="1123.4214">Left</tspan></text>
    <text
       sodipodi:linespacing="125%"
       id="text19673"
       y="1123.4214"
       x="107.99855"
       style="font-size:12px;font-style:normal;font-variant:normal;font-weight:normal;font-stretch:normal;text-align:start;line-height:125%;letter-spacing:0px;word-spacing:0px;text-anchor:start;fill:#2e3436;fill-opacity:1;stroke:none;font-family:Cantarell;-inkscape-font-specification:Cantarell"
       xml:space="preserve"><tspan
         y="1123.4214"
         x="107.99855"
         id="tspan19675"
         sodipodi:role="line">Right</tspan></text>
    <path
       style="fill:none;stroke:#888a85;stroke-width:1px;stroke-linecap:butt;stroke-linejoin:miter;stroke-opacity:1"
       d="m -50.678923,1129.9875 c 0,8.4445 0,8.4445 0,8.4445"
       id="path19677"
       inkscape:connector-curvature="0" />
    <text
       xml:space="preserve"
       style="font-size:13px;font-style:normal;font-variant:normal;font-weight:normal;font-stretch:normal;text-align:start;line-height:125%;letter-spacing:0px;word-spacing:0px;text-anchor:start;fill:#2e3436;fill-opacity:1;stroke:none;font-family:Cantarell;-inkscape-font-specification:Sans"
       x="-486.93262"
       y="1120.4214"
       id="text19694"
       sodipodi:linespacing="125%"><tspan
         sodipodi:role="line"
         id="tspan19696"
         x="-486.93262"
         y="1120.4214">SPDIF</tspan></text>
    <text
       xml:space="preserve"
       style="font-size:13px;font-style:normal;font-variant:normal;font-weight:normal;font-stretch:normal;text-align:start;line-height:125%;letter-spacing:0px;word-spacing:0px;text-anchor:start;fill:#2e3436;fill-opacity:1;stroke:none;font-family:Cantarell;-inkscape-font-specification:Sans"
       x="-486.93262"
       y="1148.4214"
       id="text19702"
       sodipodi:linespacing="125%"><tspan
         sodipodi:role="line"
         id="tspan19704"
         x="-486.93262"
         y="1148.4214">Foobar</tspan></text>
    <text
       sodipodi:linespacing="125%"
       id="text19706"
       y="1176.4214"
       x="-486.93262"
       style="font-size:13px;font-style:normal;font-variant:normal;font-weight:normal;font-stretch:normal;text-align:start;line-height:125%;letter-spacing:0px;word-spacing:0px;text-anchor:start;fill:#2e3436;fill-opacity:1;stroke:none;font-family:Cantarell;-inkscape-font-specification:Sans"
       xml:space="preserve"><tspan
         y="1176.4214"
         x="-486.93262"
         id="tspan19708"
         sodipodi:role="line">Bluetooth Headset</tspan></text>
    <text
       xml:space="preserve"
       style="font-size:13px;font-style:normal;font-variant:normal;font-weight:bold;font-stretch:normal;text-align:start;line-height:125%;letter-spacing:0px;word-spacing:0px;text-anchor:start;fill:#2e3436;fill-opacity:1;stroke:none;font-family:Cantarell;-inkscape-font-specification:Cantarell Bold"
       x="-255.74579"
       y="1037.4214"
       id="text19710"
       sodipodi:linespacing="125%"><tspan
         sodipodi:role="line"
         id="tspan19712"
         x="-255.74579"
         y="1037.4214">Volume</tspan></text>
    <path
       style="fill:none;stroke:#888a85;stroke-width:1px;stroke-linecap:butt;stroke-linejoin:miter;stroke-opacity:1"
       d="m -201.05132,1057.2813 c 300.744796,0 300.744796,0 300.744796,0"
       id="path19716"
       inkscape:connector-curvature="0" />
    <path
       sodipodi:type="arc"
       style="fill:#eeeeec;fill-opacity:1;stroke:#888a85;stroke-width:1.15384614"
       id="path19718"
       sodipodi:cx="425.5"
       sodipodi:cy="184.5"
       sodipodi:rx="7.5"
       sodipodi:ry="7.5"
       d="m 433,184.5 a 7.5,7.5 0 1 1 -15,0 7.5,7.5 0 1 1 15,0 z"
       transform="matrix(0.86666667,0,0,0.86666667,-419.44559,897.88125)" />
    <g
       inkscape:label="status"
       transform="translate(-435.65632,726.29508)"
       id="layer9"
       style="fill:#2e3436;display:inline">
      <path
         inkscape:connector-curvature="0"
         d="m 101.0002,202 2.48438,0 2.96875,-3 0.54687,0.0156 0,11 -0.4753,8.3e-4 -3.04032,-3.01643 -2.48438,0 0,-5 z"
         id="path3268"
         sodipodi:nodetypes="ccccccccc"
         style="opacity:0.35;color:#bebebe;fill:#2e3436;fill-opacity:1;fill-rule:nonzero;stroke:none;stroke-width:1;marker:none;visibility:visible;display:inline;overflow:visible" />
      <path
         transform="matrix(0.784314,0,0,0.784314,86.94138,28.862801)"
         inkscape:connector-curvature="0"
         d="m 26.9375,220.40625 a 1.2751275,1.2751275 0 0 0 -0.65625,2.1875 c 0.757556,0.75756 0.757556,1.92994 0,2.6875 a 1.281631,1.281631 0 1 0 1.8125,1.8125 c 1.732036,-1.73204 1.732036,-4.58046 0,-6.3125 a 1.2751275,1.2751275 0 0 0 -1.15625,-0.375 z"
         clip-path="url(#clipPath6279-2-3-5)"
         id="path3272"
         style="font-size:medium;font-style:normal;font-variant:normal;font-weight:normal;font-stretch:normal;text-indent:0;text-align:start;text-decoration:none;line-height:normal;letter-spacing:normal;word-spacing:normal;text-transform:none;direction:ltr;block-progression:tb;writing-mode:lr-tb;text-anchor:start;baseline-shift:baseline;opacity:0.35;color:#000000;fill:#2e3436;fill-opacity:1;stroke:none;stroke-width:2.54999995;marker:none;visibility:visible;display:inline;overflow:visible;enable-background:accumulate;font-family:Sans;-inkscape-font-specification:Sans" />
      <path
         transform="matrix(1.72549,0,0,1.72549,63.4708,-181.902)"
         inkscape:connector-curvature="0"
         d="m 27.125,221.09375 a 0.57960298,0.57960298 0 0 0 -0.34375,1 c 1.023324,1.02332 1.023324,2.66418 0,3.6875 a 0.57960298,0.57960298 0 1 0 0.8125,0.8125 c 1.466269,-1.46627 1.466269,-3.84623 0,-5.3125 a 0.57960298,0.57960298 0 0 0 -0.46875,-0.1875 z"
         clip-path="url(#clipPath3697-7)"
         id="path3274"
         style="font-size:medium;font-style:normal;font-variant:normal;font-weight:normal;font-stretch:normal;text-indent:0;text-align:start;text-decoration:none;line-height:normal;letter-spacing:normal;word-spacing:normal;text-transform:none;direction:ltr;block-progression:tb;writing-mode:lr-tb;text-anchor:start;baseline-shift:baseline;opacity:0.35;color:#000000;fill:#2e3436;fill-opacity:1;stroke:none;stroke-width:1.15909004;marker:none;visibility:visible;display:inline;overflow:visible;enable-background:accumulate;font-family:Sans;-inkscape-font-specification:Sans" />
      <path
         transform="matrix(2.66667,0,0,2.66667,40.0002,-392.666)"
         inkscape:connector-curvature="0"
         d="m 27.0625,221.3125 a 0.3750375,0.3750375 0 0 0 -0.125,0.625 c 1.10149,1.10149 1.10149,2.89851 0,4 a 0.37565048,0.37565048 0 1 0 0.53125,0.53125 c 1.388102,-1.3881 1.388102,-3.6744 0,-5.0625 a 0.3750375,0.3750375 0 0 0 -0.40625,-0.0937 z"
         clip-path="url(#clipPath3668-2)"
         id="path3276"
         style="font-size:medium;font-style:normal;font-variant:normal;font-weight:normal;font-stretch:normal;text-indent:0;text-align:start;text-decoration:none;line-height:normal;letter-spacing:normal;word-spacing:normal;text-transform:none;direction:ltr;block-progression:tb;writing-mode:lr-tb;text-anchor:start;baseline-shift:baseline;opacity:0.35;color:#000000;fill:#2e3436;fill-opacity:1;stroke:none;stroke-width:0.75;marker:none;visibility:visible;display:inline;overflow:visible;enable-background:accumulate;font-family:Sans;-inkscape-font-specification:Sans" />
      <path
         inkscape:connector-curvature="0"
         d="m 111.99995,208 1.375,0 1.125,1.09375 1.09375,-1.09375 1.40625,0 0,1.46875 -1.09375,1.0625 1.09375,1.0625 0,1.40625 -1.4375,0 -1.0625,-1.0625 -1.0625,1.0625 -1.4375,0 0,-1.40625 1.0625,-1.0625 -1.0625,-1.0625 0,-1.46875 z"
         id="path3761-2-3-5-4-8-9-8-0-1-7"
         sodipodi:nodetypes="ccccccccccccccccc"
         style="color:#bebebe;fill:#2e3436;fill-opacity:1;stroke:none;stroke-width:2;marker:none;visibility:visible;display:inline;overflow:visible" />
    </g>
    <g
       style="fill:#2e3436"
       inkscape:label="devices"
       transform="translate(-375.65632,726.29508)"
       id="layer10" />
    <g
       style="fill:#2e3436"
       inkscape:label="apps"
       transform="translate(-375.65632,726.29508)"
       id="layer11" />
    <g
       style="fill:#2e3436"
       inkscape:label="actions"
       transform="translate(-375.65632,726.29508)"
       id="layer12" />
    <g
       style="fill:#2e3436"
       inkscape:label="places"
       transform="translate(-375.65632,726.29508)"
       id="layer13" />
    <g
       style="fill:#2e3436"
       inkscape:label="mimetypes"
       transform="translate(-375.65632,726.29508)"
       id="layer14" />
    <g
       inkscape:label="emblems"
       transform="translate(-375.65632,726.29508)"
       id="layer15"
       style="fill:#2e3436;display:inline" />
    <g
       inkscape:label="categories"
       transform="translate(-375.65632,726.29508)"
       id="g4953"
       style="fill:#2e3436;display:inline" />
    <g
       id="g19938"
       transform="translate(87.301335,923.7778)"
       style="fill:#2e3436">
      <g
         style="display:inline;fill:#2e3436"
         id="layer9-1"
         transform="translate(-41.0002,-197)">
        <path
           style="font-size:medium;font-style:normal;font-variant:normal;font-weight:normal;font-stretch:normal;text-indent:0;text-align:start;text-decoration:none;line-height:normal;letter-spacing:normal;word-spacing:normal;text-transform:none;direction:ltr;block-progression:tb;writing-mode:lr-tb;text-anchor:start;color:#000000;fill:#2e3436;fill-opacity:1;stroke:none;stroke-width:2.54999995000000013;marker:none;visibility:visible;display:inline;overflow:visible;enable-background:accumulate;font-family:Sans;-inkscape-font-specification:Sans"
           id="path3718"
           clip-path="url(#clipPath6279-3)"
           d="m 26.9375,220.40625 a 1.2751275,1.2751275 0 0 0 -0.65625,2.1875 c 0.757556,0.75756 0.757556,1.92994 0,2.6875 a 1.281631,1.281631 0 1 0 1.8125,1.8125 c 1.732036,-1.73204 1.732036,-4.58046 0,-6.3125 a 1.2751275,1.2751275 0 0 0 -1.15625,-0.375 z"
           inkscape:connector-curvature="0"
           transform="matrix(0.784314,0,0,0.784314,26.94138,28.862801)" />
        <path
           style="font-size:medium;font-style:normal;font-variant:normal;font-weight:normal;font-stretch:normal;text-indent:0;text-align:start;text-decoration:none;line-height:normal;letter-spacing:normal;word-spacing:normal;text-transform:none;direction:ltr;block-progression:tb;writing-mode:lr-tb;text-anchor:start;color:#000000;fill:#2e3436;fill-opacity:1;stroke:none;stroke-width:1.15909003999999993;marker:none;visibility:visible;display:inline;overflow:visible;enable-background:accumulate;font-family:Sans;-inkscape-font-specification:Sans"
           id="path3726"
           clip-path="url(#clipPath6265-334)"
           d="m 27.125,221.09375 a 0.57960298,0.57960298 0 0 0 -0.34375,1 c 1.023324,1.02332 1.023324,2.66418 0,3.6875 a 0.57960298,0.57960298 0 1 0 0.8125,0.8125 c 1.466269,-1.46627 1.466269,-3.84623 0,-5.3125 a 0.57960298,0.57960298 0 0 0 -0.46875,-0.1875 z"
           inkscape:connector-curvature="0"
           transform="matrix(1.72549,0,0,1.72549,3.4708,-181.902)" />
        <path
           style="font-size:medium;font-style:normal;font-variant:normal;font-weight:normal;font-stretch:normal;text-indent:0;text-align:start;text-decoration:none;line-height:normal;letter-spacing:normal;word-spacing:normal;text-transform:none;direction:ltr;block-progression:tb;writing-mode:lr-tb;text-anchor:start;color:#000000;fill:#2e3436;fill-opacity:1;stroke:none;stroke-width:0.75000000000000000;marker:none;visibility:visible;display:inline;overflow:visible;enable-background:accumulate;font-family:Sans;-inkscape-font-specification:Sans"
           id="path3728"
           clip-path="url(#clipPath6259-5)"
           d="m 27.0625,221.3125 a 0.3750375,0.3750375 0 0 0 -0.125,0.625 c 1.10149,1.10149 1.10149,2.89851 0,4 a 0.37565048,0.37565048 0 1 0 0.53125,0.53125 c 1.388102,-1.3881 1.388102,-3.6744 0,-5.0625 a 0.3750375,0.3750375 0 0 0 -0.40625,-0.0937 z"
           inkscape:connector-curvature="0"
           transform="matrix(2.66667,0,0,2.66667,-19.9998,-392.666)" />
        <path
           style="color:#bebebe;fill:#2e3436;fill-opacity:1;fill-rule:nonzero;stroke:none;stroke-width:1;marker:none;visibility:visible;display:inline;overflow:visible"
           id="path5491"
           d="m 41.0002,202 2.484375,0 2.968754,-3 0.546871,0.0156 0,11 -0.475297,8.3e-4 L 43.484575,207 l -2.484375,0 0,-5 z"
           inkscape:connector-curvature="0" />
      </g>
      <g
         id="layer10-5"
         transform="translate(-41.0002,-197)"
         style="fill:#2e3436" />
      <g
         id="layer11-2"
         transform="translate(-41.0002,-197)"
         style="fill:#2e3436" />
      <g
         id="layer12-2"
         transform="translate(-41.0002,-197)"
         style="fill:#2e3436" />
      <g
         id="layer13-4"
         transform="translate(-41.0002,-197)"
         style="fill:#2e3436" />
      <g
         id="layer14-5"
         transform="translate(-41.0002,-197)"
         style="fill:#2e3436" />
      <g
         id="layer15-5"
         transform="translate(-41.0002,-197)"
         style="fill:#2e3436" />
    </g>
    <g
       style="fill:#2e3436"
       transform="translate(109.07855,1049.7779)"
       id="g19951">
      <g
         transform="translate(-41.0002,-197)"
         id="g19953"
         style="fill:#2e3436;display:inline">
        <path
           transform="matrix(0.784314,0,0,0.784314,26.94138,28.862801)"
           inkscape:connector-curvature="0"
           d="m 26.9375,220.40625 a 1.2751275,1.2751275 0 0 0 -0.65625,2.1875 c 0.757556,0.75756 0.757556,1.92994 0,2.6875 a 1.281631,1.281631 0 1 0 1.8125,1.8125 c 1.732036,-1.73204 1.732036,-4.58046 0,-6.3125 a 1.2751275,1.2751275 0 0 0 -1.15625,-0.375 z"
           clip-path="url(#clipPath6279-3)"
           id="path19955"
           style="font-size:medium;font-style:normal;font-variant:normal;font-weight:normal;font-stretch:normal;text-indent:0;text-align:start;text-decoration:none;line-height:normal;letter-spacing:normal;word-spacing:normal;text-transform:none;direction:ltr;block-progression:tb;writing-mode:lr-tb;text-anchor:start;color:#000000;fill:#2e3436;fill-opacity:1;stroke:none;stroke-width:2.54999995;marker:none;visibility:visible;display:inline;overflow:visible;enable-background:accumulate;font-family:Sans;-inkscape-font-specification:Sans" />
        <path
           transform="matrix(1.72549,0,0,1.72549,3.4708,-181.902)"
           inkscape:connector-curvature="0"
           d="m 27.125,221.09375 a 0.57960298,0.57960298 0 0 0 -0.34375,1 c 1.023324,1.02332 1.023324,2.66418 0,3.6875 a 0.57960298,0.57960298 0 1 0 0.8125,0.8125 c 1.466269,-1.46627 1.466269,-3.84623 0,-5.3125 a 0.57960298,0.57960298 0 0 0 -0.46875,-0.1875 z"
           clip-path="url(#clipPath6265-334)"
           id="path19957"
           style="font-size:medium;font-style:normal;font-variant:normal;font-weight:normal;font-stretch:normal;text-indent:0;text-align:start;text-decoration:none;line-height:normal;letter-spacing:normal;word-spacing:normal;text-transform:none;direction:ltr;block-progression:tb;writing-mode:lr-tb;text-anchor:start;color:#000000;fill:#2e3436;fill-opacity:1;stroke:none;stroke-width:1.15909004;marker:none;visibility:visible;display:inline;overflow:visible;enable-background:accumulate;font-family:Sans;-inkscape-font-specification:Sans" />
        <path
           transform="matrix(2.66667,0,0,2.66667,-19.9998,-392.666)"
           inkscape:connector-curvature="0"
           d="m 27.0625,221.3125 a 0.3750375,0.3750375 0 0 0 -0.125,0.625 c 1.10149,1.10149 1.10149,2.89851 0,4 a 0.37565048,0.37565048 0 1 0 0.53125,0.53125 c 1.388102,-1.3881 1.388102,-3.6744 0,-5.0625 a 0.3750375,0.3750375 0 0 0 -0.40625,-0.0937 z"
           clip-path="url(#clipPath6259-5)"
           id="path19959"
           style="font-size:medium;font-style:normal;font-variant:normal;font-weight:normal;font-stretch:normal;text-indent:0;text-align:start;text-decoration:none;line-height:normal;letter-spacing:normal;word-spacing:normal;text-transform:none;direction:ltr;block-progression:tb;writing-mode:lr-tb;text-anchor:start;color:#000000;fill:#2e3436;fill-opacity:1;stroke:none;stroke-width:0.75;marker:none;visibility:visible;display:inline;overflow:visible;enable-background:accumulate;font-family:Sans;-inkscape-font-specification:Sans" />
        <path
           inkscape:connector-curvature="0"
           d="m 41.0002,202 2.484375,0 2.968754,-3 0.546871,0.0156 0,11 -0.475297,8.3e-4 L 43.484575,207 l -2.484375,0 0,-5 z"
           id="path19961"
           style="color:#bebebe;fill:#2e3436;fill-opacity:1;fill-rule:nonzero;stroke:none;stroke-width:1;marker:none;visibility:visible;display:inline;overflow:visible" />
      </g>
      <g
         style="fill:#2e3436"
         transform="translate(-41.0002,-197)"
         id="g19963" />
      <g
         style="fill:#2e3436"
         transform="translate(-41.0002,-197)"
         id="g19965" />
      <g
         style="fill:#2e3436"
         transform="translate(-41.0002,-197)"
         id="g19967" />
      <g
         style="fill:#2e3436"
         transform="translate(-41.0002,-197)"
         id="g19969" />
      <g
         style="fill:#2e3436"
         transform="translate(-41.0002,-197)"
         id="g19971" />
      <g
         style="fill:#2e3436"
         transform="translate(-41.0002,-197)"
         id="g19973" />
    </g>
    <g
       style="fill:#2e3436;display:inline"
       id="g19982"
       transform="translate(-326.43657,851.77861)"
       inkscape:label="status">
      <path
         style="opacity:0.35;color:#bebebe;fill:#2e3436;fill-opacity:1;fill-rule:nonzero;stroke:none;stroke-width:1;marker:none;visibility:visible;display:inline;overflow:visible"
         sodipodi:nodetypes="ccccccccc"
         id="path19984"
         d="m 101.0002,202 2.48438,0 2.96875,-3 0.54687,0.0156 0,11 -0.4753,8.3e-4 -3.04032,-3.01643 -2.48438,0 0,-5 z"
         inkscape:connector-curvature="0" />
      <path
         style="font-size:medium;font-style:normal;font-variant:normal;font-weight:normal;font-stretch:normal;text-indent:0;text-align:start;text-decoration:none;line-height:normal;letter-spacing:normal;word-spacing:normal;text-transform:none;direction:ltr;block-progression:tb;writing-mode:lr-tb;text-anchor:start;baseline-shift:baseline;opacity:0.35;color:#000000;fill:#2e3436;fill-opacity:1;stroke:none;stroke-width:2.54999995;marker:none;visibility:visible;display:inline;overflow:visible;enable-background:accumulate;font-family:Sans;-inkscape-font-specification:Sans"
         id="path19986"
         clip-path="url(#clipPath6279-2-3-5)"
         d="m 26.9375,220.40625 a 1.2751275,1.2751275 0 0 0 -0.65625,2.1875 c 0.757556,0.75756 0.757556,1.92994 0,2.6875 a 1.281631,1.281631 0 1 0 1.8125,1.8125 c 1.732036,-1.73204 1.732036,-4.58046 0,-6.3125 a 1.2751275,1.2751275 0 0 0 -1.15625,-0.375 z"
         inkscape:connector-curvature="0"
         transform="matrix(0.784314,0,0,0.784314,86.94138,28.862801)" />
      <path
         style="font-size:medium;font-style:normal;font-variant:normal;font-weight:normal;font-stretch:normal;text-indent:0;text-align:start;text-decoration:none;line-height:normal;letter-spacing:normal;word-spacing:normal;text-transform:none;direction:ltr;block-progression:tb;writing-mode:lr-tb;text-anchor:start;baseline-shift:baseline;opacity:0.35;color:#000000;fill:#2e3436;fill-opacity:1;stroke:none;stroke-width:1.15909004;marker:none;visibility:visible;display:inline;overflow:visible;enable-background:accumulate;font-family:Sans;-inkscape-font-specification:Sans"
         id="path19988"
         clip-path="url(#clipPath3697-7)"
         d="m 27.125,221.09375 a 0.57960298,0.57960298 0 0 0 -0.34375,1 c 1.023324,1.02332 1.023324,2.66418 0,3.6875 a 0.57960298,0.57960298 0 1 0 0.8125,0.8125 c 1.466269,-1.46627 1.466269,-3.84623 0,-5.3125 a 0.57960298,0.57960298 0 0 0 -0.46875,-0.1875 z"
         inkscape:connector-curvature="0"
         transform="matrix(1.72549,0,0,1.72549,63.4708,-181.902)" />
      <path
         style="font-size:medium;font-style:normal;font-variant:normal;font-weight:normal;font-stretch:normal;text-indent:0;text-align:start;text-decoration:none;line-height:normal;letter-spacing:normal;word-spacing:normal;text-transform:none;direction:ltr;block-progression:tb;writing-mode:lr-tb;text-anchor:start;baseline-shift:baseline;opacity:0.35;color:#000000;fill:#2e3436;fill-opacity:1;stroke:none;stroke-width:0.75;marker:none;visibility:visible;display:inline;overflow:visible;enable-background:accumulate;font-family:Sans;-inkscape-font-specification:Sans"
         id="path19990"
         clip-path="url(#clipPath3668-2)"
         d="m 27.0625,221.3125 a 0.3750375,0.3750375 0 0 0 -0.125,0.625 c 1.10149,1.10149 1.10149,2.89851 0,4 a 0.37565048,0.37565048 0 1 0 0.53125,0.53125 c 1.388102,-1.3881 1.388102,-3.6744 0,-5.0625 a 0.3750375,0.3750375 0 0 0 -0.40625,-0.0937 z"
         inkscape:connector-curvature="0"
         transform="matrix(2.66667,0,0,2.66667,40.0002,-392.666)" />
      <path
         style="color:#bebebe;fill:#2e3436;fill-opacity:1;stroke:none;stroke-width:2;marker:none;visibility:visible;display:inline;overflow:visible"
         sodipodi:nodetypes="ccccccccccccccccc"
         id="path19992"
         d="m 111.99995,208 1.375,0 1.125,1.09375 1.09375,-1.09375 1.40625,0 0,1.46875 -1.09375,1.0625 1.09375,1.0625 0,1.40625 -1.4375,0 -1.0625,-1.0625 -1.0625,1.0625 -1.4375,0 0,-1.40625 1.0625,-1.0625 -1.0625,-1.0625 0,-1.46875 z"
         inkscape:connector-curvature="0" />
    </g>
  </g>
  <text
     xml:space="preserve"
     style="font-size:22px;font-style:normal;font-weight:normal;line-height:125%;letter-spacing:0px;word-spacing:0px;fill:#000000;fill-opacity:1;stroke:none;font-family:Droid Sans;-inkscape-font-specification:Droid Sans"
     x="1843.8058"
     y="927.51294"
     id="text3574"
     sodipodi:linespacing="125%"><tspan
       sodipodi:role="line"
       id="tspan3576"
       x="1843.8058"
       y="927.51294"
       style="font-size:56px;font-weight:bold;fill:#ffffff;-inkscape-font-specification:Droid Sans Bold" /></text>
</svg>
