<?xml version="1.0" encoding="UTF-8" standalone="no"?>
<!-- Created with Inkscape (http://www.inkscape.org/) -->

<svg
   xmlns:dc="http://purl.org/dc/elements/1.1/"
   xmlns:cc="http://creativecommons.org/ns#"
   xmlns:rdf="http://www.w3.org/1999/02/22-rdf-syntax-ns#"
   xmlns:svg="http://www.w3.org/2000/svg"
   xmlns="http://www.w3.org/2000/svg"
   xmlns:sodipodi="http://sodipodi.sourceforge.net/DTD/sodipodi-0.dtd"
   xmlns:inkscape="http://www.inkscape.org/namespaces/inkscape"
   width="130"
   height="180"
   id="svg4664"
   version="1.1"
   inkscape:version="0.48.4 r9939"
   sodipodi:docname="New document 6">
  <defs
     id="defs4666">
    <inkscape:path-effect
       effect="spiro"
       id="path-effect5346-0"
       is_visible="true" />
    <inkscape:path-effect
       effect="spiro"
       id="path-effect5346-9-9"
       is_visible="true" />
    <inkscape:path-effect
       effect="spiro"
       id="path-effect8154-32"
       is_visible="true" />
    <inkscape:path-effect
       effect="spiro"
       id="path-effect5455-8"
       is_visible="true" />
    <inkscape:path-effect
       effect="spiro"
       id="path-effect5455-3-5"
       is_visible="true" />
  </defs>
  <sodipodi:namedview
     id="base"
     pagecolor="#ffffff"
     bordercolor="#666666"
     borderopacity="1.0"
     inkscape:pageopacity="0.0"
     inkscape:pageshadow="2"
     inkscape:zoom="1.4844828"
     inkscape:cx="-132.005"
     inkscape:cy="90.524167"
     inkscape:document-units="px"
     inkscape:current-layer="layer1"
     showgrid="true"
     inkscape:window-width="1366"
     inkscape:window-height="702"
     inkscape:window-x="0"
     inkscape:window-y="27"
     inkscape:window-maximized="1">
    <inkscape:grid
       type="xygrid"
       id="grid4717"
       empspacing="5"
       visible="true"
       enabled="true"
       snapvisiblegridlinesonly="true" />
  </sodipodi:namedview>
  <metadata
     id="metadata4669">
    <rdf:RDF>
      <cc:Work
         rdf:about="">
        <dc:format>image/svg+xml</dc:format>
        <dc:type
           rdf:resource="http://purl.org/dc/dcmitype/StillImage" />
        <dc:title></dc:title>
      </cc:Work>
    </rdf:RDF>
  </metadata>
  <g
     inkscape:label="Layer 1"
     inkscape:groupmode="layer"
     id="layer1"
     transform="translate(0,-872.36218)">
    <g
       id="g4719"
       transform="translate(-0.75708842,1.7269895)">
      <g
         transform="matrix(1.277397,0,0,1.2790326,-265.31599,211.70836)"
         id="g9024"
         style="display:inline;enable-background:new">
        <path
           sodipodi:type="arc"
           style="color:#000000;fill:#bebebe;fill-opacity:1;fill-rule:nonzero;stroke:none;stroke-width:3;marker:none;visibility:visible;display:inline;overflow:visible;enable-background:new"
           id="path4650-2-31"
           sodipodi:cx="406.05606"
           sodipodi:cy="406.59692"
           sodipodi:rx="7.4246211"
           sodipodi:ry="7.4246211"
           d="m 413.48068,406.59692 c 0,4.10051 -3.32411,7.42462 -7.42462,7.42462 -4.1005,0 -7.42462,-3.32411 -7.42462,-7.42462 0,-4.1005 3.32412,-7.42462 7.42462,-7.42462 4.10051,0 7.42462,3.32412 7.42462,7.42462 z"
           transform="matrix(1.5855008,0,0,1.5855008,-370.9922,-62.803883)" />
        <path
           style="fill:#bebebe;fill-opacity:1;stroke:none;display:inline;enable-background:new"
           d="m 279.95812,598.56015 c 8.07802,-0.98855 13.17631,-7.19163 18.23698,-13.46062 l 4.26973,4.26973 c -4.43415,6.96546 -9.87419,12.83358 -18.52642,15.1975 z"
           id="path7134"
           inkscape:connector-curvature="0"
           sodipodi:nodetypes="ccccc" />
        <path
           style="fill:#bebebe;fill-opacity:1;stroke:none;display:inline;enable-background:new"
           d="m 300.30748,579.03343 c 0.49891,-1.32749 2.13644,-0.91003 1.84221,0.10234 l -0.97229,3.22386 c 1.78941,-0.57076 2.22887,-1.72611 3.25086,-3.32016 0.23122,-0.31607 1.1147,-1.11356 2.16568,-0.0626 l 1.75843,1.64444 c 0.77329,0.7733 0.26102,1.87799 0.0231,2.33746 -1.42774,2.72528 -2.7714,4.21135 -5.15094,5.84885 l -4.50321,-4.50321 z"
           id="path7136"
           inkscape:connector-curvature="0"
           sodipodi:nodetypes="cccccccccc" />
        <path
           style="fill:#bebebe;fill-opacity:1;stroke:none;display:inline;enable-background:new"
           d="m 262.02077,575.84087 c -2.06587,0.13334 -4.09524,0.79794 -5.83976,1.91249 -2.00235,1.27927 -3.62098,3.15105 -4.59791,5.31705 0.72418,-0.76911 1.67998,-1.31725 2.70953,-1.55388 0.77575,-0.1783 1.59124,-0.1814 2.36832,-0.009 -0.46632,0.56508 -0.75936,1.27122 -0.83016,2.00044 -0.0601,0.61922 0.039,1.25324 0.28521,1.82458 0.24622,0.57134 0.63904,1.07879 1.13044,1.46033 -0.0943,-1.32774 0.21103,-2.6813 0.86628,-3.83993 0.52265,-0.92416 1.26457,-1.72335 2.14739,-2.31315 -0.0828,0.83072 -0.0197,1.67577 0.18545,2.485 0.27904,1.1007 0.82276,2.13333 1.57239,2.98624 -0.26276,-1.76433 -0.13064,-3.58635 0.38391,-5.29431 0.323,-1.07214 0.79512,-2.09924 1.39853,-3.04248 l -1.77962,-1.93338"
           id="path5344"
           inkscape:path-effect="#path-effect5346-0"
           inkscape:original-d="m 262.02077,575.84087 c 0,0 -3.99804,0.74847 -5.83976,1.91249 -1.84173,1.164 -4.59791,5.31705 -4.59791,5.31705 0,0 1.79274,-1.34165 2.70953,-1.55388 0.91678,-0.21225 2.36832,-0.009 2.36832,-0.009 0,0 -0.89047,1.09581 -0.83016,2.00044 0.0603,0.90464 1.41565,3.28491 1.41565,3.28491 0,0 0.33036,-2.81844 0.86628,-3.83993 0.53605,-1.02146 2.14739,-2.31315 2.14739,-2.31315 0,0 -0.10256,1.55994 0.18545,2.485 0.28796,0.92507 1.57239,2.98624 1.57239,2.98624 0,0 0.039,-3.91827 0.38391,-5.29431 0.34487,-1.37603 1.39853,-3.04248 1.39853,-3.04248 z"
           inkscape:connector-curvature="0"
           sodipodi:nodetypes="czczczczczczcc" />
        <path
           style="fill:#bebebe;fill-opacity:1;stroke:none;display:inline;enable-background:new"
           d="m 283.96032,574.98955 c 0.82703,-0.0501 1.65986,-0.004 2.47627,0.13737 2.35381,0.40729 4.559,1.62791 6.15387,3.40631 -0.95162,-0.46903 -2.04299,-0.64982 -3.09502,-0.5127 -0.79957,0.10421 -1.57497,0.38979 -2.25113,0.82908 0.63083,0.37302 1.14662,0.93767 1.46118,1.59959 0.27029,0.56876 0.39228,1.20721 0.35073,1.83555 -0.0415,0.62834 -0.24654,1.24518 -0.58937,1.77339 -0.3536,-1.28605 -1.10029,-2.46118 -2.11438,-3.32755 -0.80817,-0.69045 -1.78249,-1.18504 -2.81684,-1.4299 0.3572,0.7596 0.58164,1.58141 0.6601,2.41713 0.10746,1.1446 -0.0613,2.31417 -0.48793,3.38171 -0.34731,-1.75555 -1.0856,-3.43263 -2.1458,-4.87435 -0.24134,-0.32818 -0.49907,-0.64431 -0.77193,-0.94679 0.35725,-0.47816 0.66257,-0.99509 0.90887,-1.53878 0.24955,-0.55088 0.43848,-1.12919 0.56228,-1.72115 l 0.95719,0.36617 c 0.20187,-0.22792 0.37272,-0.48328 0.50635,-0.75685 0.0997,-0.20412 0.17874,-0.41833 0.23551,-0.63829 l 5e-5,6e-5"
           id="path5344-2"
           inkscape:path-effect="#path-effect5346-9-9"
           inkscape:original-d="m 283.96032,574.98955 c 0.89062,-0.0332 1.7834,-0.008 2.47627,0.13737 0.69285,0.14587 6.15387,3.40631 6.15387,3.40631 0,0 -2.15331,-0.63591 -3.09502,-0.5127 -0.94172,0.12324 -2.25113,0.82908 -2.25113,0.82908 0,0 1.21403,0.72222 1.46118,1.59959 0.24714,0.87735 -0.23864,3.60894 -0.23864,3.60894 0,0 -1.2619,-2.55035 -2.11438,-3.32755 -0.85256,-0.77713 -2.81684,-1.4299 -2.81684,-1.4299 0,0 0.62224,1.43995 0.6601,2.41713 0.0379,0.9772 -0.48793,3.38171 -0.48793,3.38171 0,0 -1.93008,-4.55223 -2.1458,-4.87435 -0.21571,-0.32211 -0.48883,-0.64603 -0.77193,-0.94679 0,0 0.67209,-1.00212 0.90887,-1.53878 0.23673,-0.53669 0.56228,-1.72115 0.56228,-1.72115 l 0.95719,0.36617 c 0,0 0.38592,-0.52062 0.50635,-0.75685 0.12047,-0.23624 0.23551,-0.63829 0.23551,-0.63829 z"
           inkscape:connector-curvature="0"
           sodipodi:nodetypes="czczczczczczczcczc" />
        <path
           style="fill:#bebebe;fill-opacity:1;stroke:none;display:inline;enable-background:new"
           d="m 260.84291,580.00739 c 0.0281,-1.71788 0.41113,-3.42916 1.11793,-4.99516 0.96371,-2.13523 2.53404,-3.99264 4.47922,-5.29811 l -1.35621,1.91547 c 1.19975,-0.77117 2.47134,-1.43054 3.79291,-1.96678 3.59341,-1.45806 7.55894,-1.98797 11.40911,-1.52459 l -1.98569,1.96512 c 1.1524,0.0711 2.28764,0.40739 3.29287,0.97536 1.37282,0.77566 2.49526,1.9868 3.16447,3.41454 l -1.39586,5.33912 -22.51875,0.17503"
           id="path8152"
           inkscape:path-effect="#path-effect8154-32"
           inkscape:original-d="m 260.84291,580.00739 c 0,0 0.40479,-3.08334 1.11793,-4.99516 0.71315,-1.91181 4.47922,-5.29811 4.47922,-5.29811 l -1.35621,1.91547 c 0,0 1.15685,-0.77252 3.79291,-1.96678 2.63606,-1.19427 11.40911,-1.52459 11.40911,-1.52459 l -1.98569,1.96512 c 0,0 1.62012,0.38128 3.29287,0.97536 1.67274,0.59408 3.16447,3.41454 3.16447,3.41454 l -1.39586,5.33912 z"
           inkscape:connector-curvature="0"
           sodipodi:nodetypes="czcczcczccc" />
        <path
           style="fill:#bebebe;fill-opacity:1;stroke:none"
           d="m 266.34218,596.70339 13.08148,0 c 0,0 5.34387,6.24857 6.37564,10.02191 3.09302,11.31161 6.52905,28.43482 6.52905,28.43482 l -36.74442,0.10355 c 0,0 -1.61612,-13.45799 10.75825,-38.56028 z"
           id="path9005"
           inkscape:connector-curvature="0"
           sodipodi:nodetypes="ccsccc" />
        <rect
           style="fill:#bebebe;fill-opacity:1;stroke:none"
           id="rect9007"
           width="10.429825"
           height="12.374369"
           x="267.93317"
           y="589.80908"
           rx="4.981976"
           ry="0" />
        <path
           style="fill:#bebebe;fill-opacity:1;stroke:none"
           d="m 281.39933,621.8766 c 0.95526,5.31878 1.46582,10.71735 1.5246,16.12091 0.0578,5.31249 -0.32107,10.62966 -1.13149,15.88028 l -6.35471,-0.96247 c 0.92244,-5.47663 1.21479,-11.05912 0.86942,-16.60214 -0.3193,-5.12472 -1.18333,-10.21532 -2.57284,-15.15839 l 7.66502,0.72181"
           id="path5453"
           inkscape:path-effect="#path-effect5455-8"
           inkscape:original-d="m 281.39933,621.8766 c 0,0 1.46952,10.49035 1.5246,16.12091 0.0551,5.63052 -1.13149,15.88028 -1.13149,15.88028 l -6.35471,-0.96247 c 0,0 1.18149,-10.92725 0.86942,-16.60214 -0.31205,-5.67471 -2.57284,-15.15839 -2.57284,-15.15839 z"
           inkscape:connector-curvature="0"
           sodipodi:nodetypes="czcczcc" />
        <path
           style="fill:#bebebe;fill-opacity:1;stroke:none"
           d="m 270.95818,621.8766 c 0.95526,5.31878 1.46582,10.71735 1.5246,16.12091 0.0578,5.31249 -0.32108,10.62966 -1.13151,15.88028 l -6.3547,-0.96247 c 0.92244,-5.47663 1.21478,-11.05912 0.86942,-16.60214 -0.3193,-5.12472 -1.18333,-10.21532 -2.57283,-15.15839 l 7.66502,0.72181"
           id="path5453-0"
           inkscape:path-effect="#path-effect5455-3-5"
           inkscape:original-d="m 270.95818,621.8766 c 0,0 1.46949,10.49035 1.5246,16.12091 0.0551,5.63052 -1.13151,15.88028 -1.13151,15.88028 l -6.3547,-0.96247 c 0,0 1.18147,-10.92725 0.86942,-16.60214 -0.31206,-5.67471 -2.57283,-15.15839 -2.57283,-15.15839 z"
           inkscape:connector-curvature="0"
           sodipodi:nodetypes="czcczcc" />
        <path
           sodipodi:nodetypes="ccccc"
           inkscape:connector-curvature="0"
           id="path9022"
           d="m 263.60036,621.15479 c -3.18291,-7.49005 2.68937,-16.24428 5.58812,-23.76143 l -3.38194,-0.8254 c -3.81521,7.32283 -11.67712,15.46808 -9.39822,24.14312 z"
           style="fill:#bebebe;fill-opacity:1;stroke:none;display:inline;enable-background:new" />
      </g>
      <path
         sodipodi:nodetypes="scsss"
         inkscape:connector-curvature="0"
         id="path9062"
         d="m 42.419188,886.94142 c 4.81609,12.79909 -5.75294,34.03688 -7.56115,38.09866 -7.26719,-3.47661 -22.64709,-5.87453 -30.8503797,-24.10009 -4.70055005,-10.44341 1.51392,-22.62391 12.1209797,-26.48951 10.60705,-3.86559 22.25702,1.77156 26.29055,12.49094 z"
         style="fill:#bebebe;fill-opacity:1;stroke:none;display:inline;enable-background:new" />
      <path
         sodipodi:nodetypes="ccc"
         inkscape:connector-curvature="0"
         id="path9065"
         d="m 34.494578,923.70146 c 9.48419,47.48165 29.7632,82.41334 29.7632,82.41334 l 0.21218,-0.077"
         style="fill:none;stroke:#bebebe;stroke-width:0.99999994px;stroke-linecap:butt;stroke-linejoin:miter;stroke-opacity:1;display:inline;enable-background:new" />
      <path
         sodipodi:nodetypes="ccsc"
         inkscape:connector-curvature="0"
         id="path9067"
         d="m 34.508568,923.6991 -0.79034,5.42647 c 0,0 4.96791,-1.13051 4.74209,-1.35662 -0.22582,-0.22611 -3.95175,-4.06985 -3.95175,-4.06985 z"
         style="fill:#bebebe;fill-opacity:1;stroke:none;display:inline;enable-background:new" />
    </g>
  </g>
</svg>
