<?xml version="1.0" encoding="UTF-8" standalone="no"?>
<!-- Created with Inkscape (http://www.inkscape.org/) -->

<svg
   xmlns:dc="http://purl.org/dc/elements/1.1/"
   xmlns:cc="http://creativecommons.org/ns#"
   xmlns:rdf="http://www.w3.org/1999/02/22-rdf-syntax-ns#"
   xmlns:svg="http://www.w3.org/2000/svg"
   xmlns="http://www.w3.org/2000/svg"
   xmlns:sodipodi="http://sodipodi.sourceforge.net/DTD/sodipodi-0.dtd"
   xmlns:inkscape="http://www.inkscape.org/namespaces/inkscape"
   width="1024"
   height="200"
   id="svg4517"
   version="1.1"
   inkscape:version="0.48.4 r9939"
   sodipodi:docname="New document 1">
  <defs
     id="defs4519" />
  <sodipodi:namedview
     id="base"
     pagecolor="#ffffff"
     bordercolor="#666666"
     borderopacity="1.0"
     inkscape:pageopacity="0.0"
     inkscape:pageshadow="2"
     inkscape:zoom="0.98994949"
     inkscape:cx="398.69704"
     inkscape:cy="114.55308"
     inkscape:document-units="px"
     inkscape:current-layer="layer1"
     showgrid="false"
     inkscape:window-width="1366"
     inkscape:window-height="702"
     inkscape:window-x="0"
     inkscape:window-y="27"
     inkscape:window-maximized="1" />
  <metadata
     id="metadata4522">
    <rdf:RDF>
      <cc:Work
         rdf:about="">
        <dc:format>image/svg+xml</dc:format>
        <dc:type
           rdf:resource="http://purl.org/dc/dcmitype/StillImage" />
        <dc:title></dc:title>
      </cc:Work>
    </rdf:RDF>
  </metadata>
  <g
     inkscape:label="Layer 1"
     inkscape:groupmode="layer"
     id="layer1"
     transform="translate(0,-852.36215)">
    <g
       style="display:inline;enable-background:new"
       id="g8989"
       transform="matrix(1.2873808,0,0,1.2890292,-161.19402,174.18093)">
      <path
         inkscape:connector-curvature="0"
         style="fill:#bebebe;fill-opacity:1;fill-rule:evenodd;stroke:none"
         d="m 125.29376,654.33386 c -0.60185,-1.63834 2.28453,5.77414 1.84437,-11.48938 0.19328,10.80483 3.26736,5.74036 1.77509,10.96032 l 5.24185,-10.41534 c -1.775,9.38684 -1.76159,11.11352 -0.52893,9.75874 1.71654,-5.5074 3.09034,-3.83322 2.96846,-9.65202 l 1.61793,9.1827 c 1.72909,-2.70648 1.84642,4.18558 3.57551,-8.12055 l 1.95759,8.46019 2.76653,-8.84306 c 0.51865,5.53309 -1.79204,2.84065 3.00739,8.37374 -0.15558,-4.84507 2.02861,-1.98084 1.85401,-8.68868 l 1.04364,8.6825 3.79782,-7.76855 1.49443,7.68827 c 2.90601,-4.56441 2.56365,-3.21498 3.0012,-8.60222 l 0.8028,8.57752 1.98844,-11.09705 c -1.03303,8.72524 0.7159,0.64537 2.27253,11.09705 3.37445,-4.02403 4.35675,-3.28559 4.96495,-8.2317 l 0.33964,8.22553 2.57512,-11.06617 c -1.05464,11.98836 0.99217,-0.92837 1.5747,11.05999 1.38327,-2.08486 2.08109,-3.50337 3.46436,-8.21935 l 0.45079,7.41038 2.43926,-9.33708 c -0.51378,8.1163 0.76437,3.49492 2.52571,9.46676 2.21893,-2.59396 4.00132,-1.18116 5.3046,-9.26915 -0.0642,6.35298 -0.94283,7.22115 -0.1482,11.85661 l 0,3.65579 -63.97159,0 0,-3.65579 0,0 z"
         id="path12566-6-9"
         sodipodi:nodetypes="cccccccccccccccccccccccccccccccc" />
      <path
         inkscape:connector-curvature="0"
         style="fill:#bebebe;fill-opacity:1;fill-rule:evenodd;stroke:none"
         d="m 213.03274,654.33386 c -0.60185,-1.63834 2.28453,5.77414 1.84437,-11.48938 0.19328,10.80483 3.26736,5.74036 1.77509,10.96032 l 5.24185,-10.41534 c -1.775,9.38684 -1.76159,11.11352 -0.52893,9.75874 1.71654,-5.5074 3.09034,-3.83322 2.96846,-9.65202 l 1.61793,9.1827 c 1.72909,-2.70648 1.84642,4.18558 3.57551,-8.12055 l 1.95759,8.46019 2.76653,-8.84306 c 0.51865,5.53309 -1.79204,2.84065 3.00739,8.37374 -0.15558,-4.84507 2.02861,-1.98084 1.85401,-8.68868 l 1.04364,8.6825 3.79782,-7.76855 1.49443,7.68827 c 2.90601,-4.56441 2.56365,-3.21498 3.0012,-8.60222 l 0.8028,8.57752 1.98844,-11.09705 c -1.03303,8.72524 0.7159,0.64537 2.27253,11.09705 3.37445,-4.02403 4.35675,-3.28559 4.96495,-8.2317 l 0.33964,8.22553 2.57512,-11.06617 c -1.05465,11.98836 0.99217,-0.92837 1.5747,11.05999 1.38327,-2.08486 2.08109,-3.50337 3.46436,-8.21935 l 0.45079,7.41038 2.43925,-9.33708 c -0.51377,8.1163 0.76438,3.49492 2.52572,9.46676 2.21893,-2.59396 4.00132,-1.18116 5.3046,-9.26915 -0.0642,6.35298 -0.94283,7.22115 -0.1482,11.85661 l 0,3.65579 -63.97159,0 0,-3.65579 0,0 z"
         id="path12568-2-2"
         sodipodi:nodetypes="cccccccccccccccccccccccccccccccc" />
      <path
         inkscape:connector-curvature="0"
         sodipodi:nodetypes="cccccccccccccccccccccccccccccccc"
         id="path12570-3-0"
         d="m 336.41568,654.33386 c -0.60185,-1.63834 2.28453,5.77414 1.84437,-11.48938 0.19328,10.80483 3.26736,5.74036 1.77509,10.96032 l 5.24185,-10.41534 c -1.775,9.38684 -1.76159,11.11352 -0.52893,9.75874 1.71654,-5.5074 3.09034,-3.83322 2.96846,-9.65202 l 1.61793,9.1827 c 1.72909,-2.70648 1.84642,4.18558 3.57551,-8.12055 l 1.95759,8.46019 2.76653,-8.84306 c 0.51865,5.53309 -1.79204,2.84065 3.00738,8.37374 -0.15557,-4.84507 2.02862,-1.98084 1.85402,-8.68868 l 1.04364,8.6825 3.79782,-7.76855 1.49443,7.68827 c 2.906,-4.56441 2.56365,-3.21498 3.0012,-8.60222 l 0.8028,8.57752 1.98844,-11.09705 c -1.03303,8.72524 0.7159,0.64537 2.27253,11.09705 3.37445,-4.02403 4.35675,-3.28559 4.96495,-8.2317 l 0.33964,8.22553 2.57512,-11.06617 c -1.05465,11.98836 0.99217,-0.92837 1.5747,11.05999 1.38327,-2.08486 2.08109,-3.50337 3.46435,-8.21935 l 0.4508,7.41038 2.43925,-9.33708 c -0.51377,8.1163 0.76437,3.49492 2.52572,9.46676 2.21893,-2.59396 4.00132,-1.18116 5.30459,-9.26915 -0.0641,6.35298 -0.94282,7.22115 -0.14819,11.85661 l 0,3.65579 -63.97159,0 0,-3.65579 0,0 z"
         style="fill:#bebebe;fill-opacity:1;fill-rule:evenodd;stroke:none" />
      <path
         inkscape:connector-curvature="0"
         sodipodi:nodetypes="cccccccccccccccccccccccccccccccc"
         id="path12574-7-5"
         d="m 399.47807,654.33386 c -0.60185,-1.63834 2.28453,5.77414 1.84437,-11.48938 0.19328,10.80483 3.26736,5.74036 1.77509,10.96032 l 5.24185,-10.41534 c -1.775,9.38684 -1.76159,11.11352 -0.52893,9.75874 1.71654,-5.5074 3.09034,-3.83322 2.96846,-9.65202 l 1.61793,9.1827 c 1.72909,-2.70648 1.84642,4.18558 3.57551,-8.12055 l 1.95759,8.46019 2.76653,-8.84306 c 0.51865,5.53309 -1.79204,2.84065 3.00739,8.37374 -0.15558,-4.84507 2.02861,-1.98084 1.85401,-8.68868 l 1.04364,8.6825 3.79782,-7.76855 1.49443,7.68827 c 2.90601,-4.56441 2.56365,-3.21498 3.0012,-8.60222 l 0.8028,8.57752 1.98844,-11.09705 c -1.03303,8.72524 0.7159,0.64537 2.27253,11.09705 3.37445,-4.02403 4.35675,-3.28559 4.96495,-8.2317 l 0.33964,8.22553 2.57512,-11.06617 c -1.05464,11.98836 0.99217,-0.92837 1.5747,11.05999 1.38327,-2.08486 2.08109,-3.50337 3.46436,-8.21935 l 0.45079,7.41038 2.43926,-9.33708 c -0.51378,8.1163 0.76437,3.49492 2.52571,9.46676 2.21893,-2.59396 4.00132,-1.18116 5.3046,-9.26915 -0.0642,6.35298 -0.94283,7.22115 -0.1482,11.85661 l 0,3.65579 -63.97159,0 0,-3.65579 0,0 z"
         style="fill:#bebebe;fill-opacity:1;fill-rule:evenodd;stroke:none" />
      <path
         inkscape:connector-curvature="0"
         sodipodi:nodetypes="cccccccccccsscccccccccccccccccccccc"
         id="path12576-5-9"
         d="m 271.28067,655.30003 c 2.15623,-5.42477 5.83895,-15.05466 5.39879,-27.75568 1.16267,8.90019 1.08386,22.51744 -0.40841,26.35784 l 3.64244,-6.99031 c -1.775,6.90603 -1.5331,8.51258 -0.30044,7.51585 3.54443,-3.71568 3.54731,-9.8804 2.51148,-13.99327 l 2.07491,12.97558 c 1.72909,-1.9912 2.0749,-10.5368 3.80399,-19.59059 l 1.7291,19.33616 2.76654,-13.23 c 0.51865,4.07076 -0.87809,9.96944 1.17948,13.58323 1.30926,-0.78012 1.59579,-10.31699 1.88641,-8.42324 0.86518,5.63748 1.91235,9.97245 2.43564,7.69483 0.22087,-0.96132 1.24249,-7.32468 1.19251,-8.73712 l 2.64305,7.58576 3.11236,-18.82731 c -0.0607,8.5783 0.52308,21.67399 -0.34582,19.59059 l 1.38328,2.03538 c 2.906,-3.3581 3.02062,-8.24885 3.45817,-12.21232 l 0.34582,10.17694 5.18727,-20.09944 c -1.03304,6.41928 -2.9399,12.40998 -1.38327,20.09944 3.37445,-2.96054 5.2707,-6.28359 5.8789,-9.92251 l -0.34582,9.41366 6.91637,-26.96886 c -1.05464,8.82 -3.34908,17.64001 -2.76655,26.46001 1.38327,-1.53386 2.76655,-5.4352 4.14982,-8.90481 l -0.69164,8.14154 4.49563,-16.28308 c -0.51377,5.97127 -3.21454,12.2107 1.38328,17.5552 2.21894,-1.90842 4.22981,-4.73533 5.53309,-10.68578 -0.0642,4.67398 -0.94283,10.69195 -0.1482,14.10231 l 0,2.68962 -66.71818,0 0,-2.68962 0,0 z"
         style="fill:#bebebe;fill-opacity:1;fill-rule:evenodd;stroke:none" />
      <path
         inkscape:connector-curvature="0"
         style="fill:#bebebe;fill-opacity:1;fill-rule:evenodd;stroke:none"
         d="m 186.87272,654.95069 c 1.87231,-5.42478 5.07012,-15.05467 4.68792,-27.75569 1.00957,8.9002 0.94114,22.51744 -0.35464,26.35784 l 3.16283,-6.99031 c -1.54128,6.90604 -1.33123,8.51258 -0.26088,7.51585 3.07773,-3.71567 3.08023,-9.8804 2.18079,-13.99327 l 1.8017,12.97558 c 1.50141,-1.9912 1.8017,-10.53679 3.30311,-19.59059 l 1.50143,19.33616 2.40226,-13.23 c 0.45035,4.07077 -0.56408,8.14155 3.6034,12.21231 2.24985,-1.54387 3.15443,-4.98744 3.00283,-9.92251 l 1.50141,9.41366 2.70256,-18.82731 c -0.0526,8.57831 0.4542,21.674 -0.30029,19.59059 l 1.20114,2.03538 -0.42188,3.91127 -29.71369,-0.006 0,-3.03213 z"
         id="path12580-7-0"
         sodipodi:nodetypes="cccccccccccccccccccc" />
      <path
         inkscape:connector-curvature="0"
         sodipodi:nodetypes="cccccccccccccccccccccccccccccccc"
         id="path12584-7-3"
         d="m 461.51157,654.33386 c -0.60185,-1.63834 2.28453,5.77414 1.84436,-11.48938 0.19328,10.80482 3.26737,5.74036 1.7751,10.96031 l 5.24185,-10.41534 c -1.775,9.38684 -1.76159,11.11353 -0.52893,9.75874 1.71654,-5.5074 3.09034,-3.83321 2.96845,-9.65201 l 1.61794,9.18269 c 1.72909,-2.70648 1.84642,4.18558 3.57551,-8.12054 l 1.95758,8.46018 2.76654,-8.84305 c 0.51865,5.53308 -1.79204,2.84065 3.00738,8.37373 -0.15557,-4.84506 2.02862,-1.98083 1.85402,-8.68868 l 1.04363,8.6825 3.79782,-7.76854 1.49443,7.68826 c 2.90601,-4.56441 2.56366,-3.21497 3.00121,-8.60222 l 0.80279,8.57753 1.98845,-11.09705 c -1.03304,8.72524 0.7159,0.64536 2.27252,11.09705 3.37445,-4.02403 4.35675,-3.2856 4.96496,-8.23171 l 0.33964,8.22553 2.57511,-11.06617 c -1.05464,11.98836 0.99217,-0.92836 1.57471,11.05999 1.38327,-2.08486 2.08108,-3.50337 3.46435,-8.21935 l 0.4508,7.41039 2.43925,-9.33708 c -0.51378,8.11629 0.76437,3.49492 2.52571,9.46676 2.21894,-2.59397 4.00133,-1.18117 5.3046,-9.26916 -0.0642,6.35298 -0.94283,7.22116 -0.1482,11.85662 l 0,3.65579 -63.97158,0 0,-3.65579 0,0 z"
         style="fill:#bebebe;fill-opacity:1;fill-rule:evenodd;stroke:none" />
      <path
         inkscape:connector-curvature="0"
         style="fill:#bebebe;fill-opacity:1;fill-rule:evenodd;stroke:none"
         d="m 586.7224,654.33386 c -0.60185,-1.63834 2.28453,5.77414 1.84437,-11.48938 0.19328,10.80482 3.26736,5.74036 1.77509,10.96031 l 5.24185,-10.41534 c -1.775,9.38684 -1.76159,11.11353 -0.52893,9.75874 1.71654,-5.5074 3.09034,-3.83321 2.96846,-9.65201 l 1.61793,9.18269 c 1.72909,-2.70648 1.84642,4.18558 3.57551,-8.12054 l 1.95759,8.46018 2.76653,-8.84305 c 0.51865,5.53308 -1.79204,2.84065 3.00739,8.37373 -0.15558,-4.84506 2.02861,-1.98083 1.85401,-8.68868 l 1.04364,8.6825 3.79782,-7.76854 1.49443,7.68826 c 2.90601,-4.56441 2.56365,-3.21497 3.0012,-8.60222 l 0.8028,8.57753 1.98844,-11.09705 c -1.03303,8.72524 0.7159,0.64536 2.27253,11.09705 3.37445,-4.02403 4.35675,-3.2856 4.96495,-8.23171 l 0.33964,8.22553 2.57512,-11.06617 c -1.05464,11.98836 0.99217,-0.92836 1.5747,11.05999 1.38327,-2.08486 2.08109,-3.50337 3.46436,-8.21935 l 0.45079,7.41039 2.43926,-9.33708 c -0.51378,8.11629 0.76437,3.49492 2.52571,9.46676 2.21893,-2.59397 4.00132,-1.18117 5.3046,-9.26916 -0.0642,6.35298 -0.94283,7.22116 -0.1482,11.85662 l 0,3.65579 -63.97159,0 0,-3.65579 0,0 z"
         id="path12588-5-7"
         sodipodi:nodetypes="cccccccccccccccccccccccccccccccc" />
      <path
         inkscape:connector-curvature="0"
         style="fill:#bebebe;fill-opacity:1;fill-rule:evenodd;stroke:none"
         d="m 674.46138,654.33386 c -0.60185,-1.63834 2.28453,5.77414 1.84437,-11.48938 0.19328,10.80482 3.26736,5.74036 1.77509,10.96031 l 5.24185,-10.41534 c -1.775,9.38684 -1.76159,11.11353 -0.52893,9.75874 1.71654,-5.5074 3.09034,-3.83321 2.96846,-9.65201 l 1.61793,9.18269 c 1.72909,-2.70648 1.84642,4.18558 3.57551,-8.12054 l 1.95759,8.46018 2.76653,-8.84305 c 0.51865,5.53308 -1.79204,2.84065 3.00739,8.37373 -0.15558,-4.84506 2.02861,-1.98083 1.85401,-8.68868 l 1.04364,8.6825 3.79782,-7.76854 1.49443,7.68826 c 2.90601,-4.56441 2.56365,-3.21497 3.0012,-8.60222 l 0.8028,8.57753 1.98844,-11.09705 c -1.03303,8.72524 0.7159,0.64536 2.27253,11.09705 3.37445,-4.02403 4.35675,-3.2856 4.96495,-8.23171 l 0.33964,8.22553 2.57512,-11.06617 c -1.05465,11.98836 0.99217,-0.92836 1.5747,11.05999 1.38327,-2.08486 2.08109,-3.50337 3.46436,-8.21935 l 0.45079,7.41039 2.43925,-9.33708 c -0.51377,8.11629 0.76438,3.49492 2.52572,9.46676 2.21893,-2.59397 4.00132,-1.18117 5.3046,-9.26916 -0.0642,6.35298 -0.94283,7.22116 -0.1482,11.85662 l 0,3.65579 -63.97159,0 0,-3.65579 0,0 z"
         id="path12590-2-8"
         sodipodi:nodetypes="cccccccccccccccccccccccccccccccc" />
      <path
         inkscape:connector-curvature="0"
         sodipodi:nodetypes="cccccccccccsscccccccccccccccccccccc"
         id="path12598-3-5"
         d="m 732.70931,655.30308 c 2.15623,-5.4395 5.83895,-15.09556 5.39879,-27.83108 1.16267,8.92437 1.08386,22.57861 -0.40841,26.42943 l 3.64244,-7.00929 c -1.775,6.92479 -1.5331,8.5357 -0.30044,7.53627 3.54443,-3.72578 3.54731,-9.90724 2.51148,-14.03128 l 2.07491,13.01082 c 1.72909,-1.99661 2.0749,-10.56541 3.80399,-19.6438 l 1.7291,19.38869 2.76654,-13.26595 c 0.51865,4.08182 -0.87809,9.99652 1.17948,13.62014 1.30926,-0.78225 1.59579,-10.34502 1.88641,-8.44613 0.86518,5.65279 1.91235,9.99954 2.43564,7.71573 0.22087,-0.96393 1.24249,-7.34458 1.19251,-8.76086 l 2.64305,7.60638 3.11236,-18.87846 c -0.0607,8.60161 0.52308,21.73287 -0.34582,19.64381 l 1.38328,2.04091 c 2.906,-3.36722 3.02062,-8.27126 3.45817,-12.2455 l 0.34582,10.20459 5.18727,-20.15404 c -1.03304,6.43672 -2.9399,12.44369 -1.38327,20.15404 3.37445,-2.96858 5.2707,-6.30066 5.8789,-9.94947 l -0.34582,9.43923 6.91637,-27.04211 c -1.05464,8.84396 -3.34908,17.68793 -2.76655,26.53188 1.38327,-1.53803 2.76655,-5.44996 4.14982,-8.929 l -0.69164,8.16366 4.49563,-16.32731 c -0.51377,5.98749 -3.21454,12.24387 1.38328,17.60288 2.21894,-1.9136 4.22981,-4.74819 5.53309,-10.7148 -0.0642,4.68667 -0.94283,10.72099 -0.1482,14.14062 l 0,2.69692 -66.71818,0 0,-2.69692 0,0 z"
         style="fill:#bebebe;fill-opacity:1;fill-rule:evenodd;stroke:none" />
      <path
         inkscape:connector-curvature="0"
         sodipodi:nodetypes="cccccccccccccccccccccccccccccc"
         id="path12600-8-4"
         d="m 580.2208,647.21798 c 1.77499,6.7152 1.5331,8.27736 0.30044,7.30816 -3.54444,-3.613 -3.54731,-9.60737 -2.51148,-13.60659 l -2.07491,12.61703 c -1.72909,-1.93617 -2.07491,-10.24564 -3.804,-19.04925 l -1.72909,18.80185 -2.76654,-12.86443 c -0.51865,3.95829 0.6496,7.91658 -4.14982,11.87486 -2.59102,-1.50121 -3.63278,-4.84963 -3.45818,-9.64832 l -1.72909,9.15354 -3.11236,-18.30707 c 0.0607,8.34126 -0.52308,21.07509 0.34582,19.04925 l -1.38328,1.97913 c -2.90601,-3.2653 -3.02062,-8.0209 -3.45818,-11.87485 l -0.34582,9.89572 -5.18726,-19.54404 c 1.03303,6.2419 2.93989,12.06706 1.38327,19.54404 -3.37445,-2.87873 -5.2707,-6.10995 -5.87891,-9.64833 l 0.34582,9.15354 -6.91636,-26.22364 c 1.05464,8.57629 3.34908,17.15257 2.76655,25.72885 -1.38327,-1.49148 -2.76655,-5.28501 -4.14982,-8.65875 l 0.69164,7.91658 -4.49564,-15.83315 c 0.51378,5.80628 3.21455,11.8733 -1.38327,17.07011 -2.21894,-1.85568 -4.22982,-4.60447 -5.53309,-10.3905 0.0642,4.54482 0.94283,10.3965 0.1482,13.71263 l 0,2.6153 66.71818,0 -8.63282,-10.77167 0,0 z"
         style="fill:#bebebe;fill-opacity:1;fill-rule:evenodd;stroke:none" />
      <path
         inkscape:connector-curvature="0"
         style="fill:#bebebe;fill-opacity:1;fill-rule:evenodd;stroke:none"
         d="m 648.30136,654.95068 c 1.87231,-5.42477 5.07012,-15.05466 4.68792,-27.75568 1.00957,8.90019 0.94114,22.51744 -0.35464,26.35784 l 3.16283,-6.99031 c -1.54128,6.90604 -1.33123,8.51259 -0.26088,7.51584 3.07773,-3.71567 3.08023,-9.88039 2.18079,-13.99327 l 1.8017,12.97558 c 1.50141,-1.9912 1.8017,-10.53679 3.30311,-19.59058 l 1.50143,19.33616 2.40226,-13.23001 c 0.45035,4.07077 -0.56408,8.14155 3.6034,12.21232 2.24985,-1.54388 3.15443,-4.98745 3.00283,-9.92251 l 1.50141,9.41366 2.70256,-18.82731 c -0.0526,8.5783 0.4542,21.67399 -0.30029,19.59058 l 1.20114,2.03538 -0.42188,3.91128 -29.71369,0.01 0,-3.04899 z"
         id="path12602-7-6"
         sodipodi:nodetypes="cccccccccccccccccccc" />
      <path
         inkscape:connector-curvature="0"
         sodipodi:nodetypes="cccccccccccccccccccccccccccccccc"
         id="path12562-6-8-0"
         d="m 799.16586,654.33386 c -0.60185,-1.63834 2.28453,5.77414 1.84436,-11.48938 0.19328,10.80483 3.26737,5.74036 1.7751,10.96032 l 5.24185,-10.41534 c -1.775,9.38684 -1.76159,11.11352 -0.52893,9.75874 1.71654,-5.5074 3.09034,-3.83322 2.96845,-9.65202 l 1.61794,9.1827 c 1.72909,-2.70648 1.84642,4.18558 3.57551,-8.12055 l 1.95758,8.46019 2.76654,-8.84306 c 0.51865,5.53309 -1.79204,2.84065 3.00738,8.37374 -0.15557,-4.84507 2.02862,-1.98084 1.85402,-8.68868 l 1.04363,8.6825 3.79782,-7.76855 1.49443,7.68827 c 2.90601,-4.56441 2.56366,-3.21498 3.00121,-8.60222 l 0.80279,8.57752 1.98845,-11.09705 c -1.03304,8.72524 0.7159,0.64537 2.27252,11.09705 3.37445,-4.02403 4.35675,-3.28559 4.96496,-8.2317 l 0.33964,8.22553 2.57511,-11.06617 c -1.05464,11.98836 0.99217,-0.92837 1.57471,11.05999 1.38327,-2.08486 2.08108,-3.50337 3.46435,-8.21935 l 0.4508,7.41038 2.43925,-9.33708 c -0.51378,8.1163 0.76437,3.49492 2.52571,9.46676 2.21894,-2.59396 4.00133,-1.18116 5.3046,-9.26915 -0.0642,6.35298 -0.94283,7.22115 -0.1482,11.85661 l 0,3.65579 -63.97158,0 0,-3.65579 0,0 z"
         style="fill:#bebebe;fill-opacity:1;fill-rule:evenodd;stroke:none" />
      <path
         inkscape:connector-curvature="0"
         sodipodi:nodetypes="cccccccccccccccccccccccccccccc"
         id="path12578-5-0-8"
         d="m 917.87509,647.21799 c 1.77499,6.7152 1.5331,8.27736 0.30044,7.30816 -3.54444,-3.613 -3.54731,-9.60737 -2.51148,-13.6066 l -2.07491,12.61703 c -1.72909,-1.93617 -2.07491,-10.24564 -3.804,-19.04925 l -1.72909,18.80186 -2.76654,-12.86443 c -0.51865,3.95829 0.6496,7.91658 -4.14982,11.87486 -2.59102,-1.50122 -3.63278,-4.84964 -3.45818,-9.64833 l -1.72909,9.15354 -3.11236,-18.30706 c 0.0607,8.34126 -0.52308,21.07508 0.34582,19.04924 l -1.38328,1.97914 c -2.90601,-3.26531 -3.02062,-8.02091 -3.45818,-11.87486 l -0.34582,9.89572 -5.18726,-19.54404 c 1.03303,6.24191 2.93989,12.06707 1.38327,19.54404 -3.37445,-2.87872 -5.2707,-6.10995 -5.87891,-9.64832 l 0.34582,9.15354 -6.91636,-26.22365 c 1.05464,8.5763 3.34908,17.15257 2.76655,25.72886 -1.38327,-1.49148 -2.76655,-5.28502 -4.14982,-8.65875 l 0.69164,7.91658 -4.49564,-15.83315 c 0.51378,5.80627 3.21455,11.87329 -1.38327,17.07011 -2.21894,-1.85569 -4.22982,-4.60448 -5.53309,-10.39051 0.0642,4.54483 0.94283,10.39651 0.1482,13.71264 l 0,2.61529 66.71818,0 -8.63282,-10.77166 0,0 z"
         style="fill:#bebebe;fill-opacity:1;fill-rule:evenodd;stroke:none" />
    </g>
    <rect
       style="fill:#bebebe;fill-opacity:1;stroke:none;display:inline;enable-background:new"
       id="rect4515"
       width="1025"
       height="31"
       x="0"
       y="1021.3621" />
  </g>
</svg>
