<?xml version="1.0" encoding="UTF-8" standalone="no"?>
<!-- Created with Inkscape (http://www.inkscape.org/) -->

<svg
   xmlns:dc="http://purl.org/dc/elements/1.1/"
   xmlns:cc="http://creativecommons.org/ns#"
   xmlns:rdf="http://www.w3.org/1999/02/22-rdf-syntax-ns#"
   xmlns:svg="http://www.w3.org/2000/svg"
   xmlns="http://www.w3.org/2000/svg"
   xmlns:sodipodi="http://sodipodi.sourceforge.net/DTD/sodipodi-0.dtd"
   xmlns:inkscape="http://www.inkscape.org/namespaces/inkscape"
   width="144"
   height="186"
   id="svg4870"
   version="1.1"
   inkscape:version="0.48.4 r9939"
   sodipodi:docname="New document 13">
  <defs
     id="defs4872" />
  <sodipodi:namedview
     id="base"
     pagecolor="#ffffff"
     bordercolor="#666666"
     borderopacity="1.0"
     inkscape:pageopacity="0.0"
     inkscape:pageshadow="2"
     inkscape:zoom="0.98994949"
     inkscape:cx="31.76988"
     inkscape:cy="240.33431"
     inkscape:document-units="px"
     inkscape:current-layer="layer1"
     showgrid="false"
     inkscape:window-width="1366"
     inkscape:window-height="702"
     inkscape:window-x="0"
     inkscape:window-y="27"
     inkscape:window-maximized="1" />
  <metadata
     id="metadata4875">
    <rdf:RDF>
      <cc:Work
         rdf:about="">
        <dc:format>image/svg+xml</dc:format>
        <dc:type
           rdf:resource="http://purl.org/dc/dcmitype/StillImage" />
        <dc:title></dc:title>
      </cc:Work>
    </rdf:RDF>
  </metadata>
  <g
     inkscape:label="Layer 1"
     inkscape:groupmode="layer"
     id="layer1"
     transform="translate(0,-866.36218)">
    <g
       transform="translate(-618.39394,661.36218)"
       style="display:inline;enable-background:new"
       id="g9045">
      <path
         sodipodi:type="arc"
         style="fill:#bebebe;fill-opacity:1;stroke:none"
         id="path13111"
         sodipodi:cx="623"
         sodipodi:cy="374.36218"
         sodipodi:rx="85"
         sodipodi:ry="85"
         d="m 708,374.36218 c 0,46.94421 -38.0558,85 -85,85 -46.9442,0 -85,-38.05579 -85,-85 0,-46.9442 38.0558,-85 85,-85 46.9442,0 85,38.0558 85,85 z"
         transform="matrix(0.82331105,0.08887963,-0.08887963,0.82331105,210.74433,-85.194557)" />
      <path
         style="fill:#bebebe;fill-opacity:1;stroke:none"
         d="m 706.44887,355.0887 -2.80325,19.03792 c 0.10272,4.2178 -0.53554,8.3556 -1.82915,12.42267 -7.36341,1.59955 -14.42308,1.75426 -21.3033,1.05521 -2.39651,-4.4565 -2.42366,-8.89435 -2.53238,-13.33284 l -4.11019,-21.64044 2.41458,1.12428 3.62132,20.43257 c 7.78421,-0.60372 13.75944,-0.59796 21.93301,-0.45457 l 2.57054,-18.08664 z"
         id="path13125"
         inkscape:connector-curvature="0"
         sodipodi:nodetypes="ccccccccccc" />
      <path
         style="fill:#bebebe;fill-opacity:1;stroke:none"
         d="m 706.39842,355.7821 c -10.88166,1.4705 -21.54737,0.94065 -32.01428,-1.43083 -4.35164,-6.16648 -10.15708,-10.02111 -17.23251,-13.95459 l 32.1828,-5.89593 34.77963,5.73274 c -10.67094,6.45162 -15.28626,9.24092 -17.71564,15.54861 z"
         id="path13127"
         inkscape:connector-curvature="0"
         sodipodi:nodetypes="cccccc" />
      <path
         sodipodi:type="arc"
         style="color:#000000;fill:#bebebe;fill-opacity:1;fill-rule:nonzero;stroke:none;stroke-width:3;marker:none;visibility:visible;display:inline;overflow:visible"
         id="path13141"
         sodipodi:cx="406.05606"
         sodipodi:cy="406.59692"
         sodipodi:rx="7.4246211"
         sodipodi:ry="7.4246211"
         d="m 413.48068,406.59692 c 0,4.10051 -3.32411,7.42462 -7.42462,7.42462 -4.1005,0 -7.42462,-3.32411 -7.42462,-7.42462 0,-4.1005 3.32412,-7.42462 7.42462,-7.42462 4.10051,0 7.42462,3.32412 7.42462,7.42462 z"
         transform="matrix(0.45029769,-0.03876117,0.03876117,0.45029769,490.59344,198.12421)" />
      <rect
         transform="matrix(0.99631567,-0.08576185,0.08576185,0.99631567,0,0)"
         style="color:#000000;fill:#bebebe;fill-opacity:1;fill-rule:nonzero;stroke:none;stroke-width:3;marker:none;visibility:visible;display:inline;overflow:visible"
         id="rect13143"
         width="10.365982"
         height="10.365982"
         x="650.10034"
         y="427.056"
         rx="3.2057731"
         ry="3.2057731" />
      <path
         sodipodi:nodetypes="csascc"
         inkscape:connector-curvature="0"
         id="path7899"
         d="m 685.8052,372.37376 c 0,0 -2.85216,-1.15791 -3.78999,-2.29994 -1.04354,-1.27076 -3.07802,-3.75259 -1.69014,-4.6344 1.21501,-0.77198 1.84018,2.27417 3.04431,3.06301 1.07272,0.70275 3.58486,1.39645 3.58486,1.39645 z"
         style="fill:#bebebe;fill-opacity:1;stroke:none;display:inline;enable-background:new" />
    </g>
  </g>
</svg>
