<?xml version="1.0" encoding="UTF-8" standalone="no"?>
<!-- Created with Inkscape (http://www.inkscape.org/) -->

<svg
   xmlns:dc="http://purl.org/dc/elements/1.1/"
   xmlns:cc="http://creativecommons.org/ns#"
   xmlns:rdf="http://www.w3.org/1999/02/22-rdf-syntax-ns#"
   xmlns:svg="http://www.w3.org/2000/svg"
   xmlns="http://www.w3.org/2000/svg"
   xmlns:sodipodi="http://sodipodi.sourceforge.net/DTD/sodipodi-0.dtd"
   xmlns:inkscape="http://www.inkscape.org/namespaces/inkscape"
   width="150"
   height="80"
   id="svg4800"
   version="1.1"
   inkscape:version="0.48.4 r9939"
   sodipodi:docname="New document 11">
  <defs
     id="defs4802" />
  <sodipodi:namedview
     id="base"
     pagecolor="#ffffff"
     bordercolor="#666666"
     borderopacity="1.0"
     inkscape:pageopacity="0.0"
     inkscape:pageshadow="2"
     inkscape:zoom="1.979899"
     inkscape:cx="112.30969"
     inkscape:cy="105.28461"
     inkscape:document-units="px"
     inkscape:current-layer="layer1"
     showgrid="false"
     inkscape:window-width="1366"
     inkscape:window-height="702"
     inkscape:window-x="0"
     inkscape:window-y="27"
     inkscape:window-maximized="1" />
  <metadata
     id="metadata4805">
    <rdf:RDF>
      <cc:Work
         rdf:about="">
        <dc:format>image/svg+xml</dc:format>
        <dc:type
           rdf:resource="http://purl.org/dc/dcmitype/StillImage" />
        <dc:title></dc:title>
      </cc:Work>
    </rdf:RDF>
  </metadata>
  <g
     inkscape:label="Layer 1"
     inkscape:groupmode="layer"
     id="layer1"
     transform="translate(0,-972.36218)">
    <g
       id="g4837"
       transform="translate(23.571447,42.857141)">
      <g
         style="fill:#bebebe;fill-opacity:1;display:inline;enable-background:new"
         id="g13248"
         transform="matrix(-0.86497926,-0.0418031,-0.0418031,0.86497926,1426.7059,489.14008)">
        <g
           inkscape:export-ydpi="90"
           inkscape:export-xdpi="90"
           inkscape:export-filename="/tmp/foundation_back_balloons.png"
           id="g13250"
           style="fill:#bebebe;fill-opacity:1"
           transform="matrix(0.22234969,0.03876506,-0.03876506,0.22234969,1196.4853,427.96283)">
          <path
             sodipodi:type="arc"
             style="fill:#bebebe;fill-opacity:1;stroke:none"
             id="path13252"
             sodipodi:cx="623"
             sodipodi:cy="374.36218"
             sodipodi:rx="85"
             sodipodi:ry="85"
             d="m 708,374.36218 c 0,46.94421 -38.0558,85 -85,85 -46.9442,0 -85,-38.05579 -85,-85 0,-46.9442 38.0558,-85 85,-85 46.9442,0 85,38.0558 85,85 z"
             transform="translate(817,157)" />
          <path
             style="fill:#bebebe;fill-opacity:1;stroke:none"
             d="m 1469.2163,621.36218 -0.8981,23.22056 c 0.67,5.05064 0.44,10.10128 -0.586,15.15193 -8.6333,2.87482 -17.0892,3.97558 -25.4403,4.02805 -3.4549,-5.03993 -4.0627,-10.36456 -4.7685,-15.67939 l -7.7396,-25.44913 5.8597,0.5461 6.9961,24.0623 c 9.2676,-1.73376 11.2945,-1.60383 21.1264,-2.49106 l 0.742,-22.04828 z"
             id="path13254"
             inkscape:connector-curvature="0"
             sodipodi:nodetypes="ccccccccccc" />
          <path
             style="fill:#bebebe;fill-opacity:1;stroke:none"
             d="m 1469.2456,622.20123 c -12.8741,3.17589 -25.7482,3.92213 -38.6223,2.43153 -6.0239,-6.83956 -13.4936,-10.71504 -22.4983,-14.52058 l 37.875,-11.25 42.5,2.375 c -11.9755,9.12898 -17.1552,13.07606 -19.2544,20.96405 z"
             id="path13256"
             inkscape:connector-curvature="0"
             sodipodi:nodetypes="cccccc" />
        </g>
        <path
           inkscape:export-ydpi="90"
           inkscape:export-xdpi="90"
           inkscape:export-filename="/tmp/foundation_back_balloons.png"
           d="m 1495.2215,627.94342 c 0,0.96411 -0.3364,1.74567 -0.7513,1.74567 -0.4149,0 -0.7513,-0.78156 -0.7513,-1.74567 0,-0.96411 0.3364,-1.74567 0.7513,-1.74567 0.4149,0 0.7513,0.78156 0.7513,1.74567 z"
           sodipodi:ry="1.7456698"
           sodipodi:rx="0.75130099"
           sodipodi:cy="627.94342"
           sodipodi:cx="1494.4702"
           id="path13258"
           style="fill:#bebebe;fill-opacity:1;stroke:none"
           sodipodi:type="arc" />
      </g>
      <g
         style="fill:#bebebe;fill-opacity:1;display:inline;enable-background:new"
         id="g13260"
         transform="matrix(-1.0081958,-0.06691419,-0.06691419,1.0081958,1546.7644,471.4231)">
        <g
           inkscape:export-ydpi="90"
           inkscape:export-xdpi="90"
           inkscape:export-filename="/tmp/foundation_back_balloons.png"
           id="g13262"
           style="fill:#bebebe;fill-opacity:1"
           transform="matrix(0.22234969,0.03876506,-0.03876506,0.22234969,1196.4853,427.96283)">
          <path
             sodipodi:type="arc"
             style="fill:#bebebe;fill-opacity:1;stroke:none"
             id="path13264"
             sodipodi:cx="623"
             sodipodi:cy="374.36218"
             sodipodi:rx="85"
             sodipodi:ry="85"
             d="m 708,374.36218 c 0,46.94421 -38.0558,85 -85,85 -46.9442,0 -85,-38.05579 -85,-85 0,-46.9442 38.0558,-85 85,-85 46.9442,0 85,38.0558 85,85 z"
             transform="translate(817,157)" />
          <path
             style="fill:#bebebe;fill-opacity:1;stroke:none"
             d="m 1469.2163,621.36218 -0.8981,23.22056 c 0.67,5.05064 0.44,10.10128 -0.586,15.15193 -8.6333,2.87482 -17.0892,3.97558 -25.4403,4.02805 -3.4549,-5.03993 -4.0627,-10.36456 -4.7685,-15.67939 l -7.7396,-25.44913 5.1759,0.58934 6.9961,24.0623 c 9.2676,-1.73376 12.6621,-1.69031 22.494,-2.57754 l 0.742,-22.04828 z"
             id="path13266"
             inkscape:connector-curvature="0"
             sodipodi:nodetypes="ccccccccccc" />
          <path
             style="fill:#bebebe;fill-opacity:1;stroke:none"
             d="m 1469.2456,622.20123 c -12.8741,3.17589 -25.7482,3.92213 -38.6223,2.43153 -6.0239,-6.83956 -13.4936,-10.71504 -22.4983,-14.52058 l 37.875,-11.25 42.5,2.375 c -11.9755,9.12898 -17.1552,13.07606 -19.2544,20.96405 z"
             id="path13268"
             inkscape:connector-curvature="0"
             sodipodi:nodetypes="cccccc" />
        </g>
        <path
           inkscape:export-ydpi="90"
           inkscape:export-xdpi="90"
           inkscape:export-filename="/tmp/foundation_back_balloons.png"
           d="m 1495.2215,627.94342 c 0,0.96411 -0.3364,1.74567 -0.7513,1.74567 -0.4149,0 -0.7513,-0.78156 -0.7513,-1.74567 0,-0.96411 0.3364,-1.74567 0.7513,-1.74567 0.4149,0 0.7513,0.78156 0.7513,1.74567 z"
           sodipodi:ry="1.7456698"
           sodipodi:rx="0.75130099"
           sodipodi:cy="627.94342"
           sodipodi:cx="1494.4702"
           id="path13270"
           style="fill:#bebebe;fill-opacity:1;stroke:none"
           sodipodi:type="arc" />
      </g>
    </g>
  </g>
</svg>
