<?xml version="1.0" encoding="UTF-8" standalone="no"?>
<!-- Created with Inkscape (http://www.inkscape.org/) -->

<svg
   xmlns:dc="http://purl.org/dc/elements/1.1/"
   xmlns:cc="http://creativecommons.org/ns#"
   xmlns:rdf="http://www.w3.org/1999/02/22-rdf-syntax-ns#"
   xmlns:svg="http://www.w3.org/2000/svg"
   xmlns="http://www.w3.org/2000/svg"
   xmlns:sodipodi="http://sodipodi.sourceforge.net/DTD/sodipodi-0.dtd"
   xmlns:inkscape="http://www.inkscape.org/namespaces/inkscape"
   width="16"
   height="16"
   viewBox="0 0 16 16"
   id="svg4707"
   version="1.1"
   inkscape:version="0.91 r13725"
   sodipodi:docname="question-mark.svg">
  <defs
     id="defs4709" />
  <sodipodi:namedview
     id="base"
     pagecolor="#ffffff"
     bordercolor="#666666"
     borderopacity="1.0"
     inkscape:pageopacity="0.0"
     inkscape:pageshadow="2"
     inkscape:zoom="11.313708"
     inkscape:cx="19.305774"
     inkscape:cy="7.4392603"
     inkscape:document-units="px"
     inkscape:current-layer="question-mark"
     showgrid="false"
     units="px"
     inkscape:showpageshadow="false"
     inkscape:window-width="1920"
     inkscape:window-height="1136"
     inkscape:window-x="0"
     inkscape:window-y="27"
     inkscape:window-maximized="1" />
  <metadata
     id="metadata4712">
    <rdf:RDF>
      <cc:Work
         rdf:about="">
        <dc:format>image/svg+xml</dc:format>
        <dc:type
           rdf:resource="http://purl.org/dc/dcmitype/StillImage" />
        <dc:title></dc:title>
      </cc:Work>
    </rdf:RDF>
  </metadata>
  <g
     inkscape:label="Layer 1"
     inkscape:groupmode="layer"
     id="layer1"
     transform="translate(0,-1036.3622)">
    <g
       id="question-mark"
       inkscape:label="#g4153">
      <path
         sodipodi:nodetypes="sccsccccscscsccssssss"
         inkscape:connector-curvature="0"
         id="rect4150"
         d="m 7.7779412,1038.3679 c -1.9699805,0.1104 -3.4837457,1.6282 -3.373398,3.5982 l 2.3988608,0 c -0.037902,-0.6756 0.4488988,-1.1609 1.124466,-1.1993 0.6755671,-0.039 1.236493,0.4488 1.2743949,1.1244 l 0,0.038 c 0.0048,0.1557 -0.037783,0.3903 -0.1499286,0.5248 -0.2718749,0.3259 -0.579865,0.5945 -0.8246088,0.7871 -0.2728103,0.2052 -0.5688178,0.4569 -0.8620905,0.8247 -0.2932728,0.3677 -0.562233,0.8966 -0.562233,1.4992 -0.0084,0.6337 0.5656873,1.1995 1.1994304,1.1995 0.633743,0 1.2078262,-0.5658 1.1994305,-1.1995 0,0 -0.021771,0.037 0.037483,-0.038 0.059254,-0.075 0.2207791,-0.2026 0.4497867,-0.3749 1.4585544,-1.1058 1.9114714,-1.7299 1.9115914,-3.4109 -0.110348,-1.9698 -1.8532029,-3.4836 -3.8231837,-3.3733 z m 0.2248932,9.5954 c -0.6624215,0 -1.1994304,0.537 -1.1994304,1.1995 0,0.6624 0.5370089,1.1994 1.1994304,1.1994 0.6624214,0 1.1994305,-0.537 1.1994305,-1.1994 0,-0.6625 -0.5370091,-1.1995 -1.1994305,-1.1995 z"
         style="color:#000000;clip-rule:nonzero;display:inline;overflow:visible;visibility:visible;opacity:1;isolation:auto;mix-blend-mode:normal;color-interpolation:sRGB;color-interpolation-filters:linearRGB;solid-color:#000000;solid-opacity:1;fill:#ad7fa8;fill-opacity:1;fill-rule:nonzero;stroke:#1c5288;stroke-width:0;stroke-linecap:round;stroke-linejoin:miter;stroke-miterlimit:4;stroke-dasharray:none;stroke-dashoffset:0;stroke-opacity:0.76999996;marker:none;color-rendering:auto;image-rendering:auto;shape-rendering:auto;text-rendering:auto;enable-background:accumulate" />
      <rect
         inkscape:label="a"
         y="1036.3622"
         x="0"
         height="16"
         width="16"
         id="rect8319"
         style="color:#bebebe;display:inline;overflow:visible;visibility:visible;fill:none;fill-opacity:1;stroke:none;stroke-width:1;marker:none" />
    </g>
  </g>
</svg>
