<?xml version="1.0" encoding="UTF-8" standalone="no"?>
<!-- Created with Inkscape (http://www.inkscape.org/) -->

<svg
   xmlns:dc="http://purl.org/dc/elements/1.1/"
   xmlns:cc="http://creativecommons.org/ns#"
   xmlns:rdf="http://www.w3.org/1999/02/22-rdf-syntax-ns#"
   xmlns:svg="http://www.w3.org/2000/svg"
   xmlns="http://www.w3.org/2000/svg"
   xmlns:sodipodi="http://sodipodi.sourceforge.net/DTD/sodipodi-0.dtd"
   xmlns:inkscape="http://www.inkscape.org/namespaces/inkscape"
   version="1.1"
   width="300"
   height="300"
   id="svg7384"
   inkscape:version="0.48.1 r9760"
   sodipodi:docname="dtp94-attach-symbolic.svg">
  <metadata
     id="metadata90">
    <rdf:RDF>
      <cc:Work
         rdf:about="">
        <dc:format>image/svg+xml</dc:format>
        <dc:type
           rdf:resource="http://purl.org/dc/dcmitype/StillImage" />
        <dc:title>Gnome Symbolic Icon Theme</dc:title>
      </cc:Work>
    </rdf:RDF>
  </metadata>
  <sodipodi:namedview
     pagecolor="#e5e6e4"
     bordercolor="#666666"
     borderopacity="1"
     objecttolerance="10"
     gridtolerance="10"
     guidetolerance="10"
     inkscape:pageopacity="1"
     inkscape:pageshadow="2"
     inkscape:window-width="1598"
     inkscape:window-height="1166"
     id="namedview88"
     showgrid="false"
     inkscape:zoom="1"
     inkscape:cx="471.9392"
     inkscape:cy="180.9462"
     inkscape:window-x="2304"
     inkscape:window-y="194"
     inkscape:window-maximized="0"
     inkscape:current-layer="layer12"
     showborder="false"
     inkscape:snap-nodes="true"
     inkscape:snap-bbox="true"
     inkscape:bbox-paths="false"
     showguides="true"
     inkscape:guide-bbox="true"
     inkscape:snap-to-guides="true"
     inkscape:snap-grids="true"
     inkscape:snap-global="true"
     inkscape:object-nodes="true"
     inkscape:snap-bbox-midpoints="false"
     inkscape:object-paths="true"
     inkscape:snap-others="false">
    <inkscape:grid
       type="xygrid"
       id="grid4866"
       empspacing="2"
       visible="true"
       enabled="true"
       snapvisiblegridlinesonly="true"
       spacingx="1px"
       spacingy="1px" />
  </sodipodi:namedview>
  <title
     id="title9167">Gnome Symbolic Icon Theme</title>
  <defs
     id="defs7386" />
  <g
     inkscape:groupmode="layer"
     id="layer12"
     inkscape:label="figures"
     transform="translate(68.999802,-243)"
     style="display:inline">
    <rect
       y="243"
       x="-68.999802"
       height="300"
       width="300"
       id="rect5985-4-1"
       style="color:#000000;fill:none;stroke:none;stroke-width:1;marker:none;visibility:visible;display:inline;overflow:visible;enable-background:new"
       inkscape:export-filename="/home/lapo.fedora/colorimeters1.png"
       inkscape:export-xdpi="90"
       inkscape:export-ydpi="90" />
    <rect
       y="263"
       x="-48.999786"
       height="260"
       width="260"
       id="rect5985-4-4-6"
       style="color:#000000;fill:#babdb6;fill-opacity:1;fill-rule:nonzero;stroke:none;stroke-width:1;marker:none;visibility:visible;display:inline;overflow:visible;enable-background:new"
       rx="4"
       ry="4"
       inkscape:export-filename="/home/lapo.fedora/colorimeters1.png"
       inkscape:export-xdpi="90"
       inkscape:export-ydpi="90" />
    <path
       style="font-size:medium;font-style:normal;font-variant:normal;font-weight:normal;font-stretch:normal;text-indent:0;text-align:start;text-decoration:none;line-height:normal;letter-spacing:normal;word-spacing:normal;text-transform:none;direction:ltr;block-progression:tb;writing-mode:lr-tb;text-anchor:start;baseline-shift:baseline;color:#000000;fill:#eeeeec;fill-opacity:1;fill-rule:nonzero;stroke:none;stroke-width:4;marker:none;visibility:visible;display:inline;overflow:visible;enable-background:new;font-family:Sans;-inkscape-font-specification:Sans"
       d="M 81,309 C 62.556035,309 46.00713,313.5775 34.0625,324.375 22.11787,335.1725 15,352.08614 15,375.96875 c 0,29.37667 8.541393,56.97004 20.96875,77.34375 12.427357,20.37371 28.784484,33.78125 45.03125,33.78125 16.246765,0 32.63514,-13.40754 45.0625,-33.78125 C 138.48986,432.93879 147,405.34542 147,375.96875 147,352.08614 139.88213,335.1725 127.9375,324.375 115.99287,313.5775 99.443964,309 81,309 z m 0,4 c 17.781754,0 33.25106,4.40112 44.25,14.34375 10.99894,9.94263 17.75,25.53071 17.75,48.625 0,28.60023 -8.3619,55.55544 -20.375,75.25 -12.0131,19.69456 -27.633577,31.875 -41.625,31.875 -13.991424,0 -29.611905,-12.18044 -41.625,-31.875 C 27.361905,431.52419 19,404.56898 19,375.96875 19,352.87446 25.75106,337.28638 36.75,327.34375 47.74894,317.40112 63.218245,313 81,313 z"
       id="use3967-4"
       inkscape:connector-curvature="0" />
    <path
       style="font-size:medium;font-style:normal;font-variant:normal;font-weight:normal;font-stretch:normal;text-indent:0;text-align:start;text-decoration:none;line-height:normal;letter-spacing:normal;word-spacing:normal;text-transform:none;direction:ltr;block-progression:tb;writing-mode:lr-tb;text-anchor:start;baseline-shift:baseline;color:#000000;fill:#eeeeec;fill-opacity:1;fill-rule:nonzero;stroke:none;stroke-width:2;marker:none;visibility:visible;display:inline;overflow:visible;enable-background:new;font-family:Sans;-inkscape-font-specification:Sans"
       d="m 77,245.125 0,1.875 0,68.78125 0,0.53125 0.4375,0.3125 6,4 1.5625,1.03125 0,-1.875 L 85,251 l 0,-0.53125 -0.4375,-0.3125 -6,-4 L 77,245.125 z m 2,3.75 4,2.6875 0,66.34375 -4,-2.6875 0,-66.34375 z"
       id="rect3883-1-8-5-1-8-6"
       inkscape:connector-curvature="0" />
    <path
       style="color:#000000;fill:#babdb6;fill-opacity:1;fill-rule:nonzero;stroke:none;stroke-width:1;marker:none;visibility:visible;display:inline;overflow:visible;enable-background:new"
       d="m 78.000202,247.00002 0,68.7812 6,4 0,-68.7812 z"
       id="rect3883-1-8-5-1-3"
       inkscape:connector-curvature="0"
       sodipodi:nodetypes="ccccc"
       inkscape:export-filename="/home/lapo.fedora/colorimeters1.png"
       inkscape:export-xdpi="90"
       inkscape:export-ydpi="90" />
    <path
       style="font-size:medium;font-style:normal;font-variant:normal;font-weight:normal;font-stretch:normal;text-indent:0;text-align:start;text-decoration:none;line-height:normal;letter-spacing:normal;word-spacing:normal;text-transform:none;direction:ltr;block-progression:tb;writing-mode:lr-tb;text-anchor:start;baseline-shift:baseline;color:#000000;fill:#babdb6;fill-opacity:1;fill-rule:nonzero;stroke:none;stroke-width:2;marker:none;visibility:visible;display:inline;overflow:visible;enable-background:new;font-family:Sans;-inkscape-font-specification:Sans"
       d="M 81,310 C 62.721587,310 46.458208,314.54122 34.75,325.125 23.041792,335.70878 16,352.28322 16,375.96875 c 0,29.18256 8.488708,56.60857 20.8125,76.8125 12.323792,20.20393 28.504569,33.3125 44.1875,33.3125 15.68293,0 31.86371,-13.10857 44.1875,-33.3125 C 137.51129,432.57732 146,405.15131 146,375.96875 146,352.28322 138.95821,335.70878 127.25,325.125 115.54179,314.54122 99.278412,310 81,310 z m 0,2 c 17.947306,0 33.67089,4.46865 44.90625,14.625 C 137.14161,336.78135 144,352.67738 144,375.96875 c 0,28.79434 -8.38334,55.9169 -20.5,75.78125 -12.11666,19.86435 -27.944742,32.34375 -42.5,32.34375 -14.555259,0 -30.383339,-12.4794 -42.5,-32.34375 C 26.383339,431.88565 18,404.76309 18,375.96875 18,352.67738 24.858388,336.78135 36.09375,326.625 47.329112,316.46865 63.052693,312 81,312 z"
       id="use3967"
       inkscape:connector-curvature="0" />
    <path
       style="font-size:medium;font-style:normal;font-variant:normal;font-weight:normal;font-stretch:normal;text-indent:0;text-align:start;text-decoration:none;line-height:normal;letter-spacing:normal;word-spacing:normal;text-transform:none;direction:ltr;block-progression:tb;writing-mode:lr-tb;text-anchor:start;baseline-shift:baseline;color:#000000;fill:#babdb6;fill-opacity:1;stroke:none;stroke-width:0.5;marker:none;visibility:visible;display:inline;overflow:visible;enable-background:new;font-family:Sans;-inkscape-font-specification:Sans"
       d="m 66.59375,331.5 a 0.250025,0.250025 0 0 0 -0.0625,0.0312 0.250025,0.250025 0 0 0 -0.09375,0.0937 c -6.782781,10.67367 -11.21875,28.57929 -11.21875,48.875 0,11.71271 1.481727,22.62309 4.03125,31.8125 a 0.250025,0.250025 0 0 0 0.03125,0.0625 0.250025,0.250025 0 0 0 0.125,0.125 0.250025,0.250025 0 0 0 0.125,0 0.250025,0.250025 0 0 0 0.09375,-0.0312 0.250025,0.250025 0 0 0 0.125,-0.15625 0.250025,0.250025 0 0 0 0,-0.125 c -2.535537,-9.13899 -4.03125,-20.01681 -4.03125,-31.6875 0,-20.22289 4.425421,-38.05102 11.125,-48.59375 a 0.250025,0.250025 0 0 0 0.0625,-0.1875 0.250025,0.250025 0 0 0 -0.09375,-0.15625 0.250025,0.250025 0 0 0 -0.1875,-0.0625 0.250025,0.250025 0 0 0 -0.03125,0 z m 34.09375,11.5625 a 0.250025,0.250025 0 0 0 -0.0312,0.0312 0.250025,0.250025 0 0 0 -0.0937,0.21875 0.250025,0.250025 0 0 0 0,0.0625 c 3.56623,10.11104 5.71875,23.04655 5.71875,37.125 a 0.250025,0.250025 0 0 0 0,0.0625 0.250025,0.250025 0 0 0 0.15625,0.1875 0.250025,0.250025 0 0 0 0.125,0 0.250025,0.250025 0 0 0 0.0937,-0.0312 0.250025,0.250025 0 0 0 0.125,-0.1875 0.250025,0.250025 0 0 0 0,-0.0312 c 0,-14.12915 -2.16023,-27.10349 -5.75,-37.28125 a 0.250025,0.250025 0 0 0 -0.0937,-0.125 0.250025,0.250025 0 0 0 -0.0937,-0.0312 0.250025,0.250025 0 0 0 -0.0937,0 0.250025,0.250025 0 0 0 -0.0625,0 z M 105,400 a 0.250025,0.250025 0 0 0 -0.15625,0.125 0.250025,0.250025 0 0 0 -0.0312,0.0937 c -1.75499,11.39126 -4.994006,21.16235 -9.15625,28.0625 C 91.494006,435.1814 86.424048,439.1875 81,439.1875 c -6.186181,0 -11.90562,-5.20786 -16.34375,-13.96875 a 0.250025,0.250025 0 0 0 -0.1875,-0.15625 0.250025,0.250025 0 0 0 -0.25,0.125 0.250025,0.250025 0 0 0 -0.03125,0.0937 0.250025,0.250025 0 0 0 0,0.125 0.250025,0.250025 0 0 0 0.03125,0.0312 c 4.48029,8.84411 10.314991,14.25 16.78125,14.25 5.669622,0 10.882968,-4.17563 15.09375,-11.15625 4.21078,-6.98062 7.45624,-16.77871 9.21875,-28.21875 a 0.250025,0.250025 0 0 0 -0.0312,-0.125 0.250025,0.250025 0 0 0 -0.0312,-0.0937 A 0.250025,0.250025 0 0 0 105,400 z"
       id="path3928-4-3"
       inkscape:connector-curvature="0" />
    <path
       style="font-size:medium;font-style:normal;font-variant:normal;font-weight:normal;font-stretch:normal;text-indent:0;text-align:start;text-decoration:none;line-height:normal;letter-spacing:normal;word-spacing:normal;text-transform:none;direction:ltr;block-progression:tb;writing-mode:lr-tb;text-anchor:start;baseline-shift:baseline;color:#000000;fill:#babdb6;fill-opacity:1;fill-rule:nonzero;stroke:none;stroke-width:3.80591416;marker:none;visibility:visible;display:inline;overflow:visible;enable-background:new;font-family:Sans;-inkscape-font-specification:Sans"
       d="m 81.023647,327.87944 c -6.745804,0 -12.737246,6.10648 -16.994831,15.64089 -4.257584,9.53441 -6.860823,22.58372 -6.860823,36.97968 0,14.39595 2.603239,27.44526 6.860823,36.97968 4.257585,9.53441 10.249027,15.64089 16.994831,15.64089 6.745804,0 12.737246,-6.10648 16.994831,-15.64089 4.257582,-9.53442 6.860822,-22.58373 6.860822,-36.97968 0,-14.39596 -2.60324,-27.44527 -6.860822,-36.97968 -4.257585,-9.53441 -10.249027,-15.64089 -16.994831,-15.64089 z m 0,2.30179 c 5.947776,0 11.447421,5.41492 15.508319,14.50887 4.060894,9.09394 6.603544,21.77995 6.603544,35.80991 0,14.02996 -2.54265,26.71596 -6.603544,35.80991 -4.060898,9.09395 -9.560543,14.50886 -15.508319,14.50886 -5.947776,0 -11.447421,-5.41491 -15.508319,-14.50886 -4.060898,-9.09395 -6.603542,-21.77995 -6.603542,-35.80991 0,-14.02996 2.542644,-26.71597 6.603542,-35.80991 4.060898,-9.09395 9.560543,-14.50887 15.508319,-14.50887 z"
       id="path3928-4"
       inkscape:connector-curvature="0" />
    <path
       style="color:#000000;fill:#babdb6;fill-opacity:1;fill-rule:nonzero;stroke:none;stroke-width:1;marker:none;visibility:visible;display:inline;overflow:visible;enable-background:new"
       d="m 78.000202,243.00002 0,1.7812 6,4 0,-1.7812 z"
       id="rect3883-1-8-5-0-5"
       inkscape:connector-curvature="0"
       sodipodi:nodetypes="ccccc"
       inkscape:export-filename="/home/lapo.fedora/colorimeters1.png"
       inkscape:export-xdpi="90"
       inkscape:export-ydpi="90" />
    <text
       xml:space="preserve"
       style="font-size:11px;font-style:normal;font-variant:normal;font-weight:bold;font-stretch:normal;line-height:125%;letter-spacing:0px;word-spacing:0px;fill:#babdb6;fill-opacity:1;stroke:none;font-family:Cantarell;-inkscape-font-specification:Cantarell Bold"
       x="340.10559"
       y="-78.213562"
       id="text4036"
       sodipodi:linespacing="125%"
       transform="matrix(0,1,-1,0,0,0)"><tspan
         sodipodi:role="line"
         id="tspan4038"
         x="340.10559"
         y="-78.213562">MustgoOPTIX</tspan></text>
  </g>
</svg>
