<?xml version="1.0" encoding="UTF-8" standalone="no"?>
<!-- Created with Inkscape (http://www.inkscape.org/) -->

<svg
   xmlns:dc="http://purl.org/dc/elements/1.1/"
   xmlns:cc="http://creativecommons.org/ns#"
   xmlns:rdf="http://www.w3.org/1999/02/22-rdf-syntax-ns#"
   xmlns:svg="http://www.w3.org/2000/svg"
   xmlns="http://www.w3.org/2000/svg"
   xmlns:xlink="http://www.w3.org/1999/xlink"
   xmlns:sodipodi="http://sodipodi.sourceforge.net/DTD/sodipodi-0.dtd"
   xmlns:inkscape="http://www.inkscape.org/namespaces/inkscape"
   width="64"
   height="64"
   id="svg9376"
   version="1.1"
   inkscape:version="0.48.2 r9819"
   sodipodi:docname="dotgrid.svg"
   inkscape:export-filename="/home/jimmac/SparkleShare/gnome-mockups/00tools/dotgrid.png"
   inkscape:export-xdpi="90"
   inkscape:export-ydpi="90">
  <defs
     id="defs3" />
  <sodipodi:namedview
     inkscape:document-units="mm"
     id="base"
     pagecolor="#ffffff"
     bordercolor="#ebebeb"
     borderopacity="1"
     inkscape:pageopacity="1"
     inkscape:pageshadow="2"
     inkscape:zoom="1"
     inkscape:cx="22.683878"
     inkscape:cy="18.448852"
     inkscape:current-layer="g11553"
     showgrid="false"
     units="px"
     borderlayer="false"
     inkscape:showpageshadow="false"
     showborder="true"
     inkscape:window-width="1478"
     inkscape:window-height="1130"
     inkscape:window-x="1805"
     inkscape:window-y="104"
     inkscape:window-maximized="0">
    <inkscape:grid
       type="xygrid"
       id="grid9382"
       empspacing="8"
       visible="true"
       enabled="true"
       snapvisiblegridlinesonly="true" />
  </sodipodi:namedview>
  <metadata
     id="metadata4">
    <rdf:RDF>
      <cc:Work
         rdf:about="">
        <dc:format>image/svg+xml</dc:format>
        <dc:type
           rdf:resource="http://purl.org/dc/dcmitype/StillImage" />
        <dc:title></dc:title>
      </cc:Work>
    </rdf:RDF>
  </metadata>
  <g
     inkscape:label="Layer 1"
     inkscape:groupmode="layer"
     id="layer1"
     transform="translate(0,-988.3622)">
    <path
       sodipodi:type="arc"
       style="opacity:0.6;color:#000000;fill:#407bbb;fill-opacity:1;fill-rule:nonzero;stroke:none;stroke-width:0.99999994;marker:none;visibility:visible;display:inline;overflow:visible;enable-background:new"
       id="path9384"
       sodipodi:cx="0"
       sodipodi:cy="100"
       sodipodi:rx="1"
       sodipodi:ry="1"
       d="m 1,100 c 0,0.55228 -0.44771525,1 -1,1 -0.55228475,0 -1,-0.44772 -1,-1 0,-0.552285 0.44771525,-1 1,-1 0.55228475,0 1,0.447715 1,1 z"
       transform="translate(0,952.3622)" />
    <path
       sodipodi:type="arc"
       style="opacity:0.6;color:#000000;fill:#407bbb;fill-opacity:1;fill-rule:nonzero;stroke:none;stroke-width:0.99999994;marker:none;visibility:visible;display:inline;overflow:visible;enable-background:new"
       id="path11223"
       sodipodi:cx="0"
       sodipodi:cy="100"
       sodipodi:rx="1"
       sodipodi:ry="1"
       d="m 1,100 c 0,0.55228 -0.44771525,1 -1,1 -0.55228475,0 -1,-0.44772 -1,-1 0,-0.552285 0.44771525,-1 1,-1 0.55228475,0 1,0.447715 1,1 z"
       transform="translate(32,952.3622)" />
    <path
       sodipodi:type="arc"
       style="opacity:0.6;color:#000000;fill:#407bbb;fill-opacity:1;fill-rule:nonzero;stroke:none;stroke-width:0.99999994;marker:none;visibility:visible;display:inline;overflow:visible;enable-background:new"
       id="path11279"
       sodipodi:cx="0"
       sodipodi:cy="100"
       sodipodi:rx="1"
       sodipodi:ry="1"
       d="m 1,100 c 0,0.55228 -0.44771525,1 -1,1 -0.55228475,0 -1,-0.44772 -1,-1 0,-0.552285 0.44771525,-1 1,-1 0.55228475,0 1,0.447715 1,1 z"
       transform="translate(0,920.3622)" />
    <path
       sodipodi:type="arc"
       style="opacity:0.6;color:#000000;fill:#407bbb;fill-opacity:1;fill-rule:nonzero;stroke:none;stroke-width:0.99999994;marker:none;visibility:visible;display:inline;overflow:visible;enable-background:new"
       id="path11287"
       sodipodi:cx="0"
       sodipodi:cy="100"
       sodipodi:rx="1"
       sodipodi:ry="1"
       d="m 1,100 c 0,0.55228 -0.44771525,1 -1,1 -0.55228475,0 -1,-0.44772 -1,-1 0,-0.552285 0.44771525,-1 1,-1 0.55228475,0 1,0.447715 1,1 z"
       transform="translate(32,920.3622)" />
    <path
       transform="translate(64,952.3622)"
       d="m 1,100 c 0,0.55228 -0.44771525,1 -1,1 -0.55228475,0 -1,-0.44772 -1,-1 0,-0.552285 0.44771525,-1 1,-1 0.55228475,0 1,0.447715 1,1 z"
       sodipodi:ry="1"
       sodipodi:rx="1"
       sodipodi:cy="100"
       sodipodi:cx="0"
       id="path11385"
       style="opacity:0.6;color:#000000;fill:#407bbb;fill-opacity:1;fill-rule:nonzero;stroke:none;stroke-width:0.99999994;marker:none;visibility:visible;display:inline;overflow:visible;enable-background:new"
       sodipodi:type="arc" />
    <path
       transform="translate(64,920.3622)"
       d="m 1,100 c 0,0.55228 -0.44771525,1 -1,1 -0.55228475,0 -1,-0.44772 -1,-1 0,-0.552285 0.44771525,-1 1,-1 0.55228475,0 1,0.447715 1,1 z"
       sodipodi:ry="1"
       sodipodi:rx="1"
       sodipodi:cy="100"
       sodipodi:cx="0"
       id="path11425"
       style="opacity:0.6;color:#000000;fill:#407bbb;fill-opacity:1;fill-rule:nonzero;stroke:none;stroke-width:0.99999994;marker:none;visibility:visible;display:inline;overflow:visible;enable-background:new"
       sodipodi:type="arc" />
    <path
       transform="translate(0,888.3622)"
       d="m 1,100 c 0,0.55228 -0.44771525,1 -1,1 -0.55228475,0 -1,-0.44772 -1,-1 0,-0.552285 0.44771525,-1 1,-1 0.55228475,0 1,0.447715 1,1 z"
       sodipodi:ry="1"
       sodipodi:rx="1"
       sodipodi:cy="100"
       sodipodi:cx="0"
       id="path11467"
       style="opacity:0.6;color:#000000;fill:#407bbb;fill-opacity:1;fill-rule:nonzero;stroke:none;stroke-width:0.99999994;marker:none;visibility:visible;display:inline;overflow:visible;enable-background:new"
       sodipodi:type="arc" />
    <path
       transform="translate(32,888.3622)"
       d="m 1,100 c 0,0.55228 -0.44771525,1 -1,1 -0.55228475,0 -1,-0.44772 -1,-1 0,-0.552285 0.44771525,-1 1,-1 0.55228475,0 1,0.447715 1,1 z"
       sodipodi:ry="1"
       sodipodi:rx="1"
       sodipodi:cy="100"
       sodipodi:cx="0"
       id="path11475"
       style="opacity:0.6;color:#000000;fill:#407bbb;fill-opacity:1;fill-rule:nonzero;stroke:none;stroke-width:0.99999994;marker:none;visibility:visible;display:inline;overflow:visible;enable-background:new"
       sodipodi:type="arc" />
    <path
       sodipodi:type="arc"
       style="opacity:0.6;color:#000000;fill:#407bbb;fill-opacity:1;fill-rule:nonzero;stroke:none;stroke-width:0.99999994;marker:none;visibility:visible;display:inline;overflow:visible;enable-background:new"
       id="path11515"
       sodipodi:cx="0"
       sodipodi:cy="100"
       sodipodi:rx="1"
       sodipodi:ry="1"
       d="m 1,100 c 0,0.55228 -0.44771525,1 -1,1 -0.55228475,0 -1,-0.44772 -1,-1 0,-0.552285 0.44771525,-1 1,-1 0.55228475,0 1,0.447715 1,1 z"
       transform="translate(64,888.3622)" />
    <g
       id="g11553">
      <path
         sodipodi:type="arc"
         style="opacity:0.3;color:#000000;fill:#407bbb;fill-opacity:1;fill-rule:nonzero;stroke:none;stroke-width:0.99999994000000003;marker:none;visibility:visible;display:inline;overflow:visible;enable-background:new"
         id="path11517"
         sodipodi:cx="0"
         sodipodi:cy="100"
         sodipodi:rx="1"
         sodipodi:ry="1"
         d="m 1,100 c 0,0.55228 -0.44771525,1 -1,1 -0.55228475,0 -1,-0.44772 -1,-1 0,-0.552285 0.44771525,-1 1,-1 0.55228475,0 1,0.447715 1,1 z"
         transform="matrix(0.5,0,0,0.5,7.5,1001.8622)" />
      <path
         transform="matrix(0.5,0,0,0.5,15.5,1001.8622)"
         d="m 1,100 c 0,0.55228 -0.44771525,1 -1,1 -0.55228475,0 -1,-0.44772 -1,-1 0,-0.552285 0.44771525,-1 1,-1 0.55228475,0 1,0.447715 1,1 z"
         sodipodi:ry="1"
         sodipodi:rx="1"
         sodipodi:cy="100"
         sodipodi:cx="0"
         id="path11519"
         style="opacity:0.3;color:#000000;fill:#407bbb;fill-opacity:1;fill-rule:nonzero;stroke:none;stroke-width:0.99999994000000003;marker:none;visibility:visible;display:inline;overflow:visible;enable-background:new"
         sodipodi:type="arc" />
      <path
         sodipodi:type="arc"
         style="opacity:0.3;color:#000000;fill:#407bbb;fill-opacity:1;fill-rule:nonzero;stroke:none;stroke-width:0.99999994000000003;marker:none;visibility:visible;display:inline;overflow:visible;enable-background:new"
         id="path11521"
         sodipodi:cx="0"
         sodipodi:cy="100"
         sodipodi:rx="1"
         sodipodi:ry="1"
         d="m 1,100 c 0,0.55228 -0.44771525,1 -1,1 -0.55228475,0 -1,-0.44772 -1,-1 0,-0.552285 0.44771525,-1 1,-1 0.55228475,0 1,0.447715 1,1 z"
         transform="matrix(0.5,0,0,0.5,23.5,1001.8622)" />
      <path
         transform="matrix(0.5,0,0,0.5,7.5,993.8622)"
         d="m 1,100 c 0,0.55228 -0.44771525,1 -1,1 -0.55228475,0 -1,-0.44772 -1,-1 0,-0.552285 0.44771525,-1 1,-1 0.55228475,0 1,0.447715 1,1 z"
         sodipodi:ry="1"
         sodipodi:rx="1"
         sodipodi:cy="100"
         sodipodi:cx="0"
         id="path11523"
         style="opacity:0.3;color:#000000;fill:#407bbb;fill-opacity:1;fill-rule:nonzero;stroke:none;stroke-width:0.99999994000000003;marker:none;visibility:visible;display:inline;overflow:visible;enable-background:new"
         sodipodi:type="arc" />
      <path
         sodipodi:type="arc"
         style="opacity:0.3;color:#000000;fill:#407bbb;fill-opacity:1;fill-rule:nonzero;stroke:none;stroke-width:0.99999994000000003;marker:none;visibility:visible;display:inline;overflow:visible;enable-background:new"
         id="path11525"
         sodipodi:cx="0"
         sodipodi:cy="100"
         sodipodi:rx="1"
         sodipodi:ry="1"
         d="m 1,100 c 0,0.55228 -0.44771525,1 -1,1 -0.55228475,0 -1,-0.44772 -1,-1 0,-0.552285 0.44771525,-1 1,-1 0.55228475,0 1,0.447715 1,1 z"
         transform="matrix(0.5,0,0,0.5,15.5,993.8622)" />
      <path
         transform="matrix(0.5,0,0,0.5,23.5,993.8622)"
         d="m 1,100 c 0,0.55228 -0.44771525,1 -1,1 -0.55228475,0 -1,-0.44772 -1,-1 0,-0.552285 0.44771525,-1 1,-1 0.55228475,0 1,0.447715 1,1 z"
         sodipodi:ry="1"
         sodipodi:rx="1"
         sodipodi:cy="100"
         sodipodi:cx="0"
         id="path11527"
         style="opacity:0.3;color:#000000;fill:#407bbb;fill-opacity:1;fill-rule:nonzero;stroke:none;stroke-width:0.99999994000000003;marker:none;visibility:visible;display:inline;overflow:visible;enable-background:new"
         sodipodi:type="arc" />
      <path
         sodipodi:type="arc"
         style="opacity:0.3;color:#000000;fill:#407bbb;fill-opacity:1;fill-rule:nonzero;stroke:none;stroke-width:0.99999994000000003;marker:none;visibility:visible;display:inline;overflow:visible;enable-background:new"
         id="path11529"
         sodipodi:cx="0"
         sodipodi:cy="100"
         sodipodi:rx="1"
         sodipodi:ry="1"
         d="m 1,100 c 0,0.55228 -0.44771525,1 -1,1 -0.55228475,0 -1,-0.44772 -1,-1 0,-0.552285 0.44771525,-1 1,-1 0.55228475,0 1,0.447715 1,1 z"
         transform="matrix(0.5,0,0,0.5,7.5,985.8622)" />
      <path
         transform="matrix(0.5,0,0,0.5,15.5,985.8622)"
         d="m 1,100 c 0,0.55228 -0.44771525,1 -1,1 -0.55228475,0 -1,-0.44772 -1,-1 0,-0.552285 0.44771525,-1 1,-1 0.55228475,0 1,0.447715 1,1 z"
         sodipodi:ry="1"
         sodipodi:rx="1"
         sodipodi:cy="100"
         sodipodi:cx="0"
         id="path11531"
         style="opacity:0.3;color:#000000;fill:#407bbb;fill-opacity:1;fill-rule:nonzero;stroke:none;stroke-width:0.99999994000000003;marker:none;visibility:visible;display:inline;overflow:visible;enable-background:new"
         sodipodi:type="arc" />
      <path
         sodipodi:type="arc"
         style="opacity:0.3;color:#000000;fill:#407bbb;fill-opacity:1;fill-rule:nonzero;stroke:none;stroke-width:0.99999994000000003;marker:none;visibility:visible;display:inline;overflow:visible;enable-background:new"
         id="path11533"
         sodipodi:cx="0"
         sodipodi:cy="100"
         sodipodi:rx="1"
         sodipodi:ry="1"
         d="m 1,100 c 0,0.55228 -0.44771525,1 -1,1 -0.55228475,0 -1,-0.44772 -1,-1 0,-0.552285 0.44771525,-1 1,-1 0.55228475,0 1,0.447715 1,1 z"
         transform="matrix(0.5,0,0,0.5,23.5,985.8622)" />
      <path
         transform="matrix(0.5,0,0,0.5,7.5,977.8622)"
         d="m 1,100 c 0,0.55228 -0.44771525,1 -1,1 -0.55228475,0 -1,-0.44772 -1,-1 0,-0.552285 0.44771525,-1 1,-1 0.55228475,0 1,0.447715 1,1 z"
         sodipodi:ry="1"
         sodipodi:rx="1"
         sodipodi:cy="100"
         sodipodi:cx="0"
         id="path11535"
         style="opacity:0.3;color:#000000;fill:#407bbb;fill-opacity:1;fill-rule:nonzero;stroke:none;stroke-width:0.99999994000000003;marker:none;visibility:visible;display:inline;overflow:visible;enable-background:new"
         sodipodi:type="arc" />
      <path
         sodipodi:type="arc"
         style="opacity:0.3;color:#000000;fill:#407bbb;fill-opacity:1;fill-rule:nonzero;stroke:none;stroke-width:0.99999994000000003;marker:none;visibility:visible;display:inline;overflow:visible;enable-background:new"
         id="path11537"
         sodipodi:cx="0"
         sodipodi:cy="100"
         sodipodi:rx="1"
         sodipodi:ry="1"
         d="m 1,100 c 0,0.55228 -0.44771525,1 -1,1 -0.55228475,0 -1,-0.44772 -1,-1 0,-0.552285 0.44771525,-1 1,-1 0.55228475,0 1,0.447715 1,1 z"
         transform="matrix(0.5,0,0,0.5,15.5,977.8622)" />
      <path
         transform="matrix(0.5,0,0,0.5,23.5,977.8622)"
         d="m 1,100 c 0,0.55228 -0.44771525,1 -1,1 -0.55228475,0 -1,-0.44772 -1,-1 0,-0.552285 0.44771525,-1 1,-1 0.55228475,0 1,0.447715 1,1 z"
         sodipodi:ry="1"
         sodipodi:rx="1"
         sodipodi:cy="100"
         sodipodi:cx="0"
         id="path11539"
         style="opacity:0.3;color:#000000;fill:#407bbb;fill-opacity:1;fill-rule:nonzero;stroke:none;stroke-width:0.99999994000000003;marker:none;visibility:visible;display:inline;overflow:visible;enable-background:new"
         sodipodi:type="arc" />
      <path
         sodipodi:type="arc"
         style="opacity:0.3;color:#000000;fill:#407bbb;fill-opacity:1;fill-rule:nonzero;stroke:none;stroke-width:0.99999994000000003;marker:none;visibility:visible;display:inline;overflow:visible;enable-background:new"
         id="path11547"
         sodipodi:cx="0"
         sodipodi:cy="100"
         sodipodi:rx="1"
         sodipodi:ry="1"
         d="m 1,100 c 0,0.55228 -0.44771525,1 -1,1 -0.55228475,0 -1,-0.44772 -1,-1 0,-0.552285 0.44771525,-1 1,-1 0.55228475,0 1,0.447715 1,1 z"
         transform="matrix(0.5,0,0,0.5,31.5,993.8622)" />
      <path
         transform="matrix(0.5,0,0,0.5,31.5,985.8622)"
         d="m 1,100 c 0,0.55228 -0.44771525,1 -1,1 -0.55228475,0 -1,-0.44772 -1,-1 0,-0.552285 0.44771525,-1 1,-1 0.55228475,0 1,0.447715 1,1 z"
         sodipodi:ry="1"
         sodipodi:rx="1"
         sodipodi:cy="100"
         sodipodi:cx="0"
         id="path11549"
         style="opacity:0.3;color:#000000;fill:#407bbb;fill-opacity:1;fill-rule:nonzero;stroke:none;stroke-width:0.99999994000000003;marker:none;visibility:visible;display:inline;overflow:visible;enable-background:new"
         sodipodi:type="arc" />
      <path
         sodipodi:type="arc"
         style="opacity:0.3;color:#000000;fill:#407bbb;fill-opacity:1;fill-rule:nonzero;stroke:none;stroke-width:0.99999994000000003;marker:none;visibility:visible;display:inline;overflow:visible;enable-background:new"
         id="path11551"
         sodipodi:cx="0"
         sodipodi:cy="100"
         sodipodi:rx="1"
         sodipodi:ry="1"
         d="m 1,100 c 0,0.55228 -0.44771525,1 -1,1 -0.55228475,0 -1,-0.44772 -1,-1 0,-0.552285 0.44771525,-1 1,-1 0.55228475,0 1,0.447715 1,1 z"
         transform="matrix(0.5,0,0,0.5,31.5,977.8622)" />
    </g>
    <use
       x="0"
       y="0"
       xlink:href="#g11553"
       id="use11570"
       transform="translate(32,0)"
       width="64"
       height="64" />
    <use
       x="0"
       y="0"
       xlink:href="#use11570"
       id="use11572"
       transform="translate(0,-32)"
       width="64"
       height="64" />
    <use
       x="0"
       y="0"
       xlink:href="#use11572"
       id="use11574"
       transform="translate(-32,0)"
       width="64"
       height="64" />
  </g>
</svg>
